<?xml version="1.0" encoding="UTF-8" standalone="no"?>
<!-- Created with Inkscape (http://www.inkscape.org/) -->

<svg
   version="1.1"
   id="svg9"
   width="1064"
   height="286.66666"
   viewBox="0 0 1064 286.66666"
   sodipodi:docname="sscg_silk_image.svg"
   inkscape:version="1.1.1 (3bf5ae0d25, 2021-09-20)"
   xmlns:inkscape="http://www.inkscape.org/namespaces/inkscape"
   xmlns:sodipodi="http://sodipodi.sourceforge.net/DTD/sodipodi-0.dtd"
   xmlns="http://www.w3.org/2000/svg"
   xmlns:svg="http://www.w3.org/2000/svg">
  <defs
     id="defs13" />
  <sodipodi:namedview
     id="namedview11"
     pagecolor="#ffffff"
     bordercolor="#666666"
     borderopacity="1.0"
     inkscape:pageshadow="2"
     inkscape:pageopacity="0.0"
     inkscape:pagecheckerboard="0"
     showgrid="false"
     inkscape:zoom="1.1005639"
     inkscape:cx="775.51153"
     inkscape:cy="143.56277"
     inkscape:window-width="1920"
     inkscape:window-height="1080"
     inkscape:window-x="1920"
     inkscape:window-y="0"
     inkscape:window-maximized="1"
     inkscape:current-layer="g15" />
  <g
     inkscape:groupmode="layer"
     inkscape:label="Image"
     id="g15">
    <path
       style="fill:#000000;stroke-width:1.33333"
       d="m 320.61117,268.76078 c -4.88549,-4.09815 -6.81582,-4.72784 -20.66666,-6.74165 -8.40282,-1.22171 -15.93484,-2.9258 -16.73786,-3.78687 -0.803,-0.86108 -2.81353,-6.3656 -4.46785,-12.23227 -4.39364,-15.58109 -14.93764,-50.60202 -15.37281,-51.05938 -0.20551,-0.216 -11.69694,0.81745 -25.5365,2.29656 -13.83954,1.47909 -42.86282,4.22497 -64.49616,6.10195 -21.63333,1.87697 -52.23333,4.59028 -68,6.02957 -15.766663,1.43929 -43.066663,3.81657 -60.666663,5.28285 -17.6,1.46627 -34.8500003,3.02581 -38.3333337,3.46565 L 0,218.9169 v -7.3158 c 0,-5.38144 0.54707195,-7.52573 2.0690377,-8.10977 1.1379708,-0.43668 14.1879703,-1.71972 28.9999993,-2.8512 63.557719,-4.85513 142.444933,-11.6312 170.264293,-14.62496 55.59646,-5.98299 57.33334,-6.23467 57.33334,-8.30781 0,-3.13279 -12.0784,-43.598 -13.42346,-44.97139 -1.71433,-1.75047 -134.24085,21.34176 -146.226013,25.47931 -1.358157,0.46886 -0.324849,-1.28086 2.447493,-4.14438 4.67459,-4.82834 5.54059,-5.12365 33.66464,-11.47922 C 228.28999,121.53889 340.65289,102.35337 400,97.366055 c 9.16667,-0.770333 18.98932,-1.645483 21.82811,-1.944777 7.42384,-0.782695 4.66978,0.864876 -10.49478,6.278352 -11.0248,3.93565 -22.77674,6.27593 -67.87556,13.51673 -29.99822,4.81634 -54.78373,8.99849 -55.0789,9.29366 -0.29518,0.29517 3.8967,7.65117 9.31528,16.34666 5.41857,8.69549 11.90409,19.24297 14.41224,23.43884 2.82017,4.71782 5.47904,7.64328 6.96805,7.66666 2.52359,0.0396 80.3578,-9.54922 124.92556,-15.39032 29.28761,-3.83846 64.89797,-9.26808 75.0144,-11.43766 6.35591,-1.36311 6.87753,-1.26578 9.1662,1.71022 3.38501,4.4016 3.09224,5.9143 -1.51393,7.82224 -4.3044,1.78295 -4.70791,3.39834 -2.6759,10.7127 2.19751,7.91004 8.9209,17.07854 15.65792,21.3523 7.03638,4.46366 4.45386,4.3922 39.68464,1.09804 29.07991,-2.71902 63.2834,-11.04418 79.92748,-19.45441 7.8855,-3.98452 46.82182,-28.00701 63.9454,-39.4523 l 11.87288,-7.93576 -0.82224,6.94262 c -2.41837,20.41932 -19.63453,38.46987 -50.94445,53.41347 -23.36269,11.15056 -47.66411,15.64888 -107.97907,19.98749 -75.72666,5.44721 -93.2987,8.17633 -142.4119,22.11801 -46.10042,13.08644 -72.01927,24.58833 -96.4312,42.79285 -5.23038,3.90042 -9.73038,7.07991 -10,7.06556 -0.26963,-0.0144 -2.9152,-2.06026 -5.87906,-4.54645 z m 5.52432,-14.18735 c 8.55464,-5.88574 38.74911,-20.26126 55.86451,-26.59696 25.10284,-9.29246 97.20512,-27.94499 108.11111,-27.96786 6.35797,-0.0133 6.33692,-1.38891 -0.0836,-5.46067 -8.24092,-5.22624 -11.823,-12.58984 -11.08535,-22.78786 0.53263,-7.36332 0.41463,-7.737 -2.18961,-6.93448 -6.65812,2.05177 -66.783,28.8117 -94.75256,42.17174 -18.46091,8.81811 -32.46591,14.71887 -35.18722,14.82551 -4.39858,0.17237 -4.80557,-0.28144 -15.08652,-16.82285 -9.98032,-16.05772 -10.80137,-16.99766 -14.81278,-16.95776 -5.13242,0.0511 -31.58743,3.52058 -32.30338,4.23654 -0.27953,0.27952 0.96884,5.87694 2.77416,12.43868 1.80532,6.56175 3.2824,12.58971 3.2824,13.39544 0,0.80575 -2.46174,2.20255 -5.47053,3.104 l -5.47053,1.63901 0.87276,6.23871 c 1.33865,9.56908 4.45794,19.60116 7.11478,22.88223 3.00995,3.71712 13.08667,6.48277 24.04662,6.59982 7.30506,0.078 9.21816,-0.45473 14.37573,-4.00324 z m 57.47444,-55.38439 c 18.91454,-9.24604 39.40414,-19.18198 45.53244,-22.07986 6.12831,-2.89789 10.92831,-5.45118 10.66667,-5.674 -0.26164,-0.22281 -13.67571,1.54291 -29.80904,3.92384 -16.13333,2.38094 -41.49563,5.98572 -56.36065,8.01063 -26.81407,3.65263 -27.01299,3.70383 -25.20966,6.48935 0.99972,1.54421 4.41456,7.00766 7.58854,12.141 6.99216,11.3086 9.19624,13.99999 11.46501,13.99999 0.95515,0 17.21215,-7.56493 36.12669,-16.81095 z M 298.32031,174.6252 c 7.5095,-0.87378 13.44858,-1.97188 13.19797,-2.44027 -0.49627,-0.92749 -27.79452,-45.93148 -28.25715,-46.58484 -0.47692,-0.67353 -13.48817,1.30416 -15.08896,2.2935 -1.06013,0.6552 -0.1064,6.01003 3.23871,18.18421 9.0672,32.99908 8.51479,31.45121 10.98047,30.76724 1.25142,-0.34715 8.41945,-1.34608 15.92896,-2.21984 z M 538.66667,137.8 c 0,-3.08578 4.23218,-17.02571 6.52966,-21.50734 6.86778,-13.39677 22.86782,-22.822042 44.80367,-26.392854 16.45909,-2.679283 53.23828,-1.966333 77.33333,1.499072 15.39748,2.214502 22.90339,4.586648 14.6,4.614145 -9.88424,0.03273 -25.63165,11.230207 -34.42569,24.478977 l -4.5796,6.89948 -44.46403,5.05325 c -59.45316,6.75673 -59.79734,6.78756 -59.79734,5.35527 z m 45.54993,-29.939 c 3.54753,-2.27644 6.43121,-4.52644 6.40817,-5 -0.0231,-0.47355 -1.48044,-1.90688 -3.23865,-3.185165 -3.06184,-2.226072 -3.52432,-2.202211 -10.95811,0.565385 -9.99424,3.72084 -10.8502,4.43659 -10.08606,8.43391 0.96152,5.02986 9.36398,4.64716 17.87465,-0.81413 z m 142.12979,2.41331 c -2.74282,-1.61754 -4.99056,-3.24098 -4.99498,-3.60765 -0.004,-0.36666 22.63971,-6.60384 50.32028,-13.860381 91.30678,-23.93635 180.72384,-48.424257 254.01281,-69.564385 18.8932,-5.449709 35.2432,-9.908561 36.3334,-9.908561 1.3577,0 1.9821,1.400808 1.9821,4.447076 v 4.447076 l -34.3333,9.691461 c -18.8834,5.330304 -42.43337,11.987665 -52.33337,14.794134 -17.00701,4.821177 -116.90328,32.131178 -204.31972,55.85766 -21.80918,5.91942 -40.10918,10.73603 -40.66666,10.70357 -0.5575,-0.0325 -3.25774,-1.38246 -6.00056,-3 z"
       id="path117" />
  </g>
</svg>
