%FSLAX45Y45*%
G04 Gerber Fmt 4.5, Leading zero omitted, Abs format (unit mm)*
G04 Created by KiCad (PCBNEW 6.0.5-a6ca702e91~116~ubuntu21.10.1) date 2022-05-27 18:57:24*
%MOMM*%
%LPD*%
G01*
G04 APERTURE LIST*
%TA.AperFunction,Profile*%
%ADD10C,0.050000*%
%TD*%
%ADD11C,0.200000*%
G04 APERTURE END LIST*
D10*
X7988300Y-13500000D02*
X7988300Y-11000000D01*
X12288300Y-13500000D02*
X7988300Y-13500000D01*
X12288300Y-11000000D02*
X12288300Y-13500000D01*
X7988300Y-11000000D02*
X12288300Y-11000000D01*
D11*
X8243419Y-13812976D02*
X8243419Y-13612976D01*
X8291038Y-13612976D01*
X8319609Y-13622500D01*
X8338657Y-13641548D01*
X8348181Y-13660595D01*
X8357705Y-13698690D01*
X8357705Y-13727262D01*
X8348181Y-13765357D01*
X8338657Y-13784405D01*
X8319609Y-13803452D01*
X8291038Y-13812976D01*
X8243419Y-13812976D01*
X8443419Y-13812976D02*
X8443419Y-13679643D01*
X8443419Y-13717738D02*
X8452943Y-13698690D01*
X8462467Y-13689167D01*
X8481514Y-13679643D01*
X8500562Y-13679643D01*
X8567229Y-13812976D02*
X8567229Y-13679643D01*
X8567229Y-13612976D02*
X8557705Y-13622500D01*
X8567229Y-13632024D01*
X8576752Y-13622500D01*
X8567229Y-13612976D01*
X8567229Y-13632024D01*
X8691038Y-13812976D02*
X8671990Y-13803452D01*
X8662467Y-13784405D01*
X8662467Y-13612976D01*
X8795800Y-13812976D02*
X8776752Y-13803452D01*
X8767229Y-13784405D01*
X8767229Y-13612976D01*
X9024371Y-13812976D02*
X9024371Y-13612976D01*
X9091038Y-13755833D01*
X9157705Y-13612976D01*
X9157705Y-13812976D01*
X9338657Y-13812976D02*
X9338657Y-13708214D01*
X9329133Y-13689167D01*
X9310086Y-13679643D01*
X9271990Y-13679643D01*
X9252943Y-13689167D01*
X9338657Y-13803452D02*
X9319610Y-13812976D01*
X9271990Y-13812976D01*
X9252943Y-13803452D01*
X9243419Y-13784405D01*
X9243419Y-13765357D01*
X9252943Y-13746309D01*
X9271990Y-13736786D01*
X9319610Y-13736786D01*
X9338657Y-13727262D01*
X9433895Y-13679643D02*
X9433895Y-13879643D01*
X9433895Y-13689167D02*
X9452943Y-13679643D01*
X9491038Y-13679643D01*
X9510086Y-13689167D01*
X9519610Y-13698690D01*
X9529133Y-13717738D01*
X9529133Y-13774881D01*
X9519610Y-13793928D01*
X9510086Y-13803452D01*
X9491038Y-13812976D01*
X9452943Y-13812976D01*
X9433895Y-13803452D01*
X9614848Y-13793928D02*
X9624371Y-13803452D01*
X9614848Y-13812976D01*
X9605324Y-13803452D01*
X9614848Y-13793928D01*
X9614848Y-13812976D01*
X9614848Y-13689167D02*
X9624371Y-13698690D01*
X9614848Y-13708214D01*
X9605324Y-13698690D01*
X9614848Y-13689167D01*
X9614848Y-13708214D01*
M02*
