%TF.GenerationSoftware,KiCad,Pcbnew,6.0.5-a6ca702e91~116~ubuntu21.10.1*%
%TF.CreationDate,2022-05-21T13:53:58+10:00*%
%TF.ProjectId,FlarmDisplay,466c6172-6d44-4697-9370-6c61792e6b69,rev?*%
%TF.SameCoordinates,Original*%
%TF.FileFunction,Copper,L1,Top*%
%TF.FilePolarity,Positive*%
%FSLAX46Y46*%
G04 Gerber Fmt 4.6, Leading zero omitted, Abs format (unit mm)*
G04 Created by KiCad (PCBNEW 6.0.5-a6ca702e91~116~ubuntu21.10.1) date 2022-05-21 13:53:58*
%MOMM*%
%LPD*%
G01*
G04 APERTURE LIST*
G04 Aperture macros list*
%AMRoundRect*
0 Rectangle with rounded corners*
0 $1 Rounding radius*
0 $2 $3 $4 $5 $6 $7 $8 $9 X,Y pos of 4 corners*
0 Add a 4 corners polygon primitive as box body*
4,1,4,$2,$3,$4,$5,$6,$7,$8,$9,$2,$3,0*
0 Add four circle primitives for the rounded corners*
1,1,$1+$1,$2,$3*
1,1,$1+$1,$4,$5*
1,1,$1+$1,$6,$7*
1,1,$1+$1,$8,$9*
0 Add four rect primitives between the rounded corners*
20,1,$1+$1,$2,$3,$4,$5,0*
20,1,$1+$1,$4,$5,$6,$7,0*
20,1,$1+$1,$6,$7,$8,$9,0*
20,1,$1+$1,$8,$9,$2,$3,0*%
G04 Aperture macros list end*
%TA.AperFunction,SMDPad,CuDef*%
%ADD10RoundRect,0.140000X0.140000X0.170000X-0.140000X0.170000X-0.140000X-0.170000X0.140000X-0.170000X0*%
%TD*%
%TA.AperFunction,SMDPad,CuDef*%
%ADD11R,1.100000X2.000000*%
%TD*%
%TA.AperFunction,SMDPad,CuDef*%
%ADD12R,0.800000X0.800000*%
%TD*%
%TA.AperFunction,SMDPad,CuDef*%
%ADD13RoundRect,0.243750X-0.243750X-0.456250X0.243750X-0.456250X0.243750X0.456250X-0.243750X0.456250X0*%
%TD*%
%TA.AperFunction,SMDPad,CuDef*%
%ADD14RoundRect,0.243750X0.456250X-0.243750X0.456250X0.243750X-0.456250X0.243750X-0.456250X-0.243750X0*%
%TD*%
%TA.AperFunction,SMDPad,CuDef*%
%ADD15RoundRect,0.243750X-0.516999X-0.017031X-0.273249X-0.439219X0.516999X0.017031X0.273249X0.439219X0*%
%TD*%
%TA.AperFunction,SMDPad,CuDef*%
%ADD16RoundRect,0.243750X-0.273249X0.439219X-0.516999X0.017031X0.273249X-0.439219X0.516999X-0.017031X0*%
%TD*%
%TA.AperFunction,SMDPad,CuDef*%
%ADD17RoundRect,0.243750X-0.017031X0.516999X-0.439219X0.273249X0.017031X-0.516999X0.439219X-0.273249X0*%
%TD*%
%TA.AperFunction,SMDPad,CuDef*%
%ADD18RoundRect,0.243750X0.516999X0.017031X0.273249X0.439219X-0.516999X-0.017031X-0.273249X-0.439219X0*%
%TD*%
%TA.AperFunction,SMDPad,CuDef*%
%ADD19RoundRect,0.243750X0.273249X-0.439219X0.516999X-0.017031X-0.273249X0.439219X-0.516999X0.017031X0*%
%TD*%
%TA.AperFunction,ComponentPad*%
%ADD20R,1.700000X1.700000*%
%TD*%
%TA.AperFunction,ComponentPad*%
%ADD21O,1.700000X1.700000*%
%TD*%
%TA.AperFunction,SMDPad,CuDef*%
%ADD22RoundRect,0.135000X0.185000X-0.135000X0.185000X0.135000X-0.185000X0.135000X-0.185000X-0.135000X0*%
%TD*%
%TA.AperFunction,SMDPad,CuDef*%
%ADD23RoundRect,0.243750X0.439219X0.273249X0.017031X0.516999X-0.439219X-0.273249X-0.017031X-0.516999X0*%
%TD*%
%TA.AperFunction,SMDPad,CuDef*%
%ADD24RoundRect,0.243750X-0.439219X-0.273249X-0.017031X-0.516999X0.439219X0.273249X0.017031X0.516999X0*%
%TD*%
%TA.AperFunction,SMDPad,CuDef*%
%ADD25RoundRect,0.243750X0.017031X-0.516999X0.439219X-0.273249X-0.017031X0.516999X-0.439219X0.273249X0*%
%TD*%
%TA.AperFunction,SMDPad,CuDef*%
%ADD26RoundRect,0.062500X0.062500X-0.325000X0.062500X0.325000X-0.062500X0.325000X-0.062500X-0.325000X0*%
%TD*%
%TA.AperFunction,SMDPad,CuDef*%
%ADD27RoundRect,0.062500X0.325000X-0.062500X0.325000X0.062500X-0.325000X0.062500X-0.325000X-0.062500X0*%
%TD*%
%TA.AperFunction,SMDPad,CuDef*%
%ADD28R,2.450000X2.450000*%
%TD*%
%TA.AperFunction,SMDPad,CuDef*%
%ADD29R,1.450000X1.000000*%
%TD*%
%TA.AperFunction,SMDPad,CuDef*%
%ADD30R,1.300000X1.300000*%
%TD*%
%TA.AperFunction,SMDPad,CuDef*%
%ADD31R,1.300000X2.000000*%
%TD*%
%TA.AperFunction,SMDPad,CuDef*%
%ADD32RoundRect,0.140000X-0.170000X0.140000X-0.170000X-0.140000X0.170000X-0.140000X0.170000X0.140000X0*%
%TD*%
%TA.AperFunction,SMDPad,CuDef*%
%ADD33RoundRect,0.135000X-0.185000X0.135000X-0.185000X-0.135000X0.185000X-0.135000X0.185000X0.135000X0*%
%TD*%
%TA.AperFunction,SMDPad,CuDef*%
%ADD34R,2.200000X2.000000*%
%TD*%
%TA.AperFunction,ViaPad*%
%ADD35C,0.600000*%
%TD*%
%TA.AperFunction,ViaPad*%
%ADD36C,0.800000*%
%TD*%
%TA.AperFunction,Conductor*%
%ADD37C,0.400000*%
%TD*%
%TA.AperFunction,Conductor*%
%ADD38C,0.300000*%
%TD*%
%TA.AperFunction,Conductor*%
%ADD39C,0.200000*%
%TD*%
G04 APERTURE END LIST*
D10*
X96149000Y-134112000D03*
X95189000Y-134112000D03*
D11*
X88021000Y-124587000D03*
D12*
X88021000Y-122687000D03*
D13*
X100441600Y-114274600D03*
X102316600Y-114274600D03*
D14*
X111592200Y-123444000D03*
X111592200Y-121569000D03*
D15*
X109763400Y-116586000D03*
X110700900Y-118209798D03*
X108026950Y-117577501D03*
X108964450Y-119201299D03*
D14*
X109611000Y-123444000D03*
X109611000Y-121569000D03*
D13*
X100441600Y-112293400D03*
X102316600Y-112293400D03*
D16*
X108974900Y-125810906D03*
X108037400Y-127434704D03*
D17*
X106311904Y-129160200D03*
X104688106Y-130097700D03*
D18*
X94712800Y-127439794D03*
X93775300Y-125815996D03*
D16*
X110703200Y-126796800D03*
X109765700Y-128420598D03*
D13*
X82814000Y-132080000D03*
X84689000Y-132080000D03*
X82791000Y-127254000D03*
X84666000Y-127254000D03*
D18*
X92999400Y-128447800D03*
X92061900Y-126824002D03*
D13*
X118501000Y-119507000D03*
X120376000Y-119507000D03*
X118501000Y-122428000D03*
X120376000Y-122428000D03*
D19*
X92083000Y-118200000D03*
X93020500Y-116576202D03*
D13*
X118501000Y-125349000D03*
X120376000Y-125349000D03*
X118501000Y-128270000D03*
X120376000Y-128270000D03*
D20*
X113421000Y-133096000D03*
D21*
X115961000Y-133096000D03*
X118501000Y-133096000D03*
X121041000Y-133096000D03*
D22*
X97546000Y-118745000D03*
X97546000Y-117725000D03*
X120533000Y-113796000D03*
X120533000Y-112776000D03*
D23*
X98054000Y-130124200D03*
X96430202Y-129186700D03*
D17*
X107297798Y-130888500D03*
X105674000Y-131826000D03*
D23*
X97038000Y-131851400D03*
X95414202Y-130913900D03*
D14*
X91170600Y-123441600D03*
X91170600Y-121566600D03*
X93151800Y-123444000D03*
X93151800Y-121569000D03*
D24*
X104682001Y-114923450D03*
X106305799Y-115860950D03*
X105674000Y-113207800D03*
X107297798Y-114145300D03*
D13*
X100444000Y-130733800D03*
X102319000Y-130733800D03*
X100446200Y-132715000D03*
X102321200Y-132715000D03*
D25*
X95439602Y-114094500D03*
X97063400Y-113157000D03*
X96433106Y-115822900D03*
X98056904Y-114885400D03*
D26*
X99852000Y-126193500D03*
X100352000Y-126193500D03*
X100852000Y-126193500D03*
X101352000Y-126193500D03*
X101852000Y-126193500D03*
X102352000Y-126193500D03*
D27*
X103089500Y-125456000D03*
X103089500Y-124956000D03*
X103089500Y-124456000D03*
X103089500Y-123956000D03*
X103089500Y-123456000D03*
X103089500Y-122956000D03*
D26*
X102352000Y-122218500D03*
X101852000Y-122218500D03*
X101352000Y-122218500D03*
X100852000Y-122218500D03*
X100352000Y-122218500D03*
X99852000Y-122218500D03*
D27*
X99114500Y-122956000D03*
X99114500Y-123456000D03*
X99114500Y-123956000D03*
X99114500Y-124456000D03*
X99114500Y-124956000D03*
X99114500Y-125456000D03*
D28*
X101102000Y-124206000D03*
D29*
X94498000Y-132842000D03*
X86923000Y-132842000D03*
D13*
X82814000Y-129667000D03*
X84689000Y-129667000D03*
D19*
X93783000Y-119200000D03*
X94720500Y-117576202D03*
D13*
X118499000Y-116587000D03*
X120374000Y-116587000D03*
D30*
X112295000Y-112211000D03*
D31*
X117745000Y-113311000D03*
D30*
X112295000Y-114461000D03*
D32*
X97038000Y-123317000D03*
X97038000Y-124277000D03*
D33*
X87894000Y-129413000D03*
X87894000Y-130433000D03*
D34*
X85204000Y-111642400D03*
X85204000Y-122042400D03*
D35*
X113802000Y-118237000D03*
X116596000Y-119761000D03*
X114056000Y-119761000D03*
X115326000Y-118999000D03*
X101102000Y-125095000D03*
X100340000Y-124587000D03*
X102118000Y-124079000D03*
X101356000Y-123317000D03*
X85862000Y-117475000D03*
X86624000Y-118237000D03*
X85100000Y-116713000D03*
X89418000Y-123571000D03*
X121549000Y-126873000D03*
X121930000Y-121412000D03*
X93990000Y-130683000D03*
X91196000Y-128235000D03*
X108976000Y-129667000D03*
X114437000Y-123698000D03*
X104277000Y-128778000D03*
X89799000Y-121412000D03*
X110119000Y-113284000D03*
X109484000Y-115331000D03*
X83449000Y-111379000D03*
X84211000Y-125984000D03*
X119898000Y-115062000D03*
X93101000Y-112395000D03*
X80782000Y-120396000D03*
X82052000Y-133604000D03*
X108214000Y-112903000D03*
D36*
X99197000Y-119507000D03*
D35*
X84973000Y-125095000D03*
X88910000Y-121412000D03*
X81290000Y-123571000D03*
D36*
X100467000Y-119507000D03*
D35*
X121676000Y-120015000D03*
X81290000Y-116713000D03*
X107516734Y-115926737D03*
X121387000Y-124460000D03*
X96149000Y-123952000D03*
X121422000Y-131191000D03*
X115707000Y-112395000D03*
X112278000Y-124714000D03*
X89799000Y-133604000D03*
X110754000Y-111379000D03*
X80528000Y-113792000D03*
X92974000Y-131445000D03*
X118755000Y-126746000D03*
X115961000Y-124079000D03*
X97292000Y-133858000D03*
X101356000Y-110998000D03*
X111262000Y-124841000D03*
X83830000Y-114300000D03*
X88910000Y-114935000D03*
X106944000Y-111319499D03*
X108341000Y-115951000D03*
X87025474Y-114326990D03*
X106309000Y-117983000D03*
X89037000Y-111252000D03*
X105420000Y-111252000D03*
X89926000Y-115316000D03*
D36*
X105039000Y-120015000D03*
X105293000Y-123190000D03*
D35*
X95260000Y-112268000D03*
X93101000Y-115189000D03*
X92466000Y-119888000D03*
X90053000Y-125857000D03*
X81036000Y-132334000D03*
X83195000Y-125476000D03*
X81290000Y-129667000D03*
X105928000Y-120523000D03*
X117231000Y-115697000D03*
X86497000Y-126238000D03*
X91069000Y-118999000D03*
X94371000Y-115189000D03*
X115453000Y-115570000D03*
X102880000Y-110744000D03*
X118501000Y-115189000D03*
X117866000Y-126619000D03*
X119390000Y-118110000D03*
X104150000Y-118653500D03*
X86370000Y-131064000D03*
X87513000Y-127381000D03*
X96657000Y-119507000D03*
X121930000Y-115062000D03*
X89799000Y-127635000D03*
X97800000Y-122428000D03*
X106690000Y-126492000D03*
X95387000Y-119634000D03*
X89799000Y-112014000D03*
X105420000Y-126492000D03*
X90815000Y-114935000D03*
X91450000Y-119888000D03*
X95260000Y-123444000D03*
X103642000Y-126619000D03*
X82560000Y-114935000D03*
X102626000Y-128270000D03*
X96149000Y-125349000D03*
X107579000Y-120269000D03*
X96784000Y-126492000D03*
X81036000Y-114554000D03*
X83576000Y-120396000D03*
D36*
X105801000Y-119253000D03*
D35*
X81163000Y-115824000D03*
X96530000Y-122428000D03*
D37*
X107297798Y-113819202D02*
X108214000Y-112903000D01*
X102321200Y-130736000D02*
X102319000Y-130733800D01*
D38*
X111592200Y-121569000D02*
X109611000Y-121569000D01*
D37*
X104688106Y-129189106D02*
X104277000Y-128778000D01*
D38*
X95414202Y-130913900D02*
X95414202Y-130202700D01*
X120914000Y-122428000D02*
X121930000Y-121412000D01*
D37*
X91170600Y-121566600D02*
X93149400Y-121566600D01*
X106305799Y-115860950D02*
X106305799Y-115137299D01*
X93775300Y-125815996D02*
X93069906Y-125815996D01*
X109765700Y-128877300D02*
X108976000Y-129667000D01*
D38*
X84666000Y-127254000D02*
X84666000Y-126439000D01*
D37*
X108037400Y-127434704D02*
X108779806Y-127434704D01*
D38*
X94720500Y-117576202D02*
X95267703Y-117028999D01*
D37*
X109765700Y-128420598D02*
X109765700Y-128877300D01*
X104818749Y-117348000D02*
X106305799Y-115860950D01*
X104688106Y-130097700D02*
X104688106Y-129189106D01*
D38*
X94201810Y-125389486D02*
X93775300Y-125815996D01*
D37*
X107297798Y-114145300D02*
X107297798Y-113819202D01*
X93020500Y-116576202D02*
X92212000Y-115767702D01*
X97063400Y-113891896D02*
X98056904Y-114885400D01*
D38*
X95267703Y-117028999D02*
X96976001Y-117028999D01*
D37*
X120376000Y-125700000D02*
X121549000Y-126873000D01*
D38*
X94947999Y-122793999D02*
X94201810Y-123540188D01*
D37*
X97063400Y-113157000D02*
X97063400Y-113891896D01*
D38*
X97292000Y-123317000D02*
X97038000Y-123317000D01*
X109709399Y-119201299D02*
X108964450Y-119201299D01*
X85204000Y-111642400D02*
X83712400Y-111642400D01*
X112295000Y-116615698D02*
X112295000Y-114461000D01*
D37*
X84689000Y-127277000D02*
X84666000Y-127254000D01*
X120374000Y-116587000D02*
X120374000Y-115538000D01*
X87071000Y-124587000D02*
X84666000Y-126992000D01*
X102321200Y-130733800D02*
X104277000Y-128778000D01*
X84666000Y-126992000D02*
X84666000Y-127254000D01*
D38*
X110700900Y-118209798D02*
X112295000Y-116615698D01*
X84689000Y-132080000D02*
X83165000Y-133604000D01*
X95572001Y-122793999D02*
X94947999Y-122793999D01*
X98056904Y-115948096D02*
X98056904Y-114885400D01*
D37*
X93069906Y-125815996D02*
X92061900Y-126824002D01*
D38*
X96728000Y-123317000D02*
X96489001Y-123078001D01*
D37*
X106305799Y-115137299D02*
X107297798Y-114145300D01*
D38*
X111592200Y-121569000D02*
X112308000Y-121569000D01*
X96489001Y-123078001D02*
X95856003Y-123078001D01*
D37*
X112295000Y-114461000D02*
X111296000Y-114461000D01*
X84689000Y-132080000D02*
X84689000Y-129667000D01*
D38*
X109484000Y-115331000D02*
X109484000Y-113919000D01*
X97038000Y-123317000D02*
X96728000Y-123317000D01*
D37*
X92061900Y-126824002D02*
X92061900Y-127369100D01*
X120376000Y-125349000D02*
X120376000Y-125700000D01*
X111296000Y-114461000D02*
X110119000Y-113284000D01*
X120376000Y-128270000D02*
X120376000Y-128046000D01*
X84689000Y-129667000D02*
X84689000Y-127277000D01*
X102880000Y-117348000D02*
X104818749Y-117348000D01*
X102316600Y-114274600D02*
X102316600Y-116784600D01*
X93020500Y-116576202D02*
X93720500Y-116576202D01*
X104688106Y-130097700D02*
X104688106Y-130840106D01*
X88021000Y-124587000D02*
X87071000Y-124587000D01*
X102321200Y-132715000D02*
X102321200Y-130736000D01*
X102316600Y-112293400D02*
X102316600Y-114274600D01*
D38*
X110700900Y-118209798D02*
X109709399Y-119201299D01*
X109484000Y-113919000D02*
X110119000Y-113284000D01*
X96976001Y-117028999D02*
X98056904Y-115948096D01*
X94201810Y-123540188D02*
X94201810Y-125389486D01*
D37*
X102319000Y-130733800D02*
X102321200Y-130733800D01*
D38*
X112308000Y-121569000D02*
X114437000Y-123698000D01*
D37*
X88402000Y-124587000D02*
X89418000Y-123571000D01*
D38*
X95183302Y-130683000D02*
X95414202Y-130913900D01*
D37*
X91170600Y-121566600D02*
X89953600Y-121566600D01*
X92212000Y-113284000D02*
X93101000Y-112395000D01*
X92061900Y-127369100D02*
X91196000Y-128235000D01*
X93149400Y-121566600D02*
X93151800Y-121569000D01*
D38*
X83165000Y-133604000D02*
X82052000Y-133604000D01*
D37*
X120374000Y-115538000D02*
X119898000Y-115062000D01*
X120376000Y-128046000D02*
X121549000Y-126873000D01*
X93720500Y-116576202D02*
X94720500Y-117576202D01*
X120376000Y-119858000D02*
X121930000Y-121412000D01*
X89953600Y-121566600D02*
X89799000Y-121412000D01*
D38*
X95414202Y-130202700D02*
X96430202Y-129186700D01*
D37*
X108779806Y-127434704D02*
X109765700Y-128420598D01*
X120376000Y-119507000D02*
X120376000Y-119858000D01*
X104688106Y-130840106D02*
X105674000Y-131826000D01*
D38*
X97931000Y-123956000D02*
X97292000Y-123317000D01*
X83712400Y-111642400D02*
X83449000Y-111379000D01*
X95856003Y-123078001D02*
X95572001Y-122793999D01*
X120376000Y-122428000D02*
X120914000Y-122428000D01*
X84666000Y-126439000D02*
X84211000Y-125984000D01*
D37*
X88021000Y-124587000D02*
X88402000Y-124587000D01*
D38*
X99114500Y-123956000D02*
X97931000Y-123956000D01*
D37*
X102316600Y-116784600D02*
X102880000Y-117348000D01*
X92212000Y-115767702D02*
X92212000Y-113284000D01*
D38*
X93990000Y-130683000D02*
X95183302Y-130683000D01*
X88910000Y-121412000D02*
X88910000Y-121798000D01*
D39*
X87376400Y-122042400D02*
X85204000Y-122042400D01*
D38*
X88910000Y-121798000D02*
X88021000Y-122687000D01*
D39*
X87376400Y-122042400D02*
X88021000Y-122687000D01*
D38*
X81589999Y-117012999D02*
X81589999Y-123271001D01*
D39*
X91323000Y-133604000D02*
X92212000Y-132715000D01*
X92974000Y-131445000D02*
X92974000Y-133083002D01*
D38*
X111586000Y-112211000D02*
X110754000Y-111379000D01*
X97217000Y-124456000D02*
X97038000Y-124277000D01*
X81909999Y-114509451D02*
X81909999Y-116093001D01*
X81290000Y-116713000D02*
X81909999Y-116093001D01*
D39*
X92212000Y-132207000D02*
X92974000Y-131445000D01*
D38*
X81192548Y-113792000D02*
X81909999Y-114509451D01*
D39*
X87894000Y-131871000D02*
X86923000Y-132842000D01*
X92212000Y-132715000D02*
X92212000Y-132207000D01*
X94002998Y-134112000D02*
X95189000Y-134112000D01*
X87685000Y-133604000D02*
X86923000Y-132842000D01*
D38*
X97038000Y-124277000D02*
X96474000Y-124277000D01*
X80528000Y-113792000D02*
X81192548Y-113792000D01*
X112295000Y-112211000D02*
X111586000Y-112211000D01*
X81290000Y-116713000D02*
X81589999Y-117012999D01*
D39*
X87894000Y-130433000D02*
X87894000Y-131871000D01*
D38*
X96474000Y-124277000D02*
X96149000Y-123952000D01*
D39*
X92974000Y-133083002D02*
X94002998Y-134112000D01*
X89799000Y-133604000D02*
X87685000Y-133604000D01*
D38*
X99114500Y-124456000D02*
X97217000Y-124456000D01*
X81589999Y-123271001D02*
X81290000Y-123571000D01*
D39*
X89799000Y-133604000D02*
X91323000Y-133604000D01*
X119009000Y-124079000D02*
X119390000Y-124460000D01*
X119390000Y-126111000D02*
X118755000Y-126746000D01*
X119390000Y-124460000D02*
X119390000Y-126111000D01*
X115961000Y-124079000D02*
X119009000Y-124079000D01*
X96149000Y-134112000D02*
X97038000Y-134112000D01*
X97038000Y-134112000D02*
X97292000Y-133858000D01*
X94498000Y-132842000D02*
X95387000Y-132842000D01*
X96276000Y-132842000D02*
X95387000Y-132842000D01*
X97292000Y-133858000D02*
X96276000Y-132842000D01*
X101356000Y-110998000D02*
X101356000Y-113360200D01*
X101356000Y-113360200D02*
X100441600Y-114274600D01*
X111262000Y-123774200D02*
X111592200Y-123444000D01*
X111262000Y-124841000D02*
X111262000Y-123774200D01*
X105431550Y-114923450D02*
X106182000Y-114173000D01*
X107198000Y-111573499D02*
X106944000Y-111319499D01*
X107198000Y-112903000D02*
X107198000Y-111573499D01*
X104682001Y-114923450D02*
X105431550Y-114923450D01*
X106436000Y-113919000D02*
X106436000Y-113665000D01*
X106436000Y-113665000D02*
X107198000Y-112903000D01*
X106182000Y-114173000D02*
X106436000Y-113919000D01*
X108341000Y-115951000D02*
X109128400Y-115951000D01*
X109128400Y-115951000D02*
X109763400Y-116586000D01*
X107621451Y-117983000D02*
X108026950Y-117577501D01*
X106309000Y-117983000D02*
X107621451Y-117983000D01*
X105420000Y-112953800D02*
X105674000Y-113207800D01*
X105420000Y-111252000D02*
X105420000Y-112953800D01*
X109357000Y-123190000D02*
X109611000Y-123444000D01*
X101958235Y-120015000D02*
X105039000Y-120015000D01*
X100352000Y-122218500D02*
X100352000Y-121621235D01*
X105293000Y-123190000D02*
X109357000Y-123190000D01*
X100352000Y-121621235D02*
X101958235Y-120015000D01*
X100116201Y-111968001D02*
X100441600Y-112293400D01*
X95559999Y-111968001D02*
X100116201Y-111968001D01*
X95260000Y-112268000D02*
X95559999Y-111968001D01*
X103089500Y-123956000D02*
X103646000Y-123956000D01*
X103646000Y-123956000D02*
X105500906Y-125810906D01*
X105500906Y-125810906D02*
X108974900Y-125810906D01*
X93863000Y-115951000D02*
X96305006Y-115951000D01*
X93101000Y-115189000D02*
X93863000Y-115951000D01*
X96305006Y-115951000D02*
X96433106Y-115822900D01*
X104404000Y-125870332D02*
X104404000Y-127252296D01*
X103489668Y-124956000D02*
X104404000Y-125870332D01*
X103089500Y-124956000D02*
X103489668Y-124956000D01*
X104404000Y-127252296D02*
X106311904Y-129160200D01*
X92466000Y-119888000D02*
X93095000Y-119888000D01*
X93095000Y-119888000D02*
X93783000Y-119200000D01*
X102477000Y-126318500D02*
X102477000Y-126731462D01*
X102352000Y-126193500D02*
X102477000Y-126318500D01*
X102477000Y-126731462D02*
X100444000Y-128764462D01*
X100444000Y-128764462D02*
X100444000Y-130733800D01*
X90738800Y-125857000D02*
X93151800Y-123444000D01*
X90053000Y-125857000D02*
X90738800Y-125857000D01*
X101352000Y-126193500D02*
X101352000Y-126725065D01*
X99807065Y-128270000D02*
X98943000Y-128270000D01*
X98054000Y-129159000D02*
X98054000Y-130124200D01*
X98943000Y-128270000D02*
X98054000Y-129159000D01*
X101352000Y-126725065D02*
X99807065Y-128270000D01*
X100352000Y-126593668D02*
X99505874Y-127439794D01*
X99505874Y-127439794D02*
X94712800Y-127439794D01*
X100352000Y-126193500D02*
X100352000Y-126593668D01*
X103093990Y-123530990D02*
X103089500Y-123526500D01*
X107833000Y-124714000D02*
X107198000Y-125349000D01*
X109630010Y-124733010D02*
X110703200Y-125806200D01*
X103089500Y-123526500D02*
X103089500Y-123456000D01*
X107198000Y-125349000D02*
X105674000Y-125349000D01*
X108429311Y-124733010D02*
X108410301Y-124714000D01*
X108410301Y-124714000D02*
X107833000Y-124714000D01*
X105674000Y-125349000D02*
X103855990Y-123530990D01*
X103855990Y-123530990D02*
X103093990Y-123530990D01*
X109630010Y-124733010D02*
X108429311Y-124733010D01*
X110703200Y-125806200D02*
X110703200Y-126796800D01*
X82560000Y-132334000D02*
X82814000Y-132080000D01*
X81036000Y-132334000D02*
X82560000Y-132334000D01*
X106563000Y-128016000D02*
X107297798Y-128750798D01*
X105733402Y-128016000D02*
X106563000Y-128016000D01*
X103089500Y-124456000D02*
X103555367Y-124456000D01*
X104804010Y-125704643D02*
X104804010Y-127086608D01*
X103555367Y-124456000D02*
X104804010Y-125704643D01*
X104804010Y-127086608D02*
X105733402Y-128016000D01*
X107297798Y-128750798D02*
X107297798Y-130888500D01*
X83195000Y-125476000D02*
X83195000Y-126850000D01*
X83195000Y-126850000D02*
X82791000Y-127254000D01*
X101356000Y-131805200D02*
X100446200Y-132715000D01*
X102877010Y-126492000D02*
X102877010Y-127002990D01*
X103089500Y-126279510D02*
X102877010Y-126492000D01*
X101356000Y-128524000D02*
X101356000Y-131805200D01*
X102877010Y-127002990D02*
X101356000Y-128524000D01*
X103089500Y-125456000D02*
X103089500Y-126279510D01*
X81290000Y-129667000D02*
X82814000Y-129667000D01*
X99197000Y-130810000D02*
X98054000Y-131953000D01*
X98054000Y-131953000D02*
X97139600Y-131953000D01*
X101852000Y-126193500D02*
X101852000Y-126790764D01*
X99197000Y-129445764D02*
X99197000Y-130810000D01*
X101852000Y-126790764D02*
X99197000Y-129445764D01*
X97139600Y-131953000D02*
X97038000Y-131851400D01*
X101807964Y-120730970D02*
X105720030Y-120730970D01*
X117231000Y-115697000D02*
X117609000Y-115697000D01*
X105720030Y-120730970D02*
X105928000Y-120523000D01*
X100852000Y-121686935D02*
X101807964Y-120730970D01*
X100852000Y-122218500D02*
X100852000Y-121686935D01*
X117609000Y-115697000D02*
X118499000Y-116587000D01*
X99671563Y-127839804D02*
X95581014Y-127839804D01*
X100852000Y-126659366D02*
X99671563Y-127839804D01*
X100852000Y-126193500D02*
X100852000Y-126659366D01*
X95581014Y-127839804D02*
X94973018Y-128447800D01*
X94973018Y-128447800D02*
X92999400Y-128447800D01*
X103515000Y-121539000D02*
X107521301Y-121539000D01*
X117626520Y-120381480D02*
X118501000Y-119507000D01*
X103106980Y-121130980D02*
X103515000Y-121539000D01*
X108678821Y-120381480D02*
X117626520Y-120381480D01*
X101352000Y-122218500D02*
X101352000Y-121752633D01*
X101973653Y-121130980D02*
X103106980Y-121130980D01*
X101352000Y-121752633D02*
X101973653Y-121130980D01*
X107521301Y-121539000D02*
X108678821Y-120381480D01*
X86497000Y-126238000D02*
X88374200Y-126238000D01*
X88374200Y-126238000D02*
X91170600Y-123441600D01*
X108610990Y-121396010D02*
X108610990Y-121015010D01*
X116854490Y-120781490D02*
X118501000Y-122428000D01*
X108844510Y-120781490D02*
X116854490Y-120781490D01*
X102139342Y-121530990D02*
X102871990Y-121530990D01*
X108610990Y-121015010D02*
X108844510Y-120781490D01*
X101852000Y-122218500D02*
X101852000Y-121818332D01*
X101852000Y-121818332D02*
X102139342Y-121530990D01*
X103297500Y-121956500D02*
X108050500Y-121956500D01*
X108050500Y-121956500D02*
X108610990Y-121396010D01*
X102871990Y-121530990D02*
X103297500Y-121956500D01*
X91284000Y-118999000D02*
X92083000Y-118200000D01*
X91069000Y-118999000D02*
X91284000Y-118999000D01*
X112172194Y-122555000D02*
X114966194Y-125349000D01*
X114966194Y-125349000D02*
X118501000Y-125349000D01*
X108341000Y-122555000D02*
X112172194Y-122555000D01*
X102352000Y-122218500D02*
X102490010Y-122356510D01*
X102490010Y-122356510D02*
X108142510Y-122356510D01*
X108142510Y-122356510D02*
X108341000Y-122555000D01*
X94371000Y-115163102D02*
X95439602Y-114094500D01*
X94371000Y-115189000D02*
X94371000Y-115163102D01*
X108595000Y-124333000D02*
X109865998Y-124333000D01*
X104780699Y-123890001D02*
X108152001Y-123890001D01*
X108152001Y-123890001D02*
X108595000Y-124333000D01*
X113802998Y-128270000D02*
X118501000Y-128270000D01*
X103089500Y-122956000D02*
X103846698Y-122956000D01*
X109865998Y-124333000D02*
X113802998Y-128270000D01*
X103846698Y-122956000D02*
X104780699Y-123890001D01*
X115453000Y-115570000D02*
X114183000Y-114300000D01*
X114183000Y-114300000D02*
X114183000Y-111887000D01*
X112947999Y-110651999D02*
X102972001Y-110651999D01*
X114183000Y-111887000D02*
X112947999Y-110651999D01*
X102972001Y-110651999D02*
X102880000Y-110744000D01*
X104150000Y-118653500D02*
X102280500Y-118653500D01*
X102280500Y-118653500D02*
X101352000Y-117725000D01*
X101352000Y-117725000D02*
X97546000Y-117725000D01*
X97419000Y-118745000D02*
X96657000Y-119507000D01*
X87513000Y-127381000D02*
X86370000Y-128524000D01*
X97546000Y-118745000D02*
X97419000Y-118745000D01*
X86370000Y-128524000D02*
X86370000Y-131064000D01*
X121799000Y-115062000D02*
X120533000Y-113796000D01*
X121930000Y-115062000D02*
X121799000Y-115062000D01*
X120533000Y-112776000D02*
X118280000Y-112776000D01*
X118280000Y-112776000D02*
X117745000Y-113311000D01*
X98714332Y-123456000D02*
X97800000Y-122541668D01*
X88021000Y-129413000D02*
X89799000Y-127635000D01*
X97800000Y-122541668D02*
X97800000Y-122428000D01*
X87894000Y-129413000D02*
X88021000Y-129413000D01*
X99114500Y-123456000D02*
X98714332Y-123456000D01*
X91025736Y-119888000D02*
X90214001Y-119076265D01*
X90815000Y-116459000D02*
X90815000Y-114935000D01*
X90214001Y-119076265D02*
X90214001Y-117059999D01*
X91450000Y-119888000D02*
X91025736Y-119888000D01*
X90214001Y-117059999D02*
X90815000Y-116459000D01*
X96437999Y-124748999D02*
X96645000Y-124956000D01*
X95260000Y-123444000D02*
X95260000Y-123952000D01*
X96645000Y-124956000D02*
X99114500Y-124956000D01*
X95260000Y-123952000D02*
X96056999Y-124748999D01*
X96056999Y-124748999D02*
X96437999Y-124748999D01*
X96256000Y-125456000D02*
X99114500Y-125456000D01*
X96149000Y-125349000D02*
X96256000Y-125456000D01*
X99553500Y-126492000D02*
X99852000Y-126193500D01*
X96784000Y-126492000D02*
X99553500Y-126492000D01*
X83576000Y-120396000D02*
X83875999Y-120695999D01*
X102154536Y-119253000D02*
X105801000Y-119253000D01*
X99852000Y-121555536D02*
X102154536Y-119253000D01*
X83875999Y-120695999D02*
X98992463Y-120695999D01*
X98992463Y-120695999D02*
X99852000Y-121555536D01*
X99852000Y-122218500D02*
X99852000Y-121555536D01*
X97038000Y-121158000D02*
X96530000Y-121666000D01*
X98562000Y-121158000D02*
X97038000Y-121158000D01*
X96530000Y-121666000D02*
X96530000Y-122428000D01*
X99114500Y-122956000D02*
X99114500Y-121710500D01*
X99114500Y-121710500D02*
X98562000Y-121158000D01*
M02*
