%TF.GenerationSoftware,KiCad,Pcbnew,6.0.5-a6ca702e91~116~ubuntu21.10.1*%
%TF.CreationDate,2022-05-21T13:53:59+10:00*%
%TF.ProjectId,FlarmDisplay,466c6172-6d44-4697-9370-6c61792e6b69,rev?*%
%TF.SameCoordinates,Original*%
%TF.FileFunction,Legend,Bot*%
%TF.FilePolarity,Positive*%
%FSLAX46Y46*%
G04 Gerber Fmt 4.6, Leading zero omitted, Abs format (unit mm)*
G04 Created by KiCad (PCBNEW 6.0.5-a6ca702e91~116~ubuntu21.10.1) date 2022-05-21 13:53:59*
%MOMM*%
%LPD*%
G01*
G04 APERTURE LIST*
G04 Aperture macros list*
%AMRoundRect*
0 Rectangle with rounded corners*
0 $1 Rounding radius*
0 $2 $3 $4 $5 $6 $7 $8 $9 X,Y pos of 4 corners*
0 Add a 4 corners polygon primitive as box body*
4,1,4,$2,$3,$4,$5,$6,$7,$8,$9,$2,$3,0*
0 Add four circle primitives for the rounded corners*
1,1,$1+$1,$2,$3*
1,1,$1+$1,$4,$5*
1,1,$1+$1,$6,$7*
1,1,$1+$1,$8,$9*
0 Add four rect primitives between the rounded corners*
20,1,$1+$1,$2,$3,$4,$5,0*
20,1,$1+$1,$4,$5,$6,$7,0*
20,1,$1+$1,$6,$7,$8,$9,0*
20,1,$1+$1,$8,$9,$2,$3,0*%
G04 Aperture macros list end*
%ADD10C,0.006000*%
%ADD11C,0.120000*%
%ADD12C,0.150000*%
%ADD13R,1.700000X1.700000*%
%ADD14O,1.700000X1.700000*%
%ADD15RoundRect,0.140000X-0.170000X0.140000X-0.170000X-0.140000X0.170000X-0.140000X0.170000X0.140000X0*%
%ADD16RoundRect,0.140000X0.170000X-0.140000X0.170000X0.140000X-0.170000X0.140000X-0.170000X-0.140000X0*%
%ADD17RoundRect,0.140000X0.140000X0.170000X-0.140000X0.170000X-0.140000X-0.170000X0.140000X-0.170000X0*%
%ADD18RoundRect,0.140000X-0.140000X-0.170000X0.140000X-0.170000X0.140000X0.170000X-0.140000X0.170000X0*%
%ADD19RoundRect,0.135000X-0.185000X0.135000X-0.185000X-0.135000X0.185000X-0.135000X0.185000X0.135000X0*%
%ADD20C,2.000000*%
%ADD21R,2.000000X1.500000*%
%ADD22R,2.000000X3.800000*%
%ADD23RoundRect,0.062500X-0.062500X0.325000X-0.062500X-0.325000X0.062500X-0.325000X0.062500X0.325000X0*%
%ADD24RoundRect,0.062500X-0.325000X0.062500X-0.325000X-0.062500X0.325000X-0.062500X0.325000X0.062500X0*%
%ADD25R,2.450000X2.450000*%
%ADD26RoundRect,0.250000X0.475000X-0.250000X0.475000X0.250000X-0.475000X0.250000X-0.475000X-0.250000X0*%
%ADD27RoundRect,0.062500X0.062500X-0.375000X0.062500X0.375000X-0.062500X0.375000X-0.062500X-0.375000X0*%
%ADD28RoundRect,0.062500X0.375000X-0.062500X0.375000X0.062500X-0.375000X0.062500X-0.375000X-0.062500X0*%
%ADD29R,3.450000X3.450000*%
%ADD30R,1.400000X1.200000*%
%ADD31R,0.700000X3.400000*%
%ADD32R,3.150000X2.800000*%
G04 APERTURE END LIST*
D10*
G36*
X120029753Y-110984771D02*
G01*
X120147181Y-111400166D01*
X120312593Y-112001482D01*
X120590551Y-113021954D01*
X120650747Y-113246607D01*
X120668952Y-113316787D01*
X120675511Y-113344746D01*
X120675342Y-113345771D01*
X120674940Y-113347170D01*
X120674318Y-113348919D01*
X120673487Y-113350993D01*
X120672460Y-113353369D01*
X120671248Y-113356021D01*
X120668322Y-113362056D01*
X120664807Y-113368905D01*
X120660799Y-113376371D01*
X120656397Y-113384260D01*
X120651698Y-113392375D01*
X120646901Y-113400328D01*
X120642217Y-113407750D01*
X120637763Y-113414478D01*
X120633657Y-113420350D01*
X120630017Y-113425203D01*
X120626959Y-113428875D01*
X120625686Y-113430217D01*
X120624602Y-113431202D01*
X120623723Y-113431811D01*
X120623364Y-113431968D01*
X120623063Y-113432023D01*
X120621980Y-113429957D01*
X120619862Y-113423882D01*
X120612744Y-113400525D01*
X120588562Y-113314720D01*
X120554126Y-113187712D01*
X120513046Y-113032606D01*
X120370213Y-112493624D01*
X120228639Y-111970862D01*
X120091227Y-111474915D01*
X119960879Y-111016379D01*
X119930341Y-110909268D01*
X119905333Y-110819189D01*
X119888435Y-110755607D01*
X119883835Y-110736709D01*
X119882229Y-110727983D01*
X119882262Y-110726990D01*
X119882360Y-110726031D01*
X119882524Y-110725105D01*
X119882754Y-110724213D01*
X119883051Y-110723355D01*
X119883415Y-110722530D01*
X119883846Y-110721738D01*
X119884345Y-110720979D01*
X119884911Y-110720253D01*
X119885546Y-110719559D01*
X119886250Y-110718898D01*
X119887023Y-110718269D01*
X119887865Y-110717673D01*
X119888777Y-110717109D01*
X119889759Y-110716576D01*
X119890811Y-110716076D01*
X119891935Y-110715606D01*
X119893129Y-110715169D01*
X119894395Y-110714762D01*
X119895733Y-110714387D01*
X119897144Y-110714042D01*
X119898627Y-110713729D01*
X119900183Y-110713446D01*
X119901812Y-110713193D01*
X119903515Y-110712971D01*
X119905292Y-110712779D01*
X119907143Y-110712616D01*
X119909069Y-110712484D01*
X119911070Y-110712382D01*
X119913147Y-110712308D01*
X119917528Y-110712250D01*
X119952827Y-110712250D01*
X120029753Y-110984771D01*
G37*
X120029753Y-110984771D02*
X120147181Y-111400166D01*
X120312593Y-112001482D01*
X120590551Y-113021954D01*
X120650747Y-113246607D01*
X120668952Y-113316787D01*
X120675511Y-113344746D01*
X120675342Y-113345771D01*
X120674940Y-113347170D01*
X120674318Y-113348919D01*
X120673487Y-113350993D01*
X120672460Y-113353369D01*
X120671248Y-113356021D01*
X120668322Y-113362056D01*
X120664807Y-113368905D01*
X120660799Y-113376371D01*
X120656397Y-113384260D01*
X120651698Y-113392375D01*
X120646901Y-113400328D01*
X120642217Y-113407750D01*
X120637763Y-113414478D01*
X120633657Y-113420350D01*
X120630017Y-113425203D01*
X120626959Y-113428875D01*
X120625686Y-113430217D01*
X120624602Y-113431202D01*
X120623723Y-113431811D01*
X120623364Y-113431968D01*
X120623063Y-113432023D01*
X120621980Y-113429957D01*
X120619862Y-113423882D01*
X120612744Y-113400525D01*
X120588562Y-113314720D01*
X120554126Y-113187712D01*
X120513046Y-113032606D01*
X120370213Y-112493624D01*
X120228639Y-111970862D01*
X120091227Y-111474915D01*
X119960879Y-111016379D01*
X119930341Y-110909268D01*
X119905333Y-110819189D01*
X119888435Y-110755607D01*
X119883835Y-110736709D01*
X119882229Y-110727983D01*
X119882262Y-110726990D01*
X119882360Y-110726031D01*
X119882524Y-110725105D01*
X119882754Y-110724213D01*
X119883051Y-110723355D01*
X119883415Y-110722530D01*
X119883846Y-110721738D01*
X119884345Y-110720979D01*
X119884911Y-110720253D01*
X119885546Y-110719559D01*
X119886250Y-110718898D01*
X119887023Y-110718269D01*
X119887865Y-110717673D01*
X119888777Y-110717109D01*
X119889759Y-110716576D01*
X119890811Y-110716076D01*
X119891935Y-110715606D01*
X119893129Y-110715169D01*
X119894395Y-110714762D01*
X119895733Y-110714387D01*
X119897144Y-110714042D01*
X119898627Y-110713729D01*
X119900183Y-110713446D01*
X119901812Y-110713193D01*
X119903515Y-110712971D01*
X119905292Y-110712779D01*
X119907143Y-110712616D01*
X119909069Y-110712484D01*
X119911070Y-110712382D01*
X119913147Y-110712308D01*
X119917528Y-110712250D01*
X119952827Y-110712250D01*
X120029753Y-110984771D01*
G36*
X120609470Y-114758686D02*
G01*
X120601591Y-114749372D01*
X120593927Y-114739684D01*
X120586481Y-114729628D01*
X120579255Y-114719207D01*
X120572252Y-114708426D01*
X120565475Y-114697291D01*
X120558926Y-114685805D01*
X120552609Y-114673973D01*
X120540678Y-114649291D01*
X120529706Y-114623281D01*
X120519713Y-114595982D01*
X120510721Y-114567429D01*
X120502754Y-114537661D01*
X120499647Y-114523773D01*
X120554901Y-114523773D01*
X120554953Y-114525849D01*
X120555121Y-114528027D01*
X120555405Y-114530321D01*
X120555808Y-114532743D01*
X120556328Y-114535310D01*
X120556967Y-114538033D01*
X120557727Y-114540928D01*
X120558606Y-114544008D01*
X120559607Y-114547287D01*
X120561975Y-114554498D01*
X120564836Y-114562671D01*
X120568196Y-114571919D01*
X120572061Y-114582353D01*
X120582115Y-114608818D01*
X120586487Y-114619719D01*
X120590519Y-114629182D01*
X120594284Y-114637295D01*
X120597855Y-114644145D01*
X120601306Y-114649819D01*
X120604710Y-114654405D01*
X120606417Y-114656318D01*
X120608139Y-114657991D01*
X120609886Y-114659436D01*
X120611667Y-114660663D01*
X120613491Y-114661684D01*
X120615367Y-114662509D01*
X120617305Y-114663150D01*
X120619313Y-114663617D01*
X120623576Y-114664074D01*
X120628230Y-114663967D01*
X120633349Y-114663383D01*
X120639005Y-114662411D01*
X120642622Y-114661525D01*
X120645988Y-114660302D01*
X120649103Y-114658755D01*
X120651968Y-114656894D01*
X120654583Y-114654730D01*
X120656949Y-114652273D01*
X120659066Y-114649533D01*
X120660934Y-114646522D01*
X120662555Y-114643251D01*
X120663928Y-114639729D01*
X120665055Y-114635968D01*
X120665935Y-114631978D01*
X120666569Y-114627769D01*
X120666958Y-114623353D01*
X120667102Y-114618741D01*
X120667001Y-114613942D01*
X120666657Y-114608967D01*
X120666069Y-114603828D01*
X120665238Y-114598534D01*
X120664164Y-114593097D01*
X120662849Y-114587527D01*
X120661292Y-114581835D01*
X120659493Y-114576031D01*
X120657455Y-114570126D01*
X120655176Y-114564131D01*
X120652657Y-114558056D01*
X120649900Y-114551912D01*
X120646904Y-114545710D01*
X120643670Y-114539460D01*
X120640198Y-114533173D01*
X120636488Y-114526860D01*
X120632543Y-114520531D01*
X120625804Y-114510253D01*
X120619247Y-114500678D01*
X120613036Y-114492014D01*
X120607333Y-114484470D01*
X120602300Y-114478255D01*
X120600086Y-114475711D01*
X120598101Y-114473577D01*
X120596365Y-114471879D01*
X120594899Y-114470644D01*
X120593722Y-114469898D01*
X120593248Y-114469716D01*
X120592855Y-114469666D01*
X120592481Y-114469717D01*
X120592063Y-114469832D01*
X120591604Y-114470011D01*
X120591106Y-114470251D01*
X120590569Y-114470552D01*
X120589996Y-114470911D01*
X120588746Y-114471798D01*
X120587369Y-114472899D01*
X120585879Y-114474201D01*
X120584288Y-114475691D01*
X120582609Y-114477355D01*
X120580856Y-114479181D01*
X120579040Y-114481155D01*
X120577176Y-114483264D01*
X120575275Y-114485495D01*
X120573352Y-114487834D01*
X120571418Y-114490269D01*
X120569488Y-114492787D01*
X120567573Y-114495373D01*
X120564470Y-114499707D01*
X120561792Y-114503668D01*
X120560613Y-114505544D01*
X120559543Y-114507368D01*
X120558582Y-114509155D01*
X120557731Y-114510919D01*
X120556990Y-114512673D01*
X120556360Y-114514431D01*
X120555841Y-114516207D01*
X120555436Y-114518016D01*
X120555143Y-114519870D01*
X120554965Y-114521785D01*
X120554901Y-114523773D01*
X120499647Y-114523773D01*
X120495831Y-114506714D01*
X120489976Y-114474625D01*
X120486302Y-114448303D01*
X120483253Y-114418585D01*
X120478995Y-114350493D01*
X120477142Y-114273421D01*
X120477635Y-114190437D01*
X120480414Y-114104613D01*
X120485420Y-114019017D01*
X120492594Y-113936720D01*
X120501875Y-113860792D01*
X120508486Y-113818020D01*
X120514982Y-113781856D01*
X120521130Y-113753038D01*
X120524000Y-113741613D01*
X120526697Y-113732301D01*
X120529190Y-113725194D01*
X120531450Y-113720383D01*
X120533449Y-113717961D01*
X120534341Y-113717675D01*
X120535156Y-113718020D01*
X120535892Y-113719009D01*
X120536545Y-113720652D01*
X120537584Y-113725949D01*
X120538245Y-113734002D01*
X120538499Y-113744905D01*
X120538781Y-113752393D01*
X120539569Y-113760136D01*
X120540849Y-113768114D01*
X120542610Y-113776309D01*
X120547515Y-113793274D01*
X120554180Y-113810883D01*
X120562498Y-113828987D01*
X120572364Y-113847437D01*
X120583670Y-113866083D01*
X120596312Y-113884777D01*
X120610183Y-113903369D01*
X120625178Y-113921711D01*
X120641189Y-113939654D01*
X120658113Y-113957048D01*
X120675842Y-113973744D01*
X120694270Y-113989594D01*
X120713292Y-114004449D01*
X120732801Y-114018159D01*
X120787566Y-114054509D01*
X120827676Y-114407443D01*
X120858542Y-114680693D01*
X120873305Y-114821730D01*
X120875871Y-114856334D01*
X120875880Y-114874284D01*
X120875078Y-114878722D01*
X120873821Y-114881045D01*
X120870183Y-114882084D01*
X120870183Y-114882083D01*
X120864621Y-114881702D01*
X120857275Y-114880604D01*
X120848382Y-114878863D01*
X120838179Y-114876550D01*
X120814784Y-114870493D01*
X120788981Y-114863007D01*
X120762658Y-114854667D01*
X120737706Y-114846046D01*
X120716013Y-114837717D01*
X120706979Y-114833841D01*
X120699469Y-114830254D01*
X120689593Y-114824932D01*
X120679904Y-114819190D01*
X120670405Y-114813032D01*
X120661100Y-114806463D01*
X120651989Y-114799489D01*
X120643078Y-114792113D01*
X120634367Y-114784340D01*
X120625861Y-114776174D01*
X120623576Y-114773820D01*
X120617561Y-114767622D01*
X120609470Y-114758686D01*
G37*
X120609470Y-114758686D02*
X120601591Y-114749372D01*
X120593927Y-114739684D01*
X120586481Y-114729628D01*
X120579255Y-114719207D01*
X120572252Y-114708426D01*
X120565475Y-114697291D01*
X120558926Y-114685805D01*
X120552609Y-114673973D01*
X120540678Y-114649291D01*
X120529706Y-114623281D01*
X120519713Y-114595982D01*
X120510721Y-114567429D01*
X120502754Y-114537661D01*
X120499647Y-114523773D01*
X120554901Y-114523773D01*
X120554953Y-114525849D01*
X120555121Y-114528027D01*
X120555405Y-114530321D01*
X120555808Y-114532743D01*
X120556328Y-114535310D01*
X120556967Y-114538033D01*
X120557727Y-114540928D01*
X120558606Y-114544008D01*
X120559607Y-114547287D01*
X120561975Y-114554498D01*
X120564836Y-114562671D01*
X120568196Y-114571919D01*
X120572061Y-114582353D01*
X120582115Y-114608818D01*
X120586487Y-114619719D01*
X120590519Y-114629182D01*
X120594284Y-114637295D01*
X120597855Y-114644145D01*
X120601306Y-114649819D01*
X120604710Y-114654405D01*
X120606417Y-114656318D01*
X120608139Y-114657991D01*
X120609886Y-114659436D01*
X120611667Y-114660663D01*
X120613491Y-114661684D01*
X120615367Y-114662509D01*
X120617305Y-114663150D01*
X120619313Y-114663617D01*
X120623576Y-114664074D01*
X120628230Y-114663967D01*
X120633349Y-114663383D01*
X120639005Y-114662411D01*
X120642622Y-114661525D01*
X120645988Y-114660302D01*
X120649103Y-114658755D01*
X120651968Y-114656894D01*
X120654583Y-114654730D01*
X120656949Y-114652273D01*
X120659066Y-114649533D01*
X120660934Y-114646522D01*
X120662555Y-114643251D01*
X120663928Y-114639729D01*
X120665055Y-114635968D01*
X120665935Y-114631978D01*
X120666569Y-114627769D01*
X120666958Y-114623353D01*
X120667102Y-114618741D01*
X120667001Y-114613942D01*
X120666657Y-114608967D01*
X120666069Y-114603828D01*
X120665238Y-114598534D01*
X120664164Y-114593097D01*
X120662849Y-114587527D01*
X120661292Y-114581835D01*
X120659493Y-114576031D01*
X120657455Y-114570126D01*
X120655176Y-114564131D01*
X120652657Y-114558056D01*
X120649900Y-114551912D01*
X120646904Y-114545710D01*
X120643670Y-114539460D01*
X120640198Y-114533173D01*
X120636488Y-114526860D01*
X120632543Y-114520531D01*
X120625804Y-114510253D01*
X120619247Y-114500678D01*
X120613036Y-114492014D01*
X120607333Y-114484470D01*
X120602300Y-114478255D01*
X120600086Y-114475711D01*
X120598101Y-114473577D01*
X120596365Y-114471879D01*
X120594899Y-114470644D01*
X120593722Y-114469898D01*
X120593248Y-114469716D01*
X120592855Y-114469666D01*
X120592481Y-114469717D01*
X120592063Y-114469832D01*
X120591604Y-114470011D01*
X120591106Y-114470251D01*
X120590569Y-114470552D01*
X120589996Y-114470911D01*
X120588746Y-114471798D01*
X120587369Y-114472899D01*
X120585879Y-114474201D01*
X120584288Y-114475691D01*
X120582609Y-114477355D01*
X120580856Y-114479181D01*
X120579040Y-114481155D01*
X120577176Y-114483264D01*
X120575275Y-114485495D01*
X120573352Y-114487834D01*
X120571418Y-114490269D01*
X120569488Y-114492787D01*
X120567573Y-114495373D01*
X120564470Y-114499707D01*
X120561792Y-114503668D01*
X120560613Y-114505544D01*
X120559543Y-114507368D01*
X120558582Y-114509155D01*
X120557731Y-114510919D01*
X120556990Y-114512673D01*
X120556360Y-114514431D01*
X120555841Y-114516207D01*
X120555436Y-114518016D01*
X120555143Y-114519870D01*
X120554965Y-114521785D01*
X120554901Y-114523773D01*
X120499647Y-114523773D01*
X120495831Y-114506714D01*
X120489976Y-114474625D01*
X120486302Y-114448303D01*
X120483253Y-114418585D01*
X120478995Y-114350493D01*
X120477142Y-114273421D01*
X120477635Y-114190437D01*
X120480414Y-114104613D01*
X120485420Y-114019017D01*
X120492594Y-113936720D01*
X120501875Y-113860792D01*
X120508486Y-113818020D01*
X120514982Y-113781856D01*
X120521130Y-113753038D01*
X120524000Y-113741613D01*
X120526697Y-113732301D01*
X120529190Y-113725194D01*
X120531450Y-113720383D01*
X120533449Y-113717961D01*
X120534341Y-113717675D01*
X120535156Y-113718020D01*
X120535892Y-113719009D01*
X120536545Y-113720652D01*
X120537584Y-113725949D01*
X120538245Y-113734002D01*
X120538499Y-113744905D01*
X120538781Y-113752393D01*
X120539569Y-113760136D01*
X120540849Y-113768114D01*
X120542610Y-113776309D01*
X120547515Y-113793274D01*
X120554180Y-113810883D01*
X120562498Y-113828987D01*
X120572364Y-113847437D01*
X120583670Y-113866083D01*
X120596312Y-113884777D01*
X120610183Y-113903369D01*
X120625178Y-113921711D01*
X120641189Y-113939654D01*
X120658113Y-113957048D01*
X120675842Y-113973744D01*
X120694270Y-113989594D01*
X120713292Y-114004449D01*
X120732801Y-114018159D01*
X120787566Y-114054509D01*
X120827676Y-114407443D01*
X120858542Y-114680693D01*
X120873305Y-114821730D01*
X120875871Y-114856334D01*
X120875880Y-114874284D01*
X120875078Y-114878722D01*
X120873821Y-114881045D01*
X120870183Y-114882084D01*
X120870183Y-114882083D01*
X120864621Y-114881702D01*
X120857275Y-114880604D01*
X120848382Y-114878863D01*
X120838179Y-114876550D01*
X120814784Y-114870493D01*
X120788981Y-114863007D01*
X120762658Y-114854667D01*
X120737706Y-114846046D01*
X120716013Y-114837717D01*
X120706979Y-114833841D01*
X120699469Y-114830254D01*
X120689593Y-114824932D01*
X120679904Y-114819190D01*
X120670405Y-114813032D01*
X120661100Y-114806463D01*
X120651989Y-114799489D01*
X120643078Y-114792113D01*
X120634367Y-114784340D01*
X120625861Y-114776174D01*
X120623576Y-114773820D01*
X120617561Y-114767622D01*
X120609470Y-114758686D01*
G36*
X120731637Y-117219193D02*
G01*
X120680908Y-116933307D01*
X120677923Y-116915077D01*
X120772272Y-116915077D01*
X120772368Y-116920735D01*
X120772831Y-116927889D01*
X120774687Y-116945574D01*
X120777499Y-116965904D01*
X120780931Y-116986652D01*
X120784642Y-117005591D01*
X120786497Y-117013687D01*
X120788295Y-117020494D01*
X120789994Y-117025736D01*
X120791551Y-117029133D01*
X120792149Y-117029875D01*
X120792968Y-117030523D01*
X120794011Y-117031076D01*
X120795283Y-117031534D01*
X120796785Y-117031896D01*
X120798522Y-117032161D01*
X120800495Y-117032330D01*
X120802709Y-117032400D01*
X120807869Y-117032248D01*
X120814027Y-117031698D01*
X120821206Y-117030748D01*
X120829433Y-117029392D01*
X120838731Y-117027627D01*
X120849125Y-117025447D01*
X120860640Y-117022849D01*
X120873300Y-117019828D01*
X120887131Y-117016379D01*
X120902156Y-117012499D01*
X120918400Y-117008183D01*
X120935888Y-117003426D01*
X121085312Y-116962197D01*
X121129697Y-116949382D01*
X121158256Y-116940198D01*
X121167629Y-116936600D01*
X121174282Y-116933470D01*
X121178624Y-116930660D01*
X121181069Y-116928023D01*
X121182028Y-116925412D01*
X121181912Y-116922681D01*
X121180103Y-116916269D01*
X121178840Y-116910429D01*
X121177163Y-116900705D01*
X121175146Y-116887615D01*
X121172861Y-116871678D01*
X121167775Y-116833338D01*
X121162483Y-116789833D01*
X121159812Y-116768136D01*
X121157054Y-116748038D01*
X121154287Y-116729967D01*
X121151592Y-116714355D01*
X121149048Y-116701629D01*
X121146733Y-116692221D01*
X121145688Y-116688895D01*
X121144729Y-116686559D01*
X121143868Y-116685268D01*
X121143477Y-116685030D01*
X121143114Y-116685074D01*
X120773347Y-116909365D01*
X120772906Y-116910005D01*
X120772584Y-116911194D01*
X120772272Y-116915077D01*
X120677923Y-116915077D01*
X120636157Y-116660003D01*
X120598531Y-116405997D01*
X120569176Y-116178007D01*
X120549239Y-115982750D01*
X120540119Y-115877285D01*
X120533802Y-115809489D01*
X120532866Y-115799392D01*
X120532398Y-115791213D01*
X120532344Y-115787852D01*
X120532412Y-115784980D01*
X120532606Y-115782602D01*
X120532925Y-115780719D01*
X120533374Y-115779335D01*
X120533953Y-115778455D01*
X120534292Y-115778204D01*
X120534664Y-115778079D01*
X120535070Y-115778083D01*
X120535510Y-115778213D01*
X120536492Y-115778860D01*
X120537613Y-115780022D01*
X120538874Y-115781702D01*
X120540276Y-115783905D01*
X120541823Y-115786633D01*
X120543516Y-115789889D01*
X120547348Y-115798001D01*
X120551787Y-115808265D01*
X120556849Y-115820709D01*
X120562549Y-115835357D01*
X120568904Y-115852237D01*
X120575928Y-115871373D01*
X120583637Y-115892792D01*
X120589358Y-115909331D01*
X120594859Y-115926384D01*
X120600213Y-115944331D01*
X120605498Y-115963552D01*
X120610787Y-115984424D01*
X120616158Y-116007329D01*
X120627443Y-116060749D01*
X120639959Y-116126848D01*
X120654308Y-116208659D01*
X120671096Y-116309216D01*
X120690926Y-116431554D01*
X120741268Y-116738561D01*
X120757556Y-116832928D01*
X120764694Y-116868743D01*
X120765077Y-116868859D01*
X120765779Y-116868771D01*
X120768111Y-116868002D01*
X120771624Y-116866475D01*
X120776250Y-116864226D01*
X120788579Y-116857718D01*
X120804566Y-116848780D01*
X120823678Y-116837716D01*
X120845384Y-116824830D01*
X120869150Y-116810424D01*
X120894446Y-116794803D01*
X121000862Y-116728941D01*
X121080492Y-116680406D01*
X121087344Y-116676225D01*
X121093850Y-116672087D01*
X121099997Y-116668002D01*
X121105772Y-116663982D01*
X121111162Y-116660039D01*
X121116154Y-116656185D01*
X121120735Y-116652431D01*
X121124892Y-116648789D01*
X121128613Y-116645271D01*
X121131884Y-116641888D01*
X121134692Y-116638653D01*
X121137025Y-116635577D01*
X121138870Y-116632671D01*
X121140214Y-116629948D01*
X121141043Y-116627419D01*
X121141261Y-116626232D01*
X121141346Y-116625096D01*
X121128911Y-116511456D01*
X121097770Y-116254445D01*
X121023597Y-115668359D01*
X121137013Y-115668359D01*
X121137218Y-115672277D01*
X121138625Y-115686604D01*
X121141257Y-115708778D01*
X121144985Y-115737828D01*
X121155220Y-115812673D01*
X121168308Y-115903375D01*
X121201160Y-116130832D01*
X121231892Y-116350738D01*
X121249063Y-116473807D01*
X121255101Y-116511357D01*
X121257742Y-116525138D01*
X121260228Y-116535970D01*
X121262634Y-116544141D01*
X121265032Y-116549936D01*
X121267497Y-116553641D01*
X121270103Y-116555543D01*
X121272922Y-116555927D01*
X121276030Y-116555081D01*
X121283402Y-116550840D01*
X121297900Y-116541623D01*
X121320903Y-116527195D01*
X121379771Y-116490606D01*
X121410317Y-116471499D01*
X121435003Y-116455505D01*
X121454378Y-116442170D01*
X121462246Y-116436360D01*
X121468994Y-116431045D01*
X121474690Y-116426169D01*
X121479403Y-116421676D01*
X121483202Y-116417510D01*
X121486155Y-116413614D01*
X121488333Y-116409932D01*
X121489803Y-116406407D01*
X121490634Y-116402982D01*
X121490896Y-116399602D01*
X121490204Y-116396782D01*
X121488172Y-116391262D01*
X121480367Y-116372711D01*
X121468027Y-116345126D01*
X121451699Y-116309682D01*
X121409270Y-116219924D01*
X121357459Y-116112847D01*
X121357459Y-116112846D01*
X121250934Y-115894080D01*
X121182200Y-115751433D01*
X121173733Y-115733743D01*
X121165708Y-115717390D01*
X121158308Y-115702719D01*
X121151719Y-115690079D01*
X121146125Y-115679816D01*
X121141711Y-115672279D01*
X121138662Y-115667813D01*
X121137707Y-115666840D01*
X121137382Y-115666688D01*
X121137163Y-115666766D01*
X121137013Y-115668359D01*
X121023597Y-115668359D01*
X121019185Y-115633500D01*
X120994568Y-115453683D01*
X120981003Y-115361496D01*
X121082393Y-115361496D01*
X121082405Y-115363884D01*
X121082838Y-115366672D01*
X121083626Y-115369879D01*
X121084699Y-115373527D01*
X121099409Y-115411911D01*
X121128960Y-115482118D01*
X121218409Y-115686141D01*
X121324687Y-115921882D01*
X121419437Y-116125625D01*
X121444555Y-116178811D01*
X121467234Y-116228047D01*
X121487207Y-116272696D01*
X121504206Y-116312124D01*
X121517964Y-116345696D01*
X121528214Y-116372777D01*
X121534686Y-116392731D01*
X121536423Y-116399837D01*
X121537115Y-116404924D01*
X121537283Y-116411126D01*
X121537267Y-116413999D01*
X121537155Y-116416746D01*
X121536924Y-116419389D01*
X121536551Y-116421947D01*
X121536015Y-116424440D01*
X121535291Y-116426888D01*
X121534359Y-116429312D01*
X121533196Y-116431732D01*
X121531779Y-116434168D01*
X121530085Y-116436639D01*
X121528093Y-116439167D01*
X121525780Y-116441771D01*
X121523122Y-116444472D01*
X121520099Y-116447289D01*
X121516687Y-116450243D01*
X121512863Y-116453354D01*
X121508606Y-116456642D01*
X121503893Y-116460128D01*
X121498702Y-116463831D01*
X121493009Y-116467771D01*
X121480031Y-116476445D01*
X121464779Y-116486311D01*
X121447074Y-116497530D01*
X121403584Y-116524673D01*
X121361192Y-116551164D01*
X121328736Y-116571987D01*
X121315822Y-116580633D01*
X121304899Y-116588292D01*
X121295802Y-116595110D01*
X121288367Y-116601228D01*
X121282429Y-116606791D01*
X121277824Y-116611943D01*
X121274388Y-116616826D01*
X121272922Y-116619693D01*
X121271955Y-116621585D01*
X121270363Y-116626364D01*
X121269446Y-116631305D01*
X121269040Y-116636552D01*
X121268981Y-116642249D01*
X121270310Y-116664730D01*
X121273608Y-116698700D01*
X121283816Y-116783599D01*
X121289578Y-116825773D01*
X121295014Y-116861925D01*
X121299549Y-116887679D01*
X121301299Y-116895289D01*
X121302609Y-116898657D01*
X121302939Y-116898830D01*
X121303511Y-116898933D01*
X121305352Y-116898936D01*
X121308081Y-116898677D01*
X121311647Y-116898168D01*
X121321090Y-116896444D01*
X121333275Y-116893853D01*
X121347798Y-116890487D01*
X121364253Y-116886435D01*
X121382236Y-116881789D01*
X121401341Y-116876637D01*
X121439028Y-116866521D01*
X121471637Y-116858237D01*
X121495680Y-116852639D01*
X121503398Y-116851115D01*
X121507667Y-116850583D01*
X121508280Y-116850640D01*
X121508919Y-116850809D01*
X121509583Y-116851086D01*
X121510269Y-116851470D01*
X121510976Y-116851956D01*
X121511703Y-116852544D01*
X121512448Y-116853229D01*
X121513209Y-116854010D01*
X121513985Y-116854882D01*
X121514774Y-116855844D01*
X121515576Y-116856893D01*
X121516387Y-116858025D01*
X121518033Y-116860531D01*
X121519701Y-116863339D01*
X121521378Y-116866426D01*
X121523052Y-116869771D01*
X121524708Y-116873352D01*
X121526336Y-116877145D01*
X121527923Y-116881130D01*
X121529455Y-116885283D01*
X121530920Y-116889582D01*
X121532305Y-116894006D01*
X121545315Y-116937428D01*
X121594835Y-116930500D01*
X121623378Y-116925888D01*
X121651595Y-116920159D01*
X121678814Y-116913523D01*
X121704365Y-116906187D01*
X121727576Y-116898361D01*
X121738095Y-116894329D01*
X121747777Y-116890253D01*
X121756539Y-116886159D01*
X121764296Y-116882072D01*
X121770965Y-116878019D01*
X121776462Y-116874027D01*
X121779206Y-116871624D01*
X121781903Y-116868902D01*
X121784550Y-116865869D01*
X121787146Y-116862534D01*
X121792173Y-116854995D01*
X121796964Y-116846358D01*
X121801499Y-116836693D01*
X121805758Y-116826073D01*
X121809722Y-116814570D01*
X121813371Y-116802255D01*
X121816685Y-116789201D01*
X121819644Y-116775480D01*
X121822229Y-116761162D01*
X121824420Y-116746321D01*
X121826197Y-116731028D01*
X121827541Y-116715355D01*
X121828431Y-116699374D01*
X121828848Y-116683156D01*
X121828816Y-116663285D01*
X121828559Y-116654603D01*
X121828105Y-116646622D01*
X121827426Y-116639243D01*
X121826493Y-116632365D01*
X121825279Y-116625888D01*
X121823755Y-116619711D01*
X121821894Y-116613733D01*
X121819668Y-116607855D01*
X121817048Y-116601976D01*
X121814007Y-116595995D01*
X121810517Y-116589813D01*
X121806550Y-116583328D01*
X121802078Y-116576440D01*
X121797073Y-116569049D01*
X121797072Y-116569050D01*
X121787555Y-116554372D01*
X121776651Y-116536073D01*
X121751449Y-116490223D01*
X121723004Y-116434728D01*
X121692855Y-116372819D01*
X121662538Y-116307725D01*
X121633592Y-116242675D01*
X121607553Y-116180898D01*
X121585959Y-116125625D01*
X121555251Y-116035095D01*
X121520181Y-115919655D01*
X121483353Y-115789369D01*
X121447370Y-115654301D01*
X121414836Y-115524516D01*
X121388355Y-115410076D01*
X121370530Y-115321047D01*
X121365677Y-115289207D01*
X121363964Y-115267493D01*
X121363815Y-115258624D01*
X121363397Y-115250942D01*
X121363082Y-115247546D01*
X121362695Y-115244447D01*
X121362232Y-115241645D01*
X121361692Y-115239140D01*
X121361074Y-115236931D01*
X121360374Y-115235020D01*
X121359592Y-115233406D01*
X121358725Y-115232088D01*
X121357772Y-115231068D01*
X121356730Y-115230344D01*
X121355597Y-115229918D01*
X121354372Y-115229789D01*
X121353053Y-115229957D01*
X121351638Y-115230422D01*
X121350124Y-115231185D01*
X121348510Y-115232245D01*
X121346793Y-115233601D01*
X121344973Y-115235256D01*
X121343047Y-115237207D01*
X121341013Y-115239456D01*
X121338869Y-115242003D01*
X121336613Y-115244846D01*
X121331758Y-115251426D01*
X121326432Y-115259196D01*
X121320620Y-115268157D01*
X121316681Y-115274181D01*
X121312642Y-115279989D01*
X121308501Y-115285581D01*
X121304258Y-115290958D01*
X121299911Y-115296121D01*
X121295460Y-115301069D01*
X121290903Y-115305803D01*
X121286240Y-115310324D01*
X121281470Y-115314633D01*
X121276591Y-115318729D01*
X121271602Y-115322614D01*
X121266503Y-115326287D01*
X121261292Y-115329749D01*
X121255968Y-115333001D01*
X121250531Y-115336044D01*
X121244980Y-115338877D01*
X121239313Y-115341501D01*
X121233529Y-115343917D01*
X121227627Y-115346126D01*
X121221607Y-115348127D01*
X121215467Y-115349921D01*
X121209207Y-115351508D01*
X121202825Y-115352890D01*
X121196320Y-115354067D01*
X121189691Y-115355039D01*
X121182938Y-115355806D01*
X121176059Y-115356370D01*
X121169053Y-115356730D01*
X121161919Y-115356887D01*
X121154657Y-115356842D01*
X121139742Y-115356147D01*
X121120335Y-115354832D01*
X121112413Y-115354409D01*
X121105588Y-115354172D01*
X121099794Y-115354141D01*
X121094962Y-115354338D01*
X121091024Y-115354783D01*
X121087914Y-115355500D01*
X121086648Y-115355966D01*
X121085564Y-115356508D01*
X121084652Y-115357128D01*
X121083905Y-115357829D01*
X121083314Y-115358613D01*
X121082871Y-115359484D01*
X121082567Y-115360444D01*
X121082393Y-115361496D01*
X120981003Y-115361496D01*
X120968824Y-115278722D01*
X120945565Y-115132294D01*
X120928399Y-115038073D01*
X120924907Y-115021208D01*
X120923610Y-115014182D01*
X120922633Y-115007976D01*
X120921995Y-115002503D01*
X120921711Y-114997672D01*
X120921797Y-114993397D01*
X120921984Y-114991440D01*
X120922271Y-114989589D01*
X120922658Y-114987832D01*
X120923148Y-114986159D01*
X120923743Y-114984558D01*
X120924445Y-114983019D01*
X120925256Y-114981530D01*
X120926179Y-114980080D01*
X120928366Y-114977254D01*
X120931022Y-114974454D01*
X120934164Y-114971590D01*
X120937810Y-114968573D01*
X120941974Y-114965317D01*
X120948262Y-114960622D01*
X120954051Y-114956619D01*
X120959379Y-114953315D01*
X120961883Y-114951928D01*
X120964285Y-114950718D01*
X120966591Y-114949686D01*
X120968805Y-114948834D01*
X120970933Y-114948162D01*
X120972979Y-114947671D01*
X120974948Y-114947363D01*
X120976845Y-114947237D01*
X120978674Y-114947296D01*
X120980441Y-114947539D01*
X120982149Y-114947968D01*
X120983804Y-114948584D01*
X120985411Y-114949388D01*
X120986974Y-114950380D01*
X120988498Y-114951562D01*
X120989989Y-114952934D01*
X120991449Y-114954497D01*
X120992885Y-114956253D01*
X120994302Y-114958202D01*
X120995703Y-114960345D01*
X120997094Y-114962684D01*
X120998480Y-114965218D01*
X121001254Y-114970878D01*
X121004063Y-114977334D01*
X121006712Y-114983380D01*
X121008046Y-114986136D01*
X121009398Y-114988717D01*
X121010777Y-114991125D01*
X121012190Y-114993363D01*
X121013646Y-114995432D01*
X121015155Y-114997334D01*
X121016724Y-114999072D01*
X121018362Y-115000648D01*
X121020077Y-115002063D01*
X121021878Y-115003321D01*
X121023774Y-115004423D01*
X121025773Y-115005371D01*
X121027884Y-115006167D01*
X121030114Y-115006814D01*
X121032473Y-115007313D01*
X121034970Y-115007668D01*
X121037612Y-115007879D01*
X121040408Y-115007949D01*
X121043367Y-115007881D01*
X121046497Y-115007676D01*
X121049807Y-115007336D01*
X121053305Y-115006864D01*
X121057001Y-115006261D01*
X121060901Y-115005530D01*
X121069352Y-115003693D01*
X121078728Y-115001368D01*
X121089095Y-114998573D01*
X121100972Y-114994891D01*
X121113012Y-114990418D01*
X121125143Y-114985209D01*
X121137294Y-114979315D01*
X121149392Y-114972789D01*
X121161367Y-114965684D01*
X121173147Y-114958051D01*
X121184660Y-114949943D01*
X121195835Y-114941413D01*
X121206600Y-114932514D01*
X121216884Y-114923297D01*
X121226615Y-114913815D01*
X121235721Y-114904121D01*
X121244132Y-114894267D01*
X121251775Y-114884305D01*
X121258578Y-114874289D01*
X121270198Y-114856188D01*
X121272590Y-114852264D01*
X121274780Y-114848443D01*
X121276771Y-114844656D01*
X121278564Y-114840833D01*
X121280162Y-114836907D01*
X121281566Y-114832807D01*
X121282778Y-114828465D01*
X121283800Y-114823812D01*
X121284635Y-114818779D01*
X121285283Y-114813298D01*
X121285746Y-114807299D01*
X121286028Y-114800713D01*
X121286129Y-114793471D01*
X121286052Y-114785505D01*
X121285798Y-114776745D01*
X121285369Y-114767123D01*
X121283995Y-114745016D01*
X121281946Y-114718631D01*
X121279235Y-114687418D01*
X121275880Y-114650825D01*
X121267294Y-114559292D01*
X121257201Y-114471179D01*
X121243449Y-114381364D01*
X121226552Y-114291955D01*
X121207025Y-114205064D01*
X121185380Y-114122800D01*
X121162131Y-114047272D01*
X121150065Y-114012694D01*
X121137791Y-113980591D01*
X121125373Y-113951228D01*
X121112875Y-113924868D01*
X121094065Y-113890662D01*
X121063377Y-113838268D01*
X120978506Y-113698582D01*
X120882531Y-113545147D01*
X120837964Y-113475567D01*
X120799722Y-113417301D01*
X120736732Y-113323060D01*
X120791839Y-113329587D01*
X120806979Y-113331731D01*
X120822007Y-113334561D01*
X120836923Y-113338078D01*
X120851726Y-113342280D01*
X120866414Y-113347167D01*
X120880986Y-113352736D01*
X120895443Y-113358987D01*
X120909781Y-113365920D01*
X120924000Y-113373532D01*
X120938100Y-113381824D01*
X120952079Y-113390794D01*
X120965936Y-113400440D01*
X120993280Y-113421760D01*
X121020123Y-113445775D01*
X121046456Y-113472478D01*
X121072272Y-113501860D01*
X121097561Y-113533913D01*
X121122315Y-113568630D01*
X121146525Y-113606000D01*
X121170183Y-113646017D01*
X121193281Y-113688673D01*
X121215809Y-113733959D01*
X121231798Y-113768884D01*
X121246624Y-113804392D01*
X121260365Y-113840891D01*
X121273094Y-113878787D01*
X121284888Y-113918489D01*
X121295821Y-113960405D01*
X121305970Y-114004943D01*
X121315410Y-114052510D01*
X121324216Y-114103514D01*
X121332464Y-114158363D01*
X121340230Y-114217465D01*
X121347588Y-114281228D01*
X121354615Y-114350059D01*
X121361385Y-114424367D01*
X121374459Y-114591042D01*
X121389878Y-114796200D01*
X121404570Y-114966427D01*
X121419830Y-115110064D01*
X121436956Y-115235456D01*
X121457242Y-115350946D01*
X121481984Y-115464878D01*
X121512479Y-115585593D01*
X121550021Y-115721437D01*
X121588512Y-115851438D01*
X121626596Y-115968159D01*
X121665042Y-116073335D01*
X121684641Y-116122138D01*
X121704621Y-116168705D01*
X121725076Y-116213256D01*
X121746104Y-116256006D01*
X121767801Y-116297172D01*
X121790263Y-116336973D01*
X121813586Y-116375625D01*
X121837868Y-116413346D01*
X121863203Y-116450351D01*
X121889689Y-116486859D01*
X121911529Y-116516475D01*
X121929383Y-116541313D01*
X121936240Y-116551126D01*
X121941411Y-116558767D01*
X121944665Y-116563912D01*
X121945501Y-116565446D01*
X121945772Y-116566234D01*
X121945714Y-116566490D01*
X121945565Y-116566853D01*
X121944998Y-116567889D01*
X121944090Y-116569320D01*
X121942860Y-116571120D01*
X121939507Y-116575737D01*
X121935086Y-116581547D01*
X121929745Y-116588360D01*
X121923632Y-116595984D01*
X121916896Y-116604228D01*
X121909685Y-116612899D01*
X121903899Y-116619924D01*
X121898701Y-116626572D01*
X121894037Y-116633016D01*
X121889848Y-116639430D01*
X121887914Y-116642679D01*
X121886079Y-116645985D01*
X121884334Y-116649370D01*
X121882673Y-116652856D01*
X121881088Y-116656463D01*
X121879573Y-116660214D01*
X121878121Y-116664131D01*
X121876724Y-116668234D01*
X121874069Y-116677087D01*
X121871552Y-116686948D01*
X121869115Y-116697988D01*
X121866703Y-116710381D01*
X121864259Y-116724300D01*
X121861727Y-116739917D01*
X121856173Y-116776941D01*
X121852377Y-116801537D01*
X121848346Y-116824941D01*
X121844203Y-116846607D01*
X121840070Y-116865990D01*
X121836072Y-116882546D01*
X121832331Y-116895729D01*
X121830595Y-116900885D01*
X121828971Y-116904994D01*
X121827472Y-116907987D01*
X121826115Y-116909797D01*
X121824409Y-116911102D01*
X121821890Y-116912612D01*
X121818607Y-116914312D01*
X121814609Y-116916181D01*
X121809946Y-116918202D01*
X121804668Y-116920357D01*
X121792467Y-116924995D01*
X121778404Y-116929950D01*
X121762876Y-116935076D01*
X121746282Y-116940228D01*
X121729021Y-116945261D01*
X121614030Y-116978554D01*
X121545315Y-116999013D01*
X121481362Y-117018054D01*
X121371202Y-117051664D01*
X121323737Y-117067282D01*
X121323530Y-117068621D01*
X121323546Y-117071955D01*
X121324211Y-117084194D01*
X121325656Y-117103169D01*
X121327806Y-117128048D01*
X121333924Y-117192193D01*
X121341966Y-117269979D01*
X121364999Y-117502749D01*
X121390400Y-117781917D01*
X121438260Y-118321667D01*
X121459146Y-118556980D01*
X121480193Y-118803208D01*
X121497002Y-118997363D01*
X121503567Y-119067918D01*
X121507701Y-119107479D01*
X121514049Y-119157750D01*
X121455980Y-119157750D01*
X121441140Y-119157540D01*
X121434575Y-119157270D01*
X121428553Y-119156883D01*
X121423056Y-119156374D01*
X121418063Y-119155739D01*
X121413556Y-119154972D01*
X121409514Y-119154069D01*
X121405919Y-119153024D01*
X121402750Y-119151832D01*
X121399989Y-119150489D01*
X121397615Y-119148990D01*
X121395610Y-119147329D01*
X121393953Y-119145501D01*
X121392626Y-119143502D01*
X121391608Y-119141327D01*
X121390882Y-119138545D01*
X121390009Y-119133665D01*
X121387873Y-119118083D01*
X121385293Y-119095525D01*
X121382361Y-119066935D01*
X121375815Y-118995436D01*
X121368977Y-118911140D01*
X121305394Y-118129026D01*
X121275635Y-117793047D01*
X121252891Y-117559667D01*
X121224867Y-117302388D01*
X121215496Y-117221746D01*
X121208282Y-117166639D01*
X121202523Y-117132217D01*
X121197516Y-117113633D01*
X121195075Y-117108765D01*
X121192558Y-117106038D01*
X121189879Y-117104846D01*
X121186948Y-117104583D01*
X121178961Y-117105663D01*
X121164918Y-117108724D01*
X121122216Y-117119730D01*
X121065950Y-117135481D01*
X121003231Y-117153854D01*
X120941166Y-117172728D01*
X120886865Y-117189980D01*
X120847436Y-117203488D01*
X120835520Y-117208176D01*
X120829988Y-117211132D01*
X120829608Y-117225364D01*
X120833342Y-117261009D01*
X120851108Y-117384849D01*
X120913583Y-117760895D01*
X120984820Y-118152226D01*
X121013541Y-118295173D01*
X121032230Y-118371801D01*
X121032527Y-118372756D01*
X121032723Y-118373601D01*
X121032819Y-118374337D01*
X121032817Y-118374964D01*
X121032779Y-118375237D01*
X121032718Y-118375484D01*
X121032633Y-118375704D01*
X121032524Y-118375897D01*
X121032391Y-118376064D01*
X121032236Y-118376205D01*
X121032057Y-118376319D01*
X121031856Y-118376408D01*
X121031632Y-118376471D01*
X121031386Y-118376507D01*
X121030827Y-118376504D01*
X121030181Y-118376399D01*
X121029450Y-118376194D01*
X121028634Y-118375888D01*
X121027737Y-118375484D01*
X121026758Y-118374981D01*
X121025701Y-118374382D01*
X121024566Y-118373687D01*
X121023355Y-118372896D01*
X121022070Y-118372012D01*
X121020712Y-118371034D01*
X121019283Y-118369963D01*
X121017785Y-118368802D01*
X121014586Y-118366209D01*
X121011129Y-118363262D01*
X121007426Y-118359969D01*
X121003490Y-118356337D01*
X120999334Y-118352374D01*
X120992549Y-118345711D01*
X120989434Y-118342532D01*
X120986484Y-118339395D01*
X120983684Y-118336255D01*
X120981017Y-118333066D01*
X120978468Y-118329783D01*
X120976023Y-118326361D01*
X120973665Y-118322755D01*
X120971379Y-118318920D01*
X120969151Y-118314810D01*
X120966964Y-118310381D01*
X120964802Y-118305587D01*
X120962652Y-118300384D01*
X120960497Y-118294725D01*
X120958322Y-118288566D01*
X120956111Y-118281862D01*
X120953849Y-118274568D01*
X120951521Y-118266637D01*
X120949111Y-118258026D01*
X120943985Y-118238582D01*
X120938347Y-118215872D01*
X120932075Y-118189537D01*
X120925045Y-118159214D01*
X120908217Y-118085161D01*
X120846438Y-117801837D01*
X120802709Y-117587115D01*
X120787196Y-117510942D01*
X120731637Y-117219193D01*
G37*
X120731637Y-117219193D02*
X120680908Y-116933307D01*
X120677923Y-116915077D01*
X120772272Y-116915077D01*
X120772368Y-116920735D01*
X120772831Y-116927889D01*
X120774687Y-116945574D01*
X120777499Y-116965904D01*
X120780931Y-116986652D01*
X120784642Y-117005591D01*
X120786497Y-117013687D01*
X120788295Y-117020494D01*
X120789994Y-117025736D01*
X120791551Y-117029133D01*
X120792149Y-117029875D01*
X120792968Y-117030523D01*
X120794011Y-117031076D01*
X120795283Y-117031534D01*
X120796785Y-117031896D01*
X120798522Y-117032161D01*
X120800495Y-117032330D01*
X120802709Y-117032400D01*
X120807869Y-117032248D01*
X120814027Y-117031698D01*
X120821206Y-117030748D01*
X120829433Y-117029392D01*
X120838731Y-117027627D01*
X120849125Y-117025447D01*
X120860640Y-117022849D01*
X120873300Y-117019828D01*
X120887131Y-117016379D01*
X120902156Y-117012499D01*
X120918400Y-117008183D01*
X120935888Y-117003426D01*
X121085312Y-116962197D01*
X121129697Y-116949382D01*
X121158256Y-116940198D01*
X121167629Y-116936600D01*
X121174282Y-116933470D01*
X121178624Y-116930660D01*
X121181069Y-116928023D01*
X121182028Y-116925412D01*
X121181912Y-116922681D01*
X121180103Y-116916269D01*
X121178840Y-116910429D01*
X121177163Y-116900705D01*
X121175146Y-116887615D01*
X121172861Y-116871678D01*
X121167775Y-116833338D01*
X121162483Y-116789833D01*
X121159812Y-116768136D01*
X121157054Y-116748038D01*
X121154287Y-116729967D01*
X121151592Y-116714355D01*
X121149048Y-116701629D01*
X121146733Y-116692221D01*
X121145688Y-116688895D01*
X121144729Y-116686559D01*
X121143868Y-116685268D01*
X121143477Y-116685030D01*
X121143114Y-116685074D01*
X120773347Y-116909365D01*
X120772906Y-116910005D01*
X120772584Y-116911194D01*
X120772272Y-116915077D01*
X120677923Y-116915077D01*
X120636157Y-116660003D01*
X120598531Y-116405997D01*
X120569176Y-116178007D01*
X120549239Y-115982750D01*
X120540119Y-115877285D01*
X120533802Y-115809489D01*
X120532866Y-115799392D01*
X120532398Y-115791213D01*
X120532344Y-115787852D01*
X120532412Y-115784980D01*
X120532606Y-115782602D01*
X120532925Y-115780719D01*
X120533374Y-115779335D01*
X120533953Y-115778455D01*
X120534292Y-115778204D01*
X120534664Y-115778079D01*
X120535070Y-115778083D01*
X120535510Y-115778213D01*
X120536492Y-115778860D01*
X120537613Y-115780022D01*
X120538874Y-115781702D01*
X120540276Y-115783905D01*
X120541823Y-115786633D01*
X120543516Y-115789889D01*
X120547348Y-115798001D01*
X120551787Y-115808265D01*
X120556849Y-115820709D01*
X120562549Y-115835357D01*
X120568904Y-115852237D01*
X120575928Y-115871373D01*
X120583637Y-115892792D01*
X120589358Y-115909331D01*
X120594859Y-115926384D01*
X120600213Y-115944331D01*
X120605498Y-115963552D01*
X120610787Y-115984424D01*
X120616158Y-116007329D01*
X120627443Y-116060749D01*
X120639959Y-116126848D01*
X120654308Y-116208659D01*
X120671096Y-116309216D01*
X120690926Y-116431554D01*
X120741268Y-116738561D01*
X120757556Y-116832928D01*
X120764694Y-116868743D01*
X120765077Y-116868859D01*
X120765779Y-116868771D01*
X120768111Y-116868002D01*
X120771624Y-116866475D01*
X120776250Y-116864226D01*
X120788579Y-116857718D01*
X120804566Y-116848780D01*
X120823678Y-116837716D01*
X120845384Y-116824830D01*
X120869150Y-116810424D01*
X120894446Y-116794803D01*
X121000862Y-116728941D01*
X121080492Y-116680406D01*
X121087344Y-116676225D01*
X121093850Y-116672087D01*
X121099997Y-116668002D01*
X121105772Y-116663982D01*
X121111162Y-116660039D01*
X121116154Y-116656185D01*
X121120735Y-116652431D01*
X121124892Y-116648789D01*
X121128613Y-116645271D01*
X121131884Y-116641888D01*
X121134692Y-116638653D01*
X121137025Y-116635577D01*
X121138870Y-116632671D01*
X121140214Y-116629948D01*
X121141043Y-116627419D01*
X121141261Y-116626232D01*
X121141346Y-116625096D01*
X121128911Y-116511456D01*
X121097770Y-116254445D01*
X121023597Y-115668359D01*
X121137013Y-115668359D01*
X121137218Y-115672277D01*
X121138625Y-115686604D01*
X121141257Y-115708778D01*
X121144985Y-115737828D01*
X121155220Y-115812673D01*
X121168308Y-115903375D01*
X121201160Y-116130832D01*
X121231892Y-116350738D01*
X121249063Y-116473807D01*
X121255101Y-116511357D01*
X121257742Y-116525138D01*
X121260228Y-116535970D01*
X121262634Y-116544141D01*
X121265032Y-116549936D01*
X121267497Y-116553641D01*
X121270103Y-116555543D01*
X121272922Y-116555927D01*
X121276030Y-116555081D01*
X121283402Y-116550840D01*
X121297900Y-116541623D01*
X121320903Y-116527195D01*
X121379771Y-116490606D01*
X121410317Y-116471499D01*
X121435003Y-116455505D01*
X121454378Y-116442170D01*
X121462246Y-116436360D01*
X121468994Y-116431045D01*
X121474690Y-116426169D01*
X121479403Y-116421676D01*
X121483202Y-116417510D01*
X121486155Y-116413614D01*
X121488333Y-116409932D01*
X121489803Y-116406407D01*
X121490634Y-116402982D01*
X121490896Y-116399602D01*
X121490204Y-116396782D01*
X121488172Y-116391262D01*
X121480367Y-116372711D01*
X121468027Y-116345126D01*
X121451699Y-116309682D01*
X121409270Y-116219924D01*
X121357459Y-116112847D01*
X121357459Y-116112846D01*
X121250934Y-115894080D01*
X121182200Y-115751433D01*
X121173733Y-115733743D01*
X121165708Y-115717390D01*
X121158308Y-115702719D01*
X121151719Y-115690079D01*
X121146125Y-115679816D01*
X121141711Y-115672279D01*
X121138662Y-115667813D01*
X121137707Y-115666840D01*
X121137382Y-115666688D01*
X121137163Y-115666766D01*
X121137013Y-115668359D01*
X121023597Y-115668359D01*
X121019185Y-115633500D01*
X120994568Y-115453683D01*
X120981003Y-115361496D01*
X121082393Y-115361496D01*
X121082405Y-115363884D01*
X121082838Y-115366672D01*
X121083626Y-115369879D01*
X121084699Y-115373527D01*
X121099409Y-115411911D01*
X121128960Y-115482118D01*
X121218409Y-115686141D01*
X121324687Y-115921882D01*
X121419437Y-116125625D01*
X121444555Y-116178811D01*
X121467234Y-116228047D01*
X121487207Y-116272696D01*
X121504206Y-116312124D01*
X121517964Y-116345696D01*
X121528214Y-116372777D01*
X121534686Y-116392731D01*
X121536423Y-116399837D01*
X121537115Y-116404924D01*
X121537283Y-116411126D01*
X121537267Y-116413999D01*
X121537155Y-116416746D01*
X121536924Y-116419389D01*
X121536551Y-116421947D01*
X121536015Y-116424440D01*
X121535291Y-116426888D01*
X121534359Y-116429312D01*
X121533196Y-116431732D01*
X121531779Y-116434168D01*
X121530085Y-116436639D01*
X121528093Y-116439167D01*
X121525780Y-116441771D01*
X121523122Y-116444472D01*
X121520099Y-116447289D01*
X121516687Y-116450243D01*
X121512863Y-116453354D01*
X121508606Y-116456642D01*
X121503893Y-116460128D01*
X121498702Y-116463831D01*
X121493009Y-116467771D01*
X121480031Y-116476445D01*
X121464779Y-116486311D01*
X121447074Y-116497530D01*
X121403584Y-116524673D01*
X121361192Y-116551164D01*
X121328736Y-116571987D01*
X121315822Y-116580633D01*
X121304899Y-116588292D01*
X121295802Y-116595110D01*
X121288367Y-116601228D01*
X121282429Y-116606791D01*
X121277824Y-116611943D01*
X121274388Y-116616826D01*
X121272922Y-116619693D01*
X121271955Y-116621585D01*
X121270363Y-116626364D01*
X121269446Y-116631305D01*
X121269040Y-116636552D01*
X121268981Y-116642249D01*
X121270310Y-116664730D01*
X121273608Y-116698700D01*
X121283816Y-116783599D01*
X121289578Y-116825773D01*
X121295014Y-116861925D01*
X121299549Y-116887679D01*
X121301299Y-116895289D01*
X121302609Y-116898657D01*
X121302939Y-116898830D01*
X121303511Y-116898933D01*
X121305352Y-116898936D01*
X121308081Y-116898677D01*
X121311647Y-116898168D01*
X121321090Y-116896444D01*
X121333275Y-116893853D01*
X121347798Y-116890487D01*
X121364253Y-116886435D01*
X121382236Y-116881789D01*
X121401341Y-116876637D01*
X121439028Y-116866521D01*
X121471637Y-116858237D01*
X121495680Y-116852639D01*
X121503398Y-116851115D01*
X121507667Y-116850583D01*
X121508280Y-116850640D01*
X121508919Y-116850809D01*
X121509583Y-116851086D01*
X121510269Y-116851470D01*
X121510976Y-116851956D01*
X121511703Y-116852544D01*
X121512448Y-116853229D01*
X121513209Y-116854010D01*
X121513985Y-116854882D01*
X121514774Y-116855844D01*
X121515576Y-116856893D01*
X121516387Y-116858025D01*
X121518033Y-116860531D01*
X121519701Y-116863339D01*
X121521378Y-116866426D01*
X121523052Y-116869771D01*
X121524708Y-116873352D01*
X121526336Y-116877145D01*
X121527923Y-116881130D01*
X121529455Y-116885283D01*
X121530920Y-116889582D01*
X121532305Y-116894006D01*
X121545315Y-116937428D01*
X121594835Y-116930500D01*
X121623378Y-116925888D01*
X121651595Y-116920159D01*
X121678814Y-116913523D01*
X121704365Y-116906187D01*
X121727576Y-116898361D01*
X121738095Y-116894329D01*
X121747777Y-116890253D01*
X121756539Y-116886159D01*
X121764296Y-116882072D01*
X121770965Y-116878019D01*
X121776462Y-116874027D01*
X121779206Y-116871624D01*
X121781903Y-116868902D01*
X121784550Y-116865869D01*
X121787146Y-116862534D01*
X121792173Y-116854995D01*
X121796964Y-116846358D01*
X121801499Y-116836693D01*
X121805758Y-116826073D01*
X121809722Y-116814570D01*
X121813371Y-116802255D01*
X121816685Y-116789201D01*
X121819644Y-116775480D01*
X121822229Y-116761162D01*
X121824420Y-116746321D01*
X121826197Y-116731028D01*
X121827541Y-116715355D01*
X121828431Y-116699374D01*
X121828848Y-116683156D01*
X121828816Y-116663285D01*
X121828559Y-116654603D01*
X121828105Y-116646622D01*
X121827426Y-116639243D01*
X121826493Y-116632365D01*
X121825279Y-116625888D01*
X121823755Y-116619711D01*
X121821894Y-116613733D01*
X121819668Y-116607855D01*
X121817048Y-116601976D01*
X121814007Y-116595995D01*
X121810517Y-116589813D01*
X121806550Y-116583328D01*
X121802078Y-116576440D01*
X121797073Y-116569049D01*
X121797072Y-116569050D01*
X121787555Y-116554372D01*
X121776651Y-116536073D01*
X121751449Y-116490223D01*
X121723004Y-116434728D01*
X121692855Y-116372819D01*
X121662538Y-116307725D01*
X121633592Y-116242675D01*
X121607553Y-116180898D01*
X121585959Y-116125625D01*
X121555251Y-116035095D01*
X121520181Y-115919655D01*
X121483353Y-115789369D01*
X121447370Y-115654301D01*
X121414836Y-115524516D01*
X121388355Y-115410076D01*
X121370530Y-115321047D01*
X121365677Y-115289207D01*
X121363964Y-115267493D01*
X121363815Y-115258624D01*
X121363397Y-115250942D01*
X121363082Y-115247546D01*
X121362695Y-115244447D01*
X121362232Y-115241645D01*
X121361692Y-115239140D01*
X121361074Y-115236931D01*
X121360374Y-115235020D01*
X121359592Y-115233406D01*
X121358725Y-115232088D01*
X121357772Y-115231068D01*
X121356730Y-115230344D01*
X121355597Y-115229918D01*
X121354372Y-115229789D01*
X121353053Y-115229957D01*
X121351638Y-115230422D01*
X121350124Y-115231185D01*
X121348510Y-115232245D01*
X121346793Y-115233601D01*
X121344973Y-115235256D01*
X121343047Y-115237207D01*
X121341013Y-115239456D01*
X121338869Y-115242003D01*
X121336613Y-115244846D01*
X121331758Y-115251426D01*
X121326432Y-115259196D01*
X121320620Y-115268157D01*
X121316681Y-115274181D01*
X121312642Y-115279989D01*
X121308501Y-115285581D01*
X121304258Y-115290958D01*
X121299911Y-115296121D01*
X121295460Y-115301069D01*
X121290903Y-115305803D01*
X121286240Y-115310324D01*
X121281470Y-115314633D01*
X121276591Y-115318729D01*
X121271602Y-115322614D01*
X121266503Y-115326287D01*
X121261292Y-115329749D01*
X121255968Y-115333001D01*
X121250531Y-115336044D01*
X121244980Y-115338877D01*
X121239313Y-115341501D01*
X121233529Y-115343917D01*
X121227627Y-115346126D01*
X121221607Y-115348127D01*
X121215467Y-115349921D01*
X121209207Y-115351508D01*
X121202825Y-115352890D01*
X121196320Y-115354067D01*
X121189691Y-115355039D01*
X121182938Y-115355806D01*
X121176059Y-115356370D01*
X121169053Y-115356730D01*
X121161919Y-115356887D01*
X121154657Y-115356842D01*
X121139742Y-115356147D01*
X121120335Y-115354832D01*
X121112413Y-115354409D01*
X121105588Y-115354172D01*
X121099794Y-115354141D01*
X121094962Y-115354338D01*
X121091024Y-115354783D01*
X121087914Y-115355500D01*
X121086648Y-115355966D01*
X121085564Y-115356508D01*
X121084652Y-115357128D01*
X121083905Y-115357829D01*
X121083314Y-115358613D01*
X121082871Y-115359484D01*
X121082567Y-115360444D01*
X121082393Y-115361496D01*
X120981003Y-115361496D01*
X120968824Y-115278722D01*
X120945565Y-115132294D01*
X120928399Y-115038073D01*
X120924907Y-115021208D01*
X120923610Y-115014182D01*
X120922633Y-115007976D01*
X120921995Y-115002503D01*
X120921711Y-114997672D01*
X120921797Y-114993397D01*
X120921984Y-114991440D01*
X120922271Y-114989589D01*
X120922658Y-114987832D01*
X120923148Y-114986159D01*
X120923743Y-114984558D01*
X120924445Y-114983019D01*
X120925256Y-114981530D01*
X120926179Y-114980080D01*
X120928366Y-114977254D01*
X120931022Y-114974454D01*
X120934164Y-114971590D01*
X120937810Y-114968573D01*
X120941974Y-114965317D01*
X120948262Y-114960622D01*
X120954051Y-114956619D01*
X120959379Y-114953315D01*
X120961883Y-114951928D01*
X120964285Y-114950718D01*
X120966591Y-114949686D01*
X120968805Y-114948834D01*
X120970933Y-114948162D01*
X120972979Y-114947671D01*
X120974948Y-114947363D01*
X120976845Y-114947237D01*
X120978674Y-114947296D01*
X120980441Y-114947539D01*
X120982149Y-114947968D01*
X120983804Y-114948584D01*
X120985411Y-114949388D01*
X120986974Y-114950380D01*
X120988498Y-114951562D01*
X120989989Y-114952934D01*
X120991449Y-114954497D01*
X120992885Y-114956253D01*
X120994302Y-114958202D01*
X120995703Y-114960345D01*
X120997094Y-114962684D01*
X120998480Y-114965218D01*
X121001254Y-114970878D01*
X121004063Y-114977334D01*
X121006712Y-114983380D01*
X121008046Y-114986136D01*
X121009398Y-114988717D01*
X121010777Y-114991125D01*
X121012190Y-114993363D01*
X121013646Y-114995432D01*
X121015155Y-114997334D01*
X121016724Y-114999072D01*
X121018362Y-115000648D01*
X121020077Y-115002063D01*
X121021878Y-115003321D01*
X121023774Y-115004423D01*
X121025773Y-115005371D01*
X121027884Y-115006167D01*
X121030114Y-115006814D01*
X121032473Y-115007313D01*
X121034970Y-115007668D01*
X121037612Y-115007879D01*
X121040408Y-115007949D01*
X121043367Y-115007881D01*
X121046497Y-115007676D01*
X121049807Y-115007336D01*
X121053305Y-115006864D01*
X121057001Y-115006261D01*
X121060901Y-115005530D01*
X121069352Y-115003693D01*
X121078728Y-115001368D01*
X121089095Y-114998573D01*
X121100972Y-114994891D01*
X121113012Y-114990418D01*
X121125143Y-114985209D01*
X121137294Y-114979315D01*
X121149392Y-114972789D01*
X121161367Y-114965684D01*
X121173147Y-114958051D01*
X121184660Y-114949943D01*
X121195835Y-114941413D01*
X121206600Y-114932514D01*
X121216884Y-114923297D01*
X121226615Y-114913815D01*
X121235721Y-114904121D01*
X121244132Y-114894267D01*
X121251775Y-114884305D01*
X121258578Y-114874289D01*
X121270198Y-114856188D01*
X121272590Y-114852264D01*
X121274780Y-114848443D01*
X121276771Y-114844656D01*
X121278564Y-114840833D01*
X121280162Y-114836907D01*
X121281566Y-114832807D01*
X121282778Y-114828465D01*
X121283800Y-114823812D01*
X121284635Y-114818779D01*
X121285283Y-114813298D01*
X121285746Y-114807299D01*
X121286028Y-114800713D01*
X121286129Y-114793471D01*
X121286052Y-114785505D01*
X121285798Y-114776745D01*
X121285369Y-114767123D01*
X121283995Y-114745016D01*
X121281946Y-114718631D01*
X121279235Y-114687418D01*
X121275880Y-114650825D01*
X121267294Y-114559292D01*
X121257201Y-114471179D01*
X121243449Y-114381364D01*
X121226552Y-114291955D01*
X121207025Y-114205064D01*
X121185380Y-114122800D01*
X121162131Y-114047272D01*
X121150065Y-114012694D01*
X121137791Y-113980591D01*
X121125373Y-113951228D01*
X121112875Y-113924868D01*
X121094065Y-113890662D01*
X121063377Y-113838268D01*
X120978506Y-113698582D01*
X120882531Y-113545147D01*
X120837964Y-113475567D01*
X120799722Y-113417301D01*
X120736732Y-113323060D01*
X120791839Y-113329587D01*
X120806979Y-113331731D01*
X120822007Y-113334561D01*
X120836923Y-113338078D01*
X120851726Y-113342280D01*
X120866414Y-113347167D01*
X120880986Y-113352736D01*
X120895443Y-113358987D01*
X120909781Y-113365920D01*
X120924000Y-113373532D01*
X120938100Y-113381824D01*
X120952079Y-113390794D01*
X120965936Y-113400440D01*
X120993280Y-113421760D01*
X121020123Y-113445775D01*
X121046456Y-113472478D01*
X121072272Y-113501860D01*
X121097561Y-113533913D01*
X121122315Y-113568630D01*
X121146525Y-113606000D01*
X121170183Y-113646017D01*
X121193281Y-113688673D01*
X121215809Y-113733959D01*
X121231798Y-113768884D01*
X121246624Y-113804392D01*
X121260365Y-113840891D01*
X121273094Y-113878787D01*
X121284888Y-113918489D01*
X121295821Y-113960405D01*
X121305970Y-114004943D01*
X121315410Y-114052510D01*
X121324216Y-114103514D01*
X121332464Y-114158363D01*
X121340230Y-114217465D01*
X121347588Y-114281228D01*
X121354615Y-114350059D01*
X121361385Y-114424367D01*
X121374459Y-114591042D01*
X121389878Y-114796200D01*
X121404570Y-114966427D01*
X121419830Y-115110064D01*
X121436956Y-115235456D01*
X121457242Y-115350946D01*
X121481984Y-115464878D01*
X121512479Y-115585593D01*
X121550021Y-115721437D01*
X121588512Y-115851438D01*
X121626596Y-115968159D01*
X121665042Y-116073335D01*
X121684641Y-116122138D01*
X121704621Y-116168705D01*
X121725076Y-116213256D01*
X121746104Y-116256006D01*
X121767801Y-116297172D01*
X121790263Y-116336973D01*
X121813586Y-116375625D01*
X121837868Y-116413346D01*
X121863203Y-116450351D01*
X121889689Y-116486859D01*
X121911529Y-116516475D01*
X121929383Y-116541313D01*
X121936240Y-116551126D01*
X121941411Y-116558767D01*
X121944665Y-116563912D01*
X121945501Y-116565446D01*
X121945772Y-116566234D01*
X121945714Y-116566490D01*
X121945565Y-116566853D01*
X121944998Y-116567889D01*
X121944090Y-116569320D01*
X121942860Y-116571120D01*
X121939507Y-116575737D01*
X121935086Y-116581547D01*
X121929745Y-116588360D01*
X121923632Y-116595984D01*
X121916896Y-116604228D01*
X121909685Y-116612899D01*
X121903899Y-116619924D01*
X121898701Y-116626572D01*
X121894037Y-116633016D01*
X121889848Y-116639430D01*
X121887914Y-116642679D01*
X121886079Y-116645985D01*
X121884334Y-116649370D01*
X121882673Y-116652856D01*
X121881088Y-116656463D01*
X121879573Y-116660214D01*
X121878121Y-116664131D01*
X121876724Y-116668234D01*
X121874069Y-116677087D01*
X121871552Y-116686948D01*
X121869115Y-116697988D01*
X121866703Y-116710381D01*
X121864259Y-116724300D01*
X121861727Y-116739917D01*
X121856173Y-116776941D01*
X121852377Y-116801537D01*
X121848346Y-116824941D01*
X121844203Y-116846607D01*
X121840070Y-116865990D01*
X121836072Y-116882546D01*
X121832331Y-116895729D01*
X121830595Y-116900885D01*
X121828971Y-116904994D01*
X121827472Y-116907987D01*
X121826115Y-116909797D01*
X121824409Y-116911102D01*
X121821890Y-116912612D01*
X121818607Y-116914312D01*
X121814609Y-116916181D01*
X121809946Y-116918202D01*
X121804668Y-116920357D01*
X121792467Y-116924995D01*
X121778404Y-116929950D01*
X121762876Y-116935076D01*
X121746282Y-116940228D01*
X121729021Y-116945261D01*
X121614030Y-116978554D01*
X121545315Y-116999013D01*
X121481362Y-117018054D01*
X121371202Y-117051664D01*
X121323737Y-117067282D01*
X121323530Y-117068621D01*
X121323546Y-117071955D01*
X121324211Y-117084194D01*
X121325656Y-117103169D01*
X121327806Y-117128048D01*
X121333924Y-117192193D01*
X121341966Y-117269979D01*
X121364999Y-117502749D01*
X121390400Y-117781917D01*
X121438260Y-118321667D01*
X121459146Y-118556980D01*
X121480193Y-118803208D01*
X121497002Y-118997363D01*
X121503567Y-119067918D01*
X121507701Y-119107479D01*
X121514049Y-119157750D01*
X121455980Y-119157750D01*
X121441140Y-119157540D01*
X121434575Y-119157270D01*
X121428553Y-119156883D01*
X121423056Y-119156374D01*
X121418063Y-119155739D01*
X121413556Y-119154972D01*
X121409514Y-119154069D01*
X121405919Y-119153024D01*
X121402750Y-119151832D01*
X121399989Y-119150489D01*
X121397615Y-119148990D01*
X121395610Y-119147329D01*
X121393953Y-119145501D01*
X121392626Y-119143502D01*
X121391608Y-119141327D01*
X121390882Y-119138545D01*
X121390009Y-119133665D01*
X121387873Y-119118083D01*
X121385293Y-119095525D01*
X121382361Y-119066935D01*
X121375815Y-118995436D01*
X121368977Y-118911140D01*
X121305394Y-118129026D01*
X121275635Y-117793047D01*
X121252891Y-117559667D01*
X121224867Y-117302388D01*
X121215496Y-117221746D01*
X121208282Y-117166639D01*
X121202523Y-117132217D01*
X121197516Y-117113633D01*
X121195075Y-117108765D01*
X121192558Y-117106038D01*
X121189879Y-117104846D01*
X121186948Y-117104583D01*
X121178961Y-117105663D01*
X121164918Y-117108724D01*
X121122216Y-117119730D01*
X121065950Y-117135481D01*
X121003231Y-117153854D01*
X120941166Y-117172728D01*
X120886865Y-117189980D01*
X120847436Y-117203488D01*
X120835520Y-117208176D01*
X120829988Y-117211132D01*
X120829608Y-117225364D01*
X120833342Y-117261009D01*
X120851108Y-117384849D01*
X120913583Y-117760895D01*
X120984820Y-118152226D01*
X121013541Y-118295173D01*
X121032230Y-118371801D01*
X121032527Y-118372756D01*
X121032723Y-118373601D01*
X121032819Y-118374337D01*
X121032817Y-118374964D01*
X121032779Y-118375237D01*
X121032718Y-118375484D01*
X121032633Y-118375704D01*
X121032524Y-118375897D01*
X121032391Y-118376064D01*
X121032236Y-118376205D01*
X121032057Y-118376319D01*
X121031856Y-118376408D01*
X121031632Y-118376471D01*
X121031386Y-118376507D01*
X121030827Y-118376504D01*
X121030181Y-118376399D01*
X121029450Y-118376194D01*
X121028634Y-118375888D01*
X121027737Y-118375484D01*
X121026758Y-118374981D01*
X121025701Y-118374382D01*
X121024566Y-118373687D01*
X121023355Y-118372896D01*
X121022070Y-118372012D01*
X121020712Y-118371034D01*
X121019283Y-118369963D01*
X121017785Y-118368802D01*
X121014586Y-118366209D01*
X121011129Y-118363262D01*
X121007426Y-118359969D01*
X121003490Y-118356337D01*
X120999334Y-118352374D01*
X120992549Y-118345711D01*
X120989434Y-118342532D01*
X120986484Y-118339395D01*
X120983684Y-118336255D01*
X120981017Y-118333066D01*
X120978468Y-118329783D01*
X120976023Y-118326361D01*
X120973665Y-118322755D01*
X120971379Y-118318920D01*
X120969151Y-118314810D01*
X120966964Y-118310381D01*
X120964802Y-118305587D01*
X120962652Y-118300384D01*
X120960497Y-118294725D01*
X120958322Y-118288566D01*
X120956111Y-118281862D01*
X120953849Y-118274568D01*
X120951521Y-118266637D01*
X120949111Y-118258026D01*
X120943985Y-118238582D01*
X120938347Y-118215872D01*
X120932075Y-118189537D01*
X120925045Y-118159214D01*
X120908217Y-118085161D01*
X120846438Y-117801837D01*
X120802709Y-117587115D01*
X120787196Y-117510942D01*
X120731637Y-117219193D01*
D11*
X113040000Y-112649000D02*
X113548000Y-112903000D01*
X114564000Y-112395000D02*
X114564000Y-112903000D01*
X111770000Y-117475000D02*
X112278000Y-116459000D01*
X116596000Y-112395000D02*
X116088000Y-112903000D01*
X118374000Y-122301000D02*
X118120000Y-122809000D01*
X83449000Y-121539000D02*
X82306000Y-119380000D01*
X82534523Y-110852000D02*
X82610714Y-110813904D01*
X82725000Y-110813904D01*
X82839285Y-110852000D01*
X82915476Y-110928190D01*
X82953571Y-111004380D01*
X82991666Y-111156761D01*
X82991666Y-111271047D01*
X82953571Y-111423428D01*
X82915476Y-111499619D01*
X82839285Y-111575809D01*
X82725000Y-111613904D01*
X82648809Y-111613904D01*
X82534523Y-111575809D01*
X82496428Y-111537714D01*
X82496428Y-111271047D01*
X82648809Y-111271047D01*
X82153571Y-111613904D02*
X82153571Y-110813904D01*
X81696428Y-111613904D01*
X81696428Y-110813904D01*
X81315476Y-111613904D02*
X81315476Y-110813904D01*
X81125000Y-110813904D01*
X81010714Y-110852000D01*
X80934523Y-110928190D01*
X80896428Y-111004380D01*
X80858333Y-111156761D01*
X80858333Y-111271047D01*
X80896428Y-111423428D01*
X80934523Y-111499619D01*
X81010714Y-111575809D01*
X81125000Y-111613904D01*
X81315476Y-111613904D01*
D12*
X119556666Y-122150142D02*
X119604285Y-122197761D01*
X119747142Y-122245380D01*
X119842380Y-122245380D01*
X119985238Y-122197761D01*
X120080476Y-122102523D01*
X120128095Y-122007285D01*
X120175714Y-121816809D01*
X120175714Y-121673952D01*
X120128095Y-121483476D01*
X120080476Y-121388238D01*
X119985238Y-121293000D01*
X119842380Y-121245380D01*
X119747142Y-121245380D01*
X119604285Y-121293000D01*
X119556666Y-121340619D01*
X118604285Y-122245380D02*
X119175714Y-122245380D01*
X118890000Y-122245380D02*
X118890000Y-121245380D01*
X118985238Y-121388238D01*
X119080476Y-121483476D01*
X119175714Y-121531095D01*
X117461142Y-111212333D02*
X117508761Y-111164714D01*
X117556380Y-111021857D01*
X117556380Y-110926619D01*
X117508761Y-110783761D01*
X117413523Y-110688523D01*
X117318285Y-110640904D01*
X117127809Y-110593285D01*
X116984952Y-110593285D01*
X116794476Y-110640904D01*
X116699238Y-110688523D01*
X116604000Y-110783761D01*
X116556380Y-110926619D01*
X116556380Y-111021857D01*
X116604000Y-111164714D01*
X116651619Y-111212333D01*
X116556380Y-112117095D02*
X116556380Y-111640904D01*
X117032571Y-111593285D01*
X116984952Y-111640904D01*
X116937333Y-111736142D01*
X116937333Y-111974238D01*
X116984952Y-112069476D01*
X117032571Y-112117095D01*
X117127809Y-112164714D01*
X117365904Y-112164714D01*
X117461142Y-112117095D01*
X117508761Y-112069476D01*
X117556380Y-111974238D01*
X117556380Y-111736142D01*
X117508761Y-111640904D01*
X117461142Y-111593285D01*
X119048666Y-125960142D02*
X119096285Y-126007761D01*
X119239142Y-126055380D01*
X119334380Y-126055380D01*
X119477238Y-126007761D01*
X119572476Y-125912523D01*
X119620095Y-125817285D01*
X119667714Y-125626809D01*
X119667714Y-125483952D01*
X119620095Y-125293476D01*
X119572476Y-125198238D01*
X119477238Y-125103000D01*
X119334380Y-125055380D01*
X119239142Y-125055380D01*
X119096285Y-125103000D01*
X119048666Y-125150619D01*
X118191523Y-125055380D02*
X118382000Y-125055380D01*
X118477238Y-125103000D01*
X118524857Y-125150619D01*
X118620095Y-125293476D01*
X118667714Y-125483952D01*
X118667714Y-125864904D01*
X118620095Y-125960142D01*
X118572476Y-126007761D01*
X118477238Y-126055380D01*
X118286761Y-126055380D01*
X118191523Y-126007761D01*
X118143904Y-125960142D01*
X118096285Y-125864904D01*
X118096285Y-125626809D01*
X118143904Y-125531571D01*
X118191523Y-125483952D01*
X118286761Y-125436333D01*
X118477238Y-125436333D01*
X118572476Y-125483952D01*
X118620095Y-125531571D01*
X118667714Y-125626809D01*
X121588666Y-123420142D02*
X121636285Y-123467761D01*
X121779142Y-123515380D01*
X121874380Y-123515380D01*
X122017238Y-123467761D01*
X122112476Y-123372523D01*
X122160095Y-123277285D01*
X122207714Y-123086809D01*
X122207714Y-122943952D01*
X122160095Y-122753476D01*
X122112476Y-122658238D01*
X122017238Y-122563000D01*
X121874380Y-122515380D01*
X121779142Y-122515380D01*
X121636285Y-122563000D01*
X121588666Y-122610619D01*
X121255333Y-122515380D02*
X120588666Y-122515380D01*
X121017238Y-123515380D01*
X110920666Y-118340142D02*
X110968285Y-118387761D01*
X111111142Y-118435380D01*
X111206380Y-118435380D01*
X111349238Y-118387761D01*
X111444476Y-118292523D01*
X111492095Y-118197285D01*
X111539714Y-118006809D01*
X111539714Y-117863952D01*
X111492095Y-117673476D01*
X111444476Y-117578238D01*
X111349238Y-117483000D01*
X111206380Y-117435380D01*
X111111142Y-117435380D01*
X110968285Y-117483000D01*
X110920666Y-117530619D01*
X110349238Y-117863952D02*
X110444476Y-117816333D01*
X110492095Y-117768714D01*
X110539714Y-117673476D01*
X110539714Y-117625857D01*
X110492095Y-117530619D01*
X110444476Y-117483000D01*
X110349238Y-117435380D01*
X110158761Y-117435380D01*
X110063523Y-117483000D01*
X110015904Y-117530619D01*
X109968285Y-117625857D01*
X109968285Y-117673476D01*
X110015904Y-117768714D01*
X110063523Y-117816333D01*
X110158761Y-117863952D01*
X110349238Y-117863952D01*
X110444476Y-117911571D01*
X110492095Y-117959190D01*
X110539714Y-118054428D01*
X110539714Y-118244904D01*
X110492095Y-118340142D01*
X110444476Y-118387761D01*
X110349238Y-118435380D01*
X110158761Y-118435380D01*
X110063523Y-118387761D01*
X110015904Y-118340142D01*
X109968285Y-118244904D01*
X109968285Y-118054428D01*
X110015904Y-117959190D01*
X110063523Y-117911571D01*
X110158761Y-117863952D01*
X112635142Y-129532142D02*
X112682761Y-129484523D01*
X112730380Y-129341666D01*
X112730380Y-129246428D01*
X112682761Y-129103571D01*
X112587523Y-129008333D01*
X112492285Y-128960714D01*
X112301809Y-128913095D01*
X112158952Y-128913095D01*
X111968476Y-128960714D01*
X111873238Y-129008333D01*
X111778000Y-129103571D01*
X111730380Y-129246428D01*
X111730380Y-129341666D01*
X111778000Y-129484523D01*
X111825619Y-129532142D01*
X112730380Y-130484523D02*
X112730380Y-129913095D01*
X112730380Y-130198809D02*
X111730380Y-130198809D01*
X111873238Y-130103571D01*
X111968476Y-130008333D01*
X112016095Y-129913095D01*
X111730380Y-131103571D02*
X111730380Y-131198809D01*
X111778000Y-131294047D01*
X111825619Y-131341666D01*
X111920857Y-131389285D01*
X112111333Y-131436904D01*
X112349428Y-131436904D01*
X112539904Y-131389285D01*
X112635142Y-131341666D01*
X112682761Y-131294047D01*
X112730380Y-131198809D01*
X112730380Y-131103571D01*
X112682761Y-131008333D01*
X112635142Y-130960714D01*
X112539904Y-130913095D01*
X112349428Y-130865476D01*
X112111333Y-130865476D01*
X111920857Y-130913095D01*
X111825619Y-130960714D01*
X111778000Y-131008333D01*
X111730380Y-131103571D01*
X85234857Y-122658142D02*
X85282476Y-122705761D01*
X85425333Y-122753380D01*
X85520571Y-122753380D01*
X85663428Y-122705761D01*
X85758666Y-122610523D01*
X85806285Y-122515285D01*
X85853904Y-122324809D01*
X85853904Y-122181952D01*
X85806285Y-121991476D01*
X85758666Y-121896238D01*
X85663428Y-121801000D01*
X85520571Y-121753380D01*
X85425333Y-121753380D01*
X85282476Y-121801000D01*
X85234857Y-121848619D01*
X84282476Y-122753380D02*
X84853904Y-122753380D01*
X84568190Y-122753380D02*
X84568190Y-121753380D01*
X84663428Y-121896238D01*
X84758666Y-121991476D01*
X84853904Y-122039095D01*
X83425333Y-122086714D02*
X83425333Y-122753380D01*
X83663428Y-121705761D02*
X83901523Y-122420047D01*
X83282476Y-122420047D01*
X82980666Y-124404380D02*
X83314000Y-123928190D01*
X83552095Y-124404380D02*
X83552095Y-123404380D01*
X83171142Y-123404380D01*
X83075904Y-123452000D01*
X83028285Y-123499619D01*
X82980666Y-123594857D01*
X82980666Y-123737714D01*
X83028285Y-123832952D01*
X83075904Y-123880571D01*
X83171142Y-123928190D01*
X83552095Y-123928190D01*
X82123523Y-123737714D02*
X82123523Y-124404380D01*
X82361619Y-123356761D02*
X82599714Y-124071047D01*
X81980666Y-124071047D01*
D11*
X88630523Y-110813904D02*
X88173380Y-110813904D01*
X88401952Y-111613904D02*
X88401952Y-110813904D01*
X87982904Y-110813904D02*
X87449571Y-111613904D01*
X87449571Y-110813904D02*
X87982904Y-111613904D01*
X91456333Y-111613904D02*
X91723000Y-111232952D01*
X91913476Y-111613904D02*
X91913476Y-110813904D01*
X91608714Y-110813904D01*
X91532523Y-110852000D01*
X91494428Y-110890095D01*
X91456333Y-110966285D01*
X91456333Y-111080571D01*
X91494428Y-111156761D01*
X91532523Y-111194857D01*
X91608714Y-111232952D01*
X91913476Y-111232952D01*
X91189666Y-110813904D02*
X90656333Y-111613904D01*
X90656333Y-110813904D02*
X91189666Y-111613904D01*
D12*
X82686904Y-130262380D02*
X82686904Y-131071904D01*
X82639285Y-131167142D01*
X82591666Y-131214761D01*
X82496428Y-131262380D01*
X82305952Y-131262380D01*
X82210714Y-131214761D01*
X82163095Y-131167142D01*
X82115476Y-131071904D01*
X82115476Y-130262380D01*
X81115476Y-131262380D02*
X81686904Y-131262380D01*
X81401190Y-131262380D02*
X81401190Y-130262380D01*
X81496428Y-130405238D01*
X81591666Y-130500476D01*
X81686904Y-130548095D01*
X118223142Y-113716833D02*
X118270761Y-113669214D01*
X118318380Y-113526357D01*
X118318380Y-113431119D01*
X118270761Y-113288261D01*
X118175523Y-113193023D01*
X118080285Y-113145404D01*
X117889809Y-113097785D01*
X117746952Y-113097785D01*
X117556476Y-113145404D01*
X117461238Y-113193023D01*
X117366000Y-113288261D01*
X117318380Y-113431119D01*
X117318380Y-113526357D01*
X117366000Y-113669214D01*
X117413619Y-113716833D01*
X117413619Y-114097785D02*
X117366000Y-114145404D01*
X117318380Y-114240642D01*
X117318380Y-114478738D01*
X117366000Y-114573976D01*
X117413619Y-114621595D01*
X117508857Y-114669214D01*
X117604095Y-114669214D01*
X117746952Y-114621595D01*
X118318380Y-114050166D01*
X118318380Y-114669214D01*
X112889142Y-111720333D02*
X112936761Y-111672714D01*
X112984380Y-111529857D01*
X112984380Y-111434619D01*
X112936761Y-111291761D01*
X112841523Y-111196523D01*
X112746285Y-111148904D01*
X112555809Y-111101285D01*
X112412952Y-111101285D01*
X112222476Y-111148904D01*
X112127238Y-111196523D01*
X112032000Y-111291761D01*
X111984380Y-111434619D01*
X111984380Y-111529857D01*
X112032000Y-111672714D01*
X112079619Y-111720333D01*
X111984380Y-112053666D02*
X111984380Y-112672714D01*
X112365333Y-112339380D01*
X112365333Y-112482238D01*
X112412952Y-112577476D01*
X112460571Y-112625095D01*
X112555809Y-112672714D01*
X112793904Y-112672714D01*
X112889142Y-112625095D01*
X112936761Y-112577476D01*
X112984380Y-112482238D01*
X112984380Y-112196523D01*
X112936761Y-112101285D01*
X112889142Y-112053666D01*
X88743380Y-116713095D02*
X89552904Y-116713095D01*
X89648142Y-116760714D01*
X89695761Y-116808333D01*
X89743380Y-116903571D01*
X89743380Y-117094047D01*
X89695761Y-117189285D01*
X89648142Y-117236904D01*
X89552904Y-117284523D01*
X88743380Y-117284523D01*
X89076714Y-118189285D02*
X89743380Y-118189285D01*
X88695761Y-117951190D02*
X89410047Y-117713095D01*
X89410047Y-118332142D01*
X108888666Y-114784142D02*
X108936285Y-114831761D01*
X109079142Y-114879380D01*
X109174380Y-114879380D01*
X109317238Y-114831761D01*
X109412476Y-114736523D01*
X109460095Y-114641285D01*
X109507714Y-114450809D01*
X109507714Y-114307952D01*
X109460095Y-114117476D01*
X109412476Y-114022238D01*
X109317238Y-113927000D01*
X109174380Y-113879380D01*
X109079142Y-113879380D01*
X108936285Y-113927000D01*
X108888666Y-113974619D01*
X108412476Y-114879380D02*
X108222000Y-114879380D01*
X108126761Y-114831761D01*
X108079142Y-114784142D01*
X107983904Y-114641285D01*
X107936285Y-114450809D01*
X107936285Y-114069857D01*
X107983904Y-113974619D01*
X108031523Y-113927000D01*
X108126761Y-113879380D01*
X108317238Y-113879380D01*
X108412476Y-113927000D01*
X108460095Y-113974619D01*
X108507714Y-114069857D01*
X108507714Y-114307952D01*
X108460095Y-114403190D01*
X108412476Y-114450809D01*
X108317238Y-114498428D01*
X108126761Y-114498428D01*
X108031523Y-114450809D01*
X107983904Y-114403190D01*
X107936285Y-114307952D01*
X114667142Y-111212333D02*
X114714761Y-111164714D01*
X114762380Y-111021857D01*
X114762380Y-110926619D01*
X114714761Y-110783761D01*
X114619523Y-110688523D01*
X114524285Y-110640904D01*
X114333809Y-110593285D01*
X114190952Y-110593285D01*
X114000476Y-110640904D01*
X113905238Y-110688523D01*
X113810000Y-110783761D01*
X113762380Y-110926619D01*
X113762380Y-111021857D01*
X113810000Y-111164714D01*
X113857619Y-111212333D01*
X114095714Y-112069476D02*
X114762380Y-112069476D01*
X113714761Y-111831380D02*
X114429047Y-111593285D01*
X114429047Y-112212333D01*
X118471380Y-118872095D02*
X119280904Y-118872095D01*
X119376142Y-118919714D01*
X119423761Y-118967333D01*
X119471380Y-119062571D01*
X119471380Y-119253047D01*
X119423761Y-119348285D01*
X119376142Y-119395904D01*
X119280904Y-119443523D01*
X118471380Y-119443523D01*
X118566619Y-119872095D02*
X118519000Y-119919714D01*
X118471380Y-120014952D01*
X118471380Y-120253047D01*
X118519000Y-120348285D01*
X118566619Y-120395904D01*
X118661857Y-120443523D01*
X118757095Y-120443523D01*
X118899952Y-120395904D01*
X119471380Y-119824476D01*
X119471380Y-120443523D01*
X118731142Y-129532142D02*
X118778761Y-129484523D01*
X118826380Y-129341666D01*
X118826380Y-129246428D01*
X118778761Y-129103571D01*
X118683523Y-129008333D01*
X118588285Y-128960714D01*
X118397809Y-128913095D01*
X118254952Y-128913095D01*
X118064476Y-128960714D01*
X117969238Y-129008333D01*
X117874000Y-129103571D01*
X117826380Y-129246428D01*
X117826380Y-129341666D01*
X117874000Y-129484523D01*
X117921619Y-129532142D01*
X118826380Y-130484523D02*
X118826380Y-129913095D01*
X118826380Y-130198809D02*
X117826380Y-130198809D01*
X117969238Y-130103571D01*
X118064476Y-130008333D01*
X118112095Y-129913095D01*
X118826380Y-131436904D02*
X118826380Y-130865476D01*
X118826380Y-131151190D02*
X117826380Y-131151190D01*
X117969238Y-131055952D01*
X118064476Y-130960714D01*
X118112095Y-130865476D01*
D11*
X86217476Y-110813904D02*
X85722238Y-110813904D01*
X85988904Y-111118666D01*
X85874619Y-111118666D01*
X85798428Y-111156761D01*
X85760333Y-111194857D01*
X85722238Y-111271047D01*
X85722238Y-111461523D01*
X85760333Y-111537714D01*
X85798428Y-111575809D01*
X85874619Y-111613904D01*
X86103190Y-111613904D01*
X86179380Y-111575809D01*
X86217476Y-111537714D01*
X85493666Y-110813904D02*
X85227000Y-111613904D01*
X84960333Y-110813904D01*
X84769857Y-110813904D02*
X84274619Y-110813904D01*
X84541285Y-111118666D01*
X84427000Y-111118666D01*
X84350809Y-111156761D01*
X84312714Y-111194857D01*
X84274619Y-111271047D01*
X84274619Y-111461523D01*
X84312714Y-111537714D01*
X84350809Y-111575809D01*
X84427000Y-111613904D01*
X84655571Y-111613904D01*
X84731761Y-111575809D01*
X84769857Y-111537714D01*
D12*
X112254190Y-126904809D02*
X112730380Y-126904809D01*
X111730380Y-126571476D02*
X112254190Y-126904809D01*
X111730380Y-127238142D01*
X112730380Y-128095285D02*
X112730380Y-127523857D01*
X112730380Y-127809571D02*
X111730380Y-127809571D01*
X111873238Y-127714333D01*
X111968476Y-127619095D01*
X112016095Y-127523857D01*
X93393380Y-127685666D02*
X94107666Y-127685666D01*
X94250523Y-127638047D01*
X94345761Y-127542809D01*
X94393380Y-127399952D01*
X94393380Y-127304714D01*
X94393380Y-128685666D02*
X94393380Y-128114238D01*
X94393380Y-128399952D02*
X93393380Y-128399952D01*
X93536238Y-128304714D01*
X93631476Y-128209476D01*
X93679095Y-128114238D01*
D11*
X117379000Y-123562164D02*
X117379000Y-123777836D01*
X118099000Y-123562164D02*
X118099000Y-123777836D01*
X115940000Y-113991336D02*
X115940000Y-113775664D01*
X115220000Y-113991336D02*
X115220000Y-113775664D01*
X118395000Y-123562164D02*
X118395000Y-123777836D01*
X119115000Y-123562164D02*
X119115000Y-123777836D01*
X120131000Y-123562164D02*
X120131000Y-123777836D01*
X119411000Y-123562164D02*
X119411000Y-123777836D01*
X113246836Y-115591000D02*
X113031164Y-115591000D01*
X113246836Y-116311000D02*
X113031164Y-116311000D01*
X113920164Y-129688000D02*
X114135836Y-129688000D01*
X113920164Y-130408000D02*
X114135836Y-130408000D01*
X82158000Y-118228164D02*
X82158000Y-118443836D01*
X81438000Y-118228164D02*
X81438000Y-118443836D01*
X82559000Y-121891359D02*
X82559000Y-122198641D01*
X81799000Y-121891359D02*
X81799000Y-122198641D01*
X89475000Y-113030000D02*
G75*
G03*
X89475000Y-113030000I-1200000J0D01*
G01*
X92523000Y-113030000D02*
G75*
G03*
X92523000Y-113030000I-1200000J0D01*
G01*
X89321000Y-127273000D02*
X89321000Y-128533000D01*
X83311000Y-134093000D02*
X89321000Y-134093000D01*
X89321000Y-134093000D02*
X89321000Y-132833000D01*
X85561000Y-127273000D02*
X89321000Y-127273000D01*
X116956000Y-113991336D02*
X116956000Y-113775664D01*
X116236000Y-113991336D02*
X116236000Y-113775664D01*
X113188000Y-113998836D02*
X113188000Y-113783164D01*
X113908000Y-113998836D02*
X113908000Y-113783164D01*
X87845000Y-115492000D02*
X87370000Y-115492000D01*
X87845000Y-115967000D02*
X87845000Y-115492000D01*
X83625000Y-115967000D02*
X83625000Y-115492000D01*
X83625000Y-119237000D02*
X83625000Y-119712000D01*
X87845000Y-119712000D02*
X87370000Y-119712000D01*
X83625000Y-119712000D02*
X84100000Y-119712000D01*
X87845000Y-119237000D02*
X87845000Y-119712000D01*
X111489000Y-115643252D02*
X111489000Y-115120748D01*
X110019000Y-115643252D02*
X110019000Y-115120748D01*
X114924000Y-113998836D02*
X114924000Y-113783164D01*
X114204000Y-113998836D02*
X114204000Y-113783164D01*
X83379000Y-113030000D02*
G75*
G03*
X83379000Y-113030000I-1200000J0D01*
G01*
X117809000Y-121769000D02*
X117809000Y-122244000D01*
X117809000Y-117024000D02*
X117334000Y-117024000D01*
X112589000Y-117024000D02*
X113064000Y-117024000D01*
X112589000Y-117499000D02*
X112589000Y-117024000D01*
X112589000Y-122244000D02*
X113064000Y-122244000D01*
X112589000Y-121769000D02*
X112589000Y-122244000D01*
X117809000Y-117499000D02*
X117809000Y-117024000D01*
X116460164Y-130408000D02*
X116675836Y-130408000D01*
X116460164Y-129688000D02*
X116675836Y-129688000D01*
X86427000Y-113030000D02*
G75*
G03*
X86427000Y-113030000I-1200000J0D01*
G01*
X113283000Y-128816000D02*
X113283000Y-125516000D01*
X113283000Y-125516000D02*
X117283000Y-125516000D01*
X94741000Y-115919000D02*
X94741000Y-130119000D01*
X94741000Y-115919000D02*
X107941000Y-115919000D01*
X94741000Y-130119000D02*
X107941000Y-130119000D01*
X107941000Y-115919000D02*
X107941000Y-130119000D01*
%LPC*%
D13*
X113421000Y-133096000D03*
D14*
X115961000Y-133096000D03*
X118501000Y-133096000D03*
X121041000Y-133096000D03*
D15*
X117739000Y-123190000D03*
X117739000Y-124150000D03*
D16*
X115580000Y-114363500D03*
X115580000Y-113403500D03*
D15*
X118755000Y-123190000D03*
X118755000Y-124150000D03*
X119771000Y-123190000D03*
X119771000Y-124150000D03*
D17*
X113619000Y-115951000D03*
X112659000Y-115951000D03*
D18*
X113548000Y-130048000D03*
X114508000Y-130048000D03*
D15*
X81798000Y-117856000D03*
X81798000Y-118816000D03*
D19*
X82179000Y-121535000D03*
X82179000Y-122555000D03*
D20*
X88275000Y-113030000D03*
X91323000Y-113030000D03*
D21*
X84261000Y-132983000D03*
D22*
X90561000Y-130683000D03*
D21*
X84261000Y-128383000D03*
D16*
X116596000Y-114363500D03*
X116596000Y-113403500D03*
X113548000Y-114371000D03*
X113548000Y-113411000D03*
D23*
X84485000Y-115614500D03*
X84985000Y-115614500D03*
X85485000Y-115614500D03*
X85985000Y-115614500D03*
X86485000Y-115614500D03*
X86985000Y-115614500D03*
D24*
X87722500Y-116352000D03*
X87722500Y-116852000D03*
X87722500Y-117352000D03*
X87722500Y-117852000D03*
X87722500Y-118352000D03*
X87722500Y-118852000D03*
D23*
X86985000Y-119589500D03*
X86485000Y-119589500D03*
X85985000Y-119589500D03*
X85485000Y-119589500D03*
X84985000Y-119589500D03*
X84485000Y-119589500D03*
D24*
X83747500Y-118852000D03*
X83747500Y-118352000D03*
X83747500Y-117852000D03*
X83747500Y-117352000D03*
X83747500Y-116852000D03*
X83747500Y-116352000D03*
D25*
X85735000Y-117602000D03*
D26*
X110754000Y-116332000D03*
X110754000Y-114432000D03*
D16*
X114564000Y-114371000D03*
X114564000Y-113411000D03*
D20*
X82179000Y-113030000D03*
D27*
X116949000Y-122071500D03*
X116449000Y-122071500D03*
X115949000Y-122071500D03*
X115449000Y-122071500D03*
X114949000Y-122071500D03*
X114449000Y-122071500D03*
X113949000Y-122071500D03*
X113449000Y-122071500D03*
D28*
X112761500Y-121384000D03*
X112761500Y-120884000D03*
X112761500Y-120384000D03*
X112761500Y-119884000D03*
X112761500Y-119384000D03*
X112761500Y-118884000D03*
X112761500Y-118384000D03*
X112761500Y-117884000D03*
D27*
X113449000Y-117196500D03*
X113949000Y-117196500D03*
X114449000Y-117196500D03*
X114949000Y-117196500D03*
X115449000Y-117196500D03*
X115949000Y-117196500D03*
X116449000Y-117196500D03*
X116949000Y-117196500D03*
D28*
X117636500Y-117884000D03*
X117636500Y-118384000D03*
X117636500Y-118884000D03*
X117636500Y-119384000D03*
X117636500Y-119884000D03*
X117636500Y-120384000D03*
X117636500Y-120884000D03*
X117636500Y-121384000D03*
D29*
X115199000Y-119634000D03*
D18*
X116088000Y-130048000D03*
X117048000Y-130048000D03*
D20*
X85227000Y-113030000D03*
D30*
X114183000Y-126316000D03*
X116383000Y-128016000D03*
X116383000Y-126316000D03*
X114183000Y-128016000D03*
D31*
X104531000Y-113919000D03*
X103261000Y-113919000D03*
X101991000Y-113919000D03*
D32*
X104141000Y-131619000D03*
D31*
X100721000Y-113919000D03*
D32*
X98541000Y-131619000D03*
D31*
X99451000Y-113919000D03*
X98181000Y-113919000D03*
M02*
