%TF.GenerationSoftware,KiCad,Pcbnew,6.0.5-a6ca702e91~116~ubuntu21.10.1*%
%TF.CreationDate,2022-05-21T13:53:59+10:00*%
%TF.ProjectId,FlarmDisplay,466c6172-6d44-4697-9370-6c61792e6b69,rev?*%
%TF.SameCoordinates,Original*%
%TF.FileFunction,Copper,L2,Inr*%
%TF.FilePolarity,Positive*%
%FSLAX46Y46*%
G04 Gerber Fmt 4.6, Leading zero omitted, Abs format (unit mm)*
G04 Created by KiCad (PCBNEW 6.0.5-a6ca702e91~116~ubuntu21.10.1) date 2022-05-21 13:53:59*
%MOMM*%
%LPD*%
G01*
G04 APERTURE LIST*
%TA.AperFunction,ComponentPad*%
%ADD10R,1.700000X1.700000*%
%TD*%
%TA.AperFunction,ComponentPad*%
%ADD11O,1.700000X1.700000*%
%TD*%
%TA.AperFunction,ViaPad*%
%ADD12C,0.600000*%
%TD*%
%TA.AperFunction,ViaPad*%
%ADD13C,0.800000*%
%TD*%
%TA.AperFunction,Conductor*%
%ADD14C,0.300000*%
%TD*%
%TA.AperFunction,Conductor*%
%ADD15C,0.200000*%
%TD*%
G04 APERTURE END LIST*
D10*
X113421000Y-133096000D03*
D11*
X115961000Y-133096000D03*
X118501000Y-133096000D03*
X121041000Y-133096000D03*
D12*
X113802000Y-118237000D03*
X116596000Y-119761000D03*
X114056000Y-119761000D03*
X115326000Y-118999000D03*
X101102000Y-125095000D03*
X100340000Y-124587000D03*
X102118000Y-124079000D03*
X101356000Y-123317000D03*
X85862000Y-117475000D03*
X86624000Y-118237000D03*
X85100000Y-116713000D03*
X89418000Y-123571000D03*
X121549000Y-126873000D03*
X121930000Y-121412000D03*
X93990000Y-130683000D03*
X91196000Y-128235000D03*
X108976000Y-129667000D03*
X114437000Y-123698000D03*
X104277000Y-128778000D03*
X89799000Y-121412000D03*
X110119000Y-113284000D03*
X109484000Y-115331000D03*
X83449000Y-111379000D03*
X84211000Y-125984000D03*
X119898000Y-115062000D03*
X93101000Y-112395000D03*
X80782000Y-120396000D03*
X82052000Y-133604000D03*
X108214000Y-112903000D03*
D13*
X99197000Y-119507000D03*
D12*
X84973000Y-125095000D03*
X88910000Y-121412000D03*
X81290000Y-123571000D03*
D13*
X100467000Y-119507000D03*
D12*
X121676000Y-120015000D03*
X81290000Y-116713000D03*
X107516734Y-115926737D03*
X121387000Y-124460000D03*
X96149000Y-123952000D03*
X121422000Y-131191000D03*
X115707000Y-112395000D03*
X112278000Y-124714000D03*
X89799000Y-133604000D03*
X110754000Y-111379000D03*
X80528000Y-113792000D03*
X92974000Y-131445000D03*
X118755000Y-126746000D03*
X115961000Y-124079000D03*
X97292000Y-133858000D03*
X101356000Y-110998000D03*
X111262000Y-124841000D03*
X83830000Y-114300000D03*
X88910000Y-114935000D03*
X106944000Y-111319499D03*
X108341000Y-115951000D03*
X87025474Y-114326990D03*
X106309000Y-117983000D03*
X89037000Y-111252000D03*
X105420000Y-111252000D03*
X89926000Y-115316000D03*
D13*
X105039000Y-120015000D03*
X105293000Y-123190000D03*
D12*
X95260000Y-112268000D03*
X93101000Y-115189000D03*
X92466000Y-119888000D03*
X90053000Y-125857000D03*
X81036000Y-132334000D03*
X83195000Y-125476000D03*
X81290000Y-129667000D03*
X105928000Y-120523000D03*
X117231000Y-115697000D03*
X86497000Y-126238000D03*
X91069000Y-118999000D03*
X94371000Y-115189000D03*
X115453000Y-115570000D03*
X102880000Y-110744000D03*
X118501000Y-115189000D03*
X117866000Y-126619000D03*
X119390000Y-118110000D03*
X104150000Y-118653500D03*
X86370000Y-131064000D03*
X87513000Y-127381000D03*
X96657000Y-119507000D03*
X121930000Y-115062000D03*
X89799000Y-127635000D03*
X97800000Y-122428000D03*
X106690000Y-126492000D03*
X95387000Y-119634000D03*
X89799000Y-112014000D03*
X105420000Y-126492000D03*
X90815000Y-114935000D03*
X91450000Y-119888000D03*
X95260000Y-123444000D03*
X103642000Y-126619000D03*
X82560000Y-114935000D03*
X102626000Y-128270000D03*
X96149000Y-125349000D03*
X107579000Y-120269000D03*
X96784000Y-126492000D03*
X81036000Y-114554000D03*
X83576000Y-120396000D03*
D13*
X105801000Y-119253000D03*
D12*
X81163000Y-115824000D03*
X96530000Y-122428000D03*
D14*
X88656000Y-121412000D02*
X88910000Y-121412000D01*
X84973000Y-125095000D02*
X88656000Y-121412000D01*
X105662001Y-123940001D02*
X107833000Y-126111000D01*
X111305264Y-126111000D02*
X112278000Y-125138264D01*
X100467000Y-119507000D02*
X104900001Y-123940001D01*
X107833000Y-126111000D02*
X111305264Y-126111000D01*
X112278000Y-125138264D02*
X112278000Y-124714000D01*
X104900001Y-123940001D02*
X105662001Y-123940001D01*
D15*
X101390999Y-118398999D02*
X105481999Y-122489999D01*
X108910999Y-122489999D02*
X111262000Y-124841000D01*
X83830000Y-114300000D02*
X87928999Y-118398999D01*
X105481999Y-122489999D02*
X108910999Y-122489999D01*
X87928999Y-118398999D02*
X101390999Y-118398999D01*
X88910000Y-115359264D02*
X90136736Y-116586000D01*
X106944000Y-113157000D02*
X103515000Y-116586000D01*
X90136736Y-116586000D02*
X103515000Y-116586000D01*
X106944000Y-111319499D02*
X106944000Y-113157000D01*
X88910000Y-114935000D02*
X88910000Y-115359264D01*
X106944000Y-117348000D02*
X108341000Y-115951000D01*
X87025474Y-114326990D02*
X90046484Y-117348000D01*
X90046484Y-117348000D02*
X106944000Y-117348000D01*
X89926000Y-115316000D02*
X90399001Y-115789001D01*
X90399001Y-115789001D02*
X100882999Y-115789001D01*
X100882999Y-115789001D02*
X105420000Y-111252000D01*
X105928000Y-120523000D02*
X107071000Y-119380000D01*
X113548000Y-119380000D02*
X117231000Y-115697000D01*
X107071000Y-119380000D02*
X113548000Y-119380000D01*
X115453000Y-119888000D02*
X115453000Y-121920000D01*
X117104000Y-125857000D02*
X117866000Y-126619000D01*
X118247000Y-117094000D02*
X115453000Y-119888000D01*
X118247000Y-115867264D02*
X118247000Y-117094000D01*
X117104000Y-123571000D02*
X117104000Y-125857000D01*
X118501000Y-115189000D02*
X118501000Y-115613264D01*
X115453000Y-121920000D02*
X117104000Y-123571000D01*
X118501000Y-115613264D02*
X118247000Y-115867264D01*
X106690000Y-126492000D02*
X100609989Y-120411989D01*
X100609989Y-120411989D02*
X96164989Y-120411989D01*
X96164989Y-120411989D02*
X95387000Y-119634000D01*
X92373999Y-120811999D02*
X91450000Y-119888000D01*
X99739999Y-120811999D02*
X92373999Y-120811999D01*
X105420000Y-126492000D02*
X99739999Y-120811999D01*
X96529002Y-123444000D02*
X96437001Y-123351999D01*
X103642000Y-126619000D02*
X100467000Y-123444000D01*
X96437001Y-123351999D02*
X95352001Y-123351999D01*
X100467000Y-123444000D02*
X96529002Y-123444000D01*
X95352001Y-123351999D02*
X95260000Y-123444000D01*
X100467000Y-128270000D02*
X97546000Y-125349000D01*
X97546000Y-125349000D02*
X96149000Y-125349000D01*
X102626000Y-128270000D02*
X100467000Y-128270000D01*
X83195000Y-115824000D02*
X87259000Y-119888000D01*
X90307000Y-119888000D02*
X92847000Y-122428000D01*
X81163000Y-115824000D02*
X83195000Y-115824000D01*
X87259000Y-119888000D02*
X90307000Y-119888000D01*
X92847000Y-122428000D02*
X96530000Y-122428000D01*
%TA.AperFunction,Conductor*%
G36*
X110250125Y-110528502D02*
G01*
X110296618Y-110582158D01*
X110306722Y-110652432D01*
X110277228Y-110717012D01*
X110259575Y-110733791D01*
X110259092Y-110734168D01*
X110253088Y-110737862D01*
X110219617Y-110770639D01*
X110130908Y-110857510D01*
X110123493Y-110864771D01*
X110025235Y-111017238D01*
X110022826Y-111023858D01*
X110022824Y-111023861D01*
X109968235Y-111173844D01*
X109963197Y-111187685D01*
X109940463Y-111367640D01*
X109958163Y-111548160D01*
X110015418Y-111720273D01*
X110019065Y-111726295D01*
X110019066Y-111726297D01*
X110084139Y-111833745D01*
X110109380Y-111875424D01*
X110114269Y-111880487D01*
X110114270Y-111880488D01*
X110136664Y-111903677D01*
X110235382Y-112005902D01*
X110285947Y-112038991D01*
X110365834Y-112091267D01*
X110387159Y-112105222D01*
X110393763Y-112107678D01*
X110393765Y-112107679D01*
X110550558Y-112165990D01*
X110550560Y-112165990D01*
X110557168Y-112168448D01*
X110640995Y-112179633D01*
X110729980Y-112191507D01*
X110729984Y-112191507D01*
X110736961Y-112192438D01*
X110743972Y-112191800D01*
X110743976Y-112191800D01*
X110886459Y-112178832D01*
X110917600Y-112175998D01*
X110924302Y-112173820D01*
X110924304Y-112173820D01*
X111083409Y-112122124D01*
X111083412Y-112122123D01*
X111090108Y-112119947D01*
X111209126Y-112048998D01*
X111239860Y-112030677D01*
X111239862Y-112030676D01*
X111245912Y-112027069D01*
X111377266Y-111901982D01*
X111477643Y-111750902D01*
X111524762Y-111626862D01*
X111539555Y-111587920D01*
X111539556Y-111587918D01*
X111542055Y-111581338D01*
X111545545Y-111556507D01*
X111566748Y-111405639D01*
X111566748Y-111405636D01*
X111567299Y-111401717D01*
X111567452Y-111390738D01*
X111567561Y-111382962D01*
X111567561Y-111382957D01*
X111567616Y-111379000D01*
X111547397Y-111198745D01*
X111544057Y-111189153D01*
X111490064Y-111034106D01*
X111490062Y-111034103D01*
X111487745Y-111027448D01*
X111404651Y-110894469D01*
X111395359Y-110879598D01*
X111391626Y-110873624D01*
X111386664Y-110868627D01*
X111268778Y-110749915D01*
X111268774Y-110749912D01*
X111263815Y-110744918D01*
X111257460Y-110740885D01*
X111257255Y-110740652D01*
X111252379Y-110736731D01*
X111253068Y-110735874D01*
X111210661Y-110687496D01*
X111200156Y-110617281D01*
X111229280Y-110552533D01*
X111288786Y-110513809D01*
X111324974Y-110508500D01*
X122248500Y-110508500D01*
X122316621Y-110528502D01*
X122363114Y-110582158D01*
X122374500Y-110634500D01*
X122374500Y-114183387D01*
X122354498Y-114251508D01*
X122300842Y-114298001D01*
X122230568Y-114308105D01*
X122206233Y-114302086D01*
X122122425Y-114272243D01*
X122122420Y-114272242D01*
X122115790Y-114269881D01*
X122108802Y-114269048D01*
X122108799Y-114269047D01*
X121985698Y-114254368D01*
X121935680Y-114248404D01*
X121928677Y-114249140D01*
X121928676Y-114249140D01*
X121762288Y-114266628D01*
X121762286Y-114266629D01*
X121755288Y-114267364D01*
X121583579Y-114325818D01*
X121577575Y-114329512D01*
X121435095Y-114417166D01*
X121435092Y-114417168D01*
X121429088Y-114420862D01*
X121424053Y-114425793D01*
X121424050Y-114425795D01*
X121304525Y-114542843D01*
X121299493Y-114547771D01*
X121201235Y-114700238D01*
X121198826Y-114706858D01*
X121198824Y-114706861D01*
X121151294Y-114837448D01*
X121139197Y-114870685D01*
X121116463Y-115050640D01*
X121134163Y-115231160D01*
X121191418Y-115403273D01*
X121195065Y-115409295D01*
X121195066Y-115409297D01*
X121232501Y-115471109D01*
X121285380Y-115558424D01*
X121290269Y-115563487D01*
X121290270Y-115563488D01*
X121319223Y-115593469D01*
X121411382Y-115688902D01*
X121482472Y-115735422D01*
X121550199Y-115779741D01*
X121563159Y-115788222D01*
X121569763Y-115790678D01*
X121569765Y-115790679D01*
X121726558Y-115848990D01*
X121726560Y-115848990D01*
X121733168Y-115851448D01*
X121816995Y-115862633D01*
X121905980Y-115874507D01*
X121905984Y-115874507D01*
X121912961Y-115875438D01*
X121919972Y-115874800D01*
X121919976Y-115874800D01*
X122062459Y-115861832D01*
X122093600Y-115858998D01*
X122100302Y-115856820D01*
X122100304Y-115856820D01*
X122201313Y-115824000D01*
X122209565Y-115821319D01*
X122280531Y-115819291D01*
X122341329Y-115855954D01*
X122372655Y-115919666D01*
X122374500Y-115941152D01*
X122374500Y-119271468D01*
X122354498Y-119339589D01*
X122300842Y-119386082D01*
X122230568Y-119396186D01*
X122180988Y-119377855D01*
X122032666Y-119283727D01*
X121983759Y-119266312D01*
X121868425Y-119225243D01*
X121868420Y-119225242D01*
X121861790Y-119222881D01*
X121854802Y-119222048D01*
X121854799Y-119222047D01*
X121731698Y-119207368D01*
X121681680Y-119201404D01*
X121674677Y-119202140D01*
X121674676Y-119202140D01*
X121508288Y-119219628D01*
X121508286Y-119219629D01*
X121501288Y-119220364D01*
X121329579Y-119278818D01*
X121277598Y-119310797D01*
X121181095Y-119370166D01*
X121181092Y-119370168D01*
X121175088Y-119373862D01*
X121170053Y-119378793D01*
X121170050Y-119378795D01*
X121059393Y-119487159D01*
X121045493Y-119500771D01*
X120947235Y-119653238D01*
X120944826Y-119659858D01*
X120944824Y-119659861D01*
X120892548Y-119803489D01*
X120885197Y-119823685D01*
X120862463Y-120003640D01*
X120880163Y-120184160D01*
X120937418Y-120356273D01*
X120941065Y-120362295D01*
X120941066Y-120362297D01*
X121025641Y-120501947D01*
X121031380Y-120511424D01*
X121036269Y-120516487D01*
X121036270Y-120516488D01*
X121088099Y-120570158D01*
X121157382Y-120641902D01*
X121163278Y-120645760D01*
X121292912Y-120730590D01*
X121309159Y-120741222D01*
X121315763Y-120743678D01*
X121315765Y-120743679D01*
X121472558Y-120801990D01*
X121472560Y-120801990D01*
X121479168Y-120804448D01*
X121562995Y-120815633D01*
X121651980Y-120827507D01*
X121651984Y-120827507D01*
X121658961Y-120828438D01*
X121665972Y-120827800D01*
X121665976Y-120827800D01*
X121808459Y-120814832D01*
X121839600Y-120811998D01*
X121846302Y-120809820D01*
X121846304Y-120809820D01*
X122005409Y-120758124D01*
X122005412Y-120758123D01*
X122012108Y-120755947D01*
X122124503Y-120688946D01*
X122161865Y-120666674D01*
X122161867Y-120666673D01*
X122167912Y-120663069D01*
X122172555Y-120658648D01*
X122238677Y-120633484D01*
X122308150Y-120648114D01*
X122358684Y-120697981D01*
X122374500Y-120759100D01*
X122374500Y-124092178D01*
X122354498Y-124160299D01*
X122300842Y-124206792D01*
X122230568Y-124216896D01*
X122165988Y-124187402D01*
X122129510Y-124133618D01*
X122120745Y-124108448D01*
X122110662Y-124092312D01*
X122028359Y-123960598D01*
X122024626Y-123954624D01*
X122010525Y-123940424D01*
X121901778Y-123830915D01*
X121901774Y-123830912D01*
X121896815Y-123825918D01*
X121885697Y-123818862D01*
X121837538Y-123788300D01*
X121743666Y-123728727D01*
X121694759Y-123711312D01*
X121579425Y-123670243D01*
X121579420Y-123670242D01*
X121572790Y-123667881D01*
X121565802Y-123667048D01*
X121565799Y-123667047D01*
X121442698Y-123652368D01*
X121392680Y-123646404D01*
X121385677Y-123647140D01*
X121385676Y-123647140D01*
X121219288Y-123664628D01*
X121219286Y-123664629D01*
X121212288Y-123665364D01*
X121040579Y-123723818D01*
X121034575Y-123727512D01*
X120892095Y-123815166D01*
X120892092Y-123815168D01*
X120886088Y-123818862D01*
X120881053Y-123823793D01*
X120881050Y-123823795D01*
X120766150Y-123936314D01*
X120756493Y-123945771D01*
X120658235Y-124098238D01*
X120655826Y-124104858D01*
X120655824Y-124104861D01*
X120598606Y-124262066D01*
X120596197Y-124268685D01*
X120573463Y-124448640D01*
X120591163Y-124629160D01*
X120648418Y-124801273D01*
X120652065Y-124807295D01*
X120652066Y-124807297D01*
X120731983Y-124939256D01*
X120742380Y-124956424D01*
X120747269Y-124961487D01*
X120747270Y-124961488D01*
X120800727Y-125016844D01*
X120868382Y-125086902D01*
X120874278Y-125090760D01*
X121003912Y-125175590D01*
X121020159Y-125186222D01*
X121026763Y-125188678D01*
X121026765Y-125188679D01*
X121183558Y-125246990D01*
X121183560Y-125246990D01*
X121190168Y-125249448D01*
X121273995Y-125260633D01*
X121362980Y-125272507D01*
X121362984Y-125272507D01*
X121369961Y-125273438D01*
X121376972Y-125272800D01*
X121376976Y-125272800D01*
X121519459Y-125259832D01*
X121550600Y-125256998D01*
X121557302Y-125254820D01*
X121557304Y-125254820D01*
X121716409Y-125203124D01*
X121716412Y-125203123D01*
X121723108Y-125200947D01*
X121819513Y-125143478D01*
X121872860Y-125111677D01*
X121872862Y-125111676D01*
X121878912Y-125108069D01*
X122010266Y-124982982D01*
X122110643Y-124831902D01*
X122114358Y-124822124D01*
X122130712Y-124779071D01*
X122173601Y-124722493D01*
X122240270Y-124698084D01*
X122309552Y-124713594D01*
X122359450Y-124764098D01*
X122374500Y-124823815D01*
X122374500Y-130750116D01*
X122354498Y-130818237D01*
X122300842Y-130864730D01*
X122230568Y-130874834D01*
X122165988Y-130845340D01*
X122141646Y-130816885D01*
X122137918Y-130810918D01*
X122072651Y-130706469D01*
X122063359Y-130691598D01*
X122059626Y-130685624D01*
X122045941Y-130671843D01*
X121936778Y-130561915D01*
X121936774Y-130561912D01*
X121931815Y-130556918D01*
X121920697Y-130549862D01*
X121809834Y-130479507D01*
X121778666Y-130459727D01*
X121708986Y-130434915D01*
X121614425Y-130401243D01*
X121614420Y-130401242D01*
X121607790Y-130398881D01*
X121600802Y-130398048D01*
X121600799Y-130398047D01*
X121477698Y-130383368D01*
X121427680Y-130377404D01*
X121420677Y-130378140D01*
X121420676Y-130378140D01*
X121254288Y-130395628D01*
X121254286Y-130395629D01*
X121247288Y-130396364D01*
X121075579Y-130454818D01*
X121059619Y-130464637D01*
X120927095Y-130546166D01*
X120927092Y-130546168D01*
X120921088Y-130549862D01*
X120916053Y-130554793D01*
X120916050Y-130554795D01*
X120796525Y-130671843D01*
X120791493Y-130676771D01*
X120693235Y-130829238D01*
X120690826Y-130835858D01*
X120690824Y-130835861D01*
X120650883Y-130945598D01*
X120631197Y-130999685D01*
X120608463Y-131179640D01*
X120626163Y-131360160D01*
X120683418Y-131532273D01*
X120687065Y-131538295D01*
X120728260Y-131606317D01*
X120746438Y-131674947D01*
X120724627Y-131742510D01*
X120669751Y-131787555D01*
X120659635Y-131791349D01*
X120512756Y-131839357D01*
X120475368Y-131858820D01*
X120334893Y-131931947D01*
X120314607Y-131942507D01*
X120310474Y-131945610D01*
X120310471Y-131945612D01*
X120140100Y-132073530D01*
X120135965Y-132076635D01*
X120132393Y-132080373D01*
X120024729Y-132193037D01*
X119981629Y-132238138D01*
X119898065Y-132360639D01*
X119873898Y-132396066D01*
X119818987Y-132441069D01*
X119748462Y-132449240D01*
X119684715Y-132417986D01*
X119664018Y-132393502D01*
X119583426Y-132268926D01*
X119577136Y-132260757D01*
X119433806Y-132103240D01*
X119426273Y-132096215D01*
X119259139Y-131964222D01*
X119250552Y-131958517D01*
X119064117Y-131855599D01*
X119054705Y-131851369D01*
X118853959Y-131780280D01*
X118843988Y-131777646D01*
X118772837Y-131764972D01*
X118759540Y-131766432D01*
X118755000Y-131780989D01*
X118755000Y-133224000D01*
X118734998Y-133292121D01*
X118681342Y-133338614D01*
X118629000Y-133350000D01*
X118373000Y-133350000D01*
X118304879Y-133329998D01*
X118258386Y-133276342D01*
X118247000Y-133224000D01*
X118247000Y-131779102D01*
X118243082Y-131765758D01*
X118228806Y-131763771D01*
X118190324Y-131769660D01*
X118180288Y-131772051D01*
X117977868Y-131838212D01*
X117968359Y-131842209D01*
X117779463Y-131940542D01*
X117770738Y-131946036D01*
X117600433Y-132073905D01*
X117592726Y-132080748D01*
X117445590Y-132234717D01*
X117439109Y-132242722D01*
X117334498Y-132396074D01*
X117279587Y-132441076D01*
X117209062Y-132449247D01*
X117145315Y-132417993D01*
X117124618Y-132393509D01*
X117043822Y-132268617D01*
X117043820Y-132268614D01*
X117041014Y-132264277D01*
X116890670Y-132099051D01*
X116886619Y-132095852D01*
X116886615Y-132095848D01*
X116719414Y-131963800D01*
X116719410Y-131963798D01*
X116715359Y-131960598D01*
X116679028Y-131940542D01*
X116634622Y-131916029D01*
X116519789Y-131852638D01*
X116514920Y-131850914D01*
X116514916Y-131850912D01*
X116314087Y-131779795D01*
X116314083Y-131779794D01*
X116309212Y-131778069D01*
X116304119Y-131777162D01*
X116304116Y-131777161D01*
X116094373Y-131739800D01*
X116094367Y-131739799D01*
X116089284Y-131738894D01*
X116015452Y-131737992D01*
X115871081Y-131736228D01*
X115871079Y-131736228D01*
X115865911Y-131736165D01*
X115645091Y-131769955D01*
X115432756Y-131839357D01*
X115395368Y-131858820D01*
X115254893Y-131931947D01*
X115234607Y-131942507D01*
X115230474Y-131945610D01*
X115230471Y-131945612D01*
X115060100Y-132073530D01*
X115055965Y-132076635D01*
X114975589Y-132160744D01*
X114975283Y-132161064D01*
X114913759Y-132196494D01*
X114842846Y-132193037D01*
X114785060Y-132151791D01*
X114766207Y-132118243D01*
X114724767Y-132007703D01*
X114721615Y-131999295D01*
X114634261Y-131882739D01*
X114517705Y-131795385D01*
X114381316Y-131744255D01*
X114319134Y-131737500D01*
X112522866Y-131737500D01*
X112460684Y-131744255D01*
X112324295Y-131795385D01*
X112207739Y-131882739D01*
X112120385Y-131999295D01*
X112069255Y-132135684D01*
X112062500Y-132197866D01*
X112062500Y-133994134D01*
X112069255Y-134056316D01*
X112120385Y-134192705D01*
X112193255Y-134289935D01*
X112218103Y-134356441D01*
X112203050Y-134425824D01*
X112152876Y-134476054D01*
X112092429Y-134491500D01*
X98076827Y-134491500D01*
X98008706Y-134471498D01*
X97962213Y-134417842D01*
X97952109Y-134347568D01*
X97971877Y-134295775D01*
X98015643Y-134229902D01*
X98067116Y-134094401D01*
X98077555Y-134066920D01*
X98077556Y-134066918D01*
X98080055Y-134060338D01*
X98083319Y-134037115D01*
X98104748Y-133884639D01*
X98104748Y-133884636D01*
X98105299Y-133880717D01*
X98105616Y-133858000D01*
X98085397Y-133677745D01*
X98083080Y-133671091D01*
X98028064Y-133513106D01*
X98028062Y-133513103D01*
X98025745Y-133506448D01*
X97929626Y-133352624D01*
X97915941Y-133338843D01*
X97806778Y-133228915D01*
X97806774Y-133228912D01*
X97801815Y-133223918D01*
X97790697Y-133216862D01*
X97679834Y-133146507D01*
X97648666Y-133126727D01*
X97606069Y-133111559D01*
X97484425Y-133068243D01*
X97484420Y-133068242D01*
X97477790Y-133065881D01*
X97470802Y-133065048D01*
X97470799Y-133065047D01*
X97347698Y-133050368D01*
X97297680Y-133044404D01*
X97290677Y-133045140D01*
X97290676Y-133045140D01*
X97124288Y-133062628D01*
X97124286Y-133062629D01*
X97117288Y-133063364D01*
X96945579Y-133121818D01*
X96929619Y-133131637D01*
X96797095Y-133213166D01*
X96797092Y-133213168D01*
X96791088Y-133216862D01*
X96786053Y-133221793D01*
X96786050Y-133221795D01*
X96666759Y-133338614D01*
X96661493Y-133343771D01*
X96563235Y-133496238D01*
X96560826Y-133502858D01*
X96560824Y-133502861D01*
X96515744Y-133626717D01*
X96501197Y-133666685D01*
X96478463Y-133846640D01*
X96496163Y-134027160D01*
X96553418Y-134199273D01*
X96608325Y-134289935D01*
X96614559Y-134300229D01*
X96632738Y-134368858D01*
X96610928Y-134436422D01*
X96556052Y-134481468D01*
X96506783Y-134491500D01*
X90346703Y-134491500D01*
X90278582Y-134471498D01*
X90232089Y-134417842D01*
X90221985Y-134347568D01*
X90251479Y-134282988D01*
X90282181Y-134257274D01*
X90290912Y-134252069D01*
X90422266Y-134126982D01*
X90522643Y-133975902D01*
X90587055Y-133806338D01*
X90588096Y-133798930D01*
X90611748Y-133630639D01*
X90611748Y-133630636D01*
X90612299Y-133626717D01*
X90612616Y-133604000D01*
X90592397Y-133423745D01*
X90590080Y-133417091D01*
X90535064Y-133259106D01*
X90535062Y-133259103D01*
X90532745Y-133252448D01*
X90436626Y-133098624D01*
X90409532Y-133071340D01*
X90313778Y-132974915D01*
X90313774Y-132974912D01*
X90308815Y-132969918D01*
X90297697Y-132962862D01*
X90249538Y-132932300D01*
X90155666Y-132872727D01*
X90094961Y-132851111D01*
X89991425Y-132814243D01*
X89991420Y-132814242D01*
X89984790Y-132811881D01*
X89977802Y-132811048D01*
X89977799Y-132811047D01*
X89854698Y-132796368D01*
X89804680Y-132790404D01*
X89797677Y-132791140D01*
X89797676Y-132791140D01*
X89631288Y-132808628D01*
X89631286Y-132808629D01*
X89624288Y-132809364D01*
X89452579Y-132867818D01*
X89446575Y-132871512D01*
X89304095Y-132959166D01*
X89304092Y-132959168D01*
X89298088Y-132962862D01*
X89293053Y-132967793D01*
X89293050Y-132967795D01*
X89173525Y-133084843D01*
X89168493Y-133089771D01*
X89070235Y-133242238D01*
X89067826Y-133248858D01*
X89067824Y-133248861D01*
X89027883Y-133358598D01*
X89008197Y-133412685D01*
X88985463Y-133592640D01*
X89003163Y-133773160D01*
X89060418Y-133945273D01*
X89064065Y-133951295D01*
X89064066Y-133951297D01*
X89137701Y-134072883D01*
X89154380Y-134100424D01*
X89280382Y-134230902D01*
X89286278Y-134234760D01*
X89286279Y-134234761D01*
X89324952Y-134260068D01*
X89371001Y-134314105D01*
X89380524Y-134384460D01*
X89350499Y-134448796D01*
X89290458Y-134486685D01*
X89255959Y-134491500D01*
X80517500Y-134491500D01*
X80449379Y-134471498D01*
X80402886Y-134417842D01*
X80391500Y-134365500D01*
X80391500Y-133111559D01*
X80411502Y-133043438D01*
X80465158Y-132996945D01*
X80535432Y-132986841D01*
X80586493Y-133006127D01*
X80644987Y-133044404D01*
X80669159Y-133060222D01*
X80675763Y-133062678D01*
X80675765Y-133062679D01*
X80832558Y-133120990D01*
X80832560Y-133120990D01*
X80839168Y-133123448D01*
X80922995Y-133134633D01*
X81011980Y-133146507D01*
X81011984Y-133146507D01*
X81018961Y-133147438D01*
X81025972Y-133146800D01*
X81025976Y-133146800D01*
X81168459Y-133133832D01*
X81199600Y-133130998D01*
X81206302Y-133128820D01*
X81206304Y-133128820D01*
X81365409Y-133077124D01*
X81365412Y-133077123D01*
X81372108Y-133074947D01*
X81468513Y-133017478D01*
X81521860Y-132985677D01*
X81521862Y-132985676D01*
X81527912Y-132982069D01*
X81659266Y-132856982D01*
X81759643Y-132705902D01*
X81824055Y-132536338D01*
X81825035Y-132529366D01*
X81848748Y-132360639D01*
X81848748Y-132360636D01*
X81849299Y-132356717D01*
X81849616Y-132334000D01*
X81829397Y-132153745D01*
X81825843Y-132143540D01*
X81772064Y-131989106D01*
X81772062Y-131989103D01*
X81769745Y-131982448D01*
X81754791Y-131958517D01*
X81677359Y-131834598D01*
X81673626Y-131828624D01*
X81661986Y-131816902D01*
X81550778Y-131704915D01*
X81550774Y-131704912D01*
X81545815Y-131699918D01*
X81537688Y-131694760D01*
X81483521Y-131660385D01*
X81392666Y-131602727D01*
X81331961Y-131581111D01*
X81228425Y-131544243D01*
X81228420Y-131544242D01*
X81221790Y-131541881D01*
X81214802Y-131541048D01*
X81214799Y-131541047D01*
X81085171Y-131525590D01*
X81041680Y-131520404D01*
X81034677Y-131521140D01*
X81034676Y-131521140D01*
X80868288Y-131538628D01*
X80868286Y-131538629D01*
X80861288Y-131539364D01*
X80689579Y-131597818D01*
X80620419Y-131640366D01*
X80583522Y-131663065D01*
X80515021Y-131681724D01*
X80447307Y-131660385D01*
X80401879Y-131605826D01*
X80391500Y-131555748D01*
X80391500Y-131052640D01*
X85556463Y-131052640D01*
X85574163Y-131233160D01*
X85631418Y-131405273D01*
X85635065Y-131411295D01*
X85635066Y-131411297D01*
X85715581Y-131544243D01*
X85725380Y-131560424D01*
X85730269Y-131565487D01*
X85730270Y-131565488D01*
X85783727Y-131620844D01*
X85851382Y-131690902D01*
X85857278Y-131694760D01*
X85986912Y-131779590D01*
X86003159Y-131790222D01*
X86009763Y-131792678D01*
X86009765Y-131792679D01*
X86166558Y-131850990D01*
X86166560Y-131850990D01*
X86173168Y-131853448D01*
X86256995Y-131864633D01*
X86345980Y-131876507D01*
X86345984Y-131876507D01*
X86352961Y-131877438D01*
X86359972Y-131876800D01*
X86359976Y-131876800D01*
X86502459Y-131863832D01*
X86533600Y-131860998D01*
X86540302Y-131858820D01*
X86540304Y-131858820D01*
X86699409Y-131807124D01*
X86699412Y-131807123D01*
X86706108Y-131804947D01*
X86816913Y-131738894D01*
X86855860Y-131715677D01*
X86855862Y-131715676D01*
X86861912Y-131712069D01*
X86993266Y-131586982D01*
X87093643Y-131435902D01*
X87094502Y-131433640D01*
X92160463Y-131433640D01*
X92178163Y-131614160D01*
X92235418Y-131786273D01*
X92239065Y-131792295D01*
X92239066Y-131792297D01*
X92323641Y-131931947D01*
X92329380Y-131941424D01*
X92334269Y-131946487D01*
X92334270Y-131946488D01*
X92347896Y-131960598D01*
X92455382Y-132071902D01*
X92607159Y-132171222D01*
X92613763Y-132173678D01*
X92613765Y-132173679D01*
X92770558Y-132231990D01*
X92770560Y-132231990D01*
X92777168Y-132234448D01*
X92860995Y-132245633D01*
X92949980Y-132257507D01*
X92949984Y-132257507D01*
X92956961Y-132258438D01*
X92963972Y-132257800D01*
X92963976Y-132257800D01*
X93106459Y-132244832D01*
X93137600Y-132241998D01*
X93144302Y-132239820D01*
X93144304Y-132239820D01*
X93303409Y-132188124D01*
X93303412Y-132188123D01*
X93310108Y-132185947D01*
X93449471Y-132102870D01*
X93459860Y-132096677D01*
X93459862Y-132096676D01*
X93465912Y-132093069D01*
X93597266Y-131967982D01*
X93697643Y-131816902D01*
X93744762Y-131692862D01*
X93759555Y-131653920D01*
X93759556Y-131653918D01*
X93762055Y-131647338D01*
X93763680Y-131635776D01*
X93786748Y-131471639D01*
X93786748Y-131471636D01*
X93787299Y-131467717D01*
X93787616Y-131445000D01*
X93767397Y-131264745D01*
X93765080Y-131258091D01*
X93710064Y-131100106D01*
X93710062Y-131100103D01*
X93707745Y-131093448D01*
X93611626Y-130939624D01*
X93547287Y-130874834D01*
X93488778Y-130815915D01*
X93488774Y-130815912D01*
X93483815Y-130810918D01*
X93472697Y-130803862D01*
X93388006Y-130750116D01*
X93330666Y-130713727D01*
X93281759Y-130696312D01*
X93166425Y-130655243D01*
X93166420Y-130655242D01*
X93159790Y-130652881D01*
X93152802Y-130652048D01*
X93152799Y-130652047D01*
X93029698Y-130637368D01*
X92979680Y-130631404D01*
X92972677Y-130632140D01*
X92972676Y-130632140D01*
X92806288Y-130649628D01*
X92806286Y-130649629D01*
X92799288Y-130650364D01*
X92627579Y-130708818D01*
X92565109Y-130747250D01*
X92479095Y-130800166D01*
X92479092Y-130800168D01*
X92473088Y-130803862D01*
X92468053Y-130808793D01*
X92468050Y-130808795D01*
X92398309Y-130877091D01*
X92343493Y-130930771D01*
X92245235Y-131083238D01*
X92242826Y-131089858D01*
X92242824Y-131089861D01*
X92188235Y-131239844D01*
X92183197Y-131253685D01*
X92160463Y-131433640D01*
X87094502Y-131433640D01*
X87158055Y-131266338D01*
X87159833Y-131253685D01*
X87182748Y-131090639D01*
X87182748Y-131090636D01*
X87183299Y-131086717D01*
X87183616Y-131064000D01*
X87163397Y-130883745D01*
X87160294Y-130874834D01*
X87106064Y-130719106D01*
X87106062Y-130719103D01*
X87103745Y-130712448D01*
X87053625Y-130632238D01*
X87011359Y-130564598D01*
X87007626Y-130558624D01*
X86929984Y-130480438D01*
X86884778Y-130434915D01*
X86884774Y-130434912D01*
X86879815Y-130429918D01*
X86868697Y-130422862D01*
X86798380Y-130378238D01*
X86726666Y-130332727D01*
X86687209Y-130318677D01*
X86562425Y-130274243D01*
X86562420Y-130274242D01*
X86555790Y-130271881D01*
X86548802Y-130271048D01*
X86548799Y-130271047D01*
X86425698Y-130256368D01*
X86375680Y-130250404D01*
X86368677Y-130251140D01*
X86368676Y-130251140D01*
X86202288Y-130268628D01*
X86202286Y-130268629D01*
X86195288Y-130269364D01*
X86023579Y-130327818D01*
X86017575Y-130331512D01*
X85875095Y-130419166D01*
X85875092Y-130419168D01*
X85869088Y-130422862D01*
X85864053Y-130427793D01*
X85864050Y-130427795D01*
X85810293Y-130480438D01*
X85739493Y-130549771D01*
X85641235Y-130702238D01*
X85638826Y-130708858D01*
X85638824Y-130708861D01*
X85592600Y-130835861D01*
X85579197Y-130872685D01*
X85556463Y-131052640D01*
X80391500Y-131052640D01*
X80391500Y-130195499D01*
X80411502Y-130127378D01*
X80465158Y-130080885D01*
X80535432Y-130070781D01*
X80600012Y-130100275D01*
X80625276Y-130130228D01*
X80645380Y-130163424D01*
X80650269Y-130168487D01*
X80650270Y-130168488D01*
X80727121Y-130248068D01*
X80771382Y-130293902D01*
X80777278Y-130297760D01*
X80898987Y-130377404D01*
X80923159Y-130393222D01*
X80929763Y-130395678D01*
X80929765Y-130395679D01*
X81086558Y-130453990D01*
X81086560Y-130453990D01*
X81093168Y-130456448D01*
X81176995Y-130467633D01*
X81265980Y-130479507D01*
X81265984Y-130479507D01*
X81272961Y-130480438D01*
X81279972Y-130479800D01*
X81279976Y-130479800D01*
X81422459Y-130466832D01*
X81453600Y-130463998D01*
X81460302Y-130461820D01*
X81460304Y-130461820D01*
X81619409Y-130410124D01*
X81619412Y-130410123D01*
X81626108Y-130407947D01*
X81745951Y-130336506D01*
X81775860Y-130318677D01*
X81775862Y-130318676D01*
X81781912Y-130315069D01*
X81913266Y-130189982D01*
X82013643Y-130038902D01*
X82078055Y-129869338D01*
X82103299Y-129689717D01*
X82103616Y-129667000D01*
X82083397Y-129486745D01*
X82081080Y-129480091D01*
X82026064Y-129322106D01*
X82026062Y-129322103D01*
X82023745Y-129315448D01*
X81927626Y-129161624D01*
X81849984Y-129083438D01*
X81804778Y-129037915D01*
X81804774Y-129037912D01*
X81799815Y-129032918D01*
X81788697Y-129025862D01*
X81735912Y-128992364D01*
X81646666Y-128935727D01*
X81607209Y-128921677D01*
X81482425Y-128877243D01*
X81482420Y-128877242D01*
X81475790Y-128874881D01*
X81468802Y-128874048D01*
X81468799Y-128874047D01*
X81345698Y-128859368D01*
X81295680Y-128853404D01*
X81288677Y-128854140D01*
X81288676Y-128854140D01*
X81122288Y-128871628D01*
X81122286Y-128871629D01*
X81115288Y-128872364D01*
X80943579Y-128930818D01*
X80937575Y-128934512D01*
X80795095Y-129022166D01*
X80795092Y-129022168D01*
X80789088Y-129025862D01*
X80784053Y-129030793D01*
X80784050Y-129030795D01*
X80664525Y-129147843D01*
X80659493Y-129152771D01*
X80655677Y-129158693D01*
X80623411Y-129208759D01*
X80569696Y-129255184D01*
X80499410Y-129265199D01*
X80434867Y-129235623D01*
X80396559Y-129175849D01*
X80391500Y-129140504D01*
X80391500Y-124099499D01*
X80411502Y-124031378D01*
X80465158Y-123984885D01*
X80535432Y-123974781D01*
X80600012Y-124004275D01*
X80625276Y-124034228D01*
X80635581Y-124051243D01*
X80645380Y-124067424D01*
X80650269Y-124072487D01*
X80650270Y-124072488D01*
X80696939Y-124120815D01*
X80771382Y-124197902D01*
X80841367Y-124243699D01*
X80890232Y-124275675D01*
X80923159Y-124297222D01*
X80929763Y-124299678D01*
X80929765Y-124299679D01*
X81086558Y-124357990D01*
X81086560Y-124357990D01*
X81093168Y-124360448D01*
X81176995Y-124371633D01*
X81265980Y-124383507D01*
X81265984Y-124383507D01*
X81272961Y-124384438D01*
X81279972Y-124383800D01*
X81279976Y-124383800D01*
X81422459Y-124370832D01*
X81453600Y-124367998D01*
X81460302Y-124365820D01*
X81460304Y-124365820D01*
X81619409Y-124314124D01*
X81619412Y-124314123D01*
X81626108Y-124311947D01*
X81722513Y-124254478D01*
X81775860Y-124222677D01*
X81775862Y-124222676D01*
X81781912Y-124219069D01*
X81913266Y-124093982D01*
X82013643Y-123942902D01*
X82071233Y-123791297D01*
X82075555Y-123779920D01*
X82075556Y-123779918D01*
X82078055Y-123773338D01*
X82084325Y-123728727D01*
X82102748Y-123597639D01*
X82102748Y-123597636D01*
X82103299Y-123593717D01*
X82103616Y-123571000D01*
X82083397Y-123390745D01*
X82079630Y-123379928D01*
X82026064Y-123226106D01*
X82026062Y-123226103D01*
X82023745Y-123219448D01*
X81947805Y-123097918D01*
X81931359Y-123071598D01*
X81927626Y-123065624D01*
X81918835Y-123056771D01*
X81804778Y-122941915D01*
X81804774Y-122941912D01*
X81799815Y-122936918D01*
X81788697Y-122929862D01*
X81720323Y-122886471D01*
X81646666Y-122839727D01*
X81617463Y-122829328D01*
X81482425Y-122781243D01*
X81482420Y-122781242D01*
X81475790Y-122778881D01*
X81468802Y-122778048D01*
X81468799Y-122778047D01*
X81332898Y-122761842D01*
X81295680Y-122757404D01*
X81288677Y-122758140D01*
X81288676Y-122758140D01*
X81122288Y-122775628D01*
X81122286Y-122775629D01*
X81115288Y-122776364D01*
X80943579Y-122834818D01*
X80899417Y-122861987D01*
X80795095Y-122926166D01*
X80795092Y-122926168D01*
X80789088Y-122929862D01*
X80784053Y-122934793D01*
X80784050Y-122934795D01*
X80664525Y-123051843D01*
X80659493Y-123056771D01*
X80655677Y-123062693D01*
X80623411Y-123112759D01*
X80569696Y-123159184D01*
X80499410Y-123169199D01*
X80434867Y-123139623D01*
X80396559Y-123079849D01*
X80391500Y-123044504D01*
X80391500Y-120384640D01*
X82762463Y-120384640D01*
X82780163Y-120565160D01*
X82837418Y-120737273D01*
X82841065Y-120743295D01*
X82841066Y-120743297D01*
X82926154Y-120883794D01*
X82931380Y-120892424D01*
X82936269Y-120897487D01*
X82936270Y-120897488D01*
X82972503Y-120935008D01*
X83057382Y-121022902D01*
X83209159Y-121122222D01*
X83215763Y-121124678D01*
X83215765Y-121124679D01*
X83372558Y-121182990D01*
X83372560Y-121182990D01*
X83379168Y-121185448D01*
X83462995Y-121196633D01*
X83551980Y-121208507D01*
X83551984Y-121208507D01*
X83558961Y-121209438D01*
X83565972Y-121208800D01*
X83565976Y-121208800D01*
X83708459Y-121195832D01*
X83739600Y-121192998D01*
X83746302Y-121190820D01*
X83746304Y-121190820D01*
X83905409Y-121139124D01*
X83905412Y-121139123D01*
X83912108Y-121136947D01*
X84031126Y-121065998D01*
X84061860Y-121047677D01*
X84061862Y-121047676D01*
X84067912Y-121044069D01*
X84199266Y-120918982D01*
X84299643Y-120767902D01*
X84346041Y-120645760D01*
X84361555Y-120604920D01*
X84361556Y-120604918D01*
X84364055Y-120598338D01*
X84367545Y-120573507D01*
X84388748Y-120422639D01*
X84388748Y-120422636D01*
X84389299Y-120418717D01*
X84389452Y-120407738D01*
X84389561Y-120399962D01*
X84389561Y-120399957D01*
X84389616Y-120396000D01*
X84369397Y-120215745D01*
X84365630Y-120204928D01*
X84312064Y-120051106D01*
X84312062Y-120051103D01*
X84309745Y-120044448D01*
X84213626Y-119890624D01*
X84199941Y-119876843D01*
X84090778Y-119766915D01*
X84090774Y-119766912D01*
X84085815Y-119761918D01*
X84078164Y-119757062D01*
X84000452Y-119707745D01*
X83932666Y-119664727D01*
X83900401Y-119653238D01*
X83768425Y-119606243D01*
X83768420Y-119606242D01*
X83761790Y-119603881D01*
X83754802Y-119603048D01*
X83754799Y-119603047D01*
X83626462Y-119587744D01*
X83581680Y-119582404D01*
X83574677Y-119583140D01*
X83574676Y-119583140D01*
X83408288Y-119600628D01*
X83408286Y-119600629D01*
X83401288Y-119601364D01*
X83229579Y-119659818D01*
X83221600Y-119664727D01*
X83081095Y-119751166D01*
X83081092Y-119751168D01*
X83075088Y-119754862D01*
X83070053Y-119759793D01*
X83070050Y-119759795D01*
X83004808Y-119823685D01*
X82945493Y-119881771D01*
X82847235Y-120034238D01*
X82844826Y-120040858D01*
X82844824Y-120040861D01*
X82790235Y-120190844D01*
X82785197Y-120204685D01*
X82762463Y-120384640D01*
X80391500Y-120384640D01*
X80391500Y-117241499D01*
X80411502Y-117173378D01*
X80465158Y-117126885D01*
X80535432Y-117116781D01*
X80600012Y-117146275D01*
X80625276Y-117176228D01*
X80645380Y-117209424D01*
X80650269Y-117214487D01*
X80650270Y-117214488D01*
X80680558Y-117245852D01*
X80771382Y-117339902D01*
X80777278Y-117343760D01*
X80898987Y-117423404D01*
X80923159Y-117439222D01*
X80929763Y-117441678D01*
X80929765Y-117441679D01*
X81086558Y-117499990D01*
X81086560Y-117499990D01*
X81093168Y-117502448D01*
X81176995Y-117513633D01*
X81265980Y-117525507D01*
X81265984Y-117525507D01*
X81272961Y-117526438D01*
X81279972Y-117525800D01*
X81279976Y-117525800D01*
X81422459Y-117512832D01*
X81453600Y-117509998D01*
X81460302Y-117507820D01*
X81460304Y-117507820D01*
X81619409Y-117456124D01*
X81619412Y-117456123D01*
X81626108Y-117453947D01*
X81722513Y-117396478D01*
X81775860Y-117364677D01*
X81775862Y-117364676D01*
X81781912Y-117361069D01*
X81913266Y-117235982D01*
X82013643Y-117084902D01*
X82078055Y-116915338D01*
X82103299Y-116735717D01*
X82103452Y-116724738D01*
X82103561Y-116716962D01*
X82103561Y-116716957D01*
X82103616Y-116713000D01*
X82087861Y-116572544D01*
X82100145Y-116502620D01*
X82148284Y-116450435D01*
X82213076Y-116432500D01*
X82890761Y-116432500D01*
X82958882Y-116452502D01*
X82979856Y-116469405D01*
X86794681Y-120284229D01*
X86805548Y-120296620D01*
X86819984Y-120315434D01*
X86819987Y-120315437D01*
X86825013Y-120321987D01*
X86831563Y-120327013D01*
X86831567Y-120327017D01*
X86856927Y-120346476D01*
X86856929Y-120346477D01*
X86904310Y-120382834D01*
X86952124Y-120419524D01*
X86959750Y-120422683D01*
X86959752Y-120422684D01*
X87026136Y-120450181D01*
X87100149Y-120480838D01*
X87108336Y-120481916D01*
X87108337Y-120481916D01*
X87119542Y-120483391D01*
X87148642Y-120487222D01*
X87219115Y-120496500D01*
X87219118Y-120496500D01*
X87219126Y-120496501D01*
X87250811Y-120500672D01*
X87259000Y-120501750D01*
X87290693Y-120497578D01*
X87307136Y-120496500D01*
X88409783Y-120496500D01*
X88477904Y-120516502D01*
X88524397Y-120570158D01*
X88534501Y-120640432D01*
X88505007Y-120705012D01*
X88475808Y-120729816D01*
X88409088Y-120770862D01*
X88373479Y-120805733D01*
X88346025Y-120826121D01*
X88343610Y-120827449D01*
X88336244Y-120830365D01*
X88329835Y-120835022D01*
X88329834Y-120835022D01*
X88298874Y-120857516D01*
X88288952Y-120864033D01*
X88256023Y-120883507D01*
X88256019Y-120883510D01*
X88249193Y-120887547D01*
X88234029Y-120902711D01*
X88218996Y-120915551D01*
X88201643Y-120928159D01*
X88172198Y-120963752D01*
X88164208Y-120972532D01*
X84872134Y-124264606D01*
X84810096Y-124298572D01*
X84805295Y-124299628D01*
X84798288Y-124300364D01*
X84626579Y-124358818D01*
X84586448Y-124383507D01*
X84478095Y-124450166D01*
X84478092Y-124450168D01*
X84472088Y-124453862D01*
X84467053Y-124458793D01*
X84467050Y-124458795D01*
X84347525Y-124575843D01*
X84342493Y-124580771D01*
X84244235Y-124733238D01*
X84241826Y-124739858D01*
X84241824Y-124739861D01*
X84185592Y-124894358D01*
X84182197Y-124903685D01*
X84161535Y-125067243D01*
X84160718Y-125073707D01*
X84132336Y-125138784D01*
X84073277Y-125178185D01*
X84002290Y-125179402D01*
X83941915Y-125142047D01*
X83929744Y-125123824D01*
X83928745Y-125124448D01*
X83836359Y-124976598D01*
X83832626Y-124970624D01*
X83809092Y-124946925D01*
X83709778Y-124846915D01*
X83709774Y-124846912D01*
X83704815Y-124841918D01*
X83693697Y-124834862D01*
X83640912Y-124801364D01*
X83551666Y-124744727D01*
X83502759Y-124727312D01*
X83387425Y-124686243D01*
X83387420Y-124686242D01*
X83380790Y-124683881D01*
X83373802Y-124683048D01*
X83373799Y-124683047D01*
X83237898Y-124666842D01*
X83200680Y-124662404D01*
X83193677Y-124663140D01*
X83193676Y-124663140D01*
X83027288Y-124680628D01*
X83027286Y-124680629D01*
X83020288Y-124681364D01*
X82848579Y-124739818D01*
X82816876Y-124759322D01*
X82700095Y-124831166D01*
X82700092Y-124831168D01*
X82694088Y-124834862D01*
X82689053Y-124839793D01*
X82689050Y-124839795D01*
X82569953Y-124956424D01*
X82564493Y-124961771D01*
X82466235Y-125114238D01*
X82463826Y-125120858D01*
X82463824Y-125120861D01*
X82406697Y-125277816D01*
X82404197Y-125284685D01*
X82381463Y-125464640D01*
X82399163Y-125645160D01*
X82456418Y-125817273D01*
X82460065Y-125823295D01*
X82460066Y-125823297D01*
X82540581Y-125956243D01*
X82550380Y-125972424D01*
X82555269Y-125977487D01*
X82555270Y-125977488D01*
X82626348Y-126051091D01*
X82676382Y-126102902D01*
X82714242Y-126127677D01*
X82811912Y-126191590D01*
X82828159Y-126202222D01*
X82834763Y-126204678D01*
X82834765Y-126204679D01*
X82991558Y-126262990D01*
X82991560Y-126262990D01*
X82998168Y-126265448D01*
X83081995Y-126276633D01*
X83170980Y-126288507D01*
X83170984Y-126288507D01*
X83177961Y-126289438D01*
X83184972Y-126288800D01*
X83184976Y-126288800D01*
X83327459Y-126275832D01*
X83358600Y-126272998D01*
X83365302Y-126270820D01*
X83365304Y-126270820D01*
X83501277Y-126226640D01*
X85683463Y-126226640D01*
X85701163Y-126407160D01*
X85758418Y-126579273D01*
X85762065Y-126585295D01*
X85762066Y-126585297D01*
X85848565Y-126728124D01*
X85852380Y-126734424D01*
X85857269Y-126739487D01*
X85857270Y-126739488D01*
X85909570Y-126793646D01*
X85978382Y-126864902D01*
X85984278Y-126868760D01*
X86113912Y-126953590D01*
X86130159Y-126964222D01*
X86136763Y-126966678D01*
X86136765Y-126966679D01*
X86293558Y-127024990D01*
X86293560Y-127024990D01*
X86300168Y-127027448D01*
X86383995Y-127038633D01*
X86472980Y-127050507D01*
X86472984Y-127050507D01*
X86479961Y-127051438D01*
X86486972Y-127050800D01*
X86486976Y-127050800D01*
X86587405Y-127041660D01*
X86657059Y-127055405D01*
X86708223Y-127104627D01*
X86724654Y-127173696D01*
X86722408Y-127189104D01*
X86722197Y-127189685D01*
X86699463Y-127369640D01*
X86717163Y-127550160D01*
X86774418Y-127722273D01*
X86778065Y-127728295D01*
X86778066Y-127728297D01*
X86788978Y-127746314D01*
X86868380Y-127877424D01*
X86994382Y-128007902D01*
X87146159Y-128107222D01*
X87152763Y-128109678D01*
X87152765Y-128109679D01*
X87309558Y-128167990D01*
X87309560Y-128167990D01*
X87316168Y-128170448D01*
X87399995Y-128181633D01*
X87488980Y-128193507D01*
X87488984Y-128193507D01*
X87495961Y-128194438D01*
X87502972Y-128193800D01*
X87502976Y-128193800D01*
X87645459Y-128180832D01*
X87676600Y-128177998D01*
X87683302Y-128175820D01*
X87683304Y-128175820D01*
X87842409Y-128124124D01*
X87842412Y-128124123D01*
X87849108Y-128121947D01*
X88004912Y-128029069D01*
X88136266Y-127903982D01*
X88236643Y-127752902D01*
X88285746Y-127623640D01*
X88985463Y-127623640D01*
X89003163Y-127804160D01*
X89060418Y-127976273D01*
X89064065Y-127982295D01*
X89064066Y-127982297D01*
X89148641Y-128121947D01*
X89154380Y-128131424D01*
X89159269Y-128136487D01*
X89159270Y-128136488D01*
X89192065Y-128170448D01*
X89280382Y-128261902D01*
X89432159Y-128361222D01*
X89438763Y-128363678D01*
X89438765Y-128363679D01*
X89595558Y-128421990D01*
X89595560Y-128421990D01*
X89602168Y-128424448D01*
X89685995Y-128435633D01*
X89774980Y-128447507D01*
X89774984Y-128447507D01*
X89781961Y-128448438D01*
X89788972Y-128447800D01*
X89788976Y-128447800D01*
X89931459Y-128434832D01*
X89962600Y-128431998D01*
X89969302Y-128429820D01*
X89969304Y-128429820D01*
X90128409Y-128378124D01*
X90128412Y-128378123D01*
X90135108Y-128375947D01*
X90268148Y-128296639D01*
X90284860Y-128286677D01*
X90284862Y-128286676D01*
X90290912Y-128283069D01*
X90422266Y-128157982D01*
X90522643Y-128006902D01*
X90587055Y-127837338D01*
X90588035Y-127830366D01*
X90611748Y-127661639D01*
X90611748Y-127661636D01*
X90612299Y-127657717D01*
X90612452Y-127646738D01*
X90612561Y-127638962D01*
X90612561Y-127638957D01*
X90612616Y-127635000D01*
X90592397Y-127454745D01*
X90590080Y-127448091D01*
X90535064Y-127290106D01*
X90535062Y-127290103D01*
X90532745Y-127283448D01*
X90443153Y-127140069D01*
X90440359Y-127135598D01*
X90436626Y-127129624D01*
X90420946Y-127113834D01*
X90313778Y-127005915D01*
X90313774Y-127005912D01*
X90308815Y-127000918D01*
X90297697Y-126993862D01*
X90244912Y-126960364D01*
X90155666Y-126903727D01*
X90149022Y-126901361D01*
X90142697Y-126898276D01*
X90143286Y-126897068D01*
X90091912Y-126859790D01*
X90066115Y-126793646D01*
X90080173Y-126724055D01*
X90129623Y-126673112D01*
X90180221Y-126657309D01*
X90216600Y-126653998D01*
X90223302Y-126651820D01*
X90223304Y-126651820D01*
X90382409Y-126600124D01*
X90382412Y-126600123D01*
X90389108Y-126597947D01*
X90526406Y-126516101D01*
X90538860Y-126508677D01*
X90538862Y-126508676D01*
X90544912Y-126505069D01*
X90676266Y-126379982D01*
X90776643Y-126228902D01*
X90823041Y-126106760D01*
X90838555Y-126065920D01*
X90838556Y-126065918D01*
X90841055Y-126059338D01*
X90842833Y-126046685D01*
X90865748Y-125883639D01*
X90865748Y-125883636D01*
X90866299Y-125879717D01*
X90866616Y-125857000D01*
X90846397Y-125676745D01*
X90844080Y-125670091D01*
X90789064Y-125512106D01*
X90789062Y-125512103D01*
X90786745Y-125505448D01*
X90736625Y-125425238D01*
X90694359Y-125357598D01*
X90690626Y-125351624D01*
X90685664Y-125346627D01*
X90567778Y-125227915D01*
X90567774Y-125227912D01*
X90562815Y-125222918D01*
X90554688Y-125217760D01*
X90498912Y-125182364D01*
X90409666Y-125125727D01*
X90360759Y-125108312D01*
X90245425Y-125067243D01*
X90245420Y-125067242D01*
X90238790Y-125064881D01*
X90231802Y-125064048D01*
X90231799Y-125064047D01*
X90108698Y-125049368D01*
X90058680Y-125043404D01*
X90051677Y-125044140D01*
X90051676Y-125044140D01*
X89885288Y-125061628D01*
X89885286Y-125061629D01*
X89878288Y-125062364D01*
X89706579Y-125120818D01*
X89646653Y-125157685D01*
X89558095Y-125212166D01*
X89558092Y-125212168D01*
X89552088Y-125215862D01*
X89547053Y-125220793D01*
X89547050Y-125220795D01*
X89427525Y-125337843D01*
X89422493Y-125342771D01*
X89324235Y-125495238D01*
X89321826Y-125501858D01*
X89321824Y-125501861D01*
X89268022Y-125649680D01*
X89262197Y-125665685D01*
X89239463Y-125845640D01*
X89257163Y-126026160D01*
X89314418Y-126198273D01*
X89318065Y-126204295D01*
X89318066Y-126204297D01*
X89394266Y-126330118D01*
X89408380Y-126353424D01*
X89413269Y-126358487D01*
X89413270Y-126358488D01*
X89466727Y-126413844D01*
X89534382Y-126483902D01*
X89540278Y-126487760D01*
X89669912Y-126572590D01*
X89686159Y-126583222D01*
X89708098Y-126591381D01*
X89764971Y-126633871D01*
X89789846Y-126700367D01*
X89774822Y-126769756D01*
X89724668Y-126820006D01*
X89677347Y-126834787D01*
X89631288Y-126839628D01*
X89631286Y-126839629D01*
X89624288Y-126840364D01*
X89452579Y-126898818D01*
X89446575Y-126902512D01*
X89304095Y-126990166D01*
X89304092Y-126990168D01*
X89298088Y-126993862D01*
X89293053Y-126998793D01*
X89293050Y-126998795D01*
X89173953Y-127115424D01*
X89168493Y-127120771D01*
X89070235Y-127273238D01*
X89067826Y-127279858D01*
X89067824Y-127279861D01*
X89010606Y-127437066D01*
X89008197Y-127443685D01*
X88985463Y-127623640D01*
X88285746Y-127623640D01*
X88301055Y-127583338D01*
X88304545Y-127558507D01*
X88325748Y-127407639D01*
X88325748Y-127407636D01*
X88326299Y-127403717D01*
X88326492Y-127389860D01*
X88326561Y-127384962D01*
X88326561Y-127384957D01*
X88326616Y-127381000D01*
X88306397Y-127200745D01*
X88304080Y-127194091D01*
X88249064Y-127036106D01*
X88249062Y-127036103D01*
X88246745Y-127029448D01*
X88150626Y-126875624D01*
X88134902Y-126859790D01*
X88027778Y-126751915D01*
X88027774Y-126751912D01*
X88022815Y-126746918D01*
X88015164Y-126742062D01*
X87955472Y-126704181D01*
X87869666Y-126649727D01*
X87825137Y-126633871D01*
X87705425Y-126591243D01*
X87705420Y-126591242D01*
X87698790Y-126588881D01*
X87691802Y-126588048D01*
X87691799Y-126588047D01*
X87562171Y-126572590D01*
X87518680Y-126567404D01*
X87511677Y-126568140D01*
X87511676Y-126568140D01*
X87486274Y-126570810D01*
X87423815Y-126577375D01*
X87353978Y-126564603D01*
X87302131Y-126516101D01*
X87284736Y-126447269D01*
X87285871Y-126434529D01*
X87290569Y-126401106D01*
X87310299Y-126260717D01*
X87310616Y-126238000D01*
X87290397Y-126057745D01*
X87288080Y-126051091D01*
X87233064Y-125893106D01*
X87233062Y-125893103D01*
X87230745Y-125886448D01*
X87187520Y-125817273D01*
X87138359Y-125738598D01*
X87134626Y-125732624D01*
X87085933Y-125683590D01*
X87011778Y-125608915D01*
X87011774Y-125608912D01*
X87006815Y-125603918D01*
X86995697Y-125596862D01*
X86896920Y-125534177D01*
X86853666Y-125506727D01*
X86767748Y-125476133D01*
X86689425Y-125448243D01*
X86689420Y-125448242D01*
X86682790Y-125445881D01*
X86675802Y-125445048D01*
X86675799Y-125445047D01*
X86535193Y-125428281D01*
X86502680Y-125424404D01*
X86495677Y-125425140D01*
X86495676Y-125425140D01*
X86329288Y-125442628D01*
X86329286Y-125442629D01*
X86322288Y-125443364D01*
X86150579Y-125501818D01*
X86088109Y-125540250D01*
X86002095Y-125593166D01*
X86002092Y-125593168D01*
X85996088Y-125596862D01*
X85991053Y-125601793D01*
X85991050Y-125601795D01*
X85907524Y-125683590D01*
X85866493Y-125723771D01*
X85768235Y-125876238D01*
X85765826Y-125882858D01*
X85765824Y-125882861D01*
X85711235Y-126032844D01*
X85706197Y-126046685D01*
X85683463Y-126226640D01*
X83501277Y-126226640D01*
X83524409Y-126219124D01*
X83524412Y-126219123D01*
X83531108Y-126216947D01*
X83686912Y-126124069D01*
X83818266Y-125998982D01*
X83918643Y-125847902D01*
X83965041Y-125725760D01*
X83980555Y-125684920D01*
X83980556Y-125684918D01*
X83983055Y-125678338D01*
X83985764Y-125659066D01*
X84008299Y-125498717D01*
X84009281Y-125498855D01*
X84032888Y-125436578D01*
X84089949Y-125394335D01*
X84160791Y-125389648D01*
X84222921Y-125424005D01*
X84241128Y-125447353D01*
X84324391Y-125584837D01*
X84328380Y-125591424D01*
X84333269Y-125596487D01*
X84333270Y-125596488D01*
X84404348Y-125670091D01*
X84454382Y-125721902D01*
X84460278Y-125725760D01*
X84589912Y-125810590D01*
X84606159Y-125821222D01*
X84612763Y-125823678D01*
X84612765Y-125823679D01*
X84769558Y-125881990D01*
X84769560Y-125881990D01*
X84776168Y-125884448D01*
X84859995Y-125895633D01*
X84948980Y-125907507D01*
X84948984Y-125907507D01*
X84955961Y-125908438D01*
X84962972Y-125907800D01*
X84962976Y-125907800D01*
X85105459Y-125894832D01*
X85136600Y-125891998D01*
X85143302Y-125889820D01*
X85143304Y-125889820D01*
X85302409Y-125838124D01*
X85302412Y-125838123D01*
X85309108Y-125835947D01*
X85464912Y-125743069D01*
X85596266Y-125617982D01*
X85696643Y-125466902D01*
X85743082Y-125344653D01*
X85758555Y-125303920D01*
X85758556Y-125303918D01*
X85761055Y-125297338D01*
X85762035Y-125290366D01*
X85762037Y-125290358D01*
X85764859Y-125270280D01*
X85794148Y-125205606D01*
X85800537Y-125198723D01*
X88743813Y-122255447D01*
X88806125Y-122221421D01*
X88849571Y-122219649D01*
X88870429Y-122222432D01*
X88892961Y-122225438D01*
X88899972Y-122224800D01*
X88899976Y-122224800D01*
X89042459Y-122211832D01*
X89073600Y-122208998D01*
X89080302Y-122206820D01*
X89080304Y-122206820D01*
X89239409Y-122155124D01*
X89239412Y-122155123D01*
X89246108Y-122152947D01*
X89374436Y-122076448D01*
X89395860Y-122063677D01*
X89395862Y-122063676D01*
X89401912Y-122060069D01*
X89533266Y-121934982D01*
X89633643Y-121783902D01*
X89678735Y-121665198D01*
X89695555Y-121620920D01*
X89695556Y-121620918D01*
X89698055Y-121614338D01*
X89706063Y-121557361D01*
X89722748Y-121438639D01*
X89722748Y-121438636D01*
X89723299Y-121434717D01*
X89723493Y-121420820D01*
X89723561Y-121415962D01*
X89723561Y-121415957D01*
X89723616Y-121412000D01*
X89703397Y-121231745D01*
X89695305Y-121208507D01*
X89646064Y-121067106D01*
X89646062Y-121067103D01*
X89643745Y-121060448D01*
X89553205Y-120915552D01*
X89551359Y-120912598D01*
X89547626Y-120906624D01*
X89531946Y-120890834D01*
X89424778Y-120782915D01*
X89424774Y-120782912D01*
X89419815Y-120777918D01*
X89408697Y-120770862D01*
X89342551Y-120728885D01*
X89295752Y-120675496D01*
X89285247Y-120605281D01*
X89314371Y-120540533D01*
X89373876Y-120501809D01*
X89410065Y-120496500D01*
X90002761Y-120496500D01*
X90070882Y-120516502D01*
X90091856Y-120533405D01*
X92382685Y-122824234D01*
X92393552Y-122836625D01*
X92413013Y-122861987D01*
X92419563Y-122867013D01*
X92444921Y-122886471D01*
X92444928Y-122886477D01*
X92494382Y-122924424D01*
X92540125Y-122959524D01*
X92688150Y-123020838D01*
X92807115Y-123036500D01*
X92807120Y-123036500D01*
X92807129Y-123036501D01*
X92838812Y-123040672D01*
X92847000Y-123041750D01*
X92878693Y-123037578D01*
X92895136Y-123036500D01*
X94367935Y-123036500D01*
X94436056Y-123056502D01*
X94482549Y-123110158D01*
X94492653Y-123180432D01*
X94486337Y-123205592D01*
X94469197Y-123252685D01*
X94446463Y-123432640D01*
X94464163Y-123613160D01*
X94521418Y-123785273D01*
X94525065Y-123791295D01*
X94525066Y-123791297D01*
X94605581Y-123924243D01*
X94615380Y-123940424D01*
X94620269Y-123945487D01*
X94620270Y-123945488D01*
X94624267Y-123949627D01*
X94741382Y-124070902D01*
X94793277Y-124104861D01*
X94871785Y-124156235D01*
X94893159Y-124170222D01*
X94899763Y-124172678D01*
X94899765Y-124172679D01*
X95056558Y-124230990D01*
X95056560Y-124230990D01*
X95063168Y-124233448D01*
X95139994Y-124243699D01*
X95235980Y-124256507D01*
X95235984Y-124256507D01*
X95242961Y-124257438D01*
X95249972Y-124256800D01*
X95249976Y-124256800D01*
X95297426Y-124252481D01*
X95302692Y-124252002D01*
X95372345Y-124265747D01*
X95421887Y-124312212D01*
X95432523Y-124329773D01*
X95490980Y-124426297D01*
X95504380Y-124448424D01*
X95509269Y-124453487D01*
X95509270Y-124453488D01*
X95616076Y-124564088D01*
X95649008Y-124626984D01*
X95642708Y-124697701D01*
X95613597Y-124741638D01*
X95531020Y-124822504D01*
X95518493Y-124834771D01*
X95420235Y-124987238D01*
X95417826Y-124993858D01*
X95417824Y-124993861D01*
X95370521Y-125123824D01*
X95358197Y-125157685D01*
X95335463Y-125337640D01*
X95353163Y-125518160D01*
X95410418Y-125690273D01*
X95414065Y-125696295D01*
X95414066Y-125696297D01*
X95498641Y-125835947D01*
X95504380Y-125845424D01*
X95509269Y-125850487D01*
X95509270Y-125850488D01*
X95540533Y-125882861D01*
X95630382Y-125975902D01*
X95703087Y-126023479D01*
X95757886Y-126059338D01*
X95782159Y-126075222D01*
X95788763Y-126077678D01*
X95788765Y-126077679D01*
X95923039Y-126127615D01*
X95979915Y-126170107D01*
X96004789Y-126236604D01*
X95997521Y-126288804D01*
X95996727Y-126290987D01*
X95993197Y-126300685D01*
X95970463Y-126480640D01*
X95988163Y-126661160D01*
X96045418Y-126833273D01*
X96049065Y-126839295D01*
X96049066Y-126839297D01*
X96125980Y-126966297D01*
X96139380Y-126988424D01*
X96144269Y-126993487D01*
X96144270Y-126993488D01*
X96177065Y-127027448D01*
X96265382Y-127118902D01*
X96417159Y-127218222D01*
X96423763Y-127220678D01*
X96423765Y-127220679D01*
X96580558Y-127278990D01*
X96580560Y-127278990D01*
X96587168Y-127281448D01*
X96670995Y-127292633D01*
X96759980Y-127304507D01*
X96759984Y-127304507D01*
X96766961Y-127305438D01*
X96773972Y-127304800D01*
X96773976Y-127304800D01*
X96916459Y-127291832D01*
X96947600Y-127288998D01*
X96954302Y-127286820D01*
X96954304Y-127286820D01*
X97113409Y-127235124D01*
X97113412Y-127235123D01*
X97120108Y-127232947D01*
X97275912Y-127140069D01*
X97407266Y-127014982D01*
X97507643Y-126863902D01*
X97559221Y-126728124D01*
X97569555Y-126700920D01*
X97569556Y-126700918D01*
X97572055Y-126694338D01*
X97575779Y-126667844D01*
X97583922Y-126609902D01*
X97593410Y-126542386D01*
X97622698Y-126477713D01*
X97682302Y-126439140D01*
X97753298Y-126438915D01*
X97807279Y-126470828D01*
X100002685Y-128666234D01*
X100013552Y-128678625D01*
X100033013Y-128703987D01*
X100039563Y-128709013D01*
X100064921Y-128728471D01*
X100064937Y-128728485D01*
X100114305Y-128766366D01*
X100160124Y-128801524D01*
X100308149Y-128862838D01*
X100316336Y-128863916D01*
X100316337Y-128863916D01*
X100327542Y-128865391D01*
X100358738Y-128869498D01*
X100427115Y-128878500D01*
X100427118Y-128878500D01*
X100427126Y-128878501D01*
X100458811Y-128882672D01*
X100467000Y-128883750D01*
X100498693Y-128879578D01*
X100515136Y-128878500D01*
X102041699Y-128878500D01*
X102110692Y-128899068D01*
X102259159Y-128996222D01*
X102265763Y-128998678D01*
X102265765Y-128998679D01*
X102422558Y-129056990D01*
X102422560Y-129056990D01*
X102429168Y-129059448D01*
X102512995Y-129070633D01*
X102601980Y-129082507D01*
X102601984Y-129082507D01*
X102608961Y-129083438D01*
X102615972Y-129082800D01*
X102615976Y-129082800D01*
X102758459Y-129069832D01*
X102789600Y-129066998D01*
X102796302Y-129064820D01*
X102796304Y-129064820D01*
X102955409Y-129013124D01*
X102955412Y-129013123D01*
X102962108Y-129010947D01*
X103081951Y-128939506D01*
X103111860Y-128921677D01*
X103111862Y-128921676D01*
X103117912Y-128918069D01*
X103249266Y-128792982D01*
X103349643Y-128641902D01*
X103414055Y-128472338D01*
X103419635Y-128432637D01*
X103438748Y-128296639D01*
X103438748Y-128296636D01*
X103439299Y-128292717D01*
X103439452Y-128281738D01*
X103439561Y-128273962D01*
X103439561Y-128273957D01*
X103439616Y-128270000D01*
X103419397Y-128089745D01*
X103399524Y-128032677D01*
X103362064Y-127925106D01*
X103362062Y-127925103D01*
X103359745Y-127918448D01*
X103263626Y-127764624D01*
X103251986Y-127752902D01*
X103140778Y-127640915D01*
X103140774Y-127640912D01*
X103135815Y-127635918D01*
X103128164Y-127631062D01*
X103076538Y-127598300D01*
X102982666Y-127538727D01*
X102953463Y-127528328D01*
X102818425Y-127480243D01*
X102818420Y-127480242D01*
X102811790Y-127477881D01*
X102804802Y-127477048D01*
X102804799Y-127477047D01*
X102676462Y-127461744D01*
X102631680Y-127456404D01*
X102624677Y-127457140D01*
X102624676Y-127457140D01*
X102458288Y-127474628D01*
X102458286Y-127474629D01*
X102451288Y-127475364D01*
X102279579Y-127533818D01*
X102125088Y-127628862D01*
X102120054Y-127633791D01*
X102118776Y-127634790D01*
X102052782Y-127660967D01*
X102041204Y-127661500D01*
X100771239Y-127661500D01*
X100703118Y-127641498D01*
X100682144Y-127624595D01*
X98010315Y-124952766D01*
X97999448Y-124940375D01*
X97985013Y-124921563D01*
X97979987Y-124915013D01*
X97948075Y-124890526D01*
X97948072Y-124890523D01*
X97911495Y-124862456D01*
X97859429Y-124822504D01*
X97859427Y-124822503D01*
X97852876Y-124817476D01*
X97704851Y-124756162D01*
X97696664Y-124755084D01*
X97696663Y-124755084D01*
X97685458Y-124753609D01*
X97646696Y-124748506D01*
X97585885Y-124740500D01*
X97585882Y-124740500D01*
X97585874Y-124740499D01*
X97554189Y-124736328D01*
X97546000Y-124735250D01*
X97514307Y-124739422D01*
X97497864Y-124740500D01*
X96808468Y-124740500D01*
X96740347Y-124720498D01*
X96693854Y-124666842D01*
X96683750Y-124596568D01*
X96713244Y-124531988D01*
X96721575Y-124523255D01*
X96767163Y-124479842D01*
X96767165Y-124479840D01*
X96772266Y-124474982D01*
X96872643Y-124323902D01*
X96937055Y-124154338D01*
X96938036Y-124147360D01*
X96938085Y-124147168D01*
X96974398Y-124086161D01*
X97037929Y-124054471D01*
X97060127Y-124052500D01*
X99494642Y-124052500D01*
X99562763Y-124072502D01*
X99609256Y-124126158D01*
X99619360Y-124196432D01*
X99610480Y-124224963D01*
X99611235Y-124225238D01*
X99553291Y-124384438D01*
X99549197Y-124395685D01*
X99526463Y-124575640D01*
X99544163Y-124756160D01*
X99601418Y-124928273D01*
X99605065Y-124934295D01*
X99605066Y-124934297D01*
X99685581Y-125067243D01*
X99695380Y-125083424D01*
X99700269Y-125088487D01*
X99700270Y-125088488D01*
X99773844Y-125164675D01*
X99821382Y-125213902D01*
X99827278Y-125217760D01*
X99948886Y-125297338D01*
X99973159Y-125313222D01*
X99979763Y-125315678D01*
X99979765Y-125315679D01*
X100136558Y-125373990D01*
X100136560Y-125373990D01*
X100143168Y-125376448D01*
X100283526Y-125395176D01*
X100348402Y-125424012D01*
X100374637Y-125454798D01*
X100453391Y-125584837D01*
X100457380Y-125591424D01*
X100462269Y-125596487D01*
X100462270Y-125596488D01*
X100533348Y-125670091D01*
X100583382Y-125721902D01*
X100589278Y-125725760D01*
X100718912Y-125810590D01*
X100735159Y-125821222D01*
X100741763Y-125823678D01*
X100741765Y-125823679D01*
X100898558Y-125881990D01*
X100898560Y-125881990D01*
X100905168Y-125884448D01*
X100988995Y-125895633D01*
X101077980Y-125907507D01*
X101077984Y-125907507D01*
X101084961Y-125908438D01*
X101091972Y-125907800D01*
X101091976Y-125907800D01*
X101234459Y-125894832D01*
X101265600Y-125891998D01*
X101272302Y-125889820D01*
X101272304Y-125889820D01*
X101431409Y-125838124D01*
X101431412Y-125838123D01*
X101438108Y-125835947D01*
X101593912Y-125743069D01*
X101664482Y-125675866D01*
X101727605Y-125643374D01*
X101798276Y-125650167D01*
X101840468Y-125678017D01*
X102802907Y-126640456D01*
X102836933Y-126702768D01*
X102839211Y-126717256D01*
X102846163Y-126788160D01*
X102903418Y-126960273D01*
X102907065Y-126966295D01*
X102907066Y-126966297D01*
X102961032Y-127055405D01*
X102997380Y-127115424D01*
X103002269Y-127120487D01*
X103002270Y-127120488D01*
X103073348Y-127194091D01*
X103123382Y-127245902D01*
X103275159Y-127345222D01*
X103281763Y-127347678D01*
X103281765Y-127347679D01*
X103438558Y-127405990D01*
X103438560Y-127405990D01*
X103445168Y-127408448D01*
X103528995Y-127419633D01*
X103617980Y-127431507D01*
X103617984Y-127431507D01*
X103624961Y-127432438D01*
X103631972Y-127431800D01*
X103631976Y-127431800D01*
X103774459Y-127418832D01*
X103805600Y-127415998D01*
X103812302Y-127413820D01*
X103812304Y-127413820D01*
X103971409Y-127362124D01*
X103971412Y-127362123D01*
X103978108Y-127359947D01*
X104097126Y-127288998D01*
X104127860Y-127270677D01*
X104127862Y-127270676D01*
X104133912Y-127267069D01*
X104265266Y-127141982D01*
X104365643Y-126990902D01*
X104412041Y-126868760D01*
X104427555Y-126827920D01*
X104427556Y-126827918D01*
X104430055Y-126821338D01*
X104430980Y-126814760D01*
X104467214Y-126753889D01*
X104530746Y-126722201D01*
X104601325Y-126729891D01*
X104656542Y-126774519D01*
X104672498Y-126806459D01*
X104681418Y-126833273D01*
X104685065Y-126839295D01*
X104685066Y-126839297D01*
X104761980Y-126966297D01*
X104775380Y-126988424D01*
X104780269Y-126993487D01*
X104780270Y-126993488D01*
X104813065Y-127027448D01*
X104901382Y-127118902D01*
X105053159Y-127218222D01*
X105059763Y-127220678D01*
X105059765Y-127220679D01*
X105216558Y-127278990D01*
X105216560Y-127278990D01*
X105223168Y-127281448D01*
X105306995Y-127292633D01*
X105395980Y-127304507D01*
X105395984Y-127304507D01*
X105402961Y-127305438D01*
X105409972Y-127304800D01*
X105409976Y-127304800D01*
X105552459Y-127291832D01*
X105583600Y-127288998D01*
X105590302Y-127286820D01*
X105590304Y-127286820D01*
X105749409Y-127235124D01*
X105749412Y-127235123D01*
X105756108Y-127232947D01*
X105911912Y-127140069D01*
X105967118Y-127087497D01*
X106030243Y-127055005D01*
X106100914Y-127061798D01*
X106144643Y-127091214D01*
X106171382Y-127118902D01*
X106323159Y-127218222D01*
X106329763Y-127220678D01*
X106329765Y-127220679D01*
X106486558Y-127278990D01*
X106486560Y-127278990D01*
X106493168Y-127281448D01*
X106576995Y-127292633D01*
X106665980Y-127304507D01*
X106665984Y-127304507D01*
X106672961Y-127305438D01*
X106679972Y-127304800D01*
X106679976Y-127304800D01*
X106822459Y-127291832D01*
X106853600Y-127288998D01*
X106860302Y-127286820D01*
X106860304Y-127286820D01*
X107019409Y-127235124D01*
X107019412Y-127235123D01*
X107026108Y-127232947D01*
X107181912Y-127140069D01*
X107313266Y-127014982D01*
X107413643Y-126863902D01*
X107416146Y-126857314D01*
X107416147Y-126857312D01*
X107436339Y-126804155D01*
X107479227Y-126747577D01*
X107545896Y-126723167D01*
X107588226Y-126729818D01*
X107588661Y-126728124D01*
X107609426Y-126733455D01*
X107628134Y-126739860D01*
X107647823Y-126748380D01*
X107655649Y-126749619D01*
X107655651Y-126749620D01*
X107670143Y-126751915D01*
X107693459Y-126755608D01*
X107705070Y-126758012D01*
X107736107Y-126765981D01*
X107742135Y-126767529D01*
X107742136Y-126767529D01*
X107749812Y-126769500D01*
X107771258Y-126769500D01*
X107790968Y-126771051D01*
X107804322Y-126773166D01*
X107804323Y-126773166D01*
X107812152Y-126774406D01*
X107858141Y-126770059D01*
X107869996Y-126769500D01*
X111223208Y-126769500D01*
X111235064Y-126770059D01*
X111235067Y-126770059D01*
X111242801Y-126771788D01*
X111313633Y-126769562D01*
X111317591Y-126769500D01*
X111346696Y-126769500D01*
X111351096Y-126768944D01*
X111362928Y-126768012D01*
X111409095Y-126766562D01*
X111429685Y-126760580D01*
X111449046Y-126756570D01*
X111456672Y-126755607D01*
X111462468Y-126754875D01*
X111462469Y-126754875D01*
X111470328Y-126753882D01*
X111477693Y-126750966D01*
X111477697Y-126750965D01*
X111513285Y-126736874D01*
X111524495Y-126733035D01*
X111568864Y-126720145D01*
X111587329Y-126709225D01*
X111605069Y-126700534D01*
X111625020Y-126692635D01*
X111662393Y-126665482D01*
X111672312Y-126658967D01*
X111705241Y-126639493D01*
X111705245Y-126639490D01*
X111712071Y-126635453D01*
X111727235Y-126620289D01*
X111742269Y-126607448D01*
X111753207Y-126599501D01*
X111759621Y-126594841D01*
X111789062Y-126559253D01*
X111797051Y-126550473D01*
X112685604Y-125661919D01*
X112694385Y-125653929D01*
X112694387Y-125653928D01*
X112701080Y-125649680D01*
X112711907Y-125638151D01*
X112749619Y-125597991D01*
X112752374Y-125595149D01*
X112772926Y-125574597D01*
X112775638Y-125571101D01*
X112783349Y-125562072D01*
X112809544Y-125534177D01*
X112814972Y-125528397D01*
X112824453Y-125511151D01*
X112825301Y-125509609D01*
X112836158Y-125493080D01*
X112844447Y-125482395D01*
X112844448Y-125482393D01*
X112849304Y-125476133D01*
X112867657Y-125433720D01*
X112872868Y-125423083D01*
X112895124Y-125382601D01*
X112900457Y-125361830D01*
X112906859Y-125343128D01*
X112915379Y-125323441D01*
X112916998Y-125313222D01*
X112922605Y-125277816D01*
X112925013Y-125266190D01*
X112934529Y-125229130D01*
X112934529Y-125229127D01*
X112936500Y-125221452D01*
X112936500Y-125213528D01*
X112937410Y-125206325D01*
X112957468Y-125152392D01*
X112997742Y-125091775D01*
X112997746Y-125091768D01*
X113001643Y-125085902D01*
X113004872Y-125077401D01*
X113063555Y-124922920D01*
X113063556Y-124922918D01*
X113066055Y-124916338D01*
X113067833Y-124903685D01*
X113090748Y-124740639D01*
X113090748Y-124740636D01*
X113091299Y-124736717D01*
X113091452Y-124725738D01*
X113091561Y-124717962D01*
X113091561Y-124717957D01*
X113091616Y-124714000D01*
X113071397Y-124533745D01*
X113048889Y-124469111D01*
X113014064Y-124369106D01*
X113014062Y-124369103D01*
X113011745Y-124362448D01*
X112929602Y-124230990D01*
X112919359Y-124214598D01*
X112915626Y-124208624D01*
X112867637Y-124160299D01*
X112792778Y-124084915D01*
X112792774Y-124084912D01*
X112787815Y-124079918D01*
X112779688Y-124074760D01*
X112711328Y-124031378D01*
X112634666Y-123982727D01*
X112605463Y-123972328D01*
X112470425Y-123924243D01*
X112470420Y-123924242D01*
X112463790Y-123921881D01*
X112456802Y-123921048D01*
X112456799Y-123921047D01*
X112333698Y-123906368D01*
X112283680Y-123900404D01*
X112276677Y-123901140D01*
X112276676Y-123901140D01*
X112110288Y-123918628D01*
X112110286Y-123918629D01*
X112103288Y-123919364D01*
X111931579Y-123977818D01*
X111925575Y-123981512D01*
X111783095Y-124069166D01*
X111783092Y-124069168D01*
X111777088Y-124072862D01*
X111762197Y-124087445D01*
X111699535Y-124120815D01*
X111628776Y-124115010D01*
X111623090Y-124112534D01*
X111618666Y-124109727D01*
X111598283Y-124102469D01*
X111454425Y-124051243D01*
X111454420Y-124051242D01*
X111447790Y-124048881D01*
X111440804Y-124048048D01*
X111440800Y-124048047D01*
X111357864Y-124038158D01*
X111292591Y-124010231D01*
X111283688Y-124002139D01*
X109375314Y-122093765D01*
X109364447Y-122081374D01*
X109350012Y-122062562D01*
X109344986Y-122056012D01*
X109313074Y-122031525D01*
X109313071Y-122031522D01*
X109217875Y-121958475D01*
X109069850Y-121897161D01*
X109061663Y-121896083D01*
X109061662Y-121896083D01*
X109050457Y-121894608D01*
X109002618Y-121888310D01*
X108950884Y-121881499D01*
X108950881Y-121881499D01*
X108950873Y-121881498D01*
X108919188Y-121877327D01*
X108910999Y-121876249D01*
X108879306Y-121880421D01*
X108862863Y-121881499D01*
X105786238Y-121881499D01*
X105718117Y-121861497D01*
X105697143Y-121844594D01*
X104991144Y-121138595D01*
X104957118Y-121076283D01*
X104962183Y-121005468D01*
X105004730Y-120948632D01*
X105071250Y-120923821D01*
X105080239Y-120923500D01*
X105134487Y-120923500D01*
X105140209Y-120922284D01*
X105209776Y-120935008D01*
X105260879Y-120982271D01*
X105283380Y-121019424D01*
X105288269Y-121024487D01*
X105288270Y-121024488D01*
X105321065Y-121058448D01*
X105409382Y-121149902D01*
X105561159Y-121249222D01*
X105567763Y-121251678D01*
X105567765Y-121251679D01*
X105724558Y-121309990D01*
X105724560Y-121309990D01*
X105731168Y-121312448D01*
X105814995Y-121323633D01*
X105903980Y-121335507D01*
X105903984Y-121335507D01*
X105910961Y-121336438D01*
X105917972Y-121335800D01*
X105917976Y-121335800D01*
X106060459Y-121322832D01*
X106091600Y-121319998D01*
X106098302Y-121317820D01*
X106098304Y-121317820D01*
X106257409Y-121266124D01*
X106257412Y-121266123D01*
X106264108Y-121263947D01*
X106383126Y-121192998D01*
X106413860Y-121174677D01*
X106413862Y-121174676D01*
X106419912Y-121171069D01*
X106551266Y-121045982D01*
X106651643Y-120894902D01*
X106699115Y-120769933D01*
X106742004Y-120713355D01*
X106808673Y-120688946D01*
X106877955Y-120704456D01*
X106924678Y-120749405D01*
X106930730Y-120759398D01*
X106930733Y-120759401D01*
X106934380Y-120765424D01*
X106939269Y-120770487D01*
X106939270Y-120770488D01*
X106972065Y-120804448D01*
X107060382Y-120895902D01*
X107120142Y-120935008D01*
X107192368Y-120982271D01*
X107212159Y-120995222D01*
X107218763Y-120997678D01*
X107218765Y-120997679D01*
X107375558Y-121055990D01*
X107375560Y-121055990D01*
X107382168Y-121058448D01*
X107465995Y-121069633D01*
X107554980Y-121081507D01*
X107554984Y-121081507D01*
X107561961Y-121082438D01*
X107568972Y-121081800D01*
X107568976Y-121081800D01*
X107711459Y-121068832D01*
X107742600Y-121065998D01*
X107749302Y-121063820D01*
X107749304Y-121063820D01*
X107908409Y-121012124D01*
X107908412Y-121012123D01*
X107915108Y-121009947D01*
X108040819Y-120935008D01*
X108064860Y-120920677D01*
X108064862Y-120920676D01*
X108070912Y-120917069D01*
X108202266Y-120791982D01*
X108302643Y-120640902D01*
X108355480Y-120501809D01*
X108364555Y-120477920D01*
X108364556Y-120477918D01*
X108367055Y-120471338D01*
X108374337Y-120419524D01*
X108391748Y-120295639D01*
X108391748Y-120295636D01*
X108392299Y-120291717D01*
X108392616Y-120269000D01*
X108376861Y-120128544D01*
X108389145Y-120058620D01*
X108437284Y-120006435D01*
X108502076Y-119988500D01*
X113188697Y-119988500D01*
X113256818Y-120008502D01*
X113303311Y-120062158D01*
X113308254Y-120074725D01*
X113317418Y-120102273D01*
X113321065Y-120108295D01*
X113321066Y-120108297D01*
X113386139Y-120215745D01*
X113411380Y-120257424D01*
X113416269Y-120262487D01*
X113416270Y-120262488D01*
X113448284Y-120295639D01*
X113537382Y-120387902D01*
X113549757Y-120396000D01*
X113681051Y-120481916D01*
X113689159Y-120487222D01*
X113695763Y-120489678D01*
X113695765Y-120489679D01*
X113852558Y-120547990D01*
X113852560Y-120547990D01*
X113859168Y-120550448D01*
X113942995Y-120561633D01*
X114031980Y-120573507D01*
X114031984Y-120573507D01*
X114038961Y-120574438D01*
X114045972Y-120573800D01*
X114045976Y-120573800D01*
X114188459Y-120560832D01*
X114219600Y-120557998D01*
X114226302Y-120555820D01*
X114226304Y-120555820D01*
X114385409Y-120504124D01*
X114385412Y-120504123D01*
X114392108Y-120501947D01*
X114488513Y-120444478D01*
X114541860Y-120412677D01*
X114541862Y-120412676D01*
X114547912Y-120409069D01*
X114553018Y-120404207D01*
X114631608Y-120329367D01*
X114694733Y-120296874D01*
X114765403Y-120303667D01*
X114821183Y-120347590D01*
X114844500Y-120420612D01*
X114844500Y-121871864D01*
X114843422Y-121888307D01*
X114839250Y-121920000D01*
X114840328Y-121928189D01*
X114844500Y-121959880D01*
X114844500Y-121959885D01*
X114853931Y-122031522D01*
X114858018Y-122062562D01*
X114860162Y-122078851D01*
X114921476Y-122226876D01*
X114926503Y-122233427D01*
X114926504Y-122233429D01*
X114994520Y-122322069D01*
X114994526Y-122322075D01*
X115019013Y-122353987D01*
X115025568Y-122359017D01*
X115044379Y-122373452D01*
X115056770Y-122384319D01*
X115770369Y-123097918D01*
X115804395Y-123160230D01*
X115799330Y-123231045D01*
X115756783Y-123287881D01*
X115721882Y-123306289D01*
X115614579Y-123342818D01*
X115608575Y-123346512D01*
X115466095Y-123434166D01*
X115466092Y-123434168D01*
X115460088Y-123437862D01*
X115455053Y-123442793D01*
X115455050Y-123442795D01*
X115335525Y-123559843D01*
X115330493Y-123564771D01*
X115232235Y-123717238D01*
X115229826Y-123723858D01*
X115229824Y-123723861D01*
X115172606Y-123881066D01*
X115170197Y-123887685D01*
X115147463Y-124067640D01*
X115165163Y-124248160D01*
X115222418Y-124420273D01*
X115226065Y-124426295D01*
X115226066Y-124426297D01*
X115309515Y-124564088D01*
X115316380Y-124575424D01*
X115321269Y-124580487D01*
X115321270Y-124580488D01*
X115374727Y-124635844D01*
X115442382Y-124705902D01*
X115515286Y-124753609D01*
X115582440Y-124797553D01*
X115594159Y-124805222D01*
X115600763Y-124807678D01*
X115600765Y-124807679D01*
X115757558Y-124865990D01*
X115757560Y-124865990D01*
X115764168Y-124868448D01*
X115847995Y-124879633D01*
X115936980Y-124891507D01*
X115936984Y-124891507D01*
X115943961Y-124892438D01*
X115950972Y-124891800D01*
X115950976Y-124891800D01*
X116093459Y-124878832D01*
X116124600Y-124875998D01*
X116131302Y-124873820D01*
X116131304Y-124873820D01*
X116290409Y-124822124D01*
X116290412Y-124822123D01*
X116297108Y-124819947D01*
X116304987Y-124815250D01*
X116306316Y-124814908D01*
X116309574Y-124813430D01*
X116309834Y-124814003D01*
X116373743Y-124797553D01*
X116441151Y-124819838D01*
X116485811Y-124875029D01*
X116495500Y-124923482D01*
X116495500Y-125808864D01*
X116494422Y-125825307D01*
X116490250Y-125857000D01*
X116495500Y-125896880D01*
X116495500Y-125896885D01*
X116503004Y-125953881D01*
X116511162Y-126015851D01*
X116572476Y-126163876D01*
X116577503Y-126170427D01*
X116577504Y-126170429D01*
X116645520Y-126259069D01*
X116645526Y-126259075D01*
X116670013Y-126290987D01*
X116676568Y-126296017D01*
X116695379Y-126310452D01*
X116707770Y-126321319D01*
X117026907Y-126640456D01*
X117060933Y-126702768D01*
X117063211Y-126717256D01*
X117070163Y-126788160D01*
X117127418Y-126960273D01*
X117131065Y-126966295D01*
X117131066Y-126966297D01*
X117185032Y-127055405D01*
X117221380Y-127115424D01*
X117226269Y-127120487D01*
X117226270Y-127120488D01*
X117297348Y-127194091D01*
X117347382Y-127245902D01*
X117499159Y-127345222D01*
X117505763Y-127347678D01*
X117505765Y-127347679D01*
X117662558Y-127405990D01*
X117662560Y-127405990D01*
X117669168Y-127408448D01*
X117752995Y-127419633D01*
X117841980Y-127431507D01*
X117841984Y-127431507D01*
X117848961Y-127432438D01*
X117855972Y-127431800D01*
X117855976Y-127431800D01*
X117998459Y-127418832D01*
X118029600Y-127415998D01*
X118036302Y-127413820D01*
X118036304Y-127413820D01*
X118154367Y-127375459D01*
X118225335Y-127373432D01*
X118262296Y-127389860D01*
X118365111Y-127457140D01*
X118388159Y-127472222D01*
X118394763Y-127474678D01*
X118394765Y-127474679D01*
X118551558Y-127532990D01*
X118551560Y-127532990D01*
X118558168Y-127535448D01*
X118641995Y-127546633D01*
X118730980Y-127558507D01*
X118730984Y-127558507D01*
X118737961Y-127559438D01*
X118744972Y-127558800D01*
X118744976Y-127558800D01*
X118887459Y-127545832D01*
X118918600Y-127542998D01*
X118925302Y-127540820D01*
X118925304Y-127540820D01*
X119084409Y-127489124D01*
X119084412Y-127489123D01*
X119091108Y-127486947D01*
X119210126Y-127415998D01*
X119240860Y-127397677D01*
X119240862Y-127397676D01*
X119246912Y-127394069D01*
X119378266Y-127268982D01*
X119478643Y-127117902D01*
X119538487Y-126960364D01*
X119540555Y-126954920D01*
X119540556Y-126954918D01*
X119543055Y-126948338D01*
X119549325Y-126903727D01*
X119567748Y-126772639D01*
X119567748Y-126772636D01*
X119568299Y-126768717D01*
X119568506Y-126753882D01*
X119568561Y-126749962D01*
X119568561Y-126749957D01*
X119568616Y-126746000D01*
X119548397Y-126565745D01*
X119543079Y-126550473D01*
X119491064Y-126401106D01*
X119491062Y-126401103D01*
X119488745Y-126394448D01*
X119404155Y-126259075D01*
X119396359Y-126246598D01*
X119392626Y-126240624D01*
X119386110Y-126234062D01*
X119269778Y-126116915D01*
X119269774Y-126116912D01*
X119264815Y-126111918D01*
X119256688Y-126106760D01*
X119200912Y-126071364D01*
X119111666Y-126014727D01*
X119047695Y-125991948D01*
X118947425Y-125956243D01*
X118947420Y-125956242D01*
X118940790Y-125953881D01*
X118933802Y-125953048D01*
X118933799Y-125953047D01*
X118810698Y-125938368D01*
X118760680Y-125932404D01*
X118753677Y-125933140D01*
X118753676Y-125933140D01*
X118587288Y-125950628D01*
X118587286Y-125950629D01*
X118580288Y-125951364D01*
X118469937Y-125988930D01*
X118399007Y-125991948D01*
X118361822Y-125976038D01*
X118222666Y-125887727D01*
X118159372Y-125865189D01*
X118058425Y-125829243D01*
X118058420Y-125829242D01*
X118051790Y-125826881D01*
X118044804Y-125826048D01*
X118044800Y-125826047D01*
X117961864Y-125816158D01*
X117896591Y-125788231D01*
X117887688Y-125780139D01*
X117749405Y-125641856D01*
X117715379Y-125579544D01*
X117712500Y-125552761D01*
X117712500Y-123619144D01*
X117713578Y-123602698D01*
X117716673Y-123579188D01*
X117717751Y-123571000D01*
X117696838Y-123412149D01*
X117635524Y-123264124D01*
X117562478Y-123168929D01*
X117562474Y-123168925D01*
X117555802Y-123160230D01*
X117543016Y-123143566D01*
X117543013Y-123143563D01*
X117537987Y-123137013D01*
X117531432Y-123131983D01*
X117512621Y-123117548D01*
X117500230Y-123106681D01*
X116098405Y-121704856D01*
X116064379Y-121642544D01*
X116061500Y-121615761D01*
X116061500Y-120606160D01*
X116081502Y-120538039D01*
X116135158Y-120491546D01*
X116205432Y-120481442D01*
X116231413Y-120488060D01*
X116399168Y-120550448D01*
X116482995Y-120561633D01*
X116571980Y-120573507D01*
X116571984Y-120573507D01*
X116578961Y-120574438D01*
X116585972Y-120573800D01*
X116585976Y-120573800D01*
X116728459Y-120560832D01*
X116759600Y-120557998D01*
X116766302Y-120555820D01*
X116766304Y-120555820D01*
X116925409Y-120504124D01*
X116925412Y-120504123D01*
X116932108Y-120501947D01*
X117028513Y-120444478D01*
X117081860Y-120412677D01*
X117081862Y-120412676D01*
X117087912Y-120409069D01*
X117219266Y-120283982D01*
X117319643Y-120132902D01*
X117377235Y-119981292D01*
X117381555Y-119969920D01*
X117381556Y-119969918D01*
X117384055Y-119963338D01*
X117390899Y-119914640D01*
X117408748Y-119787639D01*
X117408748Y-119787636D01*
X117409299Y-119783717D01*
X117409452Y-119772738D01*
X117409561Y-119764962D01*
X117409561Y-119764957D01*
X117409616Y-119761000D01*
X117389397Y-119580745D01*
X117364630Y-119509624D01*
X117332064Y-119416106D01*
X117332062Y-119416103D01*
X117329745Y-119409448D01*
X117245265Y-119274250D01*
X117237359Y-119261598D01*
X117233626Y-119255624D01*
X117228665Y-119250628D01*
X117228660Y-119250622D01*
X117178752Y-119200364D01*
X117144945Y-119137934D01*
X117150257Y-119067136D01*
X117179063Y-119022486D01*
X118384712Y-117816837D01*
X118447024Y-117782811D01*
X118517839Y-117787876D01*
X118574675Y-117830423D01*
X118599486Y-117896943D01*
X118598813Y-117921724D01*
X118576463Y-118098640D01*
X118594163Y-118279160D01*
X118651418Y-118451273D01*
X118655065Y-118457295D01*
X118655066Y-118457297D01*
X118738022Y-118594274D01*
X118745380Y-118606424D01*
X118750269Y-118611487D01*
X118750270Y-118611488D01*
X118771027Y-118632982D01*
X118871382Y-118736902D01*
X118944286Y-118784609D01*
X118979457Y-118807624D01*
X119023159Y-118836222D01*
X119029763Y-118838678D01*
X119029765Y-118838679D01*
X119186558Y-118896990D01*
X119186560Y-118896990D01*
X119193168Y-118899448D01*
X119276995Y-118910633D01*
X119365980Y-118922507D01*
X119365984Y-118922507D01*
X119372961Y-118923438D01*
X119379972Y-118922800D01*
X119379976Y-118922800D01*
X119522459Y-118909832D01*
X119553600Y-118906998D01*
X119560302Y-118904820D01*
X119560304Y-118904820D01*
X119719409Y-118853124D01*
X119719412Y-118853123D01*
X119726108Y-118850947D01*
X119859380Y-118771501D01*
X119875860Y-118761677D01*
X119875862Y-118761676D01*
X119881912Y-118758069D01*
X120013266Y-118632982D01*
X120113643Y-118481902D01*
X120164389Y-118348314D01*
X120175555Y-118318920D01*
X120175556Y-118318918D01*
X120178055Y-118312338D01*
X120181312Y-118289164D01*
X120202748Y-118136639D01*
X120202748Y-118136636D01*
X120203299Y-118132717D01*
X120203616Y-118110000D01*
X120183397Y-117929745D01*
X120180604Y-117921724D01*
X120126064Y-117765106D01*
X120126062Y-117765103D01*
X120123745Y-117758448D01*
X120040749Y-117625626D01*
X120031359Y-117610598D01*
X120027626Y-117604624D01*
X120014693Y-117591600D01*
X119904778Y-117480915D01*
X119904774Y-117480912D01*
X119899815Y-117475918D01*
X119888697Y-117468862D01*
X119818380Y-117424238D01*
X119746666Y-117378727D01*
X119707209Y-117364677D01*
X119582425Y-117320243D01*
X119582420Y-117320242D01*
X119575790Y-117317881D01*
X119568802Y-117317048D01*
X119568799Y-117317047D01*
X119445698Y-117302368D01*
X119395680Y-117296404D01*
X119388677Y-117297140D01*
X119388676Y-117297140D01*
X119222288Y-117314628D01*
X119222286Y-117314629D01*
X119215288Y-117315364D01*
X119043579Y-117373818D01*
X119029152Y-117382694D01*
X118960653Y-117401352D01*
X118892938Y-117380013D01*
X118847510Y-117325454D01*
X118838827Y-117255292D01*
X118839838Y-117252851D01*
X118860751Y-117094000D01*
X118856578Y-117062301D01*
X118855500Y-117045856D01*
X118855500Y-116171503D01*
X118875502Y-116103382D01*
X118892405Y-116082408D01*
X118897234Y-116077579D01*
X118909625Y-116066712D01*
X118928437Y-116052277D01*
X118934987Y-116047251D01*
X118959474Y-116015339D01*
X118959480Y-116015333D01*
X119027496Y-115926693D01*
X119027497Y-115926691D01*
X119032524Y-115920140D01*
X119072346Y-115824000D01*
X119074297Y-115819291D01*
X119090679Y-115779741D01*
X119090679Y-115779739D01*
X119093838Y-115772114D01*
X119094894Y-115764097D01*
X119119816Y-115716220D01*
X119124266Y-115711982D01*
X119224643Y-115560902D01*
X119282885Y-115407580D01*
X119286555Y-115397920D01*
X119286556Y-115397918D01*
X119289055Y-115391338D01*
X119290833Y-115378685D01*
X119313748Y-115215639D01*
X119313748Y-115215636D01*
X119314299Y-115211717D01*
X119314616Y-115189000D01*
X119294397Y-115008745D01*
X119292080Y-115002091D01*
X119237064Y-114844106D01*
X119237062Y-114844103D01*
X119234745Y-114837448D01*
X119184625Y-114757238D01*
X119142359Y-114689598D01*
X119138626Y-114683624D01*
X119123372Y-114668263D01*
X119015778Y-114559915D01*
X119015774Y-114559912D01*
X119010815Y-114554918D01*
X118999697Y-114547862D01*
X118929380Y-114503238D01*
X118857666Y-114457727D01*
X118828463Y-114447328D01*
X118693425Y-114399243D01*
X118693420Y-114399242D01*
X118686790Y-114396881D01*
X118679802Y-114396048D01*
X118679799Y-114396047D01*
X118556698Y-114381368D01*
X118506680Y-114375404D01*
X118499677Y-114376140D01*
X118499676Y-114376140D01*
X118333288Y-114393628D01*
X118333286Y-114393629D01*
X118326288Y-114394364D01*
X118154579Y-114452818D01*
X118114053Y-114477750D01*
X118006095Y-114544166D01*
X118006092Y-114544168D01*
X118000088Y-114547862D01*
X117995053Y-114552793D01*
X117995050Y-114552795D01*
X117875525Y-114669843D01*
X117870493Y-114674771D01*
X117772235Y-114827238D01*
X117769826Y-114833858D01*
X117769824Y-114833861D01*
X117749194Y-114890542D01*
X117707100Y-114947713D01*
X117640778Y-114973051D01*
X117588576Y-114963172D01*
X117587666Y-114965727D01*
X117423425Y-114907243D01*
X117423420Y-114907242D01*
X117416790Y-114904881D01*
X117409802Y-114904048D01*
X117409799Y-114904047D01*
X117286698Y-114889368D01*
X117236680Y-114883404D01*
X117229677Y-114884140D01*
X117229676Y-114884140D01*
X117063288Y-114901628D01*
X117063286Y-114901629D01*
X117056288Y-114902364D01*
X116884579Y-114960818D01*
X116864695Y-114973051D01*
X116736095Y-115052166D01*
X116736092Y-115052168D01*
X116730088Y-115055862D01*
X116725053Y-115060793D01*
X116725050Y-115060795D01*
X116605525Y-115177843D01*
X116600493Y-115182771D01*
X116502235Y-115335238D01*
X116499824Y-115341862D01*
X116499823Y-115341864D01*
X116482813Y-115388599D01*
X116440719Y-115445771D01*
X116374398Y-115471109D01*
X116304906Y-115456568D01*
X116254307Y-115406766D01*
X116245421Y-115386942D01*
X116189064Y-115225106D01*
X116189062Y-115225103D01*
X116186745Y-115218448D01*
X116136625Y-115138238D01*
X116094359Y-115070598D01*
X116090626Y-115064624D01*
X116085664Y-115059627D01*
X115967778Y-114940915D01*
X115967774Y-114940912D01*
X115962815Y-114935918D01*
X115955164Y-114931062D01*
X115881380Y-114884238D01*
X115809666Y-114838727D01*
X115760759Y-114821312D01*
X115645425Y-114780243D01*
X115645420Y-114780242D01*
X115638790Y-114777881D01*
X115631802Y-114777048D01*
X115631799Y-114777047D01*
X115503462Y-114761744D01*
X115458680Y-114756404D01*
X115451677Y-114757140D01*
X115451676Y-114757140D01*
X115285288Y-114774628D01*
X115285286Y-114774629D01*
X115278288Y-114775364D01*
X115106579Y-114833818D01*
X115057412Y-114864066D01*
X114958095Y-114925166D01*
X114958092Y-114925168D01*
X114952088Y-114928862D01*
X114947053Y-114933793D01*
X114947050Y-114933795D01*
X114827525Y-115050843D01*
X114822493Y-115055771D01*
X114724235Y-115208238D01*
X114721826Y-115214858D01*
X114721824Y-115214861D01*
X114664606Y-115372066D01*
X114662197Y-115378685D01*
X114639463Y-115558640D01*
X114657163Y-115739160D01*
X114714418Y-115911273D01*
X114718065Y-115917295D01*
X114718066Y-115917297D01*
X114796769Y-116047251D01*
X114808380Y-116066424D01*
X114813269Y-116071487D01*
X114813270Y-116071488D01*
X114870658Y-116130914D01*
X114934382Y-116196902D01*
X115010270Y-116246562D01*
X115043047Y-116268010D01*
X115086159Y-116296222D01*
X115092763Y-116298678D01*
X115092765Y-116298679D01*
X115249558Y-116356990D01*
X115249560Y-116356990D01*
X115256168Y-116359448D01*
X115263153Y-116360380D01*
X115263157Y-116360381D01*
X115340956Y-116370761D01*
X115402112Y-116378922D01*
X115466988Y-116407757D01*
X115505976Y-116467090D01*
X115506697Y-116538083D01*
X115474542Y-116592909D01*
X114475851Y-117591600D01*
X114413539Y-117625626D01*
X114342724Y-117620561D01*
X114311960Y-117603064D01*
X114311815Y-117602918D01*
X114300697Y-117595862D01*
X114298405Y-117594408D01*
X114158666Y-117505727D01*
X114088986Y-117480915D01*
X113994425Y-117447243D01*
X113994420Y-117447242D01*
X113987790Y-117444881D01*
X113980802Y-117444048D01*
X113980799Y-117444047D01*
X113857698Y-117429368D01*
X113807680Y-117423404D01*
X113800677Y-117424140D01*
X113800676Y-117424140D01*
X113634288Y-117441628D01*
X113634286Y-117441629D01*
X113627288Y-117442364D01*
X113455579Y-117500818D01*
X113439619Y-117510637D01*
X113307095Y-117592166D01*
X113307092Y-117592168D01*
X113301088Y-117595862D01*
X113296053Y-117600793D01*
X113296050Y-117600795D01*
X113286040Y-117610598D01*
X113171493Y-117722771D01*
X113073235Y-117875238D01*
X113070826Y-117881858D01*
X113070824Y-117881861D01*
X113023079Y-118013039D01*
X113011197Y-118045685D01*
X112988463Y-118225640D01*
X113006163Y-118406160D01*
X113063418Y-118578273D01*
X113067066Y-118584297D01*
X113070022Y-118590694D01*
X113067661Y-118591785D01*
X113082783Y-118648839D01*
X113060982Y-118716406D01*
X113006113Y-118761461D01*
X112956827Y-118771500D01*
X107119136Y-118771500D01*
X107102693Y-118770422D01*
X107071000Y-118766250D01*
X107062811Y-118767328D01*
X107031126Y-118771499D01*
X107031117Y-118771500D01*
X107031115Y-118771500D01*
X107031109Y-118771501D01*
X107031107Y-118771501D01*
X106976188Y-118778731D01*
X106906039Y-118767791D01*
X106852941Y-118720663D01*
X106833751Y-118652309D01*
X106854563Y-118584431D01*
X106872850Y-118562563D01*
X106909528Y-118527635D01*
X106932266Y-118505982D01*
X107032643Y-118354902D01*
X107097055Y-118185338D01*
X107098987Y-118171595D01*
X107108988Y-118100432D01*
X107122299Y-118005717D01*
X107122609Y-118005761D01*
X107147076Y-117941235D01*
X107199312Y-117900883D01*
X107250876Y-117879524D01*
X107264185Y-117869312D01*
X107346072Y-117806477D01*
X107346075Y-117806474D01*
X107371434Y-117787015D01*
X107377987Y-117781987D01*
X107386804Y-117770497D01*
X107397452Y-117756621D01*
X107408319Y-117744230D01*
X108362282Y-116790267D01*
X108424594Y-116756241D01*
X108439955Y-116753881D01*
X108504600Y-116747998D01*
X108511302Y-116745820D01*
X108511304Y-116745820D01*
X108670409Y-116694124D01*
X108670412Y-116694123D01*
X108677108Y-116691947D01*
X108832912Y-116599069D01*
X108964266Y-116473982D01*
X109064643Y-116322902D01*
X109111041Y-116200760D01*
X109126555Y-116159920D01*
X109126556Y-116159918D01*
X109129055Y-116153338D01*
X109130035Y-116146366D01*
X109153748Y-115977639D01*
X109153748Y-115977636D01*
X109154299Y-115973717D01*
X109154452Y-115962738D01*
X109154561Y-115954962D01*
X109154561Y-115954957D01*
X109154616Y-115951000D01*
X109134397Y-115770745D01*
X109125726Y-115745844D01*
X109077064Y-115606106D01*
X109077062Y-115606103D01*
X109074745Y-115599448D01*
X108994551Y-115471109D01*
X108982359Y-115451598D01*
X108978626Y-115445624D01*
X108951621Y-115418430D01*
X108855778Y-115321915D01*
X108855774Y-115321912D01*
X108850815Y-115316918D01*
X108839554Y-115309771D01*
X108750827Y-115253464D01*
X108697666Y-115219727D01*
X108640132Y-115199240D01*
X108533425Y-115161243D01*
X108533420Y-115161242D01*
X108526790Y-115158881D01*
X108519802Y-115158048D01*
X108519799Y-115158047D01*
X108396698Y-115143368D01*
X108346680Y-115137404D01*
X108339677Y-115138140D01*
X108339676Y-115138140D01*
X108173288Y-115155628D01*
X108173286Y-115155629D01*
X108166288Y-115156364D01*
X107994579Y-115214818D01*
X107993700Y-115212237D01*
X107935793Y-115221228D01*
X107884813Y-115202705D01*
X107879353Y-115199240D01*
X107879340Y-115199234D01*
X107873400Y-115195464D01*
X107854385Y-115188693D01*
X107709159Y-115136980D01*
X107709154Y-115136979D01*
X107702524Y-115134618D01*
X107695536Y-115133785D01*
X107695533Y-115133784D01*
X107572432Y-115119105D01*
X107522414Y-115113141D01*
X107515411Y-115113877D01*
X107515410Y-115113877D01*
X107349022Y-115131365D01*
X107349020Y-115131366D01*
X107342022Y-115132101D01*
X107170313Y-115190555D01*
X107112752Y-115225967D01*
X107021829Y-115281903D01*
X107021826Y-115281905D01*
X107015822Y-115285599D01*
X107010787Y-115290530D01*
X107010784Y-115290532D01*
X106891259Y-115407580D01*
X106886227Y-115412508D01*
X106787969Y-115564975D01*
X106785560Y-115571595D01*
X106785558Y-115571598D01*
X106733068Y-115715812D01*
X106725931Y-115735422D01*
X106703197Y-115915377D01*
X106720897Y-116095897D01*
X106778152Y-116268010D01*
X106781799Y-116274032D01*
X106781800Y-116274034D01*
X106872114Y-116423161D01*
X106869389Y-116424811D01*
X106890080Y-116477813D01*
X106876044Y-116547408D01*
X106853647Y-116577804D01*
X106728856Y-116702595D01*
X106666544Y-116736621D01*
X106639761Y-116739500D01*
X104526239Y-116739500D01*
X104458118Y-116719498D01*
X104411625Y-116665842D01*
X104401521Y-116595568D01*
X104431015Y-116530988D01*
X104437144Y-116524405D01*
X107340234Y-113621315D01*
X107352625Y-113610448D01*
X107371437Y-113596013D01*
X107377987Y-113590987D01*
X107402474Y-113559075D01*
X107402477Y-113559072D01*
X107475523Y-113463876D01*
X107475524Y-113463875D01*
X107487705Y-113434469D01*
X107533678Y-113323479D01*
X107536838Y-113315850D01*
X107552500Y-113196885D01*
X107552500Y-113196878D01*
X107557750Y-113157000D01*
X107553578Y-113125307D01*
X107552500Y-113108864D01*
X107552500Y-112383640D01*
X114893463Y-112383640D01*
X114911163Y-112564160D01*
X114968418Y-112736273D01*
X114972065Y-112742295D01*
X114972066Y-112742297D01*
X115023243Y-112826800D01*
X115062380Y-112891424D01*
X115067269Y-112896487D01*
X115067270Y-112896488D01*
X115088027Y-112917982D01*
X115188382Y-113021902D01*
X115340159Y-113121222D01*
X115346763Y-113123678D01*
X115346765Y-113123679D01*
X115503558Y-113181990D01*
X115503560Y-113181990D01*
X115510168Y-113184448D01*
X115593995Y-113195633D01*
X115682980Y-113207507D01*
X115682984Y-113207507D01*
X115689961Y-113208438D01*
X115696972Y-113207800D01*
X115696976Y-113207800D01*
X115839459Y-113194832D01*
X115870600Y-113191998D01*
X115877302Y-113189820D01*
X115877304Y-113189820D01*
X116036409Y-113138124D01*
X116036412Y-113138123D01*
X116043108Y-113135947D01*
X116162951Y-113064506D01*
X116192860Y-113046677D01*
X116192862Y-113046676D01*
X116198912Y-113043069D01*
X116330266Y-112917982D01*
X116430643Y-112766902D01*
X116477041Y-112644760D01*
X116492555Y-112603920D01*
X116492556Y-112603918D01*
X116495055Y-112597338D01*
X116496035Y-112590366D01*
X116519748Y-112421639D01*
X116519748Y-112421636D01*
X116520299Y-112417717D01*
X116520616Y-112395000D01*
X116500397Y-112214745D01*
X116498080Y-112208091D01*
X116443064Y-112050106D01*
X116443062Y-112050103D01*
X116440745Y-112043448D01*
X116355384Y-111906841D01*
X116348359Y-111895598D01*
X116344626Y-111889624D01*
X116311775Y-111856543D01*
X116221778Y-111765915D01*
X116221774Y-111765912D01*
X116216815Y-111760918D01*
X116205697Y-111753862D01*
X116152912Y-111720364D01*
X116063666Y-111663727D01*
X116024209Y-111649677D01*
X115899425Y-111605243D01*
X115899420Y-111605242D01*
X115892790Y-111602881D01*
X115885802Y-111602048D01*
X115885799Y-111602047D01*
X115756171Y-111586590D01*
X115712680Y-111581404D01*
X115705677Y-111582140D01*
X115705676Y-111582140D01*
X115539288Y-111599628D01*
X115539286Y-111599629D01*
X115532288Y-111600364D01*
X115360579Y-111658818D01*
X115318325Y-111684813D01*
X115212095Y-111750166D01*
X115212092Y-111750168D01*
X115206088Y-111753862D01*
X115201053Y-111758793D01*
X115201050Y-111758795D01*
X115083577Y-111873834D01*
X115076493Y-111880771D01*
X114978235Y-112033238D01*
X114975826Y-112039858D01*
X114975824Y-112039861D01*
X114918606Y-112197066D01*
X114916197Y-112203685D01*
X114893463Y-112383640D01*
X107552500Y-112383640D01*
X107552500Y-111902747D01*
X107573552Y-111833020D01*
X107601293Y-111791267D01*
X107667643Y-111691401D01*
X107724718Y-111541151D01*
X107729555Y-111528419D01*
X107729556Y-111528417D01*
X107732055Y-111521837D01*
X107733035Y-111514865D01*
X107756748Y-111346138D01*
X107756748Y-111346135D01*
X107757299Y-111342216D01*
X107757616Y-111319499D01*
X107737397Y-111139244D01*
X107731313Y-111121773D01*
X107680064Y-110974605D01*
X107680062Y-110974602D01*
X107677745Y-110967947D01*
X107631831Y-110894469D01*
X107585359Y-110820097D01*
X107581626Y-110814123D01*
X107567667Y-110800066D01*
X107491419Y-110723284D01*
X107457612Y-110660853D01*
X107462924Y-110590056D01*
X107505669Y-110533369D01*
X107572275Y-110508790D01*
X107580825Y-110508500D01*
X110182004Y-110508500D01*
X110250125Y-110528502D01*
G37*
%TD.AperFunction*%
%TA.AperFunction,Conductor*%
G36*
X99568742Y-119027501D02*
G01*
X99615235Y-119081157D01*
X99625339Y-119151431D01*
X99620455Y-119172430D01*
X99573458Y-119317072D01*
X99572768Y-119323633D01*
X99572768Y-119323635D01*
X99558051Y-119463662D01*
X99553496Y-119507000D01*
X99569563Y-119659861D01*
X99570031Y-119664318D01*
X99557259Y-119734157D01*
X99508757Y-119786003D01*
X99444721Y-119803489D01*
X97576770Y-119803489D01*
X97508649Y-119783487D01*
X97462156Y-119729831D01*
X97451996Y-119659954D01*
X97469748Y-119533642D01*
X97469749Y-119533632D01*
X97470299Y-119529717D01*
X97470452Y-119518738D01*
X97470561Y-119510962D01*
X97470561Y-119510957D01*
X97470616Y-119507000D01*
X97450397Y-119326745D01*
X97397531Y-119174934D01*
X97394017Y-119104027D01*
X97429398Y-119042474D01*
X97492440Y-119009822D01*
X97516522Y-119007499D01*
X99500621Y-119007499D01*
X99568742Y-119027501D01*
G37*
%TD.AperFunction*%
%TA.AperFunction,Conductor*%
G36*
X88399984Y-110528502D02*
G01*
X88446477Y-110582158D01*
X88456581Y-110652432D01*
X88427087Y-110717012D01*
X88420022Y-110724522D01*
X88406493Y-110737771D01*
X88308235Y-110890238D01*
X88305826Y-110896858D01*
X88305824Y-110896861D01*
X88259600Y-111023861D01*
X88246197Y-111060685D01*
X88223463Y-111240640D01*
X88241163Y-111421160D01*
X88298418Y-111593273D01*
X88302065Y-111599295D01*
X88302066Y-111599297D01*
X88386641Y-111738947D01*
X88392380Y-111748424D01*
X88397269Y-111753487D01*
X88397270Y-111753488D01*
X88430065Y-111787448D01*
X88518382Y-111878902D01*
X88670159Y-111978222D01*
X88676763Y-111980678D01*
X88676765Y-111980679D01*
X88744588Y-112005902D01*
X88840168Y-112041448D01*
X88847151Y-112042380D01*
X88847152Y-112042380D01*
X88892256Y-112048398D01*
X88957132Y-112077234D01*
X88996120Y-112136567D01*
X89000990Y-112160997D01*
X89003163Y-112183160D01*
X89060418Y-112355273D01*
X89064065Y-112361295D01*
X89064066Y-112361297D01*
X89081845Y-112390653D01*
X89154380Y-112510424D01*
X89159269Y-112515487D01*
X89159270Y-112515488D01*
X89212727Y-112570844D01*
X89280382Y-112640902D01*
X89286278Y-112644760D01*
X89415912Y-112729590D01*
X89432159Y-112740222D01*
X89438763Y-112742678D01*
X89438765Y-112742679D01*
X89595558Y-112800990D01*
X89595560Y-112800990D01*
X89602168Y-112803448D01*
X89685995Y-112814633D01*
X89774980Y-112826507D01*
X89774984Y-112826507D01*
X89781961Y-112827438D01*
X89788972Y-112826800D01*
X89788976Y-112826800D01*
X89931459Y-112813832D01*
X89962600Y-112810998D01*
X89969302Y-112808820D01*
X89969304Y-112808820D01*
X90128409Y-112757124D01*
X90128412Y-112757123D01*
X90135108Y-112754947D01*
X90290912Y-112662069D01*
X90422266Y-112536982D01*
X90522643Y-112385902D01*
X90571746Y-112256640D01*
X94446463Y-112256640D01*
X94464163Y-112437160D01*
X94521418Y-112609273D01*
X94525065Y-112615295D01*
X94525066Y-112615297D01*
X94609641Y-112754947D01*
X94615380Y-112764424D01*
X94620269Y-112769487D01*
X94620270Y-112769488D01*
X94653065Y-112803448D01*
X94741382Y-112894902D01*
X94766305Y-112911211D01*
X94868987Y-112978404D01*
X94893159Y-112994222D01*
X94899763Y-112996678D01*
X94899765Y-112996679D01*
X95056558Y-113054990D01*
X95056560Y-113054990D01*
X95063168Y-113057448D01*
X95146995Y-113068633D01*
X95235980Y-113080507D01*
X95235984Y-113080507D01*
X95242961Y-113081438D01*
X95249972Y-113080800D01*
X95249976Y-113080800D01*
X95392459Y-113067832D01*
X95423600Y-113064998D01*
X95430302Y-113062820D01*
X95430304Y-113062820D01*
X95589409Y-113011124D01*
X95589412Y-113011123D01*
X95596108Y-113008947D01*
X95740552Y-112922841D01*
X95745860Y-112919677D01*
X95745862Y-112919676D01*
X95751912Y-112916069D01*
X95883266Y-112790982D01*
X95983643Y-112639902D01*
X96048055Y-112470338D01*
X96049035Y-112463366D01*
X96072748Y-112294639D01*
X96072748Y-112294636D01*
X96073299Y-112290717D01*
X96073616Y-112268000D01*
X96053397Y-112087745D01*
X96049737Y-112077234D01*
X95996064Y-111923106D01*
X95996062Y-111923103D01*
X95993745Y-111916448D01*
X95905348Y-111774982D01*
X95901359Y-111768598D01*
X95897626Y-111762624D01*
X95883525Y-111748424D01*
X95774778Y-111638915D01*
X95774774Y-111638912D01*
X95769815Y-111633918D01*
X95761688Y-111628760D01*
X95710538Y-111596300D01*
X95616666Y-111536727D01*
X95555961Y-111515111D01*
X95452425Y-111478243D01*
X95452420Y-111478242D01*
X95445790Y-111475881D01*
X95438802Y-111475048D01*
X95438799Y-111475047D01*
X95315698Y-111460368D01*
X95265680Y-111454404D01*
X95258677Y-111455140D01*
X95258676Y-111455140D01*
X95092288Y-111472628D01*
X95092286Y-111472629D01*
X95085288Y-111473364D01*
X94913579Y-111531818D01*
X94898409Y-111541151D01*
X94765095Y-111623166D01*
X94765092Y-111623168D01*
X94759088Y-111626862D01*
X94754053Y-111631793D01*
X94754050Y-111631795D01*
X94639150Y-111744314D01*
X94629493Y-111753771D01*
X94531235Y-111906238D01*
X94528826Y-111912858D01*
X94528824Y-111912861D01*
X94482600Y-112039861D01*
X94469197Y-112076685D01*
X94446463Y-112256640D01*
X90571746Y-112256640D01*
X90587055Y-112216338D01*
X90588833Y-112203685D01*
X90611748Y-112040639D01*
X90611748Y-112040636D01*
X90612299Y-112036717D01*
X90612452Y-112025738D01*
X90612561Y-112017962D01*
X90612561Y-112017957D01*
X90612616Y-112014000D01*
X90592397Y-111833745D01*
X90590080Y-111827091D01*
X90535064Y-111669106D01*
X90535062Y-111669103D01*
X90532745Y-111662448D01*
X90482625Y-111582238D01*
X90440359Y-111514598D01*
X90436626Y-111508624D01*
X90409532Y-111481340D01*
X90313778Y-111384915D01*
X90313774Y-111384912D01*
X90308815Y-111379918D01*
X90301164Y-111375062D01*
X90249406Y-111342216D01*
X90155666Y-111282727D01*
X90111449Y-111266982D01*
X89991425Y-111224243D01*
X89991420Y-111224242D01*
X89984790Y-111221881D01*
X89977802Y-111221048D01*
X89977799Y-111221047D01*
X89944537Y-111217081D01*
X89879264Y-111189153D01*
X89839451Y-111130370D01*
X89834241Y-111106013D01*
X89831182Y-111078743D01*
X89830397Y-111071745D01*
X89828080Y-111065091D01*
X89773064Y-110907106D01*
X89773062Y-110907103D01*
X89770745Y-110900448D01*
X89674626Y-110746624D01*
X89651449Y-110723284D01*
X89617641Y-110660854D01*
X89622952Y-110590057D01*
X89665697Y-110533369D01*
X89732303Y-110508790D01*
X89740854Y-110508500D01*
X100493781Y-110508500D01*
X100561902Y-110528502D01*
X100608395Y-110582158D01*
X100618499Y-110652432D01*
X100612182Y-110677595D01*
X100579744Y-110766717D01*
X100565197Y-110806685D01*
X100542463Y-110986640D01*
X100560163Y-111167160D01*
X100617418Y-111339273D01*
X100621065Y-111345295D01*
X100621066Y-111345297D01*
X100705641Y-111484947D01*
X100711380Y-111494424D01*
X100716269Y-111499487D01*
X100716270Y-111499488D01*
X100769315Y-111554417D01*
X100837382Y-111624902D01*
X100885741Y-111656547D01*
X100972912Y-111713590D01*
X100989159Y-111724222D01*
X100995763Y-111726678D01*
X100995765Y-111726679D01*
X101152558Y-111784990D01*
X101152560Y-111784990D01*
X101159168Y-111787448D01*
X101242995Y-111798633D01*
X101331980Y-111810507D01*
X101331984Y-111810507D01*
X101338961Y-111811438D01*
X101345972Y-111810800D01*
X101345976Y-111810800D01*
X101488459Y-111797832D01*
X101519600Y-111794998D01*
X101526302Y-111792820D01*
X101526304Y-111792820D01*
X101685409Y-111741124D01*
X101685412Y-111741123D01*
X101692108Y-111738947D01*
X101811951Y-111667506D01*
X101841860Y-111649677D01*
X101841862Y-111649676D01*
X101847912Y-111646069D01*
X101979266Y-111520982D01*
X102079643Y-111369902D01*
X102088404Y-111346839D01*
X102131293Y-111290261D01*
X102197962Y-111265852D01*
X102267244Y-111281362D01*
X102296828Y-111304056D01*
X102356483Y-111365830D01*
X102356488Y-111365834D01*
X102361382Y-111370902D01*
X102437270Y-111420562D01*
X102488987Y-111454404D01*
X102513159Y-111470222D01*
X102519763Y-111472678D01*
X102519765Y-111472679D01*
X102676558Y-111530990D01*
X102676560Y-111530990D01*
X102683168Y-111533448D01*
X102766995Y-111544633D01*
X102855980Y-111556507D01*
X102855984Y-111556507D01*
X102862961Y-111557438D01*
X102869972Y-111556800D01*
X102869976Y-111556800D01*
X103012459Y-111543832D01*
X103043600Y-111540998D01*
X103050302Y-111538820D01*
X103050304Y-111538820D01*
X103209409Y-111487124D01*
X103209412Y-111487123D01*
X103216108Y-111484947D01*
X103312513Y-111427478D01*
X103365860Y-111395677D01*
X103365862Y-111395676D01*
X103371912Y-111392069D01*
X103503266Y-111266982D01*
X103603643Y-111115902D01*
X103657317Y-110974605D01*
X103665555Y-110952920D01*
X103665556Y-110952918D01*
X103668055Y-110946338D01*
X103673569Y-110907106D01*
X103692748Y-110770639D01*
X103692748Y-110770636D01*
X103693299Y-110766717D01*
X103693496Y-110752595D01*
X103693561Y-110747962D01*
X103693561Y-110747957D01*
X103693616Y-110744000D01*
X103684290Y-110660854D01*
X103682909Y-110648545D01*
X103695193Y-110578619D01*
X103743332Y-110526435D01*
X103808124Y-110508500D01*
X104714863Y-110508500D01*
X104782984Y-110528502D01*
X104829477Y-110582158D01*
X104839581Y-110652432D01*
X104810087Y-110717012D01*
X104803022Y-110724522D01*
X104789493Y-110737771D01*
X104691235Y-110890238D01*
X104688826Y-110896858D01*
X104688824Y-110896861D01*
X104642600Y-111023861D01*
X104629197Y-111060685D01*
X104620394Y-111130370D01*
X104617025Y-111157034D01*
X104588643Y-111222111D01*
X104581114Y-111230337D01*
X100667855Y-115143596D01*
X100605543Y-115177622D01*
X100578760Y-115180501D01*
X95296320Y-115180501D01*
X95228199Y-115160499D01*
X95181706Y-115106843D01*
X95171105Y-115068547D01*
X95169661Y-115055669D01*
X95164397Y-115008745D01*
X95162080Y-115002091D01*
X95107064Y-114844106D01*
X95107062Y-114844103D01*
X95104745Y-114837448D01*
X95054625Y-114757238D01*
X95012359Y-114689598D01*
X95008626Y-114683624D01*
X94993372Y-114668263D01*
X94885778Y-114559915D01*
X94885774Y-114559912D01*
X94880815Y-114554918D01*
X94869697Y-114547862D01*
X94799380Y-114503238D01*
X94727666Y-114457727D01*
X94698463Y-114447328D01*
X94563425Y-114399243D01*
X94563420Y-114399242D01*
X94556790Y-114396881D01*
X94549802Y-114396048D01*
X94549799Y-114396047D01*
X94426698Y-114381368D01*
X94376680Y-114375404D01*
X94369677Y-114376140D01*
X94369676Y-114376140D01*
X94203288Y-114393628D01*
X94203286Y-114393629D01*
X94196288Y-114394364D01*
X94024579Y-114452818D01*
X93984053Y-114477750D01*
X93876095Y-114544166D01*
X93876092Y-114544168D01*
X93870088Y-114547862D01*
X93865053Y-114552793D01*
X93865050Y-114552795D01*
X93824487Y-114592518D01*
X93761822Y-114625889D01*
X93691063Y-114620083D01*
X93646923Y-114591279D01*
X93645758Y-114590106D01*
X93610815Y-114554918D01*
X93599697Y-114547862D01*
X93529380Y-114503238D01*
X93457666Y-114457727D01*
X93428463Y-114447328D01*
X93293425Y-114399243D01*
X93293420Y-114399242D01*
X93286790Y-114396881D01*
X93279802Y-114396048D01*
X93279799Y-114396047D01*
X93156698Y-114381368D01*
X93106680Y-114375404D01*
X93099677Y-114376140D01*
X93099676Y-114376140D01*
X92933288Y-114393628D01*
X92933286Y-114393629D01*
X92926288Y-114394364D01*
X92754579Y-114452818D01*
X92714053Y-114477750D01*
X92606095Y-114544166D01*
X92606092Y-114544168D01*
X92600088Y-114547862D01*
X92595053Y-114552793D01*
X92595050Y-114552795D01*
X92475525Y-114669843D01*
X92470493Y-114674771D01*
X92372235Y-114827238D01*
X92369826Y-114833858D01*
X92369824Y-114833861D01*
X92323317Y-114961639D01*
X92310197Y-114997685D01*
X92309314Y-115004673D01*
X92309314Y-115004674D01*
X92301024Y-115070294D01*
X92272642Y-115135370D01*
X92213582Y-115174771D01*
X92176018Y-115180501D01*
X91741935Y-115180501D01*
X91673814Y-115160499D01*
X91627321Y-115106843D01*
X91617161Y-115036965D01*
X91621128Y-115008745D01*
X91627344Y-114964512D01*
X91627748Y-114961639D01*
X91627748Y-114961636D01*
X91628299Y-114957717D01*
X91628506Y-114942898D01*
X91628561Y-114938962D01*
X91628561Y-114938957D01*
X91628616Y-114935000D01*
X91608397Y-114754745D01*
X91587352Y-114694312D01*
X91551064Y-114590106D01*
X91551062Y-114590103D01*
X91548745Y-114583448D01*
X91498625Y-114503238D01*
X91456359Y-114435598D01*
X91452626Y-114429624D01*
X91438941Y-114415843D01*
X91329778Y-114305915D01*
X91329774Y-114305912D01*
X91324815Y-114300918D01*
X91314556Y-114294407D01*
X91243380Y-114249238D01*
X91171666Y-114203727D01*
X91132223Y-114189682D01*
X91007425Y-114145243D01*
X91007420Y-114145242D01*
X91000790Y-114142881D01*
X90993802Y-114142048D01*
X90993799Y-114142047D01*
X90865462Y-114126744D01*
X90820680Y-114121404D01*
X90813677Y-114122140D01*
X90813676Y-114122140D01*
X90647288Y-114139628D01*
X90647286Y-114139629D01*
X90640288Y-114140364D01*
X90468579Y-114198818D01*
X90417440Y-114230279D01*
X90320095Y-114290166D01*
X90320092Y-114290168D01*
X90314088Y-114293862D01*
X90309054Y-114298792D01*
X90309050Y-114298795D01*
X90189525Y-114415843D01*
X90184493Y-114420771D01*
X90160248Y-114458392D01*
X90106534Y-114504817D01*
X90039418Y-114515251D01*
X89998390Y-114510359D01*
X89931680Y-114502404D01*
X89924677Y-114503140D01*
X89924676Y-114503140D01*
X89758288Y-114520628D01*
X89758286Y-114520629D01*
X89751288Y-114521364D01*
X89744628Y-114523631D01*
X89744620Y-114523633D01*
X89725157Y-114530259D01*
X89654224Y-114533276D01*
X89592921Y-114497466D01*
X89577698Y-114477750D01*
X89551358Y-114435596D01*
X89551356Y-114435594D01*
X89547626Y-114429624D01*
X89533941Y-114415843D01*
X89424778Y-114305915D01*
X89424774Y-114305912D01*
X89419815Y-114300918D01*
X89409556Y-114294407D01*
X89338380Y-114249238D01*
X89266666Y-114203727D01*
X89227223Y-114189682D01*
X89102425Y-114145243D01*
X89102420Y-114145242D01*
X89095790Y-114142881D01*
X89088802Y-114142048D01*
X89088799Y-114142047D01*
X88960462Y-114126744D01*
X88915680Y-114121404D01*
X88908677Y-114122140D01*
X88908676Y-114122140D01*
X88742288Y-114139628D01*
X88742286Y-114139629D01*
X88735288Y-114140364D01*
X88563579Y-114198818D01*
X88512440Y-114230279D01*
X88415095Y-114290166D01*
X88415092Y-114290168D01*
X88409088Y-114293862D01*
X88404054Y-114298792D01*
X88404050Y-114298795D01*
X88284525Y-114415843D01*
X88279493Y-114420771D01*
X88257201Y-114455362D01*
X88246635Y-114471757D01*
X88192920Y-114518181D01*
X88122633Y-114528196D01*
X88058090Y-114498620D01*
X88051629Y-114492596D01*
X87864362Y-114305329D01*
X87830336Y-114243017D01*
X87828242Y-114230279D01*
X87819656Y-114153734D01*
X87818871Y-114146735D01*
X87816396Y-114139628D01*
X87761538Y-113982096D01*
X87761536Y-113982093D01*
X87759219Y-113975438D01*
X87663100Y-113821614D01*
X87633387Y-113791693D01*
X87540252Y-113697905D01*
X87540248Y-113697902D01*
X87535289Y-113692908D01*
X87524171Y-113685852D01*
X87422476Y-113621315D01*
X87382140Y-113595717D01*
X87316956Y-113572506D01*
X87217899Y-113537233D01*
X87217894Y-113537232D01*
X87211264Y-113534871D01*
X87204276Y-113534038D01*
X87204273Y-113534037D01*
X87081172Y-113519358D01*
X87031154Y-113513394D01*
X87024151Y-113514130D01*
X87024150Y-113514130D01*
X86857762Y-113531618D01*
X86857760Y-113531619D01*
X86850762Y-113532354D01*
X86679053Y-113590808D01*
X86647129Y-113610448D01*
X86530569Y-113682156D01*
X86530566Y-113682158D01*
X86524562Y-113685852D01*
X86519527Y-113690783D01*
X86519524Y-113690785D01*
X86416481Y-113791693D01*
X86394967Y-113812761D01*
X86296709Y-113965228D01*
X86294300Y-113971848D01*
X86294298Y-113971851D01*
X86242891Y-114113091D01*
X86234671Y-114135675D01*
X86211937Y-114315630D01*
X86229637Y-114496150D01*
X86286892Y-114668263D01*
X86290539Y-114674285D01*
X86290540Y-114674287D01*
X86343506Y-114761744D01*
X86380854Y-114823414D01*
X86385743Y-114828477D01*
X86385744Y-114828478D01*
X86438786Y-114883404D01*
X86506856Y-114953892D01*
X86523085Y-114964512D01*
X86644015Y-115043646D01*
X86658633Y-115053212D01*
X86665237Y-115055668D01*
X86665239Y-115055669D01*
X86822032Y-115113980D01*
X86822034Y-115113980D01*
X86828642Y-115116438D01*
X86835627Y-115117370D01*
X86835631Y-115117371D01*
X86898021Y-115125696D01*
X86931460Y-115130157D01*
X86996336Y-115158993D01*
X87003890Y-115165955D01*
X89413339Y-117575404D01*
X89447365Y-117637716D01*
X89442300Y-117708531D01*
X89399753Y-117765367D01*
X89333233Y-117790178D01*
X89324244Y-117790499D01*
X88233238Y-117790499D01*
X88165117Y-117770497D01*
X88144143Y-117753594D01*
X84668888Y-114278339D01*
X84634862Y-114216027D01*
X84632768Y-114203289D01*
X84624182Y-114126744D01*
X84623397Y-114119745D01*
X84621080Y-114113091D01*
X84566064Y-113955106D01*
X84566062Y-113955103D01*
X84563745Y-113948448D01*
X84467626Y-113794624D01*
X84371580Y-113697905D01*
X84344778Y-113670915D01*
X84344774Y-113670912D01*
X84339815Y-113665918D01*
X84328697Y-113658862D01*
X84252408Y-113610448D01*
X84186666Y-113568727D01*
X84157463Y-113558328D01*
X84022425Y-113510243D01*
X84022420Y-113510242D01*
X84015790Y-113507881D01*
X84008802Y-113507048D01*
X84008799Y-113507047D01*
X83885698Y-113492368D01*
X83835680Y-113486404D01*
X83828677Y-113487140D01*
X83828676Y-113487140D01*
X83662288Y-113504628D01*
X83662286Y-113504629D01*
X83655288Y-113505364D01*
X83483579Y-113563818D01*
X83433703Y-113594502D01*
X83335095Y-113655166D01*
X83335092Y-113655168D01*
X83329088Y-113658862D01*
X83324053Y-113663793D01*
X83324050Y-113663795D01*
X83256186Y-113730253D01*
X83199493Y-113785771D01*
X83101235Y-113938238D01*
X83098826Y-113944858D01*
X83098824Y-113944861D01*
X83058883Y-114054598D01*
X83039197Y-114108685D01*
X83037633Y-114108116D01*
X83006494Y-114162123D01*
X82943409Y-114194692D01*
X82877225Y-114189682D01*
X82752428Y-114145244D01*
X82752422Y-114145243D01*
X82745790Y-114142881D01*
X82738802Y-114142048D01*
X82738799Y-114142047D01*
X82610462Y-114126744D01*
X82565680Y-114121404D01*
X82558677Y-114122140D01*
X82558676Y-114122140D01*
X82392288Y-114139628D01*
X82392286Y-114139629D01*
X82385288Y-114140364D01*
X82213579Y-114198818D01*
X82162440Y-114230279D01*
X82065095Y-114290166D01*
X82065092Y-114290168D01*
X82059088Y-114293862D01*
X82008915Y-114342995D01*
X81946251Y-114376364D01*
X81875493Y-114370558D01*
X81819106Y-114327419D01*
X81801772Y-114294416D01*
X81769745Y-114202448D01*
X81761768Y-114189682D01*
X81677359Y-114054598D01*
X81673626Y-114048624D01*
X81595012Y-113969459D01*
X81550778Y-113924915D01*
X81550774Y-113924912D01*
X81545815Y-113919918D01*
X81392666Y-113822727D01*
X81394366Y-113820049D01*
X81352236Y-113781656D01*
X81334690Y-113730253D01*
X81322182Y-113618744D01*
X81321397Y-113611745D01*
X81319080Y-113605091D01*
X81264064Y-113447106D01*
X81264062Y-113447103D01*
X81261745Y-113440448D01*
X81165626Y-113286624D01*
X81087984Y-113208438D01*
X81042778Y-113162915D01*
X81042774Y-113162912D01*
X81037815Y-113157918D01*
X81023467Y-113148812D01*
X80915834Y-113080507D01*
X80884666Y-113060727D01*
X80845209Y-113046677D01*
X80720425Y-113002243D01*
X80720420Y-113002242D01*
X80713790Y-112999881D01*
X80706802Y-112999048D01*
X80706799Y-112999047D01*
X80583698Y-112984368D01*
X80533680Y-112978404D01*
X80526675Y-112979140D01*
X80519630Y-112979091D01*
X80519647Y-112976706D01*
X80460823Y-112965943D01*
X80408980Y-112917437D01*
X80391500Y-112853410D01*
X80391500Y-110634500D01*
X80411502Y-110566379D01*
X80465158Y-110519886D01*
X80517500Y-110508500D01*
X88331863Y-110508500D01*
X88399984Y-110528502D01*
G37*
%TD.AperFunction*%
M02*
