%TF.GenerationSoftware,KiCad,Pcbnew,6.0.5-a6ca702e91~116~ubuntu21.10.1*%
%TF.CreationDate,2022-05-21T13:53:59+10:00*%
%TF.ProjectId,FlarmDisplay,466c6172-6d44-4697-9370-6c61792e6b69,rev?*%
%TF.SameCoordinates,Original*%
%TF.FileFunction,Copper,L4,Bot*%
%TF.FilePolarity,Positive*%
%FSLAX46Y46*%
G04 Gerber Fmt 4.6, Leading zero omitted, Abs format (unit mm)*
G04 Created by KiCad (PCBNEW 6.0.5-a6ca702e91~116~ubuntu21.10.1) date 2022-05-21 13:53:59*
%MOMM*%
%LPD*%
G01*
G04 APERTURE LIST*
G04 Aperture macros list*
%AMRoundRect*
0 Rectangle with rounded corners*
0 $1 Rounding radius*
0 $2 $3 $4 $5 $6 $7 $8 $9 X,Y pos of 4 corners*
0 Add a 4 corners polygon primitive as box body*
4,1,4,$2,$3,$4,$5,$6,$7,$8,$9,$2,$3,0*
0 Add four circle primitives for the rounded corners*
1,1,$1+$1,$2,$3*
1,1,$1+$1,$4,$5*
1,1,$1+$1,$6,$7*
1,1,$1+$1,$8,$9*
0 Add four rect primitives between the rounded corners*
20,1,$1+$1,$2,$3,$4,$5,0*
20,1,$1+$1,$4,$5,$6,$7,0*
20,1,$1+$1,$6,$7,$8,$9,0*
20,1,$1+$1,$8,$9,$2,$3,0*%
G04 Aperture macros list end*
%TA.AperFunction,ComponentPad*%
%ADD10R,1.700000X1.700000*%
%TD*%
%TA.AperFunction,ComponentPad*%
%ADD11O,1.700000X1.700000*%
%TD*%
%TA.AperFunction,SMDPad,CuDef*%
%ADD12RoundRect,0.140000X-0.170000X0.140000X-0.170000X-0.140000X0.170000X-0.140000X0.170000X0.140000X0*%
%TD*%
%TA.AperFunction,SMDPad,CuDef*%
%ADD13RoundRect,0.140000X0.170000X-0.140000X0.170000X0.140000X-0.170000X0.140000X-0.170000X-0.140000X0*%
%TD*%
%TA.AperFunction,SMDPad,CuDef*%
%ADD14RoundRect,0.140000X0.140000X0.170000X-0.140000X0.170000X-0.140000X-0.170000X0.140000X-0.170000X0*%
%TD*%
%TA.AperFunction,SMDPad,CuDef*%
%ADD15RoundRect,0.140000X-0.140000X-0.170000X0.140000X-0.170000X0.140000X0.170000X-0.140000X0.170000X0*%
%TD*%
%TA.AperFunction,SMDPad,CuDef*%
%ADD16RoundRect,0.135000X-0.185000X0.135000X-0.185000X-0.135000X0.185000X-0.135000X0.185000X0.135000X0*%
%TD*%
%TA.AperFunction,SMDPad,CuDef*%
%ADD17C,2.000000*%
%TD*%
%TA.AperFunction,SMDPad,CuDef*%
%ADD18R,2.000000X1.500000*%
%TD*%
%TA.AperFunction,SMDPad,CuDef*%
%ADD19R,2.000000X3.800000*%
%TD*%
%TA.AperFunction,SMDPad,CuDef*%
%ADD20RoundRect,0.062500X-0.062500X0.325000X-0.062500X-0.325000X0.062500X-0.325000X0.062500X0.325000X0*%
%TD*%
%TA.AperFunction,SMDPad,CuDef*%
%ADD21RoundRect,0.062500X-0.325000X0.062500X-0.325000X-0.062500X0.325000X-0.062500X0.325000X0.062500X0*%
%TD*%
%TA.AperFunction,SMDPad,CuDef*%
%ADD22R,2.450000X2.450000*%
%TD*%
%TA.AperFunction,SMDPad,CuDef*%
%ADD23RoundRect,0.250000X0.475000X-0.250000X0.475000X0.250000X-0.475000X0.250000X-0.475000X-0.250000X0*%
%TD*%
%TA.AperFunction,SMDPad,CuDef*%
%ADD24RoundRect,0.062500X0.062500X-0.375000X0.062500X0.375000X-0.062500X0.375000X-0.062500X-0.375000X0*%
%TD*%
%TA.AperFunction,SMDPad,CuDef*%
%ADD25RoundRect,0.062500X0.375000X-0.062500X0.375000X0.062500X-0.375000X0.062500X-0.375000X-0.062500X0*%
%TD*%
%TA.AperFunction,SMDPad,CuDef*%
%ADD26R,3.450000X3.450000*%
%TD*%
%TA.AperFunction,SMDPad,CuDef*%
%ADD27R,1.400000X1.200000*%
%TD*%
%TA.AperFunction,SMDPad,CuDef*%
%ADD28R,0.700000X3.400000*%
%TD*%
%TA.AperFunction,SMDPad,CuDef*%
%ADD29R,3.150000X2.800000*%
%TD*%
%TA.AperFunction,ViaPad*%
%ADD30C,0.600000*%
%TD*%
%TA.AperFunction,ViaPad*%
%ADD31C,0.800000*%
%TD*%
%TA.AperFunction,Conductor*%
%ADD32C,0.200000*%
%TD*%
%TA.AperFunction,Conductor*%
%ADD33C,0.300000*%
%TD*%
%TA.AperFunction,Conductor*%
%ADD34C,0.400000*%
%TD*%
G04 APERTURE END LIST*
D10*
X113421000Y-133096000D03*
D11*
X115961000Y-133096000D03*
X118501000Y-133096000D03*
X121041000Y-133096000D03*
D12*
X117739000Y-123190000D03*
X117739000Y-124150000D03*
D13*
X115580000Y-114363500D03*
X115580000Y-113403500D03*
D12*
X118755000Y-123190000D03*
X118755000Y-124150000D03*
X119771000Y-123190000D03*
X119771000Y-124150000D03*
D14*
X113619000Y-115951000D03*
X112659000Y-115951000D03*
D15*
X113548000Y-130048000D03*
X114508000Y-130048000D03*
D12*
X81798000Y-117856000D03*
X81798000Y-118816000D03*
D16*
X82179000Y-121535000D03*
X82179000Y-122555000D03*
D17*
X88275000Y-113030000D03*
X91323000Y-113030000D03*
D18*
X84261000Y-132983000D03*
D19*
X90561000Y-130683000D03*
D18*
X84261000Y-128383000D03*
D13*
X116596000Y-114363500D03*
X116596000Y-113403500D03*
X113548000Y-114371000D03*
X113548000Y-113411000D03*
D20*
X84485000Y-115614500D03*
X84985000Y-115614500D03*
X85485000Y-115614500D03*
X85985000Y-115614500D03*
X86485000Y-115614500D03*
X86985000Y-115614500D03*
D21*
X87722500Y-116352000D03*
X87722500Y-116852000D03*
X87722500Y-117352000D03*
X87722500Y-117852000D03*
X87722500Y-118352000D03*
X87722500Y-118852000D03*
D20*
X86985000Y-119589500D03*
X86485000Y-119589500D03*
X85985000Y-119589500D03*
X85485000Y-119589500D03*
X84985000Y-119589500D03*
X84485000Y-119589500D03*
D21*
X83747500Y-118852000D03*
X83747500Y-118352000D03*
X83747500Y-117852000D03*
X83747500Y-117352000D03*
X83747500Y-116852000D03*
X83747500Y-116352000D03*
D22*
X85735000Y-117602000D03*
D23*
X110754000Y-116332000D03*
X110754000Y-114432000D03*
D13*
X114564000Y-114371000D03*
X114564000Y-113411000D03*
D17*
X82179000Y-113030000D03*
D24*
X116949000Y-122071500D03*
X116449000Y-122071500D03*
X115949000Y-122071500D03*
X115449000Y-122071500D03*
X114949000Y-122071500D03*
X114449000Y-122071500D03*
X113949000Y-122071500D03*
X113449000Y-122071500D03*
D25*
X112761500Y-121384000D03*
X112761500Y-120884000D03*
X112761500Y-120384000D03*
X112761500Y-119884000D03*
X112761500Y-119384000D03*
X112761500Y-118884000D03*
X112761500Y-118384000D03*
X112761500Y-117884000D03*
D24*
X113449000Y-117196500D03*
X113949000Y-117196500D03*
X114449000Y-117196500D03*
X114949000Y-117196500D03*
X115449000Y-117196500D03*
X115949000Y-117196500D03*
X116449000Y-117196500D03*
X116949000Y-117196500D03*
D25*
X117636500Y-117884000D03*
X117636500Y-118384000D03*
X117636500Y-118884000D03*
X117636500Y-119384000D03*
X117636500Y-119884000D03*
X117636500Y-120384000D03*
X117636500Y-120884000D03*
X117636500Y-121384000D03*
D26*
X115199000Y-119634000D03*
D15*
X116088000Y-130048000D03*
X117048000Y-130048000D03*
D17*
X85227000Y-113030000D03*
D27*
X114183000Y-126316000D03*
X116383000Y-128016000D03*
X116383000Y-126316000D03*
X114183000Y-128016000D03*
D28*
X104531000Y-113919000D03*
X103261000Y-113919000D03*
X101991000Y-113919000D03*
D29*
X104141000Y-131619000D03*
D28*
X100721000Y-113919000D03*
D29*
X98541000Y-131619000D03*
D28*
X99451000Y-113919000D03*
X98181000Y-113919000D03*
D30*
X113802000Y-118237000D03*
X116596000Y-119761000D03*
X114056000Y-119761000D03*
X115326000Y-118999000D03*
X101102000Y-125095000D03*
X100340000Y-124587000D03*
X102118000Y-124079000D03*
X101356000Y-123317000D03*
X85862000Y-117475000D03*
X86624000Y-118237000D03*
X85100000Y-116713000D03*
X89418000Y-123571000D03*
X121549000Y-126873000D03*
X121930000Y-121412000D03*
X93990000Y-130683000D03*
X91196000Y-128235000D03*
X108976000Y-129667000D03*
X114437000Y-123698000D03*
X104277000Y-128778000D03*
X89799000Y-121412000D03*
X110119000Y-113284000D03*
X109484000Y-115331000D03*
X83449000Y-111379000D03*
X84211000Y-125984000D03*
X119898000Y-115062000D03*
X93101000Y-112395000D03*
X80782000Y-120396000D03*
X82052000Y-133604000D03*
X108214000Y-112903000D03*
D31*
X99197000Y-119507000D03*
D30*
X84973000Y-125095000D03*
X88910000Y-121412000D03*
X81290000Y-123571000D03*
D31*
X100467000Y-119507000D03*
D30*
X121676000Y-120015000D03*
X81290000Y-116713000D03*
X107516734Y-115926737D03*
X121387000Y-124460000D03*
X96149000Y-123952000D03*
X121422000Y-131191000D03*
X115707000Y-112395000D03*
X112278000Y-124714000D03*
X89799000Y-133604000D03*
X110754000Y-111379000D03*
X80528000Y-113792000D03*
X92974000Y-131445000D03*
X118755000Y-126746000D03*
X115961000Y-124079000D03*
X97292000Y-133858000D03*
X101356000Y-110998000D03*
X111262000Y-124841000D03*
X83830000Y-114300000D03*
X88910000Y-114935000D03*
X106944000Y-111319499D03*
X108341000Y-115951000D03*
X87025474Y-114326990D03*
X106309000Y-117983000D03*
X89037000Y-111252000D03*
X105420000Y-111252000D03*
X89926000Y-115316000D03*
D31*
X105039000Y-120015000D03*
X105293000Y-123190000D03*
D30*
X95260000Y-112268000D03*
X93101000Y-115189000D03*
X92466000Y-119888000D03*
X90053000Y-125857000D03*
X81036000Y-132334000D03*
X83195000Y-125476000D03*
X81290000Y-129667000D03*
X105928000Y-120523000D03*
X117231000Y-115697000D03*
X86497000Y-126238000D03*
X91069000Y-118999000D03*
X94371000Y-115189000D03*
X115453000Y-115570000D03*
X102880000Y-110744000D03*
X118501000Y-115189000D03*
X117866000Y-126619000D03*
X119390000Y-118110000D03*
X104150000Y-118653500D03*
X86370000Y-131064000D03*
X87513000Y-127381000D03*
X96657000Y-119507000D03*
X121930000Y-115062000D03*
X89799000Y-127635000D03*
X97800000Y-122428000D03*
X106690000Y-126492000D03*
X95387000Y-119634000D03*
X89799000Y-112014000D03*
X105420000Y-126492000D03*
X90815000Y-114935000D03*
X91450000Y-119888000D03*
X95260000Y-123444000D03*
X103642000Y-126619000D03*
X82560000Y-114935000D03*
X102626000Y-128270000D03*
X96149000Y-125349000D03*
X107579000Y-120269000D03*
X96784000Y-126492000D03*
X81036000Y-114554000D03*
X83576000Y-120396000D03*
D31*
X105801000Y-119253000D03*
D30*
X81163000Y-115824000D03*
X96530000Y-122428000D03*
D32*
X113802000Y-118237000D02*
X113499010Y-117934010D01*
D33*
X122057000Y-123190000D02*
X122311000Y-122936000D01*
X116949000Y-122071500D02*
X116949000Y-122400000D01*
X81798000Y-117856000D02*
X83743500Y-117856000D01*
X116949000Y-122400000D02*
X117739000Y-123190000D01*
X115580000Y-114363500D02*
X116596000Y-114363500D01*
X114949000Y-123186000D02*
X114437000Y-123698000D01*
X120152000Y-123190000D02*
X122057000Y-123190000D01*
X122311000Y-122936000D02*
X122311000Y-121793000D01*
X117739000Y-123190000D02*
X118755000Y-123190000D01*
X114564000Y-114371000D02*
X115572500Y-114371000D01*
X122311000Y-121793000D02*
X121930000Y-121412000D01*
X114949000Y-122071500D02*
X114949000Y-123186000D01*
X113449000Y-117196500D02*
X113449000Y-116121000D01*
X111618500Y-117196500D02*
X110754000Y-116332000D01*
D34*
X119771000Y-123190000D02*
X120152000Y-123190000D01*
D33*
X85227000Y-113030000D02*
X85100000Y-113030000D01*
X113449000Y-117196500D02*
X111618500Y-117196500D01*
X110485000Y-116332000D02*
X109484000Y-115331000D01*
D34*
X99451000Y-119253000D02*
X99197000Y-119507000D01*
D33*
X113548000Y-114371000D02*
X114564000Y-114371000D01*
D34*
X119199500Y-114363500D02*
X119898000Y-115062000D01*
X116596000Y-114363500D02*
X119199500Y-114363500D01*
D33*
X81488000Y-117856000D02*
X80782000Y-118562000D01*
X118755000Y-123190000D02*
X119771000Y-123190000D01*
X81798000Y-117856000D02*
X81488000Y-117856000D01*
X110754000Y-116332000D02*
X110485000Y-116332000D01*
X85100000Y-113030000D02*
X83449000Y-111379000D01*
X80782000Y-118562000D02*
X80782000Y-120396000D01*
X115572500Y-114371000D02*
X115580000Y-114363500D01*
D34*
X99451000Y-113919000D02*
X99451000Y-119253000D01*
D33*
X83743500Y-117856000D02*
X83747500Y-117852000D01*
X113449000Y-116121000D02*
X113619000Y-115951000D01*
X89164000Y-130683000D02*
X90561000Y-130683000D01*
X85611001Y-125733001D02*
X85611001Y-127130001D01*
X85611001Y-127130001D02*
X89164000Y-130683000D01*
X84973000Y-125095000D02*
X85611001Y-125733001D01*
X107516734Y-116088736D02*
X107516734Y-115926737D01*
X114449000Y-122071500D02*
X114449000Y-122592378D01*
X110754000Y-114432000D02*
X108587207Y-114432000D01*
X82296980Y-117352000D02*
X81657980Y-116713000D01*
X117048000Y-130048000D02*
X120279000Y-130048000D01*
X82179000Y-122682000D02*
X81290000Y-123571000D01*
X112327378Y-124714000D02*
X112278000Y-124714000D01*
X85467000Y-128383000D02*
X89037000Y-131953000D01*
D32*
X115199000Y-119634000D02*
X113802000Y-118237000D01*
D33*
X115580000Y-113403500D02*
X115580000Y-112522000D01*
X119771000Y-124150000D02*
X121077000Y-124150000D01*
X93148000Y-131619000D02*
X92974000Y-131445000D01*
X120307000Y-121384000D02*
X121676000Y-120015000D01*
D32*
X112811510Y-117934010D02*
X112761500Y-117884000D01*
D33*
X121077000Y-124150000D02*
X121387000Y-124460000D01*
X107516734Y-115502473D02*
X107516734Y-115926737D01*
X117739000Y-124150000D02*
X118755000Y-124150000D01*
X113548000Y-113411000D02*
X114564000Y-113411000D01*
X115580000Y-113403500D02*
X116596000Y-113403500D01*
X114449000Y-122592378D02*
X112327378Y-124714000D01*
X98541000Y-131619000D02*
X104141000Y-131619000D01*
X108587207Y-114432000D02*
X107516734Y-115502473D01*
X121041000Y-131572000D02*
X121422000Y-131191000D01*
D34*
X100721000Y-113919000D02*
X100721000Y-119253000D01*
D33*
X114449000Y-120384000D02*
X115199000Y-119634000D01*
X115168010Y-130708010D02*
X116697990Y-130708010D01*
X117048000Y-130358000D02*
X117048000Y-130048000D01*
X84261000Y-128383000D02*
X85467000Y-128383000D01*
D32*
X113499010Y-117934010D02*
X112811510Y-117934010D01*
D33*
X89037000Y-132842000D02*
X89799000Y-133604000D01*
X121041000Y-133096000D02*
X121041000Y-131572000D01*
X112273000Y-115951000D02*
X110754000Y-114432000D01*
X112761500Y-117884000D02*
X109311998Y-117884000D01*
X120279000Y-130048000D02*
X121422000Y-131191000D01*
D34*
X100721000Y-119253000D02*
X100467000Y-119507000D01*
D33*
X83747500Y-117352000D02*
X82296980Y-117352000D01*
X118755000Y-124150000D02*
X119771000Y-124150000D01*
X114564000Y-113411000D02*
X115572500Y-113411000D01*
X117636500Y-121384000D02*
X120307000Y-121384000D01*
X116697990Y-130708010D02*
X117048000Y-130358000D01*
X81508990Y-121884990D02*
X81508990Y-119105010D01*
X81290000Y-113030000D02*
X80528000Y-113792000D01*
D32*
X117509010Y-121309010D02*
X116874010Y-121309010D01*
D33*
X82179000Y-122555000D02*
X81508990Y-121884990D01*
X81508990Y-119105010D02*
X81798000Y-118816000D01*
X114508000Y-130048000D02*
X115168010Y-130708010D01*
X115572500Y-113411000D02*
X115580000Y-113403500D01*
X82179000Y-122555000D02*
X82179000Y-122682000D01*
D32*
X116874010Y-121309010D02*
X115199000Y-119634000D01*
X117584000Y-121384000D02*
X117509010Y-121309010D01*
D33*
X89037000Y-131953000D02*
X89037000Y-132842000D01*
X82179000Y-113030000D02*
X81290000Y-113030000D01*
X98541000Y-131619000D02*
X93148000Y-131619000D01*
D32*
X117636500Y-121384000D02*
X117584000Y-121384000D01*
D33*
X114449000Y-122071500D02*
X114449000Y-120384000D01*
X112659000Y-115951000D02*
X112273000Y-115951000D01*
X115580000Y-112522000D02*
X115707000Y-112395000D01*
X81657980Y-116713000D02*
X81290000Y-116713000D01*
X109311998Y-117884000D02*
X107516734Y-116088736D01*
D32*
X114183000Y-126316000D02*
X113343000Y-126316000D01*
X114232000Y-126316000D02*
X115707000Y-124841000D01*
X116561001Y-122633669D02*
X116449000Y-122521668D01*
X116088000Y-124841000D02*
X116561001Y-124367999D01*
X116561001Y-124367999D02*
X116561001Y-122633669D01*
X112659000Y-127000000D02*
X112659000Y-129159000D01*
X112659000Y-129159000D02*
X113548000Y-130048000D01*
X113343000Y-126316000D02*
X112659000Y-127000000D01*
X115707000Y-124841000D02*
X116088000Y-124841000D01*
X116449000Y-122521668D02*
X116449000Y-122071500D01*
X114183000Y-126316000D02*
X114232000Y-126316000D01*
X115949000Y-124067000D02*
X115961000Y-124079000D01*
X115949000Y-122071500D02*
X115949000Y-124067000D01*
X116088000Y-129159000D02*
X116088000Y-130048000D01*
X117485000Y-128016000D02*
X116383000Y-128016000D01*
X118755000Y-126746000D02*
X117485000Y-128016000D01*
X116383000Y-128016000D02*
X116383000Y-128864000D01*
X116383000Y-128864000D02*
X116088000Y-129159000D01*
X115326000Y-124460000D02*
X114437000Y-125349000D01*
X106690000Y-133858000D02*
X97292000Y-133858000D01*
X115449000Y-123575000D02*
X115326000Y-123698000D01*
X111770000Y-128778000D02*
X106690000Y-133858000D01*
X114437000Y-125349000D02*
X113167000Y-125349000D01*
X115326000Y-123698000D02*
X115326000Y-124460000D01*
X111770000Y-126746000D02*
X111770000Y-128778000D01*
X113167000Y-125349000D02*
X111770000Y-126746000D01*
X115449000Y-122071500D02*
X115449000Y-123575000D01*
X87722500Y-116352000D02*
X90287998Y-116352000D01*
X95641998Y-110998000D02*
X101356000Y-110998000D01*
X90287998Y-116352000D02*
X95641998Y-110998000D01*
X84985000Y-115214332D02*
X84070668Y-114300000D01*
X84070668Y-114300000D02*
X83830000Y-114300000D01*
X84985000Y-115614500D02*
X84985000Y-115214332D01*
X86485000Y-115214332D02*
X86772342Y-114926990D01*
X86485000Y-115614500D02*
X86485000Y-115214332D01*
X86772342Y-114926990D02*
X88901990Y-114926990D01*
X88901990Y-114926990D02*
X88910000Y-114935000D01*
X86806644Y-114326990D02*
X87025474Y-114326990D01*
X85985000Y-115148634D02*
X86806644Y-114326990D01*
X85985000Y-115614500D02*
X85985000Y-115148634D01*
X86751000Y-113713462D02*
X86751000Y-112629998D01*
X85485000Y-114979462D02*
X86751000Y-113713462D01*
X86751000Y-112629998D02*
X88128998Y-111252000D01*
X85485000Y-115614500D02*
X85485000Y-114979462D01*
X88128998Y-111252000D02*
X89037000Y-111252000D01*
X89627500Y-115614500D02*
X89926000Y-115316000D01*
X86985000Y-115614500D02*
X89627500Y-115614500D01*
X105039000Y-120015000D02*
X105039000Y-122936000D01*
X105039000Y-122936000D02*
X105293000Y-123190000D01*
X95133998Y-112268000D02*
X95260000Y-112268000D01*
X87722500Y-116852000D02*
X90549998Y-116852000D01*
X90549998Y-116852000D02*
X95133998Y-112268000D01*
X87722500Y-117352000D02*
X90938000Y-117352000D01*
X90938000Y-117352000D02*
X93101000Y-115189000D01*
X92466000Y-119507998D02*
X92466000Y-119888000D01*
X91310002Y-118352000D02*
X92466000Y-119507998D01*
X87722500Y-118352000D02*
X91310002Y-118352000D01*
X86985000Y-122916000D02*
X89926000Y-125857000D01*
X89926000Y-125857000D02*
X90053000Y-125857000D01*
X86985000Y-119589500D02*
X86985000Y-122916000D01*
X84985000Y-119589500D02*
X84985000Y-121654000D01*
X80528000Y-131826000D02*
X81036000Y-132334000D01*
X80528000Y-126111000D02*
X80528000Y-131826000D01*
X84985000Y-121654000D02*
X80528000Y-126111000D01*
X85985000Y-122686000D02*
X83195000Y-125476000D01*
X85985000Y-119589500D02*
X85985000Y-122686000D01*
X80928010Y-126276688D02*
X80928010Y-129305010D01*
X85485000Y-119589500D02*
X85485000Y-121719698D01*
X80928010Y-129305010D02*
X81290000Y-129667000D01*
X85485000Y-121719698D02*
X80928010Y-126276688D01*
X86485000Y-119589500D02*
X86485000Y-126226000D01*
X86485000Y-126226000D02*
X86497000Y-126238000D01*
X90922000Y-118852000D02*
X91069000Y-118999000D01*
X87722500Y-118852000D02*
X90922000Y-118852000D01*
X87722500Y-117852000D02*
X91708000Y-117852000D01*
X91708000Y-117852000D02*
X94371000Y-115189000D01*
X102880000Y-110744000D02*
X101991000Y-111633000D01*
X101991000Y-111633000D02*
X101991000Y-113919000D01*
X114949000Y-116074000D02*
X115453000Y-115570000D01*
X114949000Y-117196500D02*
X114949000Y-116074000D01*
X114449000Y-117196500D02*
X114449000Y-115455000D01*
X113294000Y-115189000D02*
X110023999Y-111918999D01*
X110023999Y-111918999D02*
X103361001Y-111918999D01*
X103261000Y-112019000D02*
X103261000Y-113919000D01*
X114449000Y-115455000D02*
X114183000Y-115189000D01*
X103361001Y-111918999D02*
X103261000Y-112019000D01*
X114183000Y-115189000D02*
X113294000Y-115189000D01*
X118501000Y-115315002D02*
X118501000Y-115189000D01*
X117519001Y-116297001D02*
X118501000Y-115315002D01*
X116449000Y-117196500D02*
X116449000Y-116746332D01*
X116449000Y-116746332D02*
X116898331Y-116297001D01*
X116898331Y-116297001D02*
X117519001Y-116297001D01*
X116949000Y-117196500D02*
X118476500Y-117196500D01*
X118476500Y-117196500D02*
X119390000Y-118110000D01*
X108107000Y-118384000D02*
X107105999Y-117382999D01*
X105420501Y-117382999D02*
X104150000Y-118653500D01*
X112761500Y-118384000D02*
X108107000Y-118384000D01*
X107105999Y-117382999D02*
X105420501Y-117382999D01*
X86370000Y-131064000D02*
X84451000Y-132983000D01*
X91323000Y-125984000D02*
X90561000Y-126746000D01*
X91323000Y-124841000D02*
X91323000Y-125984000D01*
X96657000Y-119507000D02*
X91323000Y-124841000D01*
X88148000Y-126746000D02*
X87513000Y-127381000D01*
X88275000Y-126746000D02*
X88148000Y-126746000D01*
X84451000Y-132983000D02*
X84261000Y-132983000D01*
X90561000Y-126746000D02*
X88275000Y-126746000D01*
X121803000Y-115189000D02*
X121930000Y-115062000D01*
X120913002Y-118745000D02*
X121803000Y-117855002D01*
X118140000Y-120884000D02*
X120279000Y-118745000D01*
X120279000Y-118745000D02*
X120913002Y-118745000D01*
X117636500Y-120884000D02*
X118140000Y-120884000D01*
X121803000Y-117855002D02*
X121803000Y-115189000D01*
X94752998Y-127635000D02*
X89799000Y-127635000D01*
X97800000Y-122428000D02*
X97800000Y-124587998D01*
X97800000Y-124587998D02*
X94752998Y-127635000D01*
X83747500Y-118352000D02*
X83347332Y-118352000D01*
X82179000Y-119520332D02*
X82179000Y-121535000D01*
X83347332Y-118352000D02*
X82179000Y-119520332D01*
X106690000Y-125095000D02*
X106690000Y-126492000D01*
X89291000Y-112014000D02*
X88275000Y-113030000D01*
X89799000Y-112014000D02*
X89291000Y-112014000D01*
X109865000Y-121920000D02*
X106690000Y-125095000D01*
X112761500Y-121384000D02*
X110401000Y-121384000D01*
X110401000Y-121384000D02*
X109865000Y-121920000D01*
X112761500Y-120884000D02*
X112311332Y-120884000D01*
X112311332Y-120884000D02*
X112291332Y-120904000D01*
X112291332Y-120904000D02*
X110119000Y-120904000D01*
X90815000Y-114935000D02*
X90815000Y-113538000D01*
X110119000Y-120904000D02*
X105420000Y-125603000D01*
X90815000Y-113538000D02*
X91323000Y-113030000D01*
X105420000Y-125603000D02*
X105420000Y-126492000D01*
X112761500Y-120384000D02*
X109877000Y-120384000D01*
X109877000Y-120384000D02*
X103642000Y-126619000D01*
X83747500Y-116352000D02*
X83747500Y-116122500D01*
X106182000Y-122555000D02*
X106182000Y-123337002D01*
X106182000Y-123337002D02*
X103916002Y-125603000D01*
X103515000Y-125603000D02*
X102626000Y-126492000D01*
X102626000Y-126492000D02*
X102626000Y-128270000D01*
X83747500Y-116122500D02*
X82560000Y-114935000D01*
X103916002Y-125603000D02*
X103515000Y-125603000D01*
X108853000Y-119884000D02*
X106182000Y-122555000D01*
X112761500Y-119884000D02*
X108853000Y-119884000D01*
X81255001Y-114334999D02*
X81036000Y-114554000D01*
X82848001Y-114334999D02*
X81255001Y-114334999D01*
X108464000Y-119384000D02*
X107579000Y-120269000D01*
X84485000Y-115614500D02*
X84127502Y-115614500D01*
X84127502Y-115614500D02*
X82848001Y-114334999D01*
X112761500Y-119384000D02*
X108464000Y-119384000D01*
X84382500Y-119589500D02*
X83576000Y-120396000D01*
X105801000Y-119253000D02*
X106170000Y-118884000D01*
X84485000Y-119589500D02*
X84382500Y-119589500D01*
X106170000Y-118884000D02*
X112761500Y-118884000D01*
X83747500Y-116852000D02*
X82502698Y-116852000D01*
X81474698Y-115824000D02*
X81163000Y-115824000D01*
X82502698Y-116852000D02*
X81474698Y-115824000D01*
M02*
