%TF.GenerationSoftware,KiCad,Pcbnew,6.0.5-a6ca702e91~116~ubuntu21.10.1*%
%TF.CreationDate,2022-05-27T18:53:49+10:00*%
%TF.ProjectId,FlarmDisplay,466c6172-6d44-4697-9370-6c61792e6b69,rev?*%
%TF.SameCoordinates,Original*%
%TF.FileFunction,Copper,L3,Inr*%
%TF.FilePolarity,Positive*%
%FSLAX46Y46*%
G04 Gerber Fmt 4.6, Leading zero omitted, Abs format (unit mm)*
G04 Created by KiCad (PCBNEW 6.0.5-a6ca702e91~116~ubuntu21.10.1) date 2022-05-27 18:53:49*
%MOMM*%
%LPD*%
G01*
G04 APERTURE LIST*
%TA.AperFunction,ComponentPad*%
%ADD10R,1.700000X1.700000*%
%TD*%
%TA.AperFunction,ComponentPad*%
%ADD11O,1.700000X1.700000*%
%TD*%
%TA.AperFunction,ViaPad*%
%ADD12C,0.600000*%
%TD*%
%TA.AperFunction,ViaPad*%
%ADD13C,0.800000*%
%TD*%
%TA.AperFunction,Conductor*%
%ADD14C,0.200000*%
%TD*%
%TA.AperFunction,Conductor*%
%ADD15C,0.300000*%
%TD*%
G04 APERTURE END LIST*
D10*
X113421000Y-133096000D03*
D11*
X115961000Y-133096000D03*
X118501000Y-133096000D03*
X121041000Y-133096000D03*
D12*
X105537000Y-111633000D03*
X114681000Y-111633000D03*
X115443000Y-112141000D03*
X114173000Y-112395000D03*
X121285000Y-114935000D03*
X121793000Y-118237000D03*
X89418000Y-123571000D03*
X121549000Y-126873000D03*
X121539000Y-121539000D03*
X93990000Y-130683000D03*
X91196000Y-128235000D03*
X108976000Y-129667000D03*
X114437000Y-123698000D03*
X104277000Y-128778000D03*
X89799000Y-121412000D03*
X110119000Y-113284000D03*
X109484000Y-115331000D03*
X83449000Y-111379000D03*
X84211000Y-125984000D03*
X119898000Y-115062000D03*
X93101000Y-112395000D03*
X80782000Y-120396000D03*
X82052000Y-133604000D03*
X108214000Y-112903000D03*
D13*
X99197000Y-119507000D03*
D12*
X84973000Y-125095000D03*
X88910000Y-121412000D03*
X81290000Y-123571000D03*
D13*
X100467000Y-119507000D03*
D12*
X86624000Y-118237000D03*
X121676000Y-120015000D03*
X115326000Y-118999000D03*
X102118000Y-124079000D03*
X81290000Y-116713000D03*
X101102000Y-125095000D03*
X107516734Y-115926737D03*
X121387000Y-124460000D03*
X114056000Y-119761000D03*
X96149000Y-123952000D03*
X85100000Y-116713000D03*
X121422000Y-131191000D03*
X85862000Y-117475000D03*
X101356000Y-123317000D03*
X112278000Y-124714000D03*
X100340000Y-124587000D03*
X113802000Y-118237000D03*
X89799000Y-133604000D03*
X116596000Y-119761000D03*
X80528000Y-113792000D03*
X92974000Y-131445000D03*
X118755000Y-126746000D03*
X115961000Y-124079000D03*
X97292000Y-133858000D03*
X101356000Y-110998000D03*
X111262000Y-124841000D03*
X83830000Y-114300000D03*
X88910000Y-114935000D03*
X106944000Y-112141000D03*
X108341000Y-115951000D03*
X87025474Y-114326990D03*
X106309000Y-117983000D03*
X89037000Y-111252000D03*
X89926000Y-115316000D03*
D13*
X105039000Y-120015000D03*
X105293000Y-123190000D03*
D12*
X95260000Y-112268000D03*
X93101000Y-115189000D03*
X92466000Y-119888000D03*
X90053000Y-125857000D03*
X81036000Y-132334000D03*
X83195000Y-125476000D03*
X81290000Y-129667000D03*
X105928000Y-120523000D03*
X117231000Y-115697000D03*
X86497000Y-126238000D03*
X91069000Y-118999000D03*
X94371000Y-115189000D03*
X115453000Y-115570000D03*
X118501000Y-115189000D03*
X117866000Y-126619000D03*
X119390000Y-118110000D03*
X104150000Y-118653500D03*
X86370000Y-131064000D03*
X87513000Y-127381000D03*
X96657000Y-119507000D03*
X89799000Y-127635000D03*
X97800000Y-122428000D03*
X106690000Y-126492000D03*
X95387000Y-119634000D03*
X89799000Y-112014000D03*
X105420000Y-126492000D03*
X90815000Y-114935000D03*
X91450000Y-119888000D03*
X95260000Y-123444000D03*
X103642000Y-126619000D03*
X82560000Y-114935000D03*
X102626000Y-128270000D03*
X96149000Y-125349000D03*
X107579000Y-120269000D03*
X96784000Y-126492000D03*
X81036000Y-114554000D03*
X83576000Y-120396000D03*
D13*
X105801000Y-119253000D03*
D12*
X81163000Y-115824000D03*
X96530000Y-122428000D03*
D14*
X114173000Y-113919000D02*
X114173000Y-112395000D01*
X114427000Y-114173000D02*
X114173000Y-113919000D01*
X120777000Y-114427000D02*
X118745000Y-114427000D01*
X121285000Y-114935000D02*
X120777000Y-114427000D01*
X118745000Y-114427000D02*
X114681000Y-114427000D01*
X114681000Y-114427000D02*
X114427000Y-114173000D01*
D15*
X92721410Y-121412000D02*
X89799000Y-121412000D01*
X93371411Y-122062001D02*
X92721410Y-121412000D01*
X98508002Y-119507000D02*
X95953001Y-122062001D01*
X99197000Y-119507000D02*
X99197000Y-118491000D01*
X99197000Y-119507000D02*
X98508002Y-119507000D01*
X99197000Y-118491000D02*
X93101000Y-112395000D01*
X95953001Y-122062001D02*
X93371411Y-122062001D01*
D14*
X89037000Y-111252000D02*
X99578000Y-111252000D01*
X99578000Y-111252000D02*
X106309000Y-117983000D01*
X114818000Y-130302000D02*
X114818000Y-131699000D01*
X117866000Y-126619000D02*
X117866000Y-127254000D01*
X117866000Y-127254000D02*
X114818000Y-130302000D01*
X114818000Y-131699000D02*
X113421000Y-133096000D01*
X119390000Y-126999002D02*
X115961000Y-130428002D01*
X119390000Y-118110000D02*
X119390000Y-126999002D01*
X115961000Y-130428002D02*
X115961000Y-133096000D01*
X91958000Y-114173000D02*
X89799000Y-112014000D01*
X95387000Y-119634000D02*
X94117000Y-119634000D01*
X94117000Y-119634000D02*
X91958000Y-117475000D01*
X91958000Y-117475000D02*
X91958000Y-114173000D01*
X88402000Y-122428000D02*
X93101000Y-122428000D01*
X82560000Y-116586000D02*
X88402000Y-122428000D01*
X82560000Y-114935000D02*
X82560000Y-116586000D01*
X96022000Y-125349000D02*
X96149000Y-125349000D01*
X93101000Y-122428000D02*
X96022000Y-125349000D01*
X86243000Y-124460000D02*
X93736000Y-124460000D01*
X107579000Y-120269000D02*
X107154736Y-120269000D01*
X81036000Y-114554000D02*
X80562999Y-115027001D01*
X107154736Y-120269000D02*
X100931736Y-126492000D01*
X80562999Y-118779999D02*
X86243000Y-124460000D01*
X93736000Y-124460000D02*
X95768000Y-126492000D01*
X95768000Y-126492000D02*
X96784000Y-126492000D01*
X100931736Y-126492000D02*
X96784000Y-126492000D01*
X80562999Y-115027001D02*
X80562999Y-118779999D01*
%TA.AperFunction,Conductor*%
G36*
X122316621Y-110528502D02*
G01*
X122363114Y-110582158D01*
X122374500Y-110634500D01*
X122374500Y-117419218D01*
X122354498Y-117487339D01*
X122300842Y-117533832D01*
X122230568Y-117543936D01*
X122180989Y-117525605D01*
X122149666Y-117505727D01*
X122120463Y-117495328D01*
X121985425Y-117447243D01*
X121985420Y-117447242D01*
X121978790Y-117444881D01*
X121971802Y-117444048D01*
X121971799Y-117444047D01*
X121827696Y-117426864D01*
X121798680Y-117423404D01*
X121791677Y-117424140D01*
X121791676Y-117424140D01*
X121625288Y-117441628D01*
X121625286Y-117441629D01*
X121618288Y-117442364D01*
X121446579Y-117500818D01*
X121423722Y-117514880D01*
X121298095Y-117592166D01*
X121298092Y-117592168D01*
X121292088Y-117595862D01*
X121287053Y-117600793D01*
X121287050Y-117600795D01*
X121167525Y-117717843D01*
X121162493Y-117722771D01*
X121064235Y-117875238D01*
X121061826Y-117881858D01*
X121061824Y-117881861D01*
X121013131Y-118015643D01*
X121002197Y-118045685D01*
X120979463Y-118225640D01*
X120997163Y-118406160D01*
X121054418Y-118578273D01*
X121058065Y-118584295D01*
X121058066Y-118584297D01*
X121142641Y-118723947D01*
X121148380Y-118733424D01*
X121153269Y-118738487D01*
X121153270Y-118738488D01*
X121224348Y-118812091D01*
X121274382Y-118863902D01*
X121283232Y-118869693D01*
X121419758Y-118959033D01*
X121426159Y-118963222D01*
X121432763Y-118965678D01*
X121432765Y-118965679D01*
X121589558Y-119023990D01*
X121589560Y-119023990D01*
X121596168Y-119026448D01*
X121679995Y-119037633D01*
X121768980Y-119049507D01*
X121768984Y-119049507D01*
X121775961Y-119050438D01*
X121782972Y-119049800D01*
X121782976Y-119049800D01*
X121925459Y-119036832D01*
X121956600Y-119033998D01*
X121963302Y-119031820D01*
X121963304Y-119031820D01*
X122122409Y-118980124D01*
X122122412Y-118980123D01*
X122129108Y-118977947D01*
X122183983Y-118945235D01*
X122252738Y-118927535D01*
X122320147Y-118949817D01*
X122364809Y-119005006D01*
X122374500Y-119053464D01*
X122374500Y-120927185D01*
X122354498Y-120995306D01*
X122300842Y-121041799D01*
X122230568Y-121051903D01*
X122165988Y-121022409D01*
X122159094Y-121015969D01*
X122053778Y-120909915D01*
X122053774Y-120909912D01*
X122048815Y-120904918D01*
X122037697Y-120897862D01*
X121968333Y-120853843D01*
X121895666Y-120807727D01*
X121832251Y-120785146D01*
X121731425Y-120749243D01*
X121731420Y-120749242D01*
X121724790Y-120746881D01*
X121717802Y-120746048D01*
X121717799Y-120746047D01*
X121586938Y-120730443D01*
X121544680Y-120725404D01*
X121537677Y-120726140D01*
X121537676Y-120726140D01*
X121371288Y-120743628D01*
X121371286Y-120743629D01*
X121364288Y-120744364D01*
X121192579Y-120802818D01*
X121131010Y-120840696D01*
X121044095Y-120894166D01*
X121044092Y-120894168D01*
X121038088Y-120897862D01*
X121033053Y-120902793D01*
X121033050Y-120902795D01*
X120917481Y-121015969D01*
X120908493Y-121024771D01*
X120810235Y-121177238D01*
X120807826Y-121183858D01*
X120807824Y-121183861D01*
X120788033Y-121238237D01*
X120748197Y-121347685D01*
X120725463Y-121527640D01*
X120743163Y-121708160D01*
X120800418Y-121880273D01*
X120894380Y-122035424D01*
X121020382Y-122165902D01*
X121172159Y-122265222D01*
X121178763Y-122267678D01*
X121178765Y-122267679D01*
X121335558Y-122325990D01*
X121335560Y-122325990D01*
X121342168Y-122328448D01*
X121425995Y-122339633D01*
X121514980Y-122351507D01*
X121514984Y-122351507D01*
X121521961Y-122352438D01*
X121528972Y-122351800D01*
X121528976Y-122351800D01*
X121671459Y-122338832D01*
X121702600Y-122335998D01*
X121709302Y-122333820D01*
X121709304Y-122333820D01*
X121868409Y-122282124D01*
X121868412Y-122282123D01*
X121875108Y-122279947D01*
X122030912Y-122187069D01*
X122142471Y-122080833D01*
X122161608Y-122062609D01*
X122224733Y-122030117D01*
X122295404Y-122036910D01*
X122351183Y-122080833D01*
X122374500Y-122153855D01*
X122374500Y-126251115D01*
X122354498Y-126319236D01*
X122300842Y-126365729D01*
X122230568Y-126375833D01*
X122165988Y-126346339D01*
X122159094Y-126339899D01*
X122063778Y-126243915D01*
X122063774Y-126243912D01*
X122058815Y-126238918D01*
X122051164Y-126234062D01*
X121994912Y-126198364D01*
X121905666Y-126141727D01*
X121856759Y-126124312D01*
X121741425Y-126083243D01*
X121741420Y-126083242D01*
X121734790Y-126080881D01*
X121727802Y-126080048D01*
X121727799Y-126080047D01*
X121599462Y-126064744D01*
X121554680Y-126059404D01*
X121547677Y-126060140D01*
X121547676Y-126060140D01*
X121381288Y-126077628D01*
X121381286Y-126077629D01*
X121374288Y-126078364D01*
X121202579Y-126136818D01*
X121140109Y-126175250D01*
X121054095Y-126228166D01*
X121054092Y-126228168D01*
X121048088Y-126231862D01*
X121043053Y-126236793D01*
X121043050Y-126236795D01*
X120928150Y-126349314D01*
X120918493Y-126358771D01*
X120820235Y-126511238D01*
X120817826Y-126517858D01*
X120817824Y-126517861D01*
X120761317Y-126673112D01*
X120758197Y-126681685D01*
X120735463Y-126861640D01*
X120753163Y-127042160D01*
X120810418Y-127214273D01*
X120814065Y-127220295D01*
X120814066Y-127220297D01*
X120898641Y-127359947D01*
X120904380Y-127369424D01*
X120909269Y-127374487D01*
X120909270Y-127374488D01*
X120977598Y-127445243D01*
X121030382Y-127499902D01*
X121106270Y-127549562D01*
X121157886Y-127583338D01*
X121182159Y-127599222D01*
X121188763Y-127601678D01*
X121188765Y-127601679D01*
X121345558Y-127659990D01*
X121345560Y-127659990D01*
X121352168Y-127662448D01*
X121435995Y-127673633D01*
X121524980Y-127685507D01*
X121524984Y-127685507D01*
X121531961Y-127686438D01*
X121538972Y-127685800D01*
X121538976Y-127685800D01*
X121681459Y-127672832D01*
X121712600Y-127669998D01*
X121719302Y-127667820D01*
X121719304Y-127667820D01*
X121878409Y-127616124D01*
X121878412Y-127616123D01*
X121885108Y-127613947D01*
X121981513Y-127556478D01*
X122034860Y-127524677D01*
X122034862Y-127524676D01*
X122040912Y-127521069D01*
X122055155Y-127507506D01*
X122161608Y-127406132D01*
X122224732Y-127373639D01*
X122295403Y-127380432D01*
X122351183Y-127424355D01*
X122374500Y-127497377D01*
X122374500Y-132230291D01*
X122354498Y-132298412D01*
X122300842Y-132344905D01*
X122230568Y-132355009D01*
X122165988Y-132325515D01*
X122142707Y-132298730D01*
X122123424Y-132268923D01*
X122117136Y-132260757D01*
X121973806Y-132103240D01*
X121966273Y-132096215D01*
X121799139Y-131964222D01*
X121790552Y-131958517D01*
X121604117Y-131855599D01*
X121594705Y-131851369D01*
X121393959Y-131780280D01*
X121383988Y-131777646D01*
X121312837Y-131764972D01*
X121299540Y-131766432D01*
X121295000Y-131780989D01*
X121295000Y-133224000D01*
X121274998Y-133292121D01*
X121221342Y-133338614D01*
X121169000Y-133350000D01*
X120913000Y-133350000D01*
X120844879Y-133329998D01*
X120798386Y-133276342D01*
X120787000Y-133224000D01*
X120787000Y-131779102D01*
X120783082Y-131765758D01*
X120768806Y-131763771D01*
X120730324Y-131769660D01*
X120720288Y-131772051D01*
X120517868Y-131838212D01*
X120508359Y-131842209D01*
X120319463Y-131940542D01*
X120310738Y-131946036D01*
X120140433Y-132073905D01*
X120132726Y-132080748D01*
X119985590Y-132234717D01*
X119979109Y-132242722D01*
X119874498Y-132396074D01*
X119819587Y-132441076D01*
X119749062Y-132449247D01*
X119685315Y-132417993D01*
X119664618Y-132393509D01*
X119583822Y-132268617D01*
X119583820Y-132268614D01*
X119581014Y-132264277D01*
X119430670Y-132099051D01*
X119426619Y-132095852D01*
X119426615Y-132095848D01*
X119259414Y-131963800D01*
X119259410Y-131963798D01*
X119255359Y-131960598D01*
X119219028Y-131940542D01*
X119203136Y-131931769D01*
X119059789Y-131852638D01*
X119054920Y-131850914D01*
X119054916Y-131850912D01*
X118854087Y-131779795D01*
X118854083Y-131779794D01*
X118849212Y-131778069D01*
X118844119Y-131777162D01*
X118844116Y-131777161D01*
X118634373Y-131739800D01*
X118634367Y-131739799D01*
X118629284Y-131738894D01*
X118555452Y-131737992D01*
X118411081Y-131736228D01*
X118411079Y-131736228D01*
X118405911Y-131736165D01*
X118185091Y-131769955D01*
X117972756Y-131839357D01*
X117774607Y-131942507D01*
X117770474Y-131945610D01*
X117770471Y-131945612D01*
X117600100Y-132073530D01*
X117595965Y-132076635D01*
X117441629Y-132238138D01*
X117334201Y-132395621D01*
X117279293Y-132440621D01*
X117208768Y-132448792D01*
X117145021Y-132417538D01*
X117124324Y-132393054D01*
X117043822Y-132268617D01*
X117043820Y-132268614D01*
X117041014Y-132264277D01*
X116890670Y-132099051D01*
X116886619Y-132095852D01*
X116886615Y-132095848D01*
X116719414Y-131963800D01*
X116719410Y-131963798D01*
X116715359Y-131960598D01*
X116634607Y-131916021D01*
X116584636Y-131865588D01*
X116569500Y-131805712D01*
X116569500Y-130732241D01*
X116589502Y-130664120D01*
X116606405Y-130643146D01*
X119786234Y-127463317D01*
X119798625Y-127452450D01*
X119817437Y-127438015D01*
X119823987Y-127432989D01*
X119848474Y-127401077D01*
X119848477Y-127401074D01*
X119911957Y-127318345D01*
X119921524Y-127305877D01*
X119982838Y-127157852D01*
X119998500Y-127038887D01*
X119998500Y-127038880D01*
X120003750Y-126999002D01*
X119999578Y-126967309D01*
X119998500Y-126950866D01*
X119998500Y-118693248D01*
X120019552Y-118623521D01*
X120109742Y-118487773D01*
X120113643Y-118481902D01*
X120160762Y-118357862D01*
X120175555Y-118318920D01*
X120175556Y-118318918D01*
X120178055Y-118312338D01*
X120180950Y-118291738D01*
X120202748Y-118136639D01*
X120202748Y-118136636D01*
X120203299Y-118132717D01*
X120203616Y-118110000D01*
X120183397Y-117929745D01*
X120180356Y-117921012D01*
X120126064Y-117765106D01*
X120126062Y-117765103D01*
X120123745Y-117758448D01*
X120027626Y-117604624D01*
X119967360Y-117543936D01*
X119904778Y-117480915D01*
X119904774Y-117480912D01*
X119899815Y-117475918D01*
X119888697Y-117468862D01*
X119818380Y-117424238D01*
X119746666Y-117378727D01*
X119676986Y-117353915D01*
X119582425Y-117320243D01*
X119582420Y-117320242D01*
X119575790Y-117317881D01*
X119568802Y-117317048D01*
X119568799Y-117317047D01*
X119445698Y-117302368D01*
X119395680Y-117296404D01*
X119388677Y-117297140D01*
X119388676Y-117297140D01*
X119222288Y-117314628D01*
X119222286Y-117314629D01*
X119215288Y-117315364D01*
X119043579Y-117373818D01*
X119037575Y-117377512D01*
X118895095Y-117465166D01*
X118895092Y-117465168D01*
X118889088Y-117468862D01*
X118884053Y-117473793D01*
X118884050Y-117473795D01*
X118812425Y-117543936D01*
X118759493Y-117595771D01*
X118661235Y-117748238D01*
X118658826Y-117754858D01*
X118658824Y-117754861D01*
X118614344Y-117877069D01*
X118599197Y-117918685D01*
X118576463Y-118098640D01*
X118594163Y-118279160D01*
X118651418Y-118451273D01*
X118655065Y-118457295D01*
X118655066Y-118457297D01*
X118741730Y-118600398D01*
X118741733Y-118600401D01*
X118745380Y-118606424D01*
X118750275Y-118611492D01*
X118754571Y-118617071D01*
X118752243Y-118618864D01*
X118779071Y-118670115D01*
X118781500Y-118694734D01*
X118781500Y-125816765D01*
X118761498Y-125884886D01*
X118707842Y-125931379D01*
X118668672Y-125942074D01*
X118613722Y-125947850D01*
X118587289Y-125950628D01*
X118587288Y-125950628D01*
X118580288Y-125951364D01*
X118469937Y-125988930D01*
X118399007Y-125991948D01*
X118361822Y-125976038D01*
X118222666Y-125887727D01*
X118147501Y-125860962D01*
X118058425Y-125829243D01*
X118058420Y-125829242D01*
X118051790Y-125826881D01*
X118044802Y-125826048D01*
X118044799Y-125826047D01*
X117915171Y-125810590D01*
X117871680Y-125805404D01*
X117864677Y-125806140D01*
X117864676Y-125806140D01*
X117698288Y-125823628D01*
X117698286Y-125823629D01*
X117691288Y-125824364D01*
X117519579Y-125882818D01*
X117501850Y-125893725D01*
X117371095Y-125974166D01*
X117371092Y-125974168D01*
X117365088Y-125977862D01*
X117360053Y-125982793D01*
X117360050Y-125982795D01*
X117242577Y-126097834D01*
X117235493Y-126104771D01*
X117137235Y-126257238D01*
X117134826Y-126263858D01*
X117134824Y-126263861D01*
X117080235Y-126413844D01*
X117075197Y-126427685D01*
X117052463Y-126607640D01*
X117070163Y-126788160D01*
X117127418Y-126960273D01*
X117131066Y-126966296D01*
X117131067Y-126966299D01*
X117141026Y-126982744D01*
X117159204Y-127051374D01*
X117137392Y-127118937D01*
X117122344Y-127137108D01*
X115689861Y-128569590D01*
X114421766Y-129837685D01*
X114409375Y-129848552D01*
X114384013Y-129868013D01*
X114359526Y-129899925D01*
X114359523Y-129899928D01*
X114286476Y-129995124D01*
X114230761Y-130129633D01*
X114225162Y-130143150D01*
X114209500Y-130262115D01*
X114209500Y-130262120D01*
X114204250Y-130302000D01*
X114207655Y-130327861D01*
X114208422Y-130333690D01*
X114209500Y-130350136D01*
X114209500Y-131394761D01*
X114189498Y-131462882D01*
X114172595Y-131483856D01*
X113955856Y-131700595D01*
X113893544Y-131734621D01*
X113866761Y-131737500D01*
X112522866Y-131737500D01*
X112460684Y-131744255D01*
X112324295Y-131795385D01*
X112207739Y-131882739D01*
X112120385Y-131999295D01*
X112069255Y-132135684D01*
X112062500Y-132197866D01*
X112062500Y-133994134D01*
X112069255Y-134056316D01*
X112120385Y-134192705D01*
X112193255Y-134289935D01*
X112218103Y-134356441D01*
X112203050Y-134425824D01*
X112152876Y-134476054D01*
X112092429Y-134491500D01*
X98076827Y-134491500D01*
X98008706Y-134471498D01*
X97962213Y-134417842D01*
X97952109Y-134347568D01*
X97971877Y-134295775D01*
X98015643Y-134229902D01*
X98067116Y-134094401D01*
X98077555Y-134066920D01*
X98077556Y-134066918D01*
X98080055Y-134060338D01*
X98083319Y-134037115D01*
X98104748Y-133884639D01*
X98104748Y-133884636D01*
X98105299Y-133880717D01*
X98105616Y-133858000D01*
X98085397Y-133677745D01*
X98083080Y-133671091D01*
X98028064Y-133513106D01*
X98028062Y-133513103D01*
X98025745Y-133506448D01*
X97929626Y-133352624D01*
X97915941Y-133338843D01*
X97806778Y-133228915D01*
X97806774Y-133228912D01*
X97801815Y-133223918D01*
X97790697Y-133216862D01*
X97659409Y-133133545D01*
X97648666Y-133126727D01*
X97606069Y-133111559D01*
X97484425Y-133068243D01*
X97484420Y-133068242D01*
X97477790Y-133065881D01*
X97470802Y-133065048D01*
X97470799Y-133065047D01*
X97347698Y-133050368D01*
X97297680Y-133044404D01*
X97290677Y-133045140D01*
X97290676Y-133045140D01*
X97124288Y-133062628D01*
X97124286Y-133062629D01*
X97117288Y-133063364D01*
X96945579Y-133121818D01*
X96905448Y-133146507D01*
X96797095Y-133213166D01*
X96797092Y-133213168D01*
X96791088Y-133216862D01*
X96786053Y-133221793D01*
X96786050Y-133221795D01*
X96666759Y-133338614D01*
X96661493Y-133343771D01*
X96563235Y-133496238D01*
X96560826Y-133502858D01*
X96560824Y-133502861D01*
X96515744Y-133626717D01*
X96501197Y-133666685D01*
X96478463Y-133846640D01*
X96496163Y-134027160D01*
X96553418Y-134199273D01*
X96608325Y-134289935D01*
X96614559Y-134300229D01*
X96632738Y-134368858D01*
X96610928Y-134436422D01*
X96556052Y-134481468D01*
X96506783Y-134491500D01*
X82599703Y-134491500D01*
X82531582Y-134471498D01*
X82485089Y-134417842D01*
X82474985Y-134347568D01*
X82504479Y-134282988D01*
X82535181Y-134257274D01*
X82543912Y-134252069D01*
X82675266Y-134126982D01*
X82775643Y-133975902D01*
X82824746Y-133846640D01*
X82837555Y-133812920D01*
X82837556Y-133812918D01*
X82840055Y-133806338D01*
X82841035Y-133799366D01*
X82864748Y-133630639D01*
X82864748Y-133630636D01*
X82865299Y-133626717D01*
X82865616Y-133604000D01*
X82845397Y-133423745D01*
X82843080Y-133417091D01*
X82788064Y-133259106D01*
X82788062Y-133259103D01*
X82785745Y-133252448D01*
X82689626Y-133098624D01*
X82666114Y-133074947D01*
X82566778Y-132974915D01*
X82566774Y-132974912D01*
X82561815Y-132969918D01*
X82550697Y-132962862D01*
X82502538Y-132932300D01*
X82408666Y-132872727D01*
X82364449Y-132856982D01*
X82244425Y-132814243D01*
X82244420Y-132814242D01*
X82237790Y-132811881D01*
X82230802Y-132811048D01*
X82230799Y-132811047D01*
X82107698Y-132796368D01*
X82057680Y-132790404D01*
X82050677Y-132791140D01*
X82050676Y-132791140D01*
X81917504Y-132805137D01*
X81847665Y-132792365D01*
X81795818Y-132743863D01*
X81778424Y-132675030D01*
X81786545Y-132635083D01*
X81821555Y-132542920D01*
X81821556Y-132542918D01*
X81824055Y-132536338D01*
X81825035Y-132529366D01*
X81848748Y-132360639D01*
X81848748Y-132360636D01*
X81849299Y-132356717D01*
X81849616Y-132334000D01*
X81829397Y-132153745D01*
X81825843Y-132143540D01*
X81772064Y-131989106D01*
X81772062Y-131989103D01*
X81769745Y-131982448D01*
X81754791Y-131958517D01*
X81677359Y-131834598D01*
X81673626Y-131828624D01*
X81652276Y-131807124D01*
X81550778Y-131704915D01*
X81550774Y-131704912D01*
X81545815Y-131699918D01*
X81537688Y-131694760D01*
X81483521Y-131660385D01*
X81392666Y-131602727D01*
X81331961Y-131581111D01*
X81228425Y-131544243D01*
X81228420Y-131544242D01*
X81221790Y-131541881D01*
X81214802Y-131541048D01*
X81214799Y-131541047D01*
X81091698Y-131526368D01*
X81041680Y-131520404D01*
X81034677Y-131521140D01*
X81034676Y-131521140D01*
X80868288Y-131538628D01*
X80868286Y-131538629D01*
X80861288Y-131539364D01*
X80689579Y-131597818D01*
X80675457Y-131606506D01*
X80583522Y-131663065D01*
X80515021Y-131681724D01*
X80447307Y-131660385D01*
X80401879Y-131605826D01*
X80391500Y-131555748D01*
X80391500Y-131052640D01*
X85556463Y-131052640D01*
X85574163Y-131233160D01*
X85631418Y-131405273D01*
X85635065Y-131411295D01*
X85635066Y-131411297D01*
X85715581Y-131544243D01*
X85725380Y-131560424D01*
X85730269Y-131565487D01*
X85730270Y-131565488D01*
X85769881Y-131606506D01*
X85851382Y-131690902D01*
X85872796Y-131704915D01*
X85983200Y-131777161D01*
X86003159Y-131790222D01*
X86009763Y-131792678D01*
X86009765Y-131792679D01*
X86166558Y-131850990D01*
X86166560Y-131850990D01*
X86173168Y-131853448D01*
X86256995Y-131864633D01*
X86345980Y-131876507D01*
X86345984Y-131876507D01*
X86352961Y-131877438D01*
X86359972Y-131876800D01*
X86359976Y-131876800D01*
X86502459Y-131863832D01*
X86533600Y-131860998D01*
X86540302Y-131858820D01*
X86540304Y-131858820D01*
X86699409Y-131807124D01*
X86699412Y-131807123D01*
X86706108Y-131804947D01*
X86816913Y-131738894D01*
X86855860Y-131715677D01*
X86855862Y-131715676D01*
X86861912Y-131712069D01*
X86993266Y-131586982D01*
X87093643Y-131435902D01*
X87140041Y-131313760D01*
X87155555Y-131272920D01*
X87155556Y-131272918D01*
X87158055Y-131266338D01*
X87159035Y-131259366D01*
X87182748Y-131090639D01*
X87182748Y-131090636D01*
X87183299Y-131086717D01*
X87183616Y-131064000D01*
X87163397Y-130883745D01*
X87161080Y-130877091D01*
X87106064Y-130719106D01*
X87106062Y-130719103D01*
X87103745Y-130712448D01*
X87078246Y-130671640D01*
X93176463Y-130671640D01*
X93194163Y-130852160D01*
X93251418Y-131024273D01*
X93255065Y-131030295D01*
X93255066Y-131030297D01*
X93272845Y-131059653D01*
X93345380Y-131179424D01*
X93350269Y-131184487D01*
X93350270Y-131184488D01*
X93403727Y-131239844D01*
X93471382Y-131309902D01*
X93477278Y-131313760D01*
X93606912Y-131398590D01*
X93623159Y-131409222D01*
X93629763Y-131411678D01*
X93629765Y-131411679D01*
X93786558Y-131469990D01*
X93786560Y-131469990D01*
X93793168Y-131472448D01*
X93876995Y-131483633D01*
X93965980Y-131495507D01*
X93965984Y-131495507D01*
X93972961Y-131496438D01*
X93979972Y-131495800D01*
X93979976Y-131495800D01*
X94122459Y-131482832D01*
X94153600Y-131479998D01*
X94160302Y-131477820D01*
X94160304Y-131477820D01*
X94319409Y-131426124D01*
X94319412Y-131426123D01*
X94326108Y-131423947D01*
X94481912Y-131331069D01*
X94613266Y-131205982D01*
X94713643Y-131054902D01*
X94778055Y-130885338D01*
X94779833Y-130872685D01*
X94802748Y-130709639D01*
X94802748Y-130709636D01*
X94803299Y-130705717D01*
X94803616Y-130683000D01*
X94783397Y-130502745D01*
X94781080Y-130496091D01*
X94726064Y-130338106D01*
X94726062Y-130338103D01*
X94723745Y-130331448D01*
X94684491Y-130268628D01*
X94631359Y-130183598D01*
X94627626Y-130177624D01*
X94579969Y-130129633D01*
X94504778Y-130053915D01*
X94504774Y-130053912D01*
X94499815Y-130048918D01*
X94488697Y-130041862D01*
X94440538Y-130011300D01*
X94346666Y-129951727D01*
X94317463Y-129941328D01*
X94182425Y-129893243D01*
X94182420Y-129893242D01*
X94175790Y-129890881D01*
X94168802Y-129890048D01*
X94168799Y-129890047D01*
X94045698Y-129875368D01*
X93995680Y-129869404D01*
X93988677Y-129870140D01*
X93988676Y-129870140D01*
X93822288Y-129887628D01*
X93822286Y-129887629D01*
X93815288Y-129888364D01*
X93643579Y-129946818D01*
X93637575Y-129950512D01*
X93495095Y-130038166D01*
X93495092Y-130038168D01*
X93489088Y-130041862D01*
X93484053Y-130046793D01*
X93484050Y-130046795D01*
X93364953Y-130163424D01*
X93359493Y-130168771D01*
X93261235Y-130321238D01*
X93258826Y-130327858D01*
X93258824Y-130327861D01*
X93201606Y-130485066D01*
X93199197Y-130491685D01*
X93176463Y-130671640D01*
X87078246Y-130671640D01*
X87007626Y-130558624D01*
X86945528Y-130496091D01*
X86884778Y-130434915D01*
X86884774Y-130434912D01*
X86879815Y-130429918D01*
X86868697Y-130422862D01*
X86754098Y-130350136D01*
X86726666Y-130332727D01*
X86677759Y-130315312D01*
X86562425Y-130274243D01*
X86562420Y-130274242D01*
X86555790Y-130271881D01*
X86548802Y-130271048D01*
X86548799Y-130271047D01*
X86425698Y-130256368D01*
X86375680Y-130250404D01*
X86368677Y-130251140D01*
X86368676Y-130251140D01*
X86202288Y-130268628D01*
X86202286Y-130268629D01*
X86195288Y-130269364D01*
X86023579Y-130327818D01*
X86000722Y-130341880D01*
X85875095Y-130419166D01*
X85875092Y-130419168D01*
X85869088Y-130422862D01*
X85864053Y-130427793D01*
X85864050Y-130427795D01*
X85810293Y-130480438D01*
X85739493Y-130549771D01*
X85641235Y-130702238D01*
X85638826Y-130708858D01*
X85638824Y-130708861D01*
X85584235Y-130858844D01*
X85579197Y-130872685D01*
X85556463Y-131052640D01*
X80391500Y-131052640D01*
X80391500Y-130195499D01*
X80411502Y-130127378D01*
X80465158Y-130080885D01*
X80535432Y-130070781D01*
X80600012Y-130100275D01*
X80625276Y-130130228D01*
X80638061Y-130151338D01*
X80645380Y-130163424D01*
X80650269Y-130168487D01*
X80650270Y-130168488D01*
X80727121Y-130248068D01*
X80771382Y-130293902D01*
X80923159Y-130393222D01*
X80929763Y-130395678D01*
X80929765Y-130395679D01*
X81086558Y-130453990D01*
X81086560Y-130453990D01*
X81093168Y-130456448D01*
X81176995Y-130467633D01*
X81265980Y-130479507D01*
X81265984Y-130479507D01*
X81272961Y-130480438D01*
X81279972Y-130479800D01*
X81279976Y-130479800D01*
X81422459Y-130466832D01*
X81453600Y-130463998D01*
X81460302Y-130461820D01*
X81460304Y-130461820D01*
X81619409Y-130410124D01*
X81619412Y-130410123D01*
X81626108Y-130407947D01*
X81750675Y-130333690D01*
X81775860Y-130318677D01*
X81775862Y-130318676D01*
X81781912Y-130315069D01*
X81913266Y-130189982D01*
X82013643Y-130038902D01*
X82066436Y-129899925D01*
X82075555Y-129875920D01*
X82075556Y-129875918D01*
X82078055Y-129869338D01*
X82081683Y-129843526D01*
X82102748Y-129693639D01*
X82102748Y-129693636D01*
X82103299Y-129689717D01*
X82103616Y-129667000D01*
X82102342Y-129655640D01*
X108162463Y-129655640D01*
X108180163Y-129836160D01*
X108237418Y-130008273D01*
X108241065Y-130014295D01*
X108241066Y-130014297D01*
X108324061Y-130151338D01*
X108331380Y-130163424D01*
X108336269Y-130168487D01*
X108336270Y-130168488D01*
X108413121Y-130248068D01*
X108457382Y-130293902D01*
X108609159Y-130393222D01*
X108615763Y-130395678D01*
X108615765Y-130395679D01*
X108772558Y-130453990D01*
X108772560Y-130453990D01*
X108779168Y-130456448D01*
X108862995Y-130467633D01*
X108951980Y-130479507D01*
X108951984Y-130479507D01*
X108958961Y-130480438D01*
X108965972Y-130479800D01*
X108965976Y-130479800D01*
X109108459Y-130466832D01*
X109139600Y-130463998D01*
X109146302Y-130461820D01*
X109146304Y-130461820D01*
X109305409Y-130410124D01*
X109305412Y-130410123D01*
X109312108Y-130407947D01*
X109436675Y-130333690D01*
X109461860Y-130318677D01*
X109461862Y-130318676D01*
X109467912Y-130315069D01*
X109599266Y-130189982D01*
X109699643Y-130038902D01*
X109752436Y-129899925D01*
X109761555Y-129875920D01*
X109761556Y-129875918D01*
X109764055Y-129869338D01*
X109767683Y-129843526D01*
X109788748Y-129693639D01*
X109788748Y-129693636D01*
X109789299Y-129689717D01*
X109789616Y-129667000D01*
X109769397Y-129486745D01*
X109767080Y-129480091D01*
X109712064Y-129322106D01*
X109712062Y-129322103D01*
X109709745Y-129315448D01*
X109613626Y-129161624D01*
X109599941Y-129147843D01*
X109490778Y-129037915D01*
X109490774Y-129037912D01*
X109485815Y-129032918D01*
X109474697Y-129025862D01*
X109421912Y-128992364D01*
X109332666Y-128935727D01*
X109293209Y-128921677D01*
X109168425Y-128877243D01*
X109168420Y-128877242D01*
X109161790Y-128874881D01*
X109154802Y-128874048D01*
X109154799Y-128874047D01*
X109027611Y-128858881D01*
X108981680Y-128853404D01*
X108974677Y-128854140D01*
X108974676Y-128854140D01*
X108808288Y-128871628D01*
X108808286Y-128871629D01*
X108801288Y-128872364D01*
X108629579Y-128930818D01*
X108567109Y-128969250D01*
X108481095Y-129022166D01*
X108481092Y-129022168D01*
X108475088Y-129025862D01*
X108470053Y-129030793D01*
X108470050Y-129030795D01*
X108355150Y-129143314D01*
X108345493Y-129152771D01*
X108247235Y-129305238D01*
X108244826Y-129311858D01*
X108244824Y-129311861D01*
X108187606Y-129469066D01*
X108185197Y-129475685D01*
X108162463Y-129655640D01*
X82102342Y-129655640D01*
X82083397Y-129486745D01*
X82081080Y-129480091D01*
X82026064Y-129322106D01*
X82026062Y-129322103D01*
X82023745Y-129315448D01*
X81927626Y-129161624D01*
X81913941Y-129147843D01*
X81804778Y-129037915D01*
X81804774Y-129037912D01*
X81799815Y-129032918D01*
X81788697Y-129025862D01*
X81735912Y-128992364D01*
X81646666Y-128935727D01*
X81607209Y-128921677D01*
X81482425Y-128877243D01*
X81482420Y-128877242D01*
X81475790Y-128874881D01*
X81468802Y-128874048D01*
X81468799Y-128874047D01*
X81341611Y-128858881D01*
X81295680Y-128853404D01*
X81288677Y-128854140D01*
X81288676Y-128854140D01*
X81122288Y-128871628D01*
X81122286Y-128871629D01*
X81115288Y-128872364D01*
X80943579Y-128930818D01*
X80881109Y-128969250D01*
X80795095Y-129022166D01*
X80795092Y-129022168D01*
X80789088Y-129025862D01*
X80784053Y-129030793D01*
X80784050Y-129030795D01*
X80669150Y-129143314D01*
X80659493Y-129152771D01*
X80655677Y-129158693D01*
X80623411Y-129208759D01*
X80569696Y-129255184D01*
X80499410Y-129265199D01*
X80434867Y-129235623D01*
X80396559Y-129175849D01*
X80391500Y-129140504D01*
X80391500Y-121294713D01*
X80411502Y-121226592D01*
X80465158Y-121180099D01*
X80535432Y-121169995D01*
X80561416Y-121176615D01*
X80585168Y-121185448D01*
X80667495Y-121196433D01*
X80757980Y-121208507D01*
X80757984Y-121208507D01*
X80764961Y-121209438D01*
X80771972Y-121208800D01*
X80771976Y-121208800D01*
X80914459Y-121195832D01*
X80945600Y-121192998D01*
X80952302Y-121190820D01*
X80952304Y-121190820D01*
X81111409Y-121139124D01*
X81111412Y-121139123D01*
X81118108Y-121136947D01*
X81237126Y-121065998D01*
X81267860Y-121047677D01*
X81267862Y-121047676D01*
X81273912Y-121044069D01*
X81405266Y-120918982D01*
X81494186Y-120785146D01*
X81548543Y-120739476D01*
X81618963Y-120730443D01*
X81688229Y-120765778D01*
X84995647Y-124073196D01*
X85029673Y-124135508D01*
X85024608Y-124206323D01*
X84982061Y-124263159D01*
X84919723Y-124287601D01*
X84850321Y-124294895D01*
X84805289Y-124299628D01*
X84805288Y-124299628D01*
X84798288Y-124300364D01*
X84626579Y-124358818D01*
X84620575Y-124362512D01*
X84478095Y-124450166D01*
X84478092Y-124450168D01*
X84472088Y-124453862D01*
X84467053Y-124458793D01*
X84467050Y-124458795D01*
X84347953Y-124575424D01*
X84342493Y-124580771D01*
X84244235Y-124733238D01*
X84241826Y-124739858D01*
X84241824Y-124739861D01*
X84185727Y-124893987D01*
X84182197Y-124903685D01*
X84161240Y-125069578D01*
X84160718Y-125073707D01*
X84132336Y-125138784D01*
X84073277Y-125178185D01*
X84002290Y-125179402D01*
X83941915Y-125142047D01*
X83929744Y-125123824D01*
X83928745Y-125124448D01*
X83836359Y-124976598D01*
X83832626Y-124970624D01*
X83773094Y-124910675D01*
X83709778Y-124846915D01*
X83709774Y-124846912D01*
X83704815Y-124841918D01*
X83697164Y-124837062D01*
X83640912Y-124801364D01*
X83551666Y-124744727D01*
X83502759Y-124727312D01*
X83387425Y-124686243D01*
X83387420Y-124686242D01*
X83380790Y-124683881D01*
X83373802Y-124683048D01*
X83373799Y-124683047D01*
X83245462Y-124667744D01*
X83200680Y-124662404D01*
X83193677Y-124663140D01*
X83193676Y-124663140D01*
X83027288Y-124680628D01*
X83027286Y-124680629D01*
X83020288Y-124681364D01*
X82848579Y-124739818D01*
X82842575Y-124743512D01*
X82700095Y-124831166D01*
X82700092Y-124831168D01*
X82694088Y-124834862D01*
X82689053Y-124839793D01*
X82689050Y-124839795D01*
X82630567Y-124897066D01*
X82564493Y-124961771D01*
X82466235Y-125114238D01*
X82463826Y-125120858D01*
X82463824Y-125120861D01*
X82426678Y-125222918D01*
X82404197Y-125284685D01*
X82381463Y-125464640D01*
X82399163Y-125645160D01*
X82456418Y-125817273D01*
X82460065Y-125823295D01*
X82460066Y-125823297D01*
X82537626Y-125951364D01*
X82550380Y-125972424D01*
X82555269Y-125977487D01*
X82555270Y-125977488D01*
X82626348Y-126051091D01*
X82676382Y-126102902D01*
X82724741Y-126134547D01*
X82811912Y-126191590D01*
X82828159Y-126202222D01*
X82834763Y-126204678D01*
X82834765Y-126204679D01*
X82991558Y-126262990D01*
X82991560Y-126262990D01*
X82998168Y-126265448D01*
X83081995Y-126276633D01*
X83170980Y-126288507D01*
X83170984Y-126288507D01*
X83177961Y-126289438D01*
X83184972Y-126288800D01*
X83184976Y-126288800D01*
X83273370Y-126280755D01*
X83358058Y-126273047D01*
X83427710Y-126286792D01*
X83477253Y-126333257D01*
X83546301Y-126447269D01*
X83566380Y-126480424D01*
X83571269Y-126485487D01*
X83571270Y-126485488D01*
X83600833Y-126516101D01*
X83692382Y-126610902D01*
X83730242Y-126635677D01*
X83819886Y-126694338D01*
X83844159Y-126710222D01*
X83850763Y-126712678D01*
X83850765Y-126712679D01*
X84007558Y-126770990D01*
X84007560Y-126770990D01*
X84014168Y-126773448D01*
X84097995Y-126784633D01*
X84186980Y-126796507D01*
X84186984Y-126796507D01*
X84193961Y-126797438D01*
X84200972Y-126796800D01*
X84200976Y-126796800D01*
X84343459Y-126783832D01*
X84374600Y-126780998D01*
X84381302Y-126778820D01*
X84381304Y-126778820D01*
X84540409Y-126727124D01*
X84540412Y-126727123D01*
X84547108Y-126724947D01*
X84643513Y-126667478D01*
X84696860Y-126635677D01*
X84696862Y-126635676D01*
X84702912Y-126632069D01*
X84834266Y-126506982D01*
X84934643Y-126355902D01*
X84983746Y-126226640D01*
X85683463Y-126226640D01*
X85701163Y-126407160D01*
X85758418Y-126579273D01*
X85762065Y-126585295D01*
X85762066Y-126585297D01*
X85846641Y-126724947D01*
X85852380Y-126734424D01*
X85857269Y-126739487D01*
X85857270Y-126739488D01*
X85909570Y-126793646D01*
X85978382Y-126864902D01*
X86035856Y-126902512D01*
X86113912Y-126953590D01*
X86130159Y-126964222D01*
X86136763Y-126966678D01*
X86136765Y-126966679D01*
X86293558Y-127024990D01*
X86293560Y-127024990D01*
X86300168Y-127027448D01*
X86383995Y-127038633D01*
X86472980Y-127050507D01*
X86472984Y-127050507D01*
X86479961Y-127051438D01*
X86486972Y-127050800D01*
X86486976Y-127050800D01*
X86587405Y-127041660D01*
X86657059Y-127055405D01*
X86708223Y-127104627D01*
X86724654Y-127173696D01*
X86722408Y-127189104D01*
X86722197Y-127189685D01*
X86699463Y-127369640D01*
X86717163Y-127550160D01*
X86774418Y-127722273D01*
X86778065Y-127728295D01*
X86778066Y-127728297D01*
X86788978Y-127746314D01*
X86868380Y-127877424D01*
X86994382Y-128007902D01*
X87000278Y-128011760D01*
X87113232Y-128085675D01*
X87146159Y-128107222D01*
X87152763Y-128109678D01*
X87152765Y-128109679D01*
X87309558Y-128167990D01*
X87309560Y-128167990D01*
X87316168Y-128170448D01*
X87399995Y-128181633D01*
X87488980Y-128193507D01*
X87488984Y-128193507D01*
X87495961Y-128194438D01*
X87502972Y-128193800D01*
X87502976Y-128193800D01*
X87645459Y-128180832D01*
X87676600Y-128177998D01*
X87683302Y-128175820D01*
X87683304Y-128175820D01*
X87842409Y-128124124D01*
X87842412Y-128124123D01*
X87849108Y-128121947D01*
X87968951Y-128050506D01*
X87998860Y-128032677D01*
X87998862Y-128032676D01*
X88004912Y-128029069D01*
X88136266Y-127903982D01*
X88236643Y-127752902D01*
X88296487Y-127595364D01*
X88298555Y-127589920D01*
X88298556Y-127589918D01*
X88301055Y-127583338D01*
X88304461Y-127559105D01*
X88325748Y-127407639D01*
X88325748Y-127407636D01*
X88326299Y-127403717D01*
X88326616Y-127381000D01*
X88306397Y-127200745D01*
X88304080Y-127194091D01*
X88249064Y-127036106D01*
X88249062Y-127036103D01*
X88246745Y-127029448D01*
X88239903Y-127018498D01*
X88154359Y-126881598D01*
X88150626Y-126875624D01*
X88143810Y-126868760D01*
X88027778Y-126751915D01*
X88027774Y-126751912D01*
X88022815Y-126746918D01*
X88011108Y-126739488D01*
X87958912Y-126706364D01*
X87869666Y-126649727D01*
X87825137Y-126633871D01*
X87705425Y-126591243D01*
X87705420Y-126591242D01*
X87698790Y-126588881D01*
X87691802Y-126588048D01*
X87691799Y-126588047D01*
X87562171Y-126572590D01*
X87518680Y-126567404D01*
X87511677Y-126568140D01*
X87511676Y-126568140D01*
X87486274Y-126570810D01*
X87423815Y-126577375D01*
X87353978Y-126564603D01*
X87302131Y-126516101D01*
X87284736Y-126447269D01*
X87285871Y-126434529D01*
X87292855Y-126384841D01*
X87306393Y-126288507D01*
X87309748Y-126264639D01*
X87309748Y-126264636D01*
X87310299Y-126260717D01*
X87310522Y-126244723D01*
X87310561Y-126241962D01*
X87310561Y-126241957D01*
X87310616Y-126238000D01*
X87290397Y-126057745D01*
X87288080Y-126051091D01*
X87233064Y-125893106D01*
X87233062Y-125893103D01*
X87230745Y-125886448D01*
X87180625Y-125806238D01*
X87138359Y-125738598D01*
X87134626Y-125732624D01*
X87117200Y-125715076D01*
X87011778Y-125608915D01*
X87011774Y-125608912D01*
X87006815Y-125603918D01*
X86995697Y-125596862D01*
X86923962Y-125551338D01*
X86853666Y-125506727D01*
X86804759Y-125489312D01*
X86689425Y-125448243D01*
X86689420Y-125448242D01*
X86682790Y-125445881D01*
X86675802Y-125445048D01*
X86675799Y-125445047D01*
X86552698Y-125430368D01*
X86502680Y-125424404D01*
X86495677Y-125425140D01*
X86495676Y-125425140D01*
X86329288Y-125442628D01*
X86329286Y-125442629D01*
X86322288Y-125443364D01*
X86150579Y-125501818D01*
X86088109Y-125540250D01*
X86002095Y-125593166D01*
X86002092Y-125593168D01*
X85996088Y-125596862D01*
X85991053Y-125601793D01*
X85991050Y-125601795D01*
X85875372Y-125715076D01*
X85866493Y-125723771D01*
X85768235Y-125876238D01*
X85765826Y-125882858D01*
X85765824Y-125882861D01*
X85711235Y-126032844D01*
X85706197Y-126046685D01*
X85683463Y-126226640D01*
X84983746Y-126226640D01*
X84994487Y-126198364D01*
X84996555Y-126192920D01*
X84996556Y-126192918D01*
X84999055Y-126186338D01*
X85005325Y-126141727D01*
X85023749Y-126010634D01*
X85023750Y-126010626D01*
X85024299Y-126006717D01*
X85024300Y-126006676D01*
X85049155Y-125941106D01*
X85106216Y-125898862D01*
X85124283Y-125893725D01*
X85129587Y-125892636D01*
X85136600Y-125891998D01*
X85158489Y-125884886D01*
X85302409Y-125838124D01*
X85302412Y-125838123D01*
X85309108Y-125835947D01*
X85428951Y-125764506D01*
X85458860Y-125746677D01*
X85458862Y-125746676D01*
X85464912Y-125743069D01*
X85596266Y-125617982D01*
X85696643Y-125466902D01*
X85742926Y-125345062D01*
X85758555Y-125303920D01*
X85758556Y-125303918D01*
X85761055Y-125297338D01*
X85763030Y-125283284D01*
X85785748Y-125121639D01*
X85785748Y-125121636D01*
X85786299Y-125117717D01*
X85786354Y-125113758D01*
X85786658Y-125109809D01*
X85788280Y-125109934D01*
X85807269Y-125048449D01*
X85861567Y-125002708D01*
X85931975Y-124993585D01*
X85960525Y-125001631D01*
X86076520Y-125049678D01*
X86076523Y-125049679D01*
X86084150Y-125052838D01*
X86203115Y-125068500D01*
X86203120Y-125068500D01*
X86203129Y-125068501D01*
X86234812Y-125072672D01*
X86243000Y-125073750D01*
X86274693Y-125069578D01*
X86291136Y-125068500D01*
X89393816Y-125068500D01*
X89461937Y-125088502D01*
X89508430Y-125142158D01*
X89518534Y-125212432D01*
X89489040Y-125277012D01*
X89481988Y-125284509D01*
X89422493Y-125342771D01*
X89324235Y-125495238D01*
X89321826Y-125501858D01*
X89321824Y-125501861D01*
X89264606Y-125659066D01*
X89262197Y-125665685D01*
X89239463Y-125845640D01*
X89257163Y-126026160D01*
X89314418Y-126198273D01*
X89318065Y-126204295D01*
X89318066Y-126204297D01*
X89399843Y-126339327D01*
X89408380Y-126353424D01*
X89413269Y-126358487D01*
X89413270Y-126358488D01*
X89486703Y-126434529D01*
X89534382Y-126483902D01*
X89546757Y-126492000D01*
X89669912Y-126572590D01*
X89686159Y-126583222D01*
X89708098Y-126591381D01*
X89764971Y-126633871D01*
X89789846Y-126700367D01*
X89774822Y-126769756D01*
X89724668Y-126820006D01*
X89677347Y-126834787D01*
X89631288Y-126839628D01*
X89631286Y-126839629D01*
X89624288Y-126840364D01*
X89452579Y-126898818D01*
X89446575Y-126902512D01*
X89304095Y-126990166D01*
X89304092Y-126990168D01*
X89298088Y-126993862D01*
X89293053Y-126998793D01*
X89293050Y-126998795D01*
X89173953Y-127115424D01*
X89168493Y-127120771D01*
X89070235Y-127273238D01*
X89067826Y-127279858D01*
X89067824Y-127279861D01*
X89012090Y-127432989D01*
X89008197Y-127443685D01*
X88985463Y-127623640D01*
X89003163Y-127804160D01*
X89060418Y-127976273D01*
X89064065Y-127982295D01*
X89064066Y-127982297D01*
X89148641Y-128121947D01*
X89154380Y-128131424D01*
X89159269Y-128136487D01*
X89159270Y-128136488D01*
X89212965Y-128192090D01*
X89280382Y-128261902D01*
X89432159Y-128361222D01*
X89438763Y-128363678D01*
X89438765Y-128363679D01*
X89595558Y-128421990D01*
X89595560Y-128421990D01*
X89602168Y-128424448D01*
X89685995Y-128435633D01*
X89774980Y-128447507D01*
X89774984Y-128447507D01*
X89781961Y-128448438D01*
X89788972Y-128447800D01*
X89788976Y-128447800D01*
X89931459Y-128434832D01*
X89962600Y-128431998D01*
X89969302Y-128429820D01*
X89969304Y-128429820D01*
X90128409Y-128378124D01*
X90128412Y-128378123D01*
X90135108Y-128375947D01*
X90214575Y-128328575D01*
X90283327Y-128310876D01*
X90350737Y-128333158D01*
X90395399Y-128388346D01*
X90400088Y-128403391D01*
X90400163Y-128404160D01*
X90457418Y-128576273D01*
X90461065Y-128582295D01*
X90461066Y-128582297D01*
X90478615Y-128611273D01*
X90551380Y-128731424D01*
X90556269Y-128736487D01*
X90556270Y-128736488D01*
X90592555Y-128774062D01*
X90677382Y-128861902D01*
X90683278Y-128865760D01*
X90796961Y-128940152D01*
X90829159Y-128961222D01*
X90835763Y-128963678D01*
X90835765Y-128963679D01*
X90992558Y-129021990D01*
X90992560Y-129021990D01*
X90999168Y-129024448D01*
X91082995Y-129035633D01*
X91171980Y-129047507D01*
X91171984Y-129047507D01*
X91178961Y-129048438D01*
X91185972Y-129047800D01*
X91185976Y-129047800D01*
X91349491Y-129032918D01*
X91359600Y-129031998D01*
X91366302Y-129029820D01*
X91366304Y-129029820D01*
X91525409Y-128978124D01*
X91525412Y-128978123D01*
X91532108Y-128975947D01*
X91687912Y-128883069D01*
X91819266Y-128757982D01*
X91919643Y-128606902D01*
X91970760Y-128472338D01*
X91981555Y-128443920D01*
X91981556Y-128443918D01*
X91984055Y-128437338D01*
X91985112Y-128429820D01*
X92008748Y-128261639D01*
X92008748Y-128261636D01*
X92009169Y-128258640D01*
X101812463Y-128258640D01*
X101830163Y-128439160D01*
X101887418Y-128611273D01*
X101891065Y-128617295D01*
X101891066Y-128617297D01*
X101972712Y-128752111D01*
X101981380Y-128766424D01*
X101986269Y-128771487D01*
X101986270Y-128771488D01*
X102018284Y-128804639D01*
X102107382Y-128896902D01*
X102113278Y-128900760D01*
X102234886Y-128980338D01*
X102259159Y-128996222D01*
X102265763Y-128998678D01*
X102265765Y-128998679D01*
X102422558Y-129056990D01*
X102422560Y-129056990D01*
X102429168Y-129059448D01*
X102512995Y-129070633D01*
X102601980Y-129082507D01*
X102601984Y-129082507D01*
X102608961Y-129083438D01*
X102615972Y-129082800D01*
X102615976Y-129082800D01*
X102758459Y-129069832D01*
X102789600Y-129066998D01*
X102796302Y-129064820D01*
X102796304Y-129064820D01*
X102955409Y-129013124D01*
X102955412Y-129013123D01*
X102962108Y-129010947D01*
X103058513Y-128953478D01*
X103111860Y-128921677D01*
X103111862Y-128921676D01*
X103117912Y-128918069D01*
X103249266Y-128792982D01*
X103251548Y-128789547D01*
X103309690Y-128750861D01*
X103380678Y-128749731D01*
X103441007Y-128787160D01*
X103471524Y-128851263D01*
X103472507Y-128858881D01*
X103474879Y-128883069D01*
X103481163Y-128947160D01*
X103538418Y-129119273D01*
X103542065Y-129125295D01*
X103542066Y-129125297D01*
X103552978Y-129143314D01*
X103632380Y-129274424D01*
X103758382Y-129404902D01*
X103764278Y-129408760D01*
X103877232Y-129482675D01*
X103910159Y-129504222D01*
X103916763Y-129506678D01*
X103916765Y-129506679D01*
X104073558Y-129564990D01*
X104073560Y-129564990D01*
X104080168Y-129567448D01*
X104163995Y-129578633D01*
X104252980Y-129590507D01*
X104252984Y-129590507D01*
X104259961Y-129591438D01*
X104266972Y-129590800D01*
X104266976Y-129590800D01*
X104409459Y-129577832D01*
X104440600Y-129574998D01*
X104447302Y-129572820D01*
X104447304Y-129572820D01*
X104606409Y-129521124D01*
X104606412Y-129521123D01*
X104613108Y-129518947D01*
X104768912Y-129426069D01*
X104900266Y-129300982D01*
X105000643Y-129149902D01*
X105065055Y-128980338D01*
X105068284Y-128957364D01*
X105089748Y-128804639D01*
X105089748Y-128804636D01*
X105090299Y-128800717D01*
X105090616Y-128778000D01*
X105070397Y-128597745D01*
X105068080Y-128591091D01*
X105013064Y-128433106D01*
X105013062Y-128433103D01*
X105010745Y-128426448D01*
X104996818Y-128404160D01*
X104918359Y-128278598D01*
X104914626Y-128272624D01*
X104907810Y-128265760D01*
X104791778Y-128148915D01*
X104791774Y-128148912D01*
X104786815Y-128143918D01*
X104775697Y-128136862D01*
X104695038Y-128085675D01*
X104633666Y-128046727D01*
X104594209Y-128032677D01*
X104469425Y-127988243D01*
X104469420Y-127988242D01*
X104462790Y-127985881D01*
X104455802Y-127985048D01*
X104455799Y-127985047D01*
X104326171Y-127969590D01*
X104282680Y-127964404D01*
X104275677Y-127965140D01*
X104275676Y-127965140D01*
X104109288Y-127982628D01*
X104109286Y-127982629D01*
X104102288Y-127983364D01*
X103930579Y-128041818D01*
X103916457Y-128050506D01*
X103782095Y-128133166D01*
X103782092Y-128133168D01*
X103776088Y-128136862D01*
X103771053Y-128141793D01*
X103771050Y-128141795D01*
X103646493Y-128263771D01*
X103644978Y-128262224D01*
X103595012Y-128296474D01*
X103524046Y-128298582D01*
X103463207Y-128261989D01*
X103431809Y-128198312D01*
X103430724Y-128190730D01*
X103428174Y-128167990D01*
X103419397Y-128089745D01*
X103417080Y-128083091D01*
X103362064Y-127925106D01*
X103362062Y-127925103D01*
X103359745Y-127918448D01*
X103263626Y-127764624D01*
X103249941Y-127750843D01*
X103140778Y-127640915D01*
X103140774Y-127640912D01*
X103135815Y-127635918D01*
X103124697Y-127628862D01*
X103069545Y-127593862D01*
X102982666Y-127538727D01*
X102943209Y-127524677D01*
X102818425Y-127480243D01*
X102818420Y-127480242D01*
X102811790Y-127477881D01*
X102804802Y-127477048D01*
X102804799Y-127477047D01*
X102670634Y-127461049D01*
X102631680Y-127456404D01*
X102624677Y-127457140D01*
X102624676Y-127457140D01*
X102458288Y-127474628D01*
X102458286Y-127474629D01*
X102451288Y-127475364D01*
X102279579Y-127533818D01*
X102265457Y-127542506D01*
X102131095Y-127625166D01*
X102131092Y-127625168D01*
X102125088Y-127628862D01*
X102120053Y-127633793D01*
X102120050Y-127633795D01*
X102066293Y-127686438D01*
X101995493Y-127755771D01*
X101897235Y-127908238D01*
X101894826Y-127914858D01*
X101894824Y-127914861D01*
X101847271Y-128045512D01*
X101835197Y-128078685D01*
X101812463Y-128258640D01*
X92009169Y-128258640D01*
X92009299Y-128257717D01*
X92009616Y-128235000D01*
X91989397Y-128054745D01*
X91985781Y-128044362D01*
X91932064Y-127890106D01*
X91932062Y-127890103D01*
X91929745Y-127883448D01*
X91833626Y-127729624D01*
X91819690Y-127715590D01*
X91710778Y-127605915D01*
X91710774Y-127605912D01*
X91705815Y-127600918D01*
X91697064Y-127595364D01*
X91606303Y-127537766D01*
X91552666Y-127503727D01*
X91495039Y-127483207D01*
X91388425Y-127445243D01*
X91388420Y-127445242D01*
X91381790Y-127442881D01*
X91374802Y-127442048D01*
X91374799Y-127442047D01*
X91251698Y-127427368D01*
X91201680Y-127421404D01*
X91194677Y-127422140D01*
X91194676Y-127422140D01*
X91028288Y-127439628D01*
X91028286Y-127439629D01*
X91021288Y-127440364D01*
X90849579Y-127498818D01*
X90843575Y-127502512D01*
X90781914Y-127540446D01*
X90713413Y-127559105D01*
X90645699Y-127537766D01*
X90600271Y-127483207D01*
X90593146Y-127461422D01*
X90592397Y-127454745D01*
X90589088Y-127445243D01*
X90535064Y-127290106D01*
X90535062Y-127290103D01*
X90532745Y-127283448D01*
X90443153Y-127140069D01*
X90440359Y-127135598D01*
X90436626Y-127129624D01*
X90429810Y-127122760D01*
X90313778Y-127005915D01*
X90313774Y-127005912D01*
X90308815Y-127000918D01*
X90297697Y-126993862D01*
X90244912Y-126960364D01*
X90155666Y-126903727D01*
X90149022Y-126901361D01*
X90142697Y-126898276D01*
X90143286Y-126897068D01*
X90091912Y-126859790D01*
X90066115Y-126793646D01*
X90080173Y-126724055D01*
X90129623Y-126673112D01*
X90180221Y-126657309D01*
X90216600Y-126653998D01*
X90223302Y-126651820D01*
X90223304Y-126651820D01*
X90382409Y-126600124D01*
X90382412Y-126600123D01*
X90389108Y-126597947D01*
X90522148Y-126518639D01*
X90538860Y-126508677D01*
X90538862Y-126508676D01*
X90544912Y-126505069D01*
X90676266Y-126379982D01*
X90776643Y-126228902D01*
X90823041Y-126106760D01*
X90838555Y-126065920D01*
X90838556Y-126065918D01*
X90841055Y-126059338D01*
X90842833Y-126046685D01*
X90865748Y-125883639D01*
X90865748Y-125883636D01*
X90866299Y-125879717D01*
X90866452Y-125868738D01*
X90866561Y-125860962D01*
X90866561Y-125860957D01*
X90866616Y-125857000D01*
X90846397Y-125676745D01*
X90844080Y-125670091D01*
X90789064Y-125512106D01*
X90789062Y-125512103D01*
X90786745Y-125505448D01*
X90736625Y-125425238D01*
X90694359Y-125357598D01*
X90690626Y-125351624D01*
X90622761Y-125283284D01*
X90588954Y-125220854D01*
X90594266Y-125150056D01*
X90637010Y-125093369D01*
X90703617Y-125068790D01*
X90712167Y-125068500D01*
X93431761Y-125068500D01*
X93499882Y-125088502D01*
X93520856Y-125105405D01*
X95303680Y-126888229D01*
X95314545Y-126900617D01*
X95334013Y-126925987D01*
X95340559Y-126931010D01*
X95340562Y-126931013D01*
X95365927Y-126950476D01*
X95365929Y-126950477D01*
X95454572Y-127018496D01*
X95461124Y-127023524D01*
X95468750Y-127026683D01*
X95468752Y-127026684D01*
X95504908Y-127041660D01*
X95609149Y-127084838D01*
X95617334Y-127085916D01*
X95617336Y-127085916D01*
X95627646Y-127087273D01*
X95728115Y-127100500D01*
X95728116Y-127100500D01*
X95728126Y-127100501D01*
X95759811Y-127104672D01*
X95768000Y-127105750D01*
X95799693Y-127101578D01*
X95816136Y-127100500D01*
X96199699Y-127100500D01*
X96268692Y-127121068D01*
X96400912Y-127207590D01*
X96417159Y-127218222D01*
X96423763Y-127220678D01*
X96423765Y-127220679D01*
X96580558Y-127278990D01*
X96580560Y-127278990D01*
X96587168Y-127281448D01*
X96670995Y-127292633D01*
X96759980Y-127304507D01*
X96759984Y-127304507D01*
X96766961Y-127305438D01*
X96773972Y-127304800D01*
X96773976Y-127304800D01*
X96916459Y-127291832D01*
X96947600Y-127288998D01*
X96954302Y-127286820D01*
X96954304Y-127286820D01*
X97113409Y-127235124D01*
X97113412Y-127235123D01*
X97120108Y-127232947D01*
X97275912Y-127140069D01*
X97281013Y-127135212D01*
X97286626Y-127130951D01*
X97287385Y-127131952D01*
X97344090Y-127102762D01*
X97367860Y-127100500D01*
X100883600Y-127100500D01*
X100900043Y-127101578D01*
X100931736Y-127105750D01*
X100939925Y-127104672D01*
X100971610Y-127100501D01*
X100971620Y-127100500D01*
X100971621Y-127100500D01*
X101072090Y-127087273D01*
X101082400Y-127085916D01*
X101082402Y-127085916D01*
X101090587Y-127084838D01*
X101238612Y-127023524D01*
X101257396Y-127009111D01*
X101333808Y-126950477D01*
X101333811Y-126950474D01*
X101359170Y-126931015D01*
X101365723Y-126925987D01*
X101370753Y-126919432D01*
X101385188Y-126900621D01*
X101396055Y-126888230D01*
X101676645Y-126607640D01*
X102828463Y-126607640D01*
X102846163Y-126788160D01*
X102903418Y-126960273D01*
X102907065Y-126966295D01*
X102907066Y-126966297D01*
X102989712Y-127102762D01*
X102997380Y-127115424D01*
X103002269Y-127120487D01*
X103002270Y-127120488D01*
X103073348Y-127194091D01*
X103123382Y-127245902D01*
X103173946Y-127278990D01*
X103234087Y-127318345D01*
X103275159Y-127345222D01*
X103281763Y-127347678D01*
X103281765Y-127347679D01*
X103438558Y-127405990D01*
X103438560Y-127405990D01*
X103445168Y-127408448D01*
X103528995Y-127419633D01*
X103617980Y-127431507D01*
X103617984Y-127431507D01*
X103624961Y-127432438D01*
X103631972Y-127431800D01*
X103631976Y-127431800D01*
X103774459Y-127418832D01*
X103805600Y-127415998D01*
X103812302Y-127413820D01*
X103812304Y-127413820D01*
X103971409Y-127362124D01*
X103971412Y-127362123D01*
X103978108Y-127359947D01*
X104097126Y-127288998D01*
X104127860Y-127270677D01*
X104127862Y-127270676D01*
X104133912Y-127267069D01*
X104265266Y-127141982D01*
X104365643Y-126990902D01*
X104412082Y-126868653D01*
X104427555Y-126827920D01*
X104427556Y-126827918D01*
X104430055Y-126821338D01*
X104430980Y-126814760D01*
X104467214Y-126753889D01*
X104530746Y-126722201D01*
X104601325Y-126729891D01*
X104656542Y-126774519D01*
X104672498Y-126806459D01*
X104681418Y-126833273D01*
X104685065Y-126839295D01*
X104685066Y-126839297D01*
X104761981Y-126966299D01*
X104775380Y-126988424D01*
X104780269Y-126993487D01*
X104780270Y-126993488D01*
X104836232Y-127051438D01*
X104901382Y-127118902D01*
X104907278Y-127122760D01*
X105036912Y-127207590D01*
X105053159Y-127218222D01*
X105059763Y-127220678D01*
X105059765Y-127220679D01*
X105216558Y-127278990D01*
X105216560Y-127278990D01*
X105223168Y-127281448D01*
X105306995Y-127292633D01*
X105395980Y-127304507D01*
X105395984Y-127304507D01*
X105402961Y-127305438D01*
X105409972Y-127304800D01*
X105409976Y-127304800D01*
X105552459Y-127291832D01*
X105583600Y-127288998D01*
X105590302Y-127286820D01*
X105590304Y-127286820D01*
X105749409Y-127235124D01*
X105749412Y-127235123D01*
X105756108Y-127232947D01*
X105882081Y-127157852D01*
X105905860Y-127143677D01*
X105905862Y-127143676D01*
X105911912Y-127140069D01*
X105967118Y-127087497D01*
X106030243Y-127055005D01*
X106100914Y-127061798D01*
X106144643Y-127091214D01*
X106171382Y-127118902D01*
X106177278Y-127122760D01*
X106306912Y-127207590D01*
X106323159Y-127218222D01*
X106329763Y-127220678D01*
X106329765Y-127220679D01*
X106486558Y-127278990D01*
X106486560Y-127278990D01*
X106493168Y-127281448D01*
X106576995Y-127292633D01*
X106665980Y-127304507D01*
X106665984Y-127304507D01*
X106672961Y-127305438D01*
X106679972Y-127304800D01*
X106679976Y-127304800D01*
X106822459Y-127291832D01*
X106853600Y-127288998D01*
X106860302Y-127286820D01*
X106860304Y-127286820D01*
X107019409Y-127235124D01*
X107019412Y-127235123D01*
X107026108Y-127232947D01*
X107152081Y-127157852D01*
X107175860Y-127143677D01*
X107175862Y-127143676D01*
X107181912Y-127140069D01*
X107313266Y-127014982D01*
X107413643Y-126863902D01*
X107466428Y-126724947D01*
X107475555Y-126700920D01*
X107475556Y-126700918D01*
X107478055Y-126694338D01*
X107479833Y-126681685D01*
X107502748Y-126518639D01*
X107502748Y-126518636D01*
X107503299Y-126514717D01*
X107503489Y-126501111D01*
X107503561Y-126495962D01*
X107503561Y-126495957D01*
X107503616Y-126492000D01*
X107483397Y-126311745D01*
X107481080Y-126305091D01*
X107426064Y-126147106D01*
X107426062Y-126147103D01*
X107423745Y-126140448D01*
X107373625Y-126060238D01*
X107331359Y-125992598D01*
X107327626Y-125986624D01*
X107307544Y-125966401D01*
X107204778Y-125862915D01*
X107204774Y-125862912D01*
X107199815Y-125857918D01*
X107192164Y-125853062D01*
X107140538Y-125820300D01*
X107046666Y-125760727D01*
X107007209Y-125746677D01*
X106882425Y-125702243D01*
X106882420Y-125702242D01*
X106875790Y-125699881D01*
X106868802Y-125699048D01*
X106868799Y-125699047D01*
X106740462Y-125683744D01*
X106695680Y-125678404D01*
X106688677Y-125679140D01*
X106688676Y-125679140D01*
X106522288Y-125696628D01*
X106522286Y-125696629D01*
X106515288Y-125697364D01*
X106343579Y-125755818D01*
X106337575Y-125759512D01*
X106195095Y-125847166D01*
X106195092Y-125847168D01*
X106189088Y-125850862D01*
X106184053Y-125855793D01*
X106184050Y-125855795D01*
X106143487Y-125895518D01*
X106080822Y-125928889D01*
X106010063Y-125923083D01*
X105965923Y-125894279D01*
X105958210Y-125886512D01*
X105929815Y-125857918D01*
X105922164Y-125853062D01*
X105870538Y-125820300D01*
X105776666Y-125760727D01*
X105737209Y-125746677D01*
X105612425Y-125702243D01*
X105612420Y-125702242D01*
X105605790Y-125699881D01*
X105598802Y-125699048D01*
X105598799Y-125699047D01*
X105470462Y-125683744D01*
X105425680Y-125678404D01*
X105418677Y-125679140D01*
X105418676Y-125679140D01*
X105252288Y-125696628D01*
X105252286Y-125696629D01*
X105245288Y-125697364D01*
X105073579Y-125755818D01*
X105067575Y-125759512D01*
X104925095Y-125847166D01*
X104925092Y-125847168D01*
X104919088Y-125850862D01*
X104914053Y-125855793D01*
X104914050Y-125855795D01*
X104794953Y-125972424D01*
X104789493Y-125977771D01*
X104691235Y-126130238D01*
X104688826Y-126136858D01*
X104688824Y-126136861D01*
X104658693Y-126219646D01*
X104629197Y-126300685D01*
X104628512Y-126300436D01*
X104595734Y-126357300D01*
X104532652Y-126389876D01*
X104461972Y-126383176D01*
X104406135Y-126339327D01*
X104389730Y-126307608D01*
X104375745Y-126267448D01*
X104292651Y-126134469D01*
X104283359Y-126119598D01*
X104279626Y-126113624D01*
X104263946Y-126097834D01*
X104156778Y-125989915D01*
X104156774Y-125989912D01*
X104151815Y-125984918D01*
X104140697Y-125977862D01*
X104082778Y-125941106D01*
X103998666Y-125887727D01*
X103923501Y-125860962D01*
X103834425Y-125829243D01*
X103834420Y-125829242D01*
X103827790Y-125826881D01*
X103820802Y-125826048D01*
X103820799Y-125826047D01*
X103691171Y-125810590D01*
X103647680Y-125805404D01*
X103640677Y-125806140D01*
X103640676Y-125806140D01*
X103474288Y-125823628D01*
X103474286Y-125823629D01*
X103467288Y-125824364D01*
X103295579Y-125882818D01*
X103277850Y-125893725D01*
X103147095Y-125974166D01*
X103147092Y-125974168D01*
X103141088Y-125977862D01*
X103136053Y-125982793D01*
X103136050Y-125982795D01*
X103018577Y-126097834D01*
X103011493Y-126104771D01*
X102913235Y-126257238D01*
X102910826Y-126263858D01*
X102910824Y-126263861D01*
X102856235Y-126413844D01*
X102851197Y-126427685D01*
X102828463Y-126607640D01*
X101676645Y-126607640D01*
X103454645Y-124829640D01*
X110448463Y-124829640D01*
X110466163Y-125010160D01*
X110523418Y-125182273D01*
X110527065Y-125188295D01*
X110527066Y-125188297D01*
X110589674Y-125291675D01*
X110617380Y-125337424D01*
X110622269Y-125342487D01*
X110622270Y-125342488D01*
X110654284Y-125375639D01*
X110743382Y-125467902D01*
X110791741Y-125499547D01*
X110870886Y-125551338D01*
X110895159Y-125567222D01*
X110901763Y-125569678D01*
X110901765Y-125569679D01*
X111058558Y-125627990D01*
X111058560Y-125627990D01*
X111065168Y-125630448D01*
X111148995Y-125641633D01*
X111237980Y-125653507D01*
X111237984Y-125653507D01*
X111244961Y-125654438D01*
X111251972Y-125653800D01*
X111251976Y-125653800D01*
X111394459Y-125640832D01*
X111425600Y-125637998D01*
X111432302Y-125635820D01*
X111432304Y-125635820D01*
X111591409Y-125584124D01*
X111591412Y-125584123D01*
X111598108Y-125581947D01*
X111717951Y-125510506D01*
X111747860Y-125492677D01*
X111747862Y-125492676D01*
X111753912Y-125489069D01*
X111885266Y-125363982D01*
X111985643Y-125212902D01*
X112034746Y-125083640D01*
X112047555Y-125049920D01*
X112047556Y-125049918D01*
X112050055Y-125043338D01*
X112051035Y-125036366D01*
X112074748Y-124867639D01*
X112074748Y-124867636D01*
X112075299Y-124863717D01*
X112075496Y-124849598D01*
X112075561Y-124844962D01*
X112075561Y-124844957D01*
X112075616Y-124841000D01*
X112055397Y-124660745D01*
X112053080Y-124654091D01*
X111998064Y-124496106D01*
X111998062Y-124496103D01*
X111995745Y-124489448D01*
X111899626Y-124335624D01*
X111883946Y-124319834D01*
X111776778Y-124211915D01*
X111776774Y-124211912D01*
X111771815Y-124206918D01*
X111760697Y-124199862D01*
X111659290Y-124135508D01*
X111618666Y-124109727D01*
X111583284Y-124097128D01*
X111454425Y-124051243D01*
X111454420Y-124051242D01*
X111447790Y-124048881D01*
X111440802Y-124048048D01*
X111440799Y-124048047D01*
X111311171Y-124032590D01*
X111267680Y-124027404D01*
X111260677Y-124028140D01*
X111260676Y-124028140D01*
X111094288Y-124045628D01*
X111094286Y-124045629D01*
X111087288Y-124046364D01*
X110915579Y-124104818D01*
X110909575Y-124108512D01*
X110767095Y-124196166D01*
X110767092Y-124196168D01*
X110761088Y-124199862D01*
X110756053Y-124204793D01*
X110756050Y-124204795D01*
X110638577Y-124319834D01*
X110631493Y-124326771D01*
X110533235Y-124479238D01*
X110530826Y-124485858D01*
X110530824Y-124485861D01*
X110482829Y-124617727D01*
X110471197Y-124649685D01*
X110448463Y-124829640D01*
X103454645Y-124829640D01*
X104461675Y-123822610D01*
X104523987Y-123788584D01*
X104594802Y-123793649D01*
X104644405Y-123827393D01*
X104681747Y-123868866D01*
X104722872Y-123898745D01*
X104816792Y-123966982D01*
X104836248Y-123981118D01*
X104842276Y-123983802D01*
X104842278Y-123983803D01*
X104987890Y-124048633D01*
X105010712Y-124058794D01*
X105104112Y-124078647D01*
X105191056Y-124097128D01*
X105191061Y-124097128D01*
X105197513Y-124098500D01*
X105388487Y-124098500D01*
X105394939Y-124097128D01*
X105394944Y-124097128D01*
X105481888Y-124078647D01*
X105575288Y-124058794D01*
X105598110Y-124048633D01*
X105743722Y-123983803D01*
X105743724Y-123983802D01*
X105749752Y-123981118D01*
X105769209Y-123966982D01*
X105863128Y-123898745D01*
X105904253Y-123868866D01*
X105912100Y-123860151D01*
X106027621Y-123731852D01*
X106027622Y-123731851D01*
X106032040Y-123726944D01*
X106055310Y-123686640D01*
X113623463Y-123686640D01*
X113641163Y-123867160D01*
X113698418Y-124039273D01*
X113702065Y-124045295D01*
X113702066Y-124045297D01*
X113785256Y-124182660D01*
X113792380Y-124194424D01*
X113797269Y-124199487D01*
X113797270Y-124199488D01*
X113851928Y-124256087D01*
X113918382Y-124324902D01*
X113924278Y-124328760D01*
X114053912Y-124413590D01*
X114070159Y-124424222D01*
X114076763Y-124426678D01*
X114076765Y-124426679D01*
X114233558Y-124484990D01*
X114233560Y-124484990D01*
X114240168Y-124487448D01*
X114323995Y-124498633D01*
X114412980Y-124510507D01*
X114412984Y-124510507D01*
X114419961Y-124511438D01*
X114426972Y-124510800D01*
X114426976Y-124510800D01*
X114569459Y-124497832D01*
X114600600Y-124494998D01*
X114607302Y-124492820D01*
X114607304Y-124492820D01*
X114766409Y-124441124D01*
X114766412Y-124441123D01*
X114773108Y-124438947D01*
X114901329Y-124362512D01*
X114922860Y-124349677D01*
X114922862Y-124349676D01*
X114928912Y-124346069D01*
X114934018Y-124341207D01*
X114989282Y-124288580D01*
X115052406Y-124256087D01*
X115123077Y-124262880D01*
X115178857Y-124306803D01*
X115195732Y-124340053D01*
X115222418Y-124420273D01*
X115226065Y-124426295D01*
X115226066Y-124426297D01*
X115306581Y-124559243D01*
X115316380Y-124575424D01*
X115321269Y-124580487D01*
X115321270Y-124580488D01*
X115392348Y-124654091D01*
X115442382Y-124705902D01*
X115594159Y-124805222D01*
X115600763Y-124807678D01*
X115600765Y-124807679D01*
X115757558Y-124865990D01*
X115757560Y-124865990D01*
X115764168Y-124868448D01*
X115847995Y-124879633D01*
X115936980Y-124891507D01*
X115936984Y-124891507D01*
X115943961Y-124892438D01*
X115950972Y-124891800D01*
X115950976Y-124891800D01*
X116093459Y-124878832D01*
X116124600Y-124875998D01*
X116131302Y-124873820D01*
X116131304Y-124873820D01*
X116290409Y-124822124D01*
X116290412Y-124822123D01*
X116297108Y-124819947D01*
X116416951Y-124748506D01*
X116446860Y-124730677D01*
X116446862Y-124730676D01*
X116452912Y-124727069D01*
X116584266Y-124601982D01*
X116684643Y-124450902D01*
X116731041Y-124328760D01*
X116746555Y-124287920D01*
X116746556Y-124287918D01*
X116749055Y-124281338D01*
X116754166Y-124244972D01*
X116773748Y-124105639D01*
X116773748Y-124105636D01*
X116774299Y-124101717D01*
X116774616Y-124079000D01*
X116754397Y-123898745D01*
X116727884Y-123822610D01*
X116697064Y-123734106D01*
X116697062Y-123734103D01*
X116694745Y-123727448D01*
X116598626Y-123573624D01*
X116592110Y-123567062D01*
X116475778Y-123449915D01*
X116475774Y-123449912D01*
X116470815Y-123444918D01*
X116463164Y-123440062D01*
X116378299Y-123386206D01*
X116317666Y-123347727D01*
X116268759Y-123330312D01*
X116153425Y-123289243D01*
X116153420Y-123289242D01*
X116146790Y-123286881D01*
X116139802Y-123286048D01*
X116139799Y-123286047D01*
X116016698Y-123271368D01*
X115966680Y-123265404D01*
X115959677Y-123266140D01*
X115959676Y-123266140D01*
X115793288Y-123283628D01*
X115793286Y-123283629D01*
X115786288Y-123284364D01*
X115614579Y-123342818D01*
X115565412Y-123373066D01*
X115466095Y-123434166D01*
X115466092Y-123434168D01*
X115460088Y-123437862D01*
X115409915Y-123486995D01*
X115347251Y-123520364D01*
X115276493Y-123514558D01*
X115220106Y-123471419D01*
X115202772Y-123438416D01*
X115170745Y-123346448D01*
X115120625Y-123266238D01*
X115078359Y-123198598D01*
X115074626Y-123192624D01*
X115053276Y-123171124D01*
X114951778Y-123068915D01*
X114951774Y-123068912D01*
X114946815Y-123063918D01*
X114938688Y-123058760D01*
X114880630Y-123021916D01*
X114793666Y-122966727D01*
X114763094Y-122955841D01*
X114629425Y-122908243D01*
X114629420Y-122908242D01*
X114622790Y-122905881D01*
X114615802Y-122905048D01*
X114615799Y-122905047D01*
X114492698Y-122890368D01*
X114442680Y-122884404D01*
X114435677Y-122885140D01*
X114435676Y-122885140D01*
X114269288Y-122902628D01*
X114269286Y-122902629D01*
X114262288Y-122903364D01*
X114090579Y-122961818D01*
X114038603Y-122993794D01*
X113942095Y-123053166D01*
X113942092Y-123053168D01*
X113936088Y-123056862D01*
X113931053Y-123061793D01*
X113931050Y-123061795D01*
X113812133Y-123178248D01*
X113806493Y-123183771D01*
X113708235Y-123336238D01*
X113705826Y-123342858D01*
X113705824Y-123342861D01*
X113660744Y-123466717D01*
X113646197Y-123506685D01*
X113623463Y-123686640D01*
X106055310Y-123686640D01*
X106111245Y-123589757D01*
X106124223Y-123567279D01*
X106124224Y-123567278D01*
X106127527Y-123561556D01*
X106186542Y-123379928D01*
X106189927Y-123347727D01*
X106205814Y-123196565D01*
X106206504Y-123190000D01*
X106193432Y-123065624D01*
X106187232Y-123006635D01*
X106187232Y-123006633D01*
X106186542Y-123000072D01*
X106127527Y-122818444D01*
X106120212Y-122805773D01*
X106035341Y-122658774D01*
X106032040Y-122653056D01*
X105922142Y-122531002D01*
X105891427Y-122466998D01*
X105900190Y-122396545D01*
X105926685Y-122357600D01*
X107211017Y-121073268D01*
X107273329Y-121039242D01*
X107344031Y-121044265D01*
X107351927Y-121047201D01*
X107382168Y-121058448D01*
X107389149Y-121059379D01*
X107389151Y-121059380D01*
X107554980Y-121081507D01*
X107554984Y-121081507D01*
X107561961Y-121082438D01*
X107568972Y-121081800D01*
X107568976Y-121081800D01*
X107711459Y-121068832D01*
X107742600Y-121065998D01*
X107749302Y-121063820D01*
X107749304Y-121063820D01*
X107908409Y-121012124D01*
X107908412Y-121012123D01*
X107915108Y-121009947D01*
X108011513Y-120952478D01*
X108064860Y-120920677D01*
X108064862Y-120920676D01*
X108070912Y-120917069D01*
X108202266Y-120791982D01*
X108302643Y-120640902D01*
X108350383Y-120515228D01*
X108364555Y-120477920D01*
X108364556Y-120477918D01*
X108367055Y-120471338D01*
X108372635Y-120431637D01*
X108391748Y-120295639D01*
X108391748Y-120295636D01*
X108392299Y-120291717D01*
X108392452Y-120280738D01*
X108392561Y-120272962D01*
X108392561Y-120272957D01*
X108392616Y-120269000D01*
X108372397Y-120088745D01*
X108363245Y-120062463D01*
X108315064Y-119924106D01*
X108315062Y-119924103D01*
X108312745Y-119917448D01*
X108245933Y-119810526D01*
X108220359Y-119769598D01*
X108216626Y-119763624D01*
X108160125Y-119706727D01*
X108093778Y-119639915D01*
X108093774Y-119639912D01*
X108088815Y-119634918D01*
X108077697Y-119627862D01*
X108007380Y-119583238D01*
X107935666Y-119537727D01*
X107867811Y-119513565D01*
X107771425Y-119479243D01*
X107771420Y-119479242D01*
X107764790Y-119476881D01*
X107757802Y-119476048D01*
X107757799Y-119476047D01*
X107634698Y-119461368D01*
X107584680Y-119455404D01*
X107577677Y-119456140D01*
X107577676Y-119456140D01*
X107411288Y-119473628D01*
X107411286Y-119473629D01*
X107404288Y-119474364D01*
X107232579Y-119532818D01*
X107226575Y-119536512D01*
X107084095Y-119624166D01*
X107084092Y-119624168D01*
X107078088Y-119627862D01*
X107073050Y-119632796D01*
X107063198Y-119642443D01*
X107007653Y-119674125D01*
X107004074Y-119675084D01*
X106995885Y-119676162D01*
X106847860Y-119737476D01*
X106838060Y-119744996D01*
X106834827Y-119746246D01*
X106834158Y-119746632D01*
X106834098Y-119746528D01*
X106771839Y-119770595D01*
X106702291Y-119756329D01*
X106651496Y-119706727D01*
X106635581Y-119637537D01*
X106641525Y-119606096D01*
X106671590Y-119513565D01*
X106694542Y-119442928D01*
X106711219Y-119284260D01*
X106713814Y-119259565D01*
X106714504Y-119253000D01*
X106704203Y-119154988D01*
X106695232Y-119069635D01*
X106695232Y-119069633D01*
X106694542Y-119063072D01*
X106635527Y-118881444D01*
X106632223Y-118875721D01*
X106629539Y-118869693D01*
X106630765Y-118869147D01*
X106615719Y-118807140D01*
X106638936Y-118740047D01*
X106677058Y-118704901D01*
X106800912Y-118631069D01*
X106932266Y-118505982D01*
X107032643Y-118354902D01*
X107088089Y-118208942D01*
X107094555Y-118191920D01*
X107094556Y-118191918D01*
X107097055Y-118185338D01*
X107099036Y-118171244D01*
X107121748Y-118009639D01*
X107121748Y-118009636D01*
X107122299Y-118005717D01*
X107122616Y-117983000D01*
X107102397Y-117802745D01*
X107081352Y-117742312D01*
X107045064Y-117638106D01*
X107045062Y-117638103D01*
X107042745Y-117631448D01*
X106946626Y-117477624D01*
X106934255Y-117465166D01*
X106823778Y-117353915D01*
X106823774Y-117353912D01*
X106818815Y-117348918D01*
X106665666Y-117251727D01*
X106636463Y-117241328D01*
X106501425Y-117193243D01*
X106501420Y-117193242D01*
X106494790Y-117190881D01*
X106487804Y-117190048D01*
X106487800Y-117190047D01*
X106404864Y-117180158D01*
X106339591Y-117152231D01*
X106330688Y-117144139D01*
X105126189Y-115939640D01*
X107527463Y-115939640D01*
X107545163Y-116120160D01*
X107602418Y-116292273D01*
X107606065Y-116298295D01*
X107606066Y-116298297D01*
X107690641Y-116437947D01*
X107696380Y-116447424D01*
X107701269Y-116452487D01*
X107701270Y-116452488D01*
X107734065Y-116486448D01*
X107822382Y-116577902D01*
X107974159Y-116677222D01*
X107980763Y-116679678D01*
X107980765Y-116679679D01*
X108137558Y-116737990D01*
X108137560Y-116737990D01*
X108144168Y-116740448D01*
X108217007Y-116750167D01*
X108316980Y-116763507D01*
X108316984Y-116763507D01*
X108323961Y-116764438D01*
X108330972Y-116763800D01*
X108330976Y-116763800D01*
X108473459Y-116750832D01*
X108504600Y-116747998D01*
X108511302Y-116745820D01*
X108511304Y-116745820D01*
X108670409Y-116694124D01*
X108670412Y-116694123D01*
X108677108Y-116691947D01*
X108796126Y-116620998D01*
X108826860Y-116602677D01*
X108826862Y-116602676D01*
X108832912Y-116599069D01*
X108964266Y-116473982D01*
X109064643Y-116322902D01*
X109115142Y-116189964D01*
X109158031Y-116133386D01*
X109224700Y-116108977D01*
X109276848Y-116116610D01*
X109287168Y-116120448D01*
X109354544Y-116129438D01*
X109459980Y-116143507D01*
X109459984Y-116143507D01*
X109466961Y-116144438D01*
X109473972Y-116143800D01*
X109473976Y-116143800D01*
X109616459Y-116130832D01*
X109647600Y-116127998D01*
X109654302Y-116125820D01*
X109654304Y-116125820D01*
X109813409Y-116074124D01*
X109813412Y-116074123D01*
X109820108Y-116071947D01*
X109936710Y-116002438D01*
X109969860Y-115982677D01*
X109969862Y-115982676D01*
X109975912Y-115979069D01*
X110107266Y-115853982D01*
X110207643Y-115702902D01*
X110252437Y-115584982D01*
X110269555Y-115539920D01*
X110269556Y-115539918D01*
X110272055Y-115533338D01*
X110274176Y-115518248D01*
X110296748Y-115357639D01*
X110296748Y-115357636D01*
X110297299Y-115353717D01*
X110297616Y-115331000D01*
X110277397Y-115150745D01*
X110273582Y-115139790D01*
X110220064Y-114986106D01*
X110220062Y-114986103D01*
X110217745Y-114979448D01*
X110121626Y-114825624D01*
X110116664Y-114820627D01*
X109998778Y-114701915D01*
X109998774Y-114701912D01*
X109993815Y-114696918D01*
X109986545Y-114692304D01*
X109934538Y-114659300D01*
X109840666Y-114599727D01*
X109794949Y-114583448D01*
X109676425Y-114541243D01*
X109676420Y-114541242D01*
X109669790Y-114538881D01*
X109662802Y-114538048D01*
X109662799Y-114538047D01*
X109522889Y-114521364D01*
X109489680Y-114517404D01*
X109482677Y-114518140D01*
X109482676Y-114518140D01*
X109316288Y-114535628D01*
X109316286Y-114535629D01*
X109309288Y-114536364D01*
X109137579Y-114594818D01*
X109131575Y-114598512D01*
X108989095Y-114686166D01*
X108989092Y-114686168D01*
X108983088Y-114689862D01*
X108978053Y-114694793D01*
X108978050Y-114694795D01*
X108858525Y-114811843D01*
X108853493Y-114816771D01*
X108755235Y-114969238D01*
X108752826Y-114975858D01*
X108752824Y-114975861D01*
X108710714Y-115091558D01*
X108668620Y-115148729D01*
X108602298Y-115174067D01*
X108550047Y-115167162D01*
X108533428Y-115161244D01*
X108533422Y-115161243D01*
X108526790Y-115158881D01*
X108519802Y-115158048D01*
X108519799Y-115158047D01*
X108396698Y-115143368D01*
X108346680Y-115137404D01*
X108339677Y-115138140D01*
X108339676Y-115138140D01*
X108173288Y-115155628D01*
X108173286Y-115155629D01*
X108166288Y-115156364D01*
X107994579Y-115214818D01*
X107932109Y-115253250D01*
X107846095Y-115306166D01*
X107846092Y-115306168D01*
X107840088Y-115309862D01*
X107835053Y-115314793D01*
X107835050Y-115314795D01*
X107715953Y-115431424D01*
X107710493Y-115436771D01*
X107612235Y-115589238D01*
X107609826Y-115595858D01*
X107609824Y-115595861D01*
X107552992Y-115752005D01*
X107550197Y-115759685D01*
X107527463Y-115939640D01*
X105126189Y-115939640D01*
X101208707Y-112022158D01*
X101174681Y-111959846D01*
X101179746Y-111889031D01*
X101222293Y-111832195D01*
X101288813Y-111807384D01*
X101314465Y-111808170D01*
X101328831Y-111810086D01*
X101338961Y-111811438D01*
X101345972Y-111810800D01*
X101345976Y-111810800D01*
X101488459Y-111797832D01*
X101519600Y-111794998D01*
X101526302Y-111792820D01*
X101526304Y-111792820D01*
X101685409Y-111741124D01*
X101685412Y-111741123D01*
X101692108Y-111738947D01*
X101811958Y-111667502D01*
X101841860Y-111649677D01*
X101841862Y-111649676D01*
X101847912Y-111646069D01*
X101873565Y-111621640D01*
X104723463Y-111621640D01*
X104741163Y-111802160D01*
X104798418Y-111974273D01*
X104802065Y-111980295D01*
X104802066Y-111980297D01*
X104886641Y-112119947D01*
X104892380Y-112129424D01*
X104897269Y-112134487D01*
X104897270Y-112134488D01*
X104968347Y-112208090D01*
X105018382Y-112259902D01*
X105026391Y-112265143D01*
X105153912Y-112348590D01*
X105170159Y-112359222D01*
X105176763Y-112361678D01*
X105176765Y-112361679D01*
X105333558Y-112419990D01*
X105333560Y-112419990D01*
X105340168Y-112422448D01*
X105423995Y-112433633D01*
X105512980Y-112445507D01*
X105512984Y-112445507D01*
X105519961Y-112446438D01*
X105526972Y-112445800D01*
X105526976Y-112445800D01*
X105669459Y-112432832D01*
X105700600Y-112429998D01*
X105707302Y-112427820D01*
X105707304Y-112427820D01*
X105866409Y-112376124D01*
X105866412Y-112376123D01*
X105873108Y-112373947D01*
X105985746Y-112306801D01*
X106054498Y-112289102D01*
X106121908Y-112311384D01*
X106166570Y-112366573D01*
X106169817Y-112375254D01*
X106205418Y-112482273D01*
X106209065Y-112488295D01*
X106209066Y-112488297D01*
X106251344Y-112558106D01*
X106299380Y-112637424D01*
X106304269Y-112642487D01*
X106304270Y-112642488D01*
X106307800Y-112646143D01*
X106425382Y-112767902D01*
X106577159Y-112867222D01*
X106583763Y-112869678D01*
X106583765Y-112869679D01*
X106740558Y-112927990D01*
X106740560Y-112927990D01*
X106747168Y-112930448D01*
X106830995Y-112941633D01*
X106919980Y-112953507D01*
X106919984Y-112953507D01*
X106926961Y-112954438D01*
X106933972Y-112953800D01*
X106933976Y-112953800D01*
X107076459Y-112940832D01*
X107107600Y-112937998D01*
X107114302Y-112935820D01*
X107114304Y-112935820D01*
X107246783Y-112892775D01*
X107317751Y-112890748D01*
X107378549Y-112927410D01*
X107409874Y-112991122D01*
X107411118Y-113000312D01*
X107418163Y-113072160D01*
X107475418Y-113244273D01*
X107479065Y-113250295D01*
X107479066Y-113250297D01*
X107496845Y-113279653D01*
X107569380Y-113399424D01*
X107574269Y-113404487D01*
X107574270Y-113404488D01*
X107627727Y-113459844D01*
X107695382Y-113529902D01*
X107706585Y-113537233D01*
X107830912Y-113618590D01*
X107847159Y-113629222D01*
X107853763Y-113631678D01*
X107853765Y-113631679D01*
X108010558Y-113689990D01*
X108010560Y-113689990D01*
X108017168Y-113692448D01*
X108100995Y-113703633D01*
X108189980Y-113715507D01*
X108189984Y-113715507D01*
X108196961Y-113716438D01*
X108203972Y-113715800D01*
X108203976Y-113715800D01*
X108346459Y-113702832D01*
X108377600Y-113699998D01*
X108384302Y-113697820D01*
X108384304Y-113697820D01*
X108543409Y-113646124D01*
X108543412Y-113646123D01*
X108550108Y-113643947D01*
X108669951Y-113572506D01*
X108699860Y-113554677D01*
X108699862Y-113554676D01*
X108705912Y-113551069D01*
X108837266Y-113425982D01*
X108937643Y-113274902D01*
X108938502Y-113272640D01*
X109305463Y-113272640D01*
X109323163Y-113453160D01*
X109380418Y-113625273D01*
X109384065Y-113631295D01*
X109384066Y-113631297D01*
X109468625Y-113770921D01*
X109474380Y-113780424D01*
X109479269Y-113785487D01*
X109479270Y-113785488D01*
X109529326Y-113837322D01*
X109600382Y-113910902D01*
X109652277Y-113944861D01*
X109689867Y-113969459D01*
X109752159Y-114010222D01*
X109758763Y-114012678D01*
X109758765Y-114012679D01*
X109915558Y-114070990D01*
X109915560Y-114070990D01*
X109922168Y-114073448D01*
X110005995Y-114084633D01*
X110094980Y-114096507D01*
X110094984Y-114096507D01*
X110101961Y-114097438D01*
X110108972Y-114096800D01*
X110108976Y-114096800D01*
X110251459Y-114083832D01*
X110282600Y-114080998D01*
X110289302Y-114078820D01*
X110289304Y-114078820D01*
X110448409Y-114027124D01*
X110448412Y-114027123D01*
X110455108Y-114024947D01*
X110583436Y-113948448D01*
X110604860Y-113935677D01*
X110604862Y-113935676D01*
X110610912Y-113932069D01*
X110742266Y-113806982D01*
X110842643Y-113655902D01*
X110889855Y-113531618D01*
X110904555Y-113492920D01*
X110904556Y-113492918D01*
X110907055Y-113486338D01*
X110908035Y-113479366D01*
X110931748Y-113310639D01*
X110931748Y-113310636D01*
X110932299Y-113306717D01*
X110932616Y-113284000D01*
X110912397Y-113103745D01*
X110910080Y-113097091D01*
X110855064Y-112939106D01*
X110855062Y-112939103D01*
X110852745Y-112932448D01*
X110763153Y-112789069D01*
X110760359Y-112784598D01*
X110756626Y-112778624D01*
X110694528Y-112716091D01*
X110633778Y-112654915D01*
X110633774Y-112654912D01*
X110628815Y-112649918D01*
X110620688Y-112644760D01*
X110569538Y-112612300D01*
X110475666Y-112552727D01*
X110446463Y-112542328D01*
X110311425Y-112494243D01*
X110311420Y-112494242D01*
X110304790Y-112491881D01*
X110297802Y-112491048D01*
X110297799Y-112491047D01*
X110168171Y-112475590D01*
X110124680Y-112470404D01*
X110117677Y-112471140D01*
X110117676Y-112471140D01*
X109951288Y-112488628D01*
X109951286Y-112488629D01*
X109944288Y-112489364D01*
X109772579Y-112547818D01*
X109746016Y-112564160D01*
X109624095Y-112639166D01*
X109624092Y-112639168D01*
X109618088Y-112642862D01*
X109613053Y-112647793D01*
X109613050Y-112647795D01*
X109495577Y-112762834D01*
X109488493Y-112769771D01*
X109390235Y-112922238D01*
X109387826Y-112928858D01*
X109387824Y-112928861D01*
X109330606Y-113086066D01*
X109328197Y-113092685D01*
X109305463Y-113272640D01*
X108938502Y-113272640D01*
X109002055Y-113105338D01*
X109003833Y-113092685D01*
X109026748Y-112929639D01*
X109026748Y-112929636D01*
X109027299Y-112925717D01*
X109027452Y-112914738D01*
X109027561Y-112906962D01*
X109027561Y-112906957D01*
X109027616Y-112903000D01*
X109007397Y-112722745D01*
X108981166Y-112647419D01*
X108950064Y-112558106D01*
X108950062Y-112558103D01*
X108947745Y-112551448D01*
X108897625Y-112471238D01*
X108855359Y-112403598D01*
X108851626Y-112397624D01*
X108846664Y-112392627D01*
X108837740Y-112383640D01*
X113359463Y-112383640D01*
X113377163Y-112564160D01*
X113434418Y-112736273D01*
X113438065Y-112742295D01*
X113438066Y-112742297D01*
X113524730Y-112885398D01*
X113524733Y-112885401D01*
X113528380Y-112891424D01*
X113533275Y-112896492D01*
X113537571Y-112902071D01*
X113535243Y-112903864D01*
X113562071Y-112955115D01*
X113564500Y-112979734D01*
X113564500Y-113870864D01*
X113563422Y-113887307D01*
X113559250Y-113919000D01*
X113564500Y-113958880D01*
X113564500Y-113958885D01*
X113568993Y-113993013D01*
X113580162Y-114077851D01*
X113641476Y-114225876D01*
X113646503Y-114232427D01*
X113646504Y-114232429D01*
X113714520Y-114321069D01*
X113714526Y-114321075D01*
X113739013Y-114352987D01*
X113745568Y-114358017D01*
X113764379Y-114372452D01*
X113776770Y-114383319D01*
X114216685Y-114823234D01*
X114227552Y-114835625D01*
X114247013Y-114860987D01*
X114253563Y-114866013D01*
X114278925Y-114885474D01*
X114278928Y-114885477D01*
X114365201Y-114951677D01*
X114374124Y-114958524D01*
X114422754Y-114978667D01*
X114435438Y-114983921D01*
X114514520Y-115016678D01*
X114514523Y-115016679D01*
X114522150Y-115019838D01*
X114530338Y-115020916D01*
X114625635Y-115033462D01*
X114690562Y-115062184D01*
X114729654Y-115121450D01*
X114730499Y-115192441D01*
X114724700Y-115207517D01*
X114724235Y-115208238D01*
X114721828Y-115214851D01*
X114721826Y-115214855D01*
X114669857Y-115357639D01*
X114662197Y-115378685D01*
X114639463Y-115558640D01*
X114657163Y-115739160D01*
X114714418Y-115911273D01*
X114718065Y-115917295D01*
X114718066Y-115917297D01*
X114802641Y-116056947D01*
X114808380Y-116066424D01*
X114813269Y-116071487D01*
X114813270Y-116071488D01*
X114860551Y-116120448D01*
X114934382Y-116196902D01*
X114940278Y-116200760D01*
X115069912Y-116285590D01*
X115086159Y-116296222D01*
X115092763Y-116298678D01*
X115092765Y-116298679D01*
X115249558Y-116356990D01*
X115249560Y-116356990D01*
X115256168Y-116359448D01*
X115339995Y-116370633D01*
X115428980Y-116382507D01*
X115428984Y-116382507D01*
X115435961Y-116383438D01*
X115442972Y-116382800D01*
X115442976Y-116382800D01*
X115585459Y-116369832D01*
X115616600Y-116366998D01*
X115623302Y-116364820D01*
X115623304Y-116364820D01*
X115782409Y-116313124D01*
X115782412Y-116313123D01*
X115789108Y-116310947D01*
X115944912Y-116218069D01*
X116076266Y-116092982D01*
X116176643Y-115941902D01*
X116202246Y-115874502D01*
X116245135Y-115817924D01*
X116311803Y-115793515D01*
X116381085Y-115809025D01*
X116430984Y-115859529D01*
X116439592Y-115879474D01*
X116492418Y-116038273D01*
X116496065Y-116044295D01*
X116496066Y-116044297D01*
X116547243Y-116128800D01*
X116586380Y-116193424D01*
X116591269Y-116198487D01*
X116591270Y-116198488D01*
X116612027Y-116219982D01*
X116712382Y-116323902D01*
X116737305Y-116340211D01*
X116817008Y-116392367D01*
X116864159Y-116423222D01*
X116870763Y-116425678D01*
X116870765Y-116425679D01*
X117027558Y-116483990D01*
X117027560Y-116483990D01*
X117034168Y-116486448D01*
X117117995Y-116497633D01*
X117206980Y-116509507D01*
X117206984Y-116509507D01*
X117213961Y-116510438D01*
X117220972Y-116509800D01*
X117220976Y-116509800D01*
X117363459Y-116496832D01*
X117394600Y-116493998D01*
X117401302Y-116491820D01*
X117401304Y-116491820D01*
X117560409Y-116440124D01*
X117560412Y-116440123D01*
X117567108Y-116437947D01*
X117686681Y-116366667D01*
X117716860Y-116348677D01*
X117716862Y-116348676D01*
X117722912Y-116345069D01*
X117854266Y-116219982D01*
X117954643Y-116068902D01*
X117983584Y-115992715D01*
X118026473Y-115936137D01*
X118093142Y-115911728D01*
X118145290Y-115919362D01*
X118304168Y-115978448D01*
X118387995Y-115989633D01*
X118476980Y-116001507D01*
X118476984Y-116001507D01*
X118483961Y-116002438D01*
X118490972Y-116001800D01*
X118490976Y-116001800D01*
X118633459Y-115988832D01*
X118664600Y-115985998D01*
X118671302Y-115983820D01*
X118671304Y-115983820D01*
X118830409Y-115932124D01*
X118830412Y-115932123D01*
X118837108Y-115929947D01*
X118933513Y-115872478D01*
X118986860Y-115840677D01*
X118986862Y-115840676D01*
X118992912Y-115837069D01*
X119124266Y-115711982D01*
X119150608Y-115672334D01*
X119204965Y-115626663D01*
X119275385Y-115617631D01*
X119339509Y-115648104D01*
X119346193Y-115654534D01*
X119379382Y-115688902D01*
X119446216Y-115732637D01*
X119509782Y-115774233D01*
X119531159Y-115788222D01*
X119537763Y-115790678D01*
X119537765Y-115790679D01*
X119694558Y-115848990D01*
X119694560Y-115848990D01*
X119701168Y-115851448D01*
X119784995Y-115862633D01*
X119873980Y-115874507D01*
X119873984Y-115874507D01*
X119880961Y-115875438D01*
X119887972Y-115874800D01*
X119887976Y-115874800D01*
X120030459Y-115861832D01*
X120061600Y-115858998D01*
X120068302Y-115856820D01*
X120068304Y-115856820D01*
X120227409Y-115805124D01*
X120227412Y-115805123D01*
X120234108Y-115802947D01*
X120330916Y-115745238D01*
X120383860Y-115713677D01*
X120383862Y-115713676D01*
X120389912Y-115710069D01*
X120521266Y-115584982D01*
X120533366Y-115566771D01*
X120543532Y-115551469D01*
X120597890Y-115505798D01*
X120668309Y-115496766D01*
X120732433Y-115527239D01*
X120739116Y-115533668D01*
X120761487Y-115556834D01*
X120761491Y-115556838D01*
X120766382Y-115561902D01*
X120772278Y-115565760D01*
X120907939Y-115654534D01*
X120918159Y-115661222D01*
X120924763Y-115663678D01*
X120924765Y-115663679D01*
X121081558Y-115721990D01*
X121081560Y-115721990D01*
X121088168Y-115724448D01*
X121171995Y-115735633D01*
X121260980Y-115747507D01*
X121260984Y-115747507D01*
X121267961Y-115748438D01*
X121274972Y-115747800D01*
X121274976Y-115747800D01*
X121417459Y-115734832D01*
X121448600Y-115731998D01*
X121455302Y-115729820D01*
X121455304Y-115729820D01*
X121614409Y-115678124D01*
X121614412Y-115678123D01*
X121621108Y-115675947D01*
X121718934Y-115617631D01*
X121770860Y-115586677D01*
X121770862Y-115586676D01*
X121776912Y-115583069D01*
X121908266Y-115457982D01*
X122008643Y-115306902D01*
X122053082Y-115189918D01*
X122070555Y-115143920D01*
X122070556Y-115143918D01*
X122073055Y-115137338D01*
X122074035Y-115130366D01*
X122097748Y-114961639D01*
X122097748Y-114961636D01*
X122098299Y-114957717D01*
X122098452Y-114946738D01*
X122098561Y-114938962D01*
X122098561Y-114938957D01*
X122098616Y-114935000D01*
X122078397Y-114754745D01*
X122076080Y-114748091D01*
X122021064Y-114590106D01*
X122021062Y-114590103D01*
X122018745Y-114583448D01*
X121968625Y-114503238D01*
X121926359Y-114435598D01*
X121922626Y-114429624D01*
X121908941Y-114415843D01*
X121799778Y-114305915D01*
X121799774Y-114305912D01*
X121794815Y-114300918D01*
X121787164Y-114296062D01*
X121664544Y-114218246D01*
X121641666Y-114203727D01*
X121578369Y-114181188D01*
X121477425Y-114145243D01*
X121477420Y-114145242D01*
X121470790Y-114142881D01*
X121463804Y-114142048D01*
X121463800Y-114142047D01*
X121380864Y-114132158D01*
X121315591Y-114104231D01*
X121306688Y-114096139D01*
X121241315Y-114030766D01*
X121230448Y-114018375D01*
X121216013Y-113999563D01*
X121210987Y-113993013D01*
X121179075Y-113968526D01*
X121179072Y-113968523D01*
X121125205Y-113927189D01*
X121090429Y-113900504D01*
X121090427Y-113900503D01*
X121083876Y-113895476D01*
X120935851Y-113834162D01*
X120927664Y-113833084D01*
X120927663Y-113833084D01*
X120916458Y-113831609D01*
X120872531Y-113825826D01*
X120816885Y-113818500D01*
X120816882Y-113818500D01*
X120816874Y-113818499D01*
X120785189Y-113814328D01*
X120777000Y-113813250D01*
X120745307Y-113817422D01*
X120728864Y-113818500D01*
X114985239Y-113818500D01*
X114917118Y-113798498D01*
X114896144Y-113781595D01*
X114818405Y-113703856D01*
X114784379Y-113641544D01*
X114781500Y-113614761D01*
X114781500Y-112978248D01*
X114802552Y-112908521D01*
X114835343Y-112859166D01*
X114889700Y-112813496D01*
X114960120Y-112804463D01*
X115009283Y-112823460D01*
X115043733Y-112846003D01*
X115076159Y-112867222D01*
X115082763Y-112869678D01*
X115082765Y-112869679D01*
X115239558Y-112927990D01*
X115239560Y-112927990D01*
X115246168Y-112930448D01*
X115329995Y-112941633D01*
X115418980Y-112953507D01*
X115418984Y-112953507D01*
X115425961Y-112954438D01*
X115432972Y-112953800D01*
X115432976Y-112953800D01*
X115575459Y-112940832D01*
X115606600Y-112937998D01*
X115613302Y-112935820D01*
X115613304Y-112935820D01*
X115772409Y-112884124D01*
X115772412Y-112884123D01*
X115779108Y-112881947D01*
X115887777Y-112817167D01*
X115928860Y-112792677D01*
X115928862Y-112792676D01*
X115934912Y-112789069D01*
X116066266Y-112663982D01*
X116166643Y-112512902D01*
X116226487Y-112355364D01*
X116228555Y-112349920D01*
X116228556Y-112349918D01*
X116231055Y-112343338D01*
X116238032Y-112293695D01*
X116255748Y-112167639D01*
X116255748Y-112167636D01*
X116256299Y-112163717D01*
X116256616Y-112141000D01*
X116236397Y-111960745D01*
X116230032Y-111942468D01*
X116179064Y-111796106D01*
X116179062Y-111796103D01*
X116176745Y-111789448D01*
X116080626Y-111635624D01*
X116075664Y-111630627D01*
X115957778Y-111511915D01*
X115957774Y-111511912D01*
X115952815Y-111506918D01*
X115941697Y-111499862D01*
X115839594Y-111435066D01*
X115799666Y-111409727D01*
X115724501Y-111382962D01*
X115635425Y-111351243D01*
X115635420Y-111351242D01*
X115628790Y-111348881D01*
X115621802Y-111348048D01*
X115621799Y-111348047D01*
X115498698Y-111333368D01*
X115448680Y-111327404D01*
X115441677Y-111328140D01*
X115441676Y-111328140D01*
X115275288Y-111345628D01*
X115275286Y-111345629D01*
X115268288Y-111346364D01*
X115117321Y-111397757D01*
X115108823Y-111400650D01*
X115096579Y-111404818D01*
X115088600Y-111409727D01*
X114948095Y-111496166D01*
X114948092Y-111496168D01*
X114942088Y-111499862D01*
X114937053Y-111504793D01*
X114937050Y-111504795D01*
X114817525Y-111621843D01*
X114812493Y-111626771D01*
X114790201Y-111661362D01*
X114781274Y-111675214D01*
X114727559Y-111721638D01*
X114657273Y-111731653D01*
X114607852Y-111713345D01*
X114529666Y-111663727D01*
X114490209Y-111649677D01*
X114365425Y-111605243D01*
X114365420Y-111605242D01*
X114358790Y-111602881D01*
X114351802Y-111602048D01*
X114351799Y-111602047D01*
X114222171Y-111586590D01*
X114178680Y-111581404D01*
X114171677Y-111582140D01*
X114171676Y-111582140D01*
X114005288Y-111599628D01*
X114005286Y-111599629D01*
X113998288Y-111600364D01*
X113826579Y-111658818D01*
X113799928Y-111675214D01*
X113678095Y-111750166D01*
X113678092Y-111750168D01*
X113672088Y-111753862D01*
X113667053Y-111758793D01*
X113667050Y-111758795D01*
X113549577Y-111873834D01*
X113542493Y-111880771D01*
X113444235Y-112033238D01*
X113441826Y-112039858D01*
X113441824Y-112039861D01*
X113384606Y-112197066D01*
X113382197Y-112203685D01*
X113359463Y-112383640D01*
X108837740Y-112383640D01*
X108728778Y-112273915D01*
X108728774Y-112273912D01*
X108723815Y-112268918D01*
X108716164Y-112264062D01*
X108601834Y-112191507D01*
X108570666Y-112171727D01*
X108495501Y-112144962D01*
X108406425Y-112113243D01*
X108406420Y-112113242D01*
X108399790Y-112110881D01*
X108392802Y-112110048D01*
X108392799Y-112110047D01*
X108264462Y-112094744D01*
X108219680Y-112089404D01*
X108212677Y-112090140D01*
X108212676Y-112090140D01*
X108046288Y-112107628D01*
X108046286Y-112107629D01*
X108039288Y-112108364D01*
X107995117Y-112123401D01*
X107912801Y-112151423D01*
X107841868Y-112154441D01*
X107780565Y-112118630D01*
X107748353Y-112055362D01*
X107746981Y-112046190D01*
X107746674Y-112043448D01*
X107737397Y-111960745D01*
X107731032Y-111942468D01*
X107680064Y-111796106D01*
X107680062Y-111796103D01*
X107677745Y-111789448D01*
X107581626Y-111635624D01*
X107576664Y-111630627D01*
X107458778Y-111511915D01*
X107458774Y-111511912D01*
X107453815Y-111506918D01*
X107442697Y-111499862D01*
X107340594Y-111435066D01*
X107300666Y-111409727D01*
X107225501Y-111382962D01*
X107136425Y-111351243D01*
X107136420Y-111351242D01*
X107129790Y-111348881D01*
X107122802Y-111348048D01*
X107122799Y-111348047D01*
X106999698Y-111333368D01*
X106949680Y-111327404D01*
X106942677Y-111328140D01*
X106942676Y-111328140D01*
X106776288Y-111345628D01*
X106776286Y-111345629D01*
X106769288Y-111346364D01*
X106618321Y-111397757D01*
X106609823Y-111400650D01*
X106597579Y-111404818D01*
X106589600Y-111409727D01*
X106497268Y-111466530D01*
X106428767Y-111485189D01*
X106361053Y-111463850D01*
X106315625Y-111409291D01*
X106312269Y-111400688D01*
X106270745Y-111281448D01*
X106174626Y-111127624D01*
X106115094Y-111067675D01*
X106051778Y-111003915D01*
X106051774Y-111003912D01*
X106046815Y-110998918D01*
X106039164Y-110994062D01*
X105987538Y-110961300D01*
X105893666Y-110901727D01*
X105844759Y-110884312D01*
X105729425Y-110843243D01*
X105729420Y-110843242D01*
X105722790Y-110840881D01*
X105715802Y-110840048D01*
X105715799Y-110840047D01*
X105585944Y-110824563D01*
X105542680Y-110819404D01*
X105535677Y-110820140D01*
X105535676Y-110820140D01*
X105369288Y-110837628D01*
X105369286Y-110837629D01*
X105362288Y-110838364D01*
X105190579Y-110896818D01*
X105184575Y-110900512D01*
X105042095Y-110988166D01*
X105042092Y-110988168D01*
X105036088Y-110991862D01*
X105031053Y-110996793D01*
X105031050Y-110996795D01*
X104972567Y-111054066D01*
X104906493Y-111118771D01*
X104808235Y-111271238D01*
X104805826Y-111277858D01*
X104805824Y-111277861D01*
X104751235Y-111427844D01*
X104746197Y-111441685D01*
X104723463Y-111621640D01*
X101873565Y-111621640D01*
X101979266Y-111520982D01*
X102079643Y-111369902D01*
X102144055Y-111200338D01*
X102146351Y-111184001D01*
X102168748Y-111024639D01*
X102168748Y-111024636D01*
X102169299Y-111020717D01*
X102169452Y-111009738D01*
X102169561Y-111001962D01*
X102169561Y-111001957D01*
X102169616Y-110998000D01*
X102149397Y-110817745D01*
X102145546Y-110806685D01*
X102104039Y-110687496D01*
X102100014Y-110675936D01*
X102096500Y-110605028D01*
X102131881Y-110543475D01*
X102194924Y-110510823D01*
X102219005Y-110508500D01*
X122248500Y-110508500D01*
X122316621Y-110528502D01*
G37*
%TD.AperFunction*%
%TA.AperFunction,Conductor*%
G36*
X99341882Y-111880502D02*
G01*
X99362856Y-111897405D01*
X105469907Y-118004456D01*
X105503933Y-118066768D01*
X105506211Y-118081256D01*
X105513163Y-118152160D01*
X105545050Y-118248014D01*
X105547573Y-118318965D01*
X105511337Y-118380018D01*
X105476740Y-118402893D01*
X105350281Y-118459195D01*
X105350274Y-118459199D01*
X105344248Y-118461882D01*
X105338907Y-118465762D01*
X105338906Y-118465763D01*
X105288843Y-118502136D01*
X105189747Y-118574134D01*
X105185326Y-118579044D01*
X105185325Y-118579045D01*
X105168349Y-118597899D01*
X105107903Y-118635139D01*
X105036920Y-118633787D01*
X104977935Y-118594274D01*
X104949498Y-118527635D01*
X104944182Y-118480243D01*
X104943397Y-118473245D01*
X104941080Y-118466591D01*
X104886064Y-118308606D01*
X104886062Y-118308603D01*
X104883745Y-118301948D01*
X104810880Y-118185338D01*
X104791359Y-118154098D01*
X104787626Y-118148124D01*
X104749767Y-118110000D01*
X104664778Y-118024415D01*
X104664774Y-118024412D01*
X104659815Y-118019418D01*
X104648697Y-118012362D01*
X104596224Y-117979062D01*
X104506666Y-117922227D01*
X104451081Y-117902434D01*
X104342425Y-117863743D01*
X104342420Y-117863742D01*
X104335790Y-117861381D01*
X104328802Y-117860548D01*
X104328799Y-117860547D01*
X104205698Y-117845868D01*
X104155680Y-117839904D01*
X104148677Y-117840640D01*
X104148676Y-117840640D01*
X103982288Y-117858128D01*
X103982286Y-117858129D01*
X103975288Y-117858864D01*
X103803579Y-117917318D01*
X103772003Y-117936744D01*
X103655095Y-118008666D01*
X103655092Y-118008668D01*
X103649088Y-118012362D01*
X103644053Y-118017293D01*
X103644050Y-118017295D01*
X103525004Y-118133874D01*
X103519493Y-118139271D01*
X103421235Y-118291738D01*
X103418826Y-118298358D01*
X103418824Y-118298361D01*
X103363789Y-118449568D01*
X103359197Y-118462185D01*
X103358314Y-118469175D01*
X103337831Y-118631312D01*
X103336463Y-118642140D01*
X103354163Y-118822660D01*
X103411418Y-118994773D01*
X103415065Y-119000795D01*
X103415066Y-119000797D01*
X103497632Y-119137130D01*
X103505380Y-119149924D01*
X103510269Y-119154987D01*
X103510270Y-119154988D01*
X103510774Y-119155510D01*
X103631382Y-119280402D01*
X103637278Y-119284260D01*
X103722875Y-119340273D01*
X103783159Y-119379722D01*
X103789763Y-119382178D01*
X103789765Y-119382179D01*
X103946558Y-119440490D01*
X103946560Y-119440490D01*
X103953168Y-119442948D01*
X104052770Y-119456238D01*
X104108408Y-119463662D01*
X104173285Y-119492498D01*
X104212273Y-119551831D01*
X104212993Y-119622824D01*
X104207311Y-119638529D01*
X104204473Y-119643444D01*
X104202433Y-119649724D01*
X104202432Y-119649725D01*
X104199153Y-119659818D01*
X104145458Y-119825072D01*
X104125496Y-120015000D01*
X104126186Y-120021565D01*
X104143863Y-120189749D01*
X104145458Y-120204928D01*
X104204473Y-120386556D01*
X104207776Y-120392278D01*
X104207777Y-120392279D01*
X104225773Y-120423448D01*
X104299960Y-120551944D01*
X104304378Y-120556851D01*
X104304379Y-120556852D01*
X104419317Y-120684504D01*
X104427747Y-120693866D01*
X104520581Y-120761314D01*
X104564061Y-120792904D01*
X104582248Y-120806118D01*
X104588276Y-120808802D01*
X104588278Y-120808803D01*
X104750681Y-120881109D01*
X104756712Y-120883794D01*
X104838332Y-120901143D01*
X104937056Y-120922128D01*
X104937061Y-120922128D01*
X104943513Y-120923500D01*
X105134487Y-120923500D01*
X105140209Y-120922284D01*
X105209776Y-120935008D01*
X105260879Y-120982271D01*
X105264906Y-120988920D01*
X105283380Y-121019424D01*
X105307180Y-121044069D01*
X105325287Y-121062820D01*
X105358219Y-121125717D01*
X105351919Y-121196433D01*
X105323745Y-121239442D01*
X100716592Y-125846595D01*
X100654280Y-125880621D01*
X100627497Y-125883500D01*
X97368751Y-125883500D01*
X97300630Y-125863498D01*
X97296157Y-125860276D01*
X97293815Y-125857918D01*
X97286164Y-125853062D01*
X97234538Y-125820300D01*
X97140666Y-125760727D01*
X97101209Y-125746677D01*
X97012464Y-125715076D01*
X96955000Y-125673382D01*
X96929200Y-125607239D01*
X96935033Y-125565319D01*
X96932802Y-125564746D01*
X96934555Y-125557920D01*
X96937055Y-125551338D01*
X96943325Y-125506727D01*
X96961748Y-125375639D01*
X96961748Y-125375636D01*
X96962299Y-125371717D01*
X96962616Y-125349000D01*
X96942397Y-125168745D01*
X96935889Y-125150056D01*
X96885064Y-125004106D01*
X96885062Y-125004103D01*
X96882745Y-124997448D01*
X96786626Y-124843624D01*
X96780110Y-124837062D01*
X96663778Y-124719915D01*
X96663774Y-124719912D01*
X96658815Y-124714918D01*
X96650688Y-124709760D01*
X96577380Y-124663238D01*
X96505666Y-124617727D01*
X96444961Y-124596111D01*
X96341425Y-124559243D01*
X96341420Y-124559242D01*
X96334790Y-124556881D01*
X96327802Y-124556048D01*
X96327799Y-124556047D01*
X96204698Y-124541368D01*
X96154680Y-124535404D01*
X96147677Y-124536140D01*
X96147671Y-124536140D01*
X96136871Y-124537275D01*
X96067033Y-124524501D01*
X96034609Y-124501060D01*
X95778521Y-124244972D01*
X95744495Y-124182660D01*
X95749560Y-124111845D01*
X95780723Y-124064633D01*
X95883266Y-123966982D01*
X95983643Y-123815902D01*
X96048055Y-123646338D01*
X96054899Y-123597642D01*
X96072748Y-123470639D01*
X96072748Y-123470636D01*
X96073299Y-123466717D01*
X96073452Y-123455738D01*
X96073561Y-123447962D01*
X96073561Y-123447957D01*
X96073616Y-123444000D01*
X96058629Y-123310390D01*
X96070913Y-123240466D01*
X96119052Y-123188281D01*
X96187761Y-123170407D01*
X96227761Y-123178247D01*
X96333168Y-123217448D01*
X96416995Y-123228633D01*
X96505980Y-123240507D01*
X96505984Y-123240507D01*
X96512961Y-123241438D01*
X96519972Y-123240800D01*
X96519976Y-123240800D01*
X96662459Y-123227832D01*
X96693600Y-123224998D01*
X96700302Y-123222820D01*
X96700304Y-123222820D01*
X96859409Y-123171124D01*
X96859412Y-123171123D01*
X96866108Y-123168947D01*
X97021912Y-123076069D01*
X97077118Y-123023497D01*
X97140243Y-122991005D01*
X97210914Y-122997798D01*
X97254643Y-123027214D01*
X97281382Y-123054902D01*
X97433159Y-123154222D01*
X97439763Y-123156678D01*
X97439765Y-123156679D01*
X97596558Y-123214990D01*
X97596560Y-123214990D01*
X97603168Y-123217448D01*
X97686995Y-123228633D01*
X97775980Y-123240507D01*
X97775984Y-123240507D01*
X97782961Y-123241438D01*
X97789972Y-123240800D01*
X97789976Y-123240800D01*
X97932459Y-123227832D01*
X97963600Y-123224998D01*
X97970302Y-123222820D01*
X97970304Y-123222820D01*
X98129409Y-123171124D01*
X98129412Y-123171123D01*
X98136108Y-123168947D01*
X98291912Y-123076069D01*
X98423266Y-122950982D01*
X98523643Y-122799902D01*
X98588055Y-122630338D01*
X98611011Y-122466998D01*
X98612748Y-122454639D01*
X98612748Y-122454636D01*
X98613299Y-122450717D01*
X98613616Y-122428000D01*
X98593397Y-122247745D01*
X98573524Y-122190677D01*
X98536064Y-122083106D01*
X98536062Y-122083103D01*
X98533745Y-122076448D01*
X98508111Y-122035424D01*
X98441359Y-121928598D01*
X98437626Y-121922624D01*
X98388933Y-121873590D01*
X98314778Y-121798915D01*
X98314774Y-121798912D01*
X98309815Y-121793918D01*
X98298697Y-121786862D01*
X98226962Y-121741338D01*
X98156666Y-121696727D01*
X98127463Y-121686328D01*
X97992425Y-121638243D01*
X97992420Y-121638242D01*
X97985790Y-121635881D01*
X97978802Y-121635048D01*
X97978799Y-121635047D01*
X97853355Y-121620089D01*
X97805680Y-121614404D01*
X97798677Y-121615140D01*
X97798675Y-121615140D01*
X97630071Y-121632861D01*
X97560233Y-121620089D01*
X97508386Y-121571587D01*
X97490992Y-121502754D01*
X97513573Y-121435444D01*
X97527806Y-121418456D01*
X98615284Y-120330978D01*
X98677596Y-120296952D01*
X98748411Y-120302017D01*
X98755627Y-120304966D01*
X98908677Y-120373108D01*
X98908685Y-120373111D01*
X98914712Y-120375794D01*
X99008112Y-120395647D01*
X99095056Y-120414128D01*
X99095061Y-120414128D01*
X99101513Y-120415500D01*
X99292487Y-120415500D01*
X99298939Y-120414128D01*
X99298944Y-120414128D01*
X99385888Y-120395647D01*
X99479288Y-120375794D01*
X99508745Y-120362679D01*
X99647722Y-120300803D01*
X99647724Y-120300802D01*
X99653752Y-120298118D01*
X99670876Y-120285677D01*
X99724561Y-120246672D01*
X99808253Y-120185866D01*
X99842082Y-120148295D01*
X99931621Y-120048852D01*
X99931622Y-120048851D01*
X99936040Y-120043944D01*
X99994314Y-119943010D01*
X100028223Y-119884279D01*
X100028224Y-119884278D01*
X100031527Y-119878556D01*
X100090542Y-119696928D01*
X100092393Y-119679323D01*
X100109814Y-119513565D01*
X100110504Y-119507000D01*
X100105169Y-119456238D01*
X100091232Y-119323635D01*
X100091232Y-119323633D01*
X100090542Y-119317072D01*
X100031527Y-119135444D01*
X99936040Y-118970056D01*
X99887864Y-118916551D01*
X99857146Y-118852544D01*
X99855500Y-118832241D01*
X99855500Y-118573059D01*
X99856059Y-118561203D01*
X99857789Y-118553463D01*
X99856189Y-118502543D01*
X99855562Y-118482611D01*
X99855500Y-118478653D01*
X99855500Y-118449568D01*
X99854946Y-118445179D01*
X99854013Y-118433337D01*
X99852811Y-118395094D01*
X99852562Y-118387169D01*
X99846580Y-118366579D01*
X99842570Y-118347216D01*
X99840875Y-118333796D01*
X99840875Y-118333795D01*
X99839882Y-118325936D01*
X99836966Y-118318571D01*
X99836965Y-118318567D01*
X99822874Y-118282979D01*
X99819035Y-118271769D01*
X99806145Y-118227400D01*
X99795225Y-118208935D01*
X99786534Y-118191195D01*
X99778635Y-118171244D01*
X99751482Y-118133871D01*
X99744967Y-118123952D01*
X99725493Y-118091023D01*
X99725490Y-118091019D01*
X99721453Y-118084193D01*
X99706289Y-118069029D01*
X99693448Y-118053995D01*
X99685501Y-118043057D01*
X99680841Y-118036643D01*
X99645247Y-118007197D01*
X99636468Y-117999208D01*
X94885171Y-113247911D01*
X94851145Y-113185599D01*
X94856210Y-113114784D01*
X94898757Y-113057948D01*
X94965277Y-113033137D01*
X95018184Y-113040719D01*
X95063168Y-113057448D01*
X95146995Y-113068633D01*
X95235980Y-113080507D01*
X95235984Y-113080507D01*
X95242961Y-113081438D01*
X95249972Y-113080800D01*
X95249976Y-113080800D01*
X95392459Y-113067832D01*
X95423600Y-113064998D01*
X95430302Y-113062820D01*
X95430304Y-113062820D01*
X95589409Y-113011124D01*
X95589412Y-113011123D01*
X95596108Y-113008947D01*
X95715126Y-112937998D01*
X95745860Y-112919677D01*
X95745862Y-112919676D01*
X95751912Y-112916069D01*
X95883266Y-112790982D01*
X95983643Y-112639902D01*
X96038974Y-112494243D01*
X96045555Y-112476920D01*
X96045556Y-112476918D01*
X96048055Y-112470338D01*
X96053703Y-112430151D01*
X96072748Y-112294639D01*
X96072748Y-112294636D01*
X96073299Y-112290717D01*
X96073452Y-112279738D01*
X96073561Y-112271962D01*
X96073561Y-112271957D01*
X96073616Y-112268000D01*
X96053397Y-112087745D01*
X96032569Y-112027935D01*
X96029057Y-111957027D01*
X96064438Y-111895475D01*
X96127480Y-111862822D01*
X96151561Y-111860500D01*
X99273761Y-111860500D01*
X99341882Y-111880502D01*
G37*
%TD.AperFunction*%
%TA.AperFunction,Conductor*%
G36*
X81872403Y-116366667D02*
G01*
X81928183Y-116410590D01*
X81951500Y-116483612D01*
X81951500Y-116537864D01*
X81950422Y-116554307D01*
X81946250Y-116586000D01*
X81951500Y-116625880D01*
X81951500Y-116625885D01*
X81958259Y-116677222D01*
X81967162Y-116744851D01*
X82028476Y-116892876D01*
X82033503Y-116899427D01*
X82033504Y-116899429D01*
X82101520Y-116988069D01*
X82101526Y-116988075D01*
X82126013Y-117019987D01*
X82132568Y-117025017D01*
X82151379Y-117039452D01*
X82163770Y-117050319D01*
X87937685Y-122824234D01*
X87948552Y-122836625D01*
X87968013Y-122861987D01*
X87974563Y-122867013D01*
X87999921Y-122886471D01*
X87999937Y-122886485D01*
X88049305Y-122924366D01*
X88095124Y-122959524D01*
X88243149Y-123020838D01*
X88402000Y-123041751D01*
X88433699Y-123037578D01*
X88450144Y-123036500D01*
X88572642Y-123036500D01*
X88640763Y-123056502D01*
X88687256Y-123110158D01*
X88697360Y-123180432D01*
X88688480Y-123208963D01*
X88689235Y-123209238D01*
X88640616Y-123342818D01*
X88627197Y-123379685D01*
X88604463Y-123559640D01*
X88608189Y-123597642D01*
X88619520Y-123713205D01*
X88606260Y-123782952D01*
X88557398Y-123834459D01*
X88494121Y-123851500D01*
X86547239Y-123851500D01*
X86479118Y-123831498D01*
X86458144Y-123814595D01*
X83944098Y-121300549D01*
X83910072Y-121238237D01*
X83915137Y-121167422D01*
X83957684Y-121110586D01*
X83968667Y-121103231D01*
X84047911Y-121055992D01*
X84061860Y-121047677D01*
X84061862Y-121047676D01*
X84067912Y-121044069D01*
X84199266Y-120918982D01*
X84299643Y-120767902D01*
X84355670Y-120620411D01*
X84361555Y-120604920D01*
X84361556Y-120604918D01*
X84364055Y-120598338D01*
X84369364Y-120560565D01*
X84388748Y-120422639D01*
X84388748Y-120422636D01*
X84389299Y-120418717D01*
X84389616Y-120396000D01*
X84369397Y-120215745D01*
X84351908Y-120165524D01*
X84312064Y-120051106D01*
X84312062Y-120051103D01*
X84309745Y-120044448D01*
X84213626Y-119890624D01*
X84207325Y-119884279D01*
X84090778Y-119766915D01*
X84090774Y-119766912D01*
X84085815Y-119761918D01*
X84077009Y-119756329D01*
X84000452Y-119707745D01*
X83932666Y-119664727D01*
X83903463Y-119654328D01*
X83768425Y-119606243D01*
X83768420Y-119606242D01*
X83761790Y-119603881D01*
X83754802Y-119603048D01*
X83754799Y-119603047D01*
X83631698Y-119588368D01*
X83581680Y-119582404D01*
X83574677Y-119583140D01*
X83574676Y-119583140D01*
X83408288Y-119600628D01*
X83408286Y-119600629D01*
X83401288Y-119601364D01*
X83229579Y-119659818D01*
X83185500Y-119686936D01*
X83081095Y-119751166D01*
X83081092Y-119751168D01*
X83075088Y-119754862D01*
X83070053Y-119759793D01*
X83070050Y-119759795D01*
X82950525Y-119876843D01*
X82945493Y-119881771D01*
X82941677Y-119887693D01*
X82865418Y-120006023D01*
X82811704Y-120052448D01*
X82741417Y-120062463D01*
X82676874Y-120032888D01*
X82670412Y-120026863D01*
X81208404Y-118564855D01*
X81174378Y-118502543D01*
X81171499Y-118475760D01*
X81171499Y-116750167D01*
X81191501Y-116682046D01*
X81245157Y-116635553D01*
X81286078Y-116624686D01*
X81319579Y-116621637D01*
X81326600Y-116620998D01*
X81333302Y-116618820D01*
X81333304Y-116618820D01*
X81492409Y-116567124D01*
X81492412Y-116567123D01*
X81499108Y-116564947D01*
X81618126Y-116493998D01*
X81648860Y-116475677D01*
X81648862Y-116475676D01*
X81654912Y-116472069D01*
X81660018Y-116467207D01*
X81738608Y-116392367D01*
X81801733Y-116359874D01*
X81872403Y-116366667D01*
G37*
%TD.AperFunction*%
%TA.AperFunction,Conductor*%
G36*
X82945125Y-110528502D02*
G01*
X82991618Y-110582158D01*
X83001722Y-110652432D01*
X82972228Y-110717012D01*
X82954575Y-110733791D01*
X82954092Y-110734168D01*
X82948088Y-110737862D01*
X82943054Y-110742792D01*
X82827689Y-110855766D01*
X82818493Y-110864771D01*
X82720235Y-111017238D01*
X82717826Y-111023858D01*
X82717824Y-111023861D01*
X82660606Y-111181066D01*
X82658197Y-111187685D01*
X82635463Y-111367640D01*
X82653163Y-111548160D01*
X82710418Y-111720273D01*
X82714065Y-111726295D01*
X82714066Y-111726297D01*
X82795342Y-111860500D01*
X82804380Y-111875424D01*
X82809269Y-111880487D01*
X82809270Y-111880488D01*
X82811464Y-111882760D01*
X82930382Y-112005902D01*
X82955224Y-112022158D01*
X83057987Y-112089404D01*
X83082159Y-112105222D01*
X83088763Y-112107678D01*
X83088765Y-112107679D01*
X83245558Y-112165990D01*
X83245560Y-112165990D01*
X83252168Y-112168448D01*
X83335995Y-112179633D01*
X83424980Y-112191507D01*
X83424984Y-112191507D01*
X83431961Y-112192438D01*
X83438972Y-112191800D01*
X83438976Y-112191800D01*
X83581459Y-112178832D01*
X83612600Y-112175998D01*
X83619302Y-112173820D01*
X83619304Y-112173820D01*
X83778409Y-112122124D01*
X83778412Y-112122123D01*
X83785108Y-112119947D01*
X83893450Y-112055362D01*
X83934860Y-112030677D01*
X83934862Y-112030676D01*
X83940912Y-112027069D01*
X84072266Y-111901982D01*
X84172643Y-111750902D01*
X84219082Y-111628653D01*
X84234555Y-111587920D01*
X84234556Y-111587918D01*
X84237055Y-111581338D01*
X84238035Y-111574366D01*
X84261748Y-111405639D01*
X84261748Y-111405636D01*
X84262299Y-111401717D01*
X84262616Y-111379000D01*
X84242397Y-111198745D01*
X84240080Y-111192091D01*
X84185064Y-111034106D01*
X84185062Y-111034103D01*
X84182745Y-111027448D01*
X84099700Y-110894547D01*
X84090359Y-110879598D01*
X84086626Y-110873624D01*
X84063092Y-110849925D01*
X83963778Y-110749915D01*
X83963774Y-110749912D01*
X83958815Y-110744918D01*
X83952460Y-110740885D01*
X83952255Y-110740652D01*
X83947379Y-110736731D01*
X83948068Y-110735874D01*
X83905661Y-110687496D01*
X83895156Y-110617281D01*
X83924280Y-110552533D01*
X83983786Y-110513809D01*
X84019974Y-110508500D01*
X88331863Y-110508500D01*
X88399984Y-110528502D01*
X88446477Y-110582158D01*
X88456581Y-110652432D01*
X88427087Y-110717012D01*
X88420022Y-110724522D01*
X88406493Y-110737771D01*
X88308235Y-110890238D01*
X88305826Y-110896858D01*
X88305824Y-110896861D01*
X88259600Y-111023861D01*
X88246197Y-111060685D01*
X88223463Y-111240640D01*
X88241163Y-111421160D01*
X88298418Y-111593273D01*
X88302065Y-111599295D01*
X88302066Y-111599297D01*
X88386641Y-111738947D01*
X88392380Y-111748424D01*
X88397269Y-111753487D01*
X88397270Y-111753488D01*
X88449317Y-111807384D01*
X88518382Y-111878902D01*
X88524278Y-111882760D01*
X88653912Y-111967590D01*
X88670159Y-111978222D01*
X88676763Y-111980678D01*
X88676765Y-111980679D01*
X88740635Y-112004432D01*
X88840168Y-112041448D01*
X88847151Y-112042380D01*
X88847152Y-112042380D01*
X88892256Y-112048398D01*
X88957132Y-112077234D01*
X88996120Y-112136567D01*
X89000990Y-112160997D01*
X89003163Y-112183160D01*
X89060418Y-112355273D01*
X89064065Y-112361295D01*
X89064066Y-112361297D01*
X89144581Y-112494243D01*
X89154380Y-112510424D01*
X89159269Y-112515487D01*
X89159270Y-112515488D01*
X89212727Y-112570844D01*
X89280382Y-112640902D01*
X89286278Y-112644760D01*
X89415912Y-112729590D01*
X89432159Y-112740222D01*
X89438763Y-112742678D01*
X89438765Y-112742679D01*
X89595558Y-112800990D01*
X89595560Y-112800990D01*
X89602168Y-112803448D01*
X89609153Y-112804380D01*
X89609157Y-112804381D01*
X89671547Y-112812706D01*
X89704986Y-112817167D01*
X89769862Y-112846003D01*
X89777416Y-112852965D01*
X90837647Y-113913196D01*
X90871673Y-113975508D01*
X90866608Y-114046323D01*
X90824061Y-114103159D01*
X90761723Y-114127601D01*
X90692321Y-114134895D01*
X90647289Y-114139628D01*
X90647288Y-114139628D01*
X90640288Y-114140364D01*
X90468579Y-114198818D01*
X90432302Y-114221136D01*
X90320095Y-114290166D01*
X90320092Y-114290168D01*
X90314088Y-114293862D01*
X90309054Y-114298792D01*
X90309050Y-114298795D01*
X90189525Y-114415843D01*
X90184493Y-114420771D01*
X90160248Y-114458392D01*
X90106534Y-114504817D01*
X90039418Y-114515251D01*
X89986324Y-114508920D01*
X89931680Y-114502404D01*
X89924677Y-114503140D01*
X89924676Y-114503140D01*
X89758288Y-114520628D01*
X89758286Y-114520629D01*
X89751288Y-114521364D01*
X89744628Y-114523631D01*
X89744620Y-114523633D01*
X89725157Y-114530259D01*
X89654224Y-114533276D01*
X89592921Y-114497466D01*
X89577698Y-114477750D01*
X89551358Y-114435596D01*
X89551356Y-114435594D01*
X89547626Y-114429624D01*
X89533941Y-114415843D01*
X89424778Y-114305915D01*
X89424774Y-114305912D01*
X89419815Y-114300918D01*
X89412164Y-114296062D01*
X89289544Y-114218246D01*
X89266666Y-114203727D01*
X89203369Y-114181188D01*
X89102425Y-114145243D01*
X89102420Y-114145242D01*
X89095790Y-114142881D01*
X89088802Y-114142048D01*
X89088799Y-114142047D01*
X88960462Y-114126744D01*
X88915680Y-114121404D01*
X88908677Y-114122140D01*
X88908676Y-114122140D01*
X88742288Y-114139628D01*
X88742286Y-114139629D01*
X88735288Y-114140364D01*
X88563579Y-114198818D01*
X88527302Y-114221136D01*
X88415095Y-114290166D01*
X88415092Y-114290168D01*
X88409088Y-114293862D01*
X88404054Y-114298792D01*
X88404050Y-114298795D01*
X88284525Y-114415843D01*
X88279493Y-114420771D01*
X88181235Y-114573238D01*
X88178826Y-114579858D01*
X88178824Y-114579861D01*
X88121606Y-114737066D01*
X88119197Y-114743685D01*
X88096463Y-114923640D01*
X88114163Y-115104160D01*
X88171418Y-115276273D01*
X88175065Y-115282295D01*
X88175066Y-115282297D01*
X88254444Y-115413366D01*
X88265380Y-115431424D01*
X88270269Y-115436487D01*
X88270270Y-115436488D01*
X88337203Y-115505798D01*
X88391382Y-115561902D01*
X88397278Y-115565760D01*
X88532939Y-115654534D01*
X88543159Y-115661222D01*
X88549763Y-115663678D01*
X88549765Y-115663679D01*
X88706558Y-115721990D01*
X88706560Y-115721990D01*
X88713168Y-115724448D01*
X88796995Y-115735633D01*
X88885980Y-115747507D01*
X88885984Y-115747507D01*
X88892961Y-115748438D01*
X88899972Y-115747800D01*
X88899976Y-115747800D01*
X89042459Y-115734832D01*
X89073600Y-115731998D01*
X89080300Y-115729821D01*
X89080305Y-115729820D01*
X89111539Y-115719671D01*
X89182507Y-115717644D01*
X89243305Y-115754306D01*
X89258251Y-115774233D01*
X89275641Y-115802947D01*
X89281380Y-115812424D01*
X89286269Y-115817487D01*
X89286270Y-115817488D01*
X89341328Y-115874502D01*
X89407382Y-115942902D01*
X89413278Y-115946760D01*
X89542912Y-116031590D01*
X89559159Y-116042222D01*
X89565763Y-116044678D01*
X89565765Y-116044679D01*
X89722558Y-116102990D01*
X89722560Y-116102990D01*
X89729168Y-116105448D01*
X89812822Y-116116610D01*
X89901980Y-116128507D01*
X89901984Y-116128507D01*
X89908961Y-116129438D01*
X89915972Y-116128800D01*
X89915976Y-116128800D01*
X90058459Y-116115832D01*
X90089600Y-116112998D01*
X90096302Y-116110820D01*
X90096304Y-116110820D01*
X90255409Y-116059124D01*
X90255412Y-116059123D01*
X90262108Y-116056947D01*
X90381126Y-115985998D01*
X90411860Y-115967677D01*
X90411862Y-115967676D01*
X90417912Y-115964069D01*
X90549266Y-115838982D01*
X90581206Y-115790908D01*
X90635564Y-115745238D01*
X90702818Y-115735743D01*
X90739746Y-115740670D01*
X90790981Y-115747507D01*
X90790984Y-115747507D01*
X90797961Y-115748438D01*
X90804972Y-115747800D01*
X90804976Y-115747800D01*
X90947459Y-115734832D01*
X90978600Y-115731998D01*
X90985302Y-115729820D01*
X90985304Y-115729820D01*
X91144409Y-115678124D01*
X91144412Y-115678123D01*
X91151108Y-115675947D01*
X91158987Y-115671250D01*
X91160316Y-115670908D01*
X91163574Y-115669430D01*
X91163834Y-115670003D01*
X91227743Y-115653553D01*
X91295151Y-115675838D01*
X91339811Y-115731029D01*
X91349500Y-115779482D01*
X91349500Y-117426864D01*
X91348422Y-117443307D01*
X91344250Y-117475000D01*
X91345328Y-117483189D01*
X91349500Y-117514880D01*
X91349500Y-117514885D01*
X91357872Y-117578476D01*
X91364059Y-117625469D01*
X91365162Y-117633851D01*
X91426476Y-117781876D01*
X91431503Y-117788427D01*
X91431504Y-117788429D01*
X91499520Y-117877069D01*
X91499526Y-117877075D01*
X91524013Y-117908987D01*
X91530568Y-117914017D01*
X91549379Y-117928452D01*
X91561770Y-117939319D01*
X92488647Y-118866196D01*
X92522673Y-118928508D01*
X92517608Y-118999323D01*
X92475061Y-119056159D01*
X92412723Y-119080601D01*
X92343321Y-119087895D01*
X92298289Y-119092628D01*
X92298288Y-119092628D01*
X92291288Y-119093364D01*
X92119579Y-119151818D01*
X92067886Y-119183620D01*
X91999388Y-119202278D01*
X91931674Y-119180940D01*
X91886245Y-119126380D01*
X91877092Y-119058766D01*
X91881748Y-119025639D01*
X91881748Y-119025636D01*
X91882299Y-119021717D01*
X91882496Y-119007598D01*
X91882561Y-119002962D01*
X91882561Y-119002957D01*
X91882616Y-118999000D01*
X91862397Y-118818745D01*
X91860080Y-118812091D01*
X91805064Y-118654106D01*
X91805062Y-118654103D01*
X91802745Y-118647448D01*
X91763284Y-118584297D01*
X91710359Y-118499598D01*
X91706626Y-118493624D01*
X91694986Y-118481902D01*
X91583778Y-118369915D01*
X91583774Y-118369912D01*
X91578815Y-118364918D01*
X91567697Y-118357862D01*
X91517389Y-118325936D01*
X91425666Y-118267727D01*
X91396463Y-118257328D01*
X91261425Y-118209243D01*
X91261420Y-118209242D01*
X91254790Y-118206881D01*
X91247802Y-118206048D01*
X91247799Y-118206047D01*
X91123144Y-118191183D01*
X91074680Y-118185404D01*
X91067677Y-118186140D01*
X91067676Y-118186140D01*
X90901288Y-118203628D01*
X90901286Y-118203629D01*
X90894288Y-118204364D01*
X90722579Y-118262818D01*
X90668693Y-118295969D01*
X90574095Y-118354166D01*
X90574092Y-118354168D01*
X90568088Y-118357862D01*
X90563053Y-118362793D01*
X90563050Y-118362795D01*
X90444740Y-118478653D01*
X90438493Y-118484771D01*
X90340235Y-118637238D01*
X90337826Y-118643858D01*
X90337824Y-118643861D01*
X90290271Y-118774512D01*
X90278197Y-118807685D01*
X90255463Y-118987640D01*
X90273163Y-119168160D01*
X90330418Y-119340273D01*
X90334065Y-119346295D01*
X90334066Y-119346297D01*
X90414581Y-119479243D01*
X90424380Y-119495424D01*
X90429269Y-119500487D01*
X90429270Y-119500488D01*
X90458298Y-119530547D01*
X90550382Y-119625902D01*
X90556278Y-119629760D01*
X90556279Y-119629761D01*
X90593267Y-119653966D01*
X90639315Y-119708004D01*
X90649279Y-119775190D01*
X90644816Y-119810523D01*
X90636463Y-119876640D01*
X90654163Y-120057160D01*
X90711418Y-120229273D01*
X90715065Y-120235295D01*
X90715066Y-120235297D01*
X90800154Y-120375794D01*
X90805380Y-120384424D01*
X90810269Y-120389487D01*
X90810270Y-120389488D01*
X90842284Y-120422639D01*
X90931382Y-120514902D01*
X90942333Y-120522068D01*
X90988381Y-120576104D01*
X90997905Y-120646459D01*
X90967881Y-120710794D01*
X90907841Y-120748685D01*
X90873340Y-120753500D01*
X90306944Y-120753500D01*
X90239430Y-120733885D01*
X90176773Y-120694122D01*
X90155666Y-120680727D01*
X90126463Y-120670328D01*
X89991425Y-120622243D01*
X89991420Y-120622242D01*
X89984790Y-120619881D01*
X89977802Y-120619048D01*
X89977799Y-120619047D01*
X89854698Y-120604368D01*
X89804680Y-120598404D01*
X89797677Y-120599140D01*
X89797676Y-120599140D01*
X89631288Y-120616628D01*
X89631286Y-120616629D01*
X89624288Y-120617364D01*
X89452579Y-120675818D01*
X89421309Y-120695056D01*
X89352810Y-120713714D01*
X89287774Y-120694123D01*
X89266666Y-120680727D01*
X89237463Y-120670328D01*
X89102425Y-120622243D01*
X89102420Y-120622242D01*
X89095790Y-120619881D01*
X89088802Y-120619048D01*
X89088799Y-120619047D01*
X88965698Y-120604368D01*
X88915680Y-120598404D01*
X88908677Y-120599140D01*
X88908676Y-120599140D01*
X88742288Y-120616628D01*
X88742286Y-120616629D01*
X88735288Y-120617364D01*
X88563579Y-120675818D01*
X88532310Y-120695055D01*
X88415095Y-120767166D01*
X88415092Y-120767168D01*
X88409088Y-120770862D01*
X88404053Y-120775793D01*
X88404050Y-120775795D01*
X88284525Y-120892843D01*
X88279493Y-120897771D01*
X88181235Y-121050238D01*
X88178826Y-121056858D01*
X88178825Y-121056859D01*
X88169773Y-121081729D01*
X88127677Y-121138900D01*
X88061355Y-121164237D01*
X87991864Y-121149695D01*
X87962277Y-121127728D01*
X83205405Y-116370856D01*
X83171379Y-116308544D01*
X83168500Y-116281761D01*
X83168500Y-115518248D01*
X83189552Y-115448521D01*
X83230465Y-115386942D01*
X83283643Y-115306902D01*
X83348055Y-115137338D01*
X83348854Y-115131652D01*
X83384907Y-115071089D01*
X83448440Y-115039402D01*
X83514552Y-115045335D01*
X83626558Y-115086990D01*
X83626560Y-115086990D01*
X83633168Y-115089448D01*
X83716995Y-115100633D01*
X83805980Y-115112507D01*
X83805984Y-115112507D01*
X83812961Y-115113438D01*
X83819972Y-115112800D01*
X83819976Y-115112800D01*
X83962459Y-115099832D01*
X83993600Y-115096998D01*
X84000302Y-115094820D01*
X84000304Y-115094820D01*
X84159409Y-115043124D01*
X84159412Y-115043123D01*
X84166108Y-115040947D01*
X84269273Y-114979448D01*
X84315860Y-114951677D01*
X84315862Y-114951676D01*
X84321912Y-114948069D01*
X84453266Y-114822982D01*
X84553643Y-114671902D01*
X84603276Y-114541243D01*
X84615555Y-114508920D01*
X84615556Y-114508918D01*
X84618055Y-114502338D01*
X84628977Y-114424627D01*
X84642748Y-114326639D01*
X84642748Y-114326636D01*
X84643299Y-114322717D01*
X84643398Y-114315630D01*
X86211937Y-114315630D01*
X86229637Y-114496150D01*
X86286892Y-114668263D01*
X86290539Y-114674285D01*
X86290540Y-114674287D01*
X86377037Y-114817111D01*
X86380854Y-114823414D01*
X86506856Y-114953892D01*
X86526279Y-114966602D01*
X86646596Y-115045335D01*
X86658633Y-115053212D01*
X86665237Y-115055668D01*
X86665239Y-115055669D01*
X86822032Y-115113980D01*
X86822034Y-115113980D01*
X86828642Y-115116438D01*
X86912469Y-115127623D01*
X87001454Y-115139497D01*
X87001458Y-115139497D01*
X87008435Y-115140428D01*
X87015446Y-115139790D01*
X87015450Y-115139790D01*
X87157933Y-115126822D01*
X87189074Y-115123988D01*
X87195776Y-115121810D01*
X87195778Y-115121810D01*
X87354883Y-115070114D01*
X87354886Y-115070113D01*
X87361582Y-115067937D01*
X87502520Y-114983921D01*
X87511334Y-114978667D01*
X87511336Y-114978666D01*
X87517386Y-114975059D01*
X87648740Y-114849972D01*
X87749117Y-114698892D01*
X87809900Y-114538881D01*
X87811029Y-114535910D01*
X87811030Y-114535908D01*
X87813529Y-114529328D01*
X87815088Y-114518238D01*
X87838222Y-114353629D01*
X87838222Y-114353626D01*
X87838773Y-114349707D01*
X87839090Y-114326990D01*
X87818871Y-114146735D01*
X87816396Y-114139628D01*
X87761538Y-113982096D01*
X87761536Y-113982093D01*
X87759219Y-113975438D01*
X87713158Y-113901724D01*
X87666833Y-113827588D01*
X87663100Y-113821614D01*
X87633387Y-113791693D01*
X87540252Y-113697905D01*
X87540248Y-113697902D01*
X87535289Y-113692908D01*
X87524171Y-113685852D01*
X87461569Y-113646124D01*
X87382140Y-113595717D01*
X87316956Y-113572506D01*
X87217899Y-113537233D01*
X87217894Y-113537232D01*
X87211264Y-113534871D01*
X87204276Y-113534038D01*
X87204273Y-113534037D01*
X87081172Y-113519358D01*
X87031154Y-113513394D01*
X87024151Y-113514130D01*
X87024150Y-113514130D01*
X86857762Y-113531618D01*
X86857760Y-113531619D01*
X86850762Y-113532354D01*
X86679053Y-113590808D01*
X86673049Y-113594502D01*
X86530569Y-113682156D01*
X86530566Y-113682158D01*
X86524562Y-113685852D01*
X86519527Y-113690783D01*
X86519524Y-113690785D01*
X86400868Y-113806982D01*
X86394967Y-113812761D01*
X86296709Y-113965228D01*
X86294300Y-113971848D01*
X86294298Y-113971851D01*
X86242891Y-114113091D01*
X86234671Y-114135675D01*
X86211937Y-114315630D01*
X84643398Y-114315630D01*
X84643452Y-114311738D01*
X84643561Y-114303962D01*
X84643561Y-114303957D01*
X84643616Y-114300000D01*
X84623397Y-114119745D01*
X84621080Y-114113091D01*
X84566064Y-113955106D01*
X84566062Y-113955103D01*
X84563745Y-113948448D01*
X84521215Y-113880385D01*
X84471359Y-113800598D01*
X84467626Y-113794624D01*
X84453525Y-113780424D01*
X84344778Y-113670915D01*
X84344774Y-113670912D01*
X84339815Y-113665918D01*
X84328697Y-113658862D01*
X84275912Y-113625364D01*
X84186666Y-113568727D01*
X84147209Y-113554677D01*
X84022425Y-113510243D01*
X84022420Y-113510242D01*
X84015790Y-113507881D01*
X84008802Y-113507048D01*
X84008799Y-113507047D01*
X83885698Y-113492368D01*
X83835680Y-113486404D01*
X83828677Y-113487140D01*
X83828676Y-113487140D01*
X83662288Y-113504628D01*
X83662286Y-113504629D01*
X83655288Y-113505364D01*
X83483579Y-113563818D01*
X83433703Y-113594502D01*
X83335095Y-113655166D01*
X83335092Y-113655168D01*
X83329088Y-113658862D01*
X83324053Y-113663793D01*
X83324050Y-113663795D01*
X83209728Y-113775748D01*
X83199493Y-113785771D01*
X83101235Y-113938238D01*
X83098826Y-113944858D01*
X83098824Y-113944861D01*
X83058883Y-114054598D01*
X83039197Y-114108685D01*
X83037633Y-114108116D01*
X83006494Y-114162123D01*
X82943409Y-114194692D01*
X82877225Y-114189682D01*
X82752428Y-114145244D01*
X82752422Y-114145243D01*
X82745790Y-114142881D01*
X82738802Y-114142048D01*
X82738799Y-114142047D01*
X82610462Y-114126744D01*
X82565680Y-114121404D01*
X82558677Y-114122140D01*
X82558676Y-114122140D01*
X82392288Y-114139628D01*
X82392286Y-114139629D01*
X82385288Y-114140364D01*
X82213579Y-114198818D01*
X82177302Y-114221136D01*
X82065095Y-114290166D01*
X82065092Y-114290168D01*
X82059088Y-114293862D01*
X82008915Y-114342995D01*
X81946251Y-114376364D01*
X81875493Y-114370558D01*
X81819106Y-114327419D01*
X81801772Y-114294416D01*
X81769745Y-114202448D01*
X81728021Y-114135675D01*
X81677359Y-114054598D01*
X81673626Y-114048624D01*
X81646532Y-114021340D01*
X81550778Y-113924915D01*
X81550774Y-113924912D01*
X81545815Y-113919918D01*
X81537688Y-113914760D01*
X81450723Y-113859571D01*
X81392666Y-113822727D01*
X81331961Y-113801111D01*
X81228425Y-113764243D01*
X81228420Y-113764242D01*
X81221790Y-113761881D01*
X81214802Y-113761048D01*
X81214799Y-113761047D01*
X81084961Y-113745565D01*
X81041680Y-113740404D01*
X81034677Y-113741140D01*
X81034676Y-113741140D01*
X80868288Y-113758628D01*
X80868286Y-113758629D01*
X80861288Y-113759364D01*
X80689579Y-113817818D01*
X80657876Y-113837322D01*
X80583522Y-113883065D01*
X80515021Y-113901724D01*
X80447307Y-113880385D01*
X80401879Y-113825826D01*
X80391500Y-113775748D01*
X80391500Y-110634500D01*
X80411502Y-110566379D01*
X80465158Y-110519886D01*
X80517500Y-110508500D01*
X82877004Y-110508500D01*
X82945125Y-110528502D01*
G37*
%TD.AperFunction*%
M02*
