M48
; DRILL file {KiCad 6.0.5-a6ca702e91~116~ubuntu21.10.1} date Sat 21 May 2022 14:01:29
; FORMAT={-:-/ absolute / metric / decimal}
; #@! TF.CreationDate,2022-05-21T14:01:29+10:00
; #@! TF.GenerationSoftware,Kicad,Pcbnew,6.0.5-a6ca702e91~116~ubuntu21.10.1
; #@! TF.FileFunction,Plated,1,4,PTH
FMAT,2
METRIC
; #@! TA.AperFunction,Plated,PTH,ViaDrill
T1C0.300
; #@! TA.AperFunction,Plated,PTH,ViaDrill
T2C0.400
; #@! TA.AperFunction,Plated,PTH,ComponentDrill
T3C1.000
%
G90
G05
T1
X80.528Y-113.792
X80.782Y-120.396
X81.036Y-114.554
X81.036Y-132.334
X81.163Y-115.824
X81.29Y-116.713
X81.29Y-123.571
X81.29Y-129.667
X82.052Y-133.604
X82.56Y-114.935
X83.195Y-125.476
X83.449Y-111.379
X83.576Y-120.396
X83.83Y-114.3
X84.211Y-125.984
X84.973Y-125.095
X85.1Y-116.713
X85.862Y-117.475
X86.37Y-131.064
X86.497Y-126.238
X86.624Y-118.237
X87.025Y-114.327
X87.513Y-127.381
X88.91Y-114.935
X88.91Y-121.412
X89.037Y-111.252
X89.418Y-123.571
X89.799Y-112.014
X89.799Y-121.412
X89.799Y-127.635
X89.799Y-133.604
X89.926Y-115.316
X90.053Y-125.857
X90.815Y-114.935
X91.069Y-118.999
X91.196Y-128.235
X91.45Y-119.888
X92.466Y-119.888
X92.974Y-131.445
X93.101Y-112.395
X93.101Y-115.189
X93.99Y-130.683
X94.371Y-115.189
X95.26Y-112.268
X95.26Y-123.444
X95.387Y-119.634
X96.149Y-123.952
X96.149Y-125.349
X96.53Y-122.428
X96.657Y-119.507
X96.784Y-126.492
X97.292Y-133.858
X97.8Y-122.428
X100.34Y-124.587
X101.102Y-125.095
X101.356Y-110.998
X101.356Y-123.317
X102.118Y-124.079
X102.626Y-128.27
X102.88Y-110.744
X103.642Y-126.619
X104.15Y-118.653
X104.277Y-128.778
X105.42Y-111.252
X105.42Y-126.492
X105.928Y-120.523
X106.309Y-117.983
X106.69Y-126.492
X106.944Y-111.319
X107.517Y-115.927
X107.579Y-120.269
X108.214Y-112.903
X108.341Y-115.951
X108.976Y-129.667
X109.484Y-115.331
X110.119Y-113.284
X110.754Y-111.379
X111.262Y-124.841
X112.278Y-124.714
X113.802Y-118.237
X114.056Y-119.761
X114.437Y-123.698
X115.326Y-118.999
X115.453Y-115.57
X115.707Y-112.395
X115.961Y-124.079
X116.596Y-119.761
X117.231Y-115.697
X117.866Y-126.619
X118.501Y-115.189
X118.755Y-126.746
X119.39Y-118.11
X119.898Y-115.062
X121.387Y-124.46
X121.422Y-131.191
X121.549Y-126.873
X121.676Y-120.015
X121.93Y-115.062
X121.93Y-121.412
T2
X99.197Y-119.507
X100.467Y-119.507
X105.039Y-120.015
X105.293Y-123.19
X105.801Y-119.253
T3
X113.421Y-133.096
X115.961Y-133.096
X118.501Y-133.096
X121.041Y-133.096
T0
M30
