%TF.GenerationSoftware,KiCad,Pcbnew,6.0.5-a6ca702e91~116~ubuntu21.10.1*%
%TF.CreationDate,2022-05-27T18:53:49+10:00*%
%TF.ProjectId,FlarmDisplay,466c6172-6d44-4697-9370-6c61792e6b69,rev?*%
%TF.SameCoordinates,Original*%
%TF.FileFunction,Soldermask,Bot*%
%TF.FilePolarity,Negative*%
%FSLAX46Y46*%
G04 Gerber Fmt 4.6, Leading zero omitted, Abs format (unit mm)*
G04 Created by KiCad (PCBNEW 6.0.5-a6ca702e91~116~ubuntu21.10.1) date 2022-05-27 18:53:49*
%MOMM*%
%LPD*%
G01*
G04 APERTURE LIST*
G04 Aperture macros list*
%AMRoundRect*
0 Rectangle with rounded corners*
0 $1 Rounding radius*
0 $2 $3 $4 $5 $6 $7 $8 $9 X,Y pos of 4 corners*
0 Add a 4 corners polygon primitive as box body*
4,1,4,$2,$3,$4,$5,$6,$7,$8,$9,$2,$3,0*
0 Add four circle primitives for the rounded corners*
1,1,$1+$1,$2,$3*
1,1,$1+$1,$4,$5*
1,1,$1+$1,$6,$7*
1,1,$1+$1,$8,$9*
0 Add four rect primitives between the rounded corners*
20,1,$1+$1,$2,$3,$4,$5,0*
20,1,$1+$1,$4,$5,$6,$7,0*
20,1,$1+$1,$6,$7,$8,$9,0*
20,1,$1+$1,$8,$9,$2,$3,0*%
G04 Aperture macros list end*
%ADD10RoundRect,0.150000X-0.512500X-0.150000X0.512500X-0.150000X0.512500X0.150000X-0.512500X0.150000X0*%
%ADD11R,1.700000X1.700000*%
%ADD12O,1.700000X1.700000*%
%ADD13RoundRect,0.140000X-0.170000X0.140000X-0.170000X-0.140000X0.170000X-0.140000X0.170000X0.140000X0*%
%ADD14RoundRect,0.140000X0.170000X-0.140000X0.170000X0.140000X-0.170000X0.140000X-0.170000X-0.140000X0*%
%ADD15RoundRect,0.140000X0.140000X0.170000X-0.140000X0.170000X-0.140000X-0.170000X0.140000X-0.170000X0*%
%ADD16RoundRect,0.140000X-0.140000X-0.170000X0.140000X-0.170000X0.140000X0.170000X-0.140000X0.170000X0*%
%ADD17RoundRect,0.135000X-0.185000X0.135000X-0.185000X-0.135000X0.185000X-0.135000X0.185000X0.135000X0*%
%ADD18C,2.000000*%
%ADD19R,2.000000X1.500000*%
%ADD20R,2.000000X3.800000*%
%ADD21RoundRect,0.062500X-0.062500X0.325000X-0.062500X-0.325000X0.062500X-0.325000X0.062500X0.325000X0*%
%ADD22RoundRect,0.062500X-0.325000X0.062500X-0.325000X-0.062500X0.325000X-0.062500X0.325000X0.062500X0*%
%ADD23R,2.450000X2.450000*%
%ADD24RoundRect,0.250000X0.475000X-0.250000X0.475000X0.250000X-0.475000X0.250000X-0.475000X-0.250000X0*%
%ADD25RoundRect,0.062500X0.062500X-0.375000X0.062500X0.375000X-0.062500X0.375000X-0.062500X-0.375000X0*%
%ADD26RoundRect,0.062500X0.375000X-0.062500X0.375000X0.062500X-0.375000X0.062500X-0.375000X-0.062500X0*%
%ADD27R,3.450000X3.450000*%
%ADD28R,1.400000X1.200000*%
%ADD29R,0.700000X3.400000*%
%ADD30R,3.150000X2.800000*%
G04 APERTURE END LIST*
D10*
X118115500Y-113599000D03*
X118115500Y-112649000D03*
X118115500Y-111699000D03*
X120390500Y-111699000D03*
X120390500Y-113599000D03*
D11*
X113421000Y-133096000D03*
D12*
X115961000Y-133096000D03*
X118501000Y-133096000D03*
X121041000Y-133096000D03*
D13*
X117739000Y-123190000D03*
X117739000Y-124150000D03*
D14*
X115580000Y-114363500D03*
X115580000Y-113403500D03*
D13*
X118755000Y-123190000D03*
X118755000Y-124150000D03*
X119771000Y-123190000D03*
X119771000Y-124150000D03*
D15*
X113619000Y-115951000D03*
X112659000Y-115951000D03*
D16*
X113548000Y-130048000D03*
X114508000Y-130048000D03*
D13*
X81798000Y-117856000D03*
X81798000Y-118816000D03*
D17*
X82179000Y-121535000D03*
X82179000Y-122555000D03*
D18*
X88275000Y-113030000D03*
X91323000Y-113030000D03*
D19*
X84261000Y-132983000D03*
D20*
X90561000Y-130683000D03*
D19*
X84261000Y-128383000D03*
D14*
X116596000Y-114363500D03*
X116596000Y-113403500D03*
X113548000Y-113411000D03*
X113548000Y-114371000D03*
D21*
X84485000Y-115614500D03*
X84985000Y-115614500D03*
X85485000Y-115614500D03*
X85985000Y-115614500D03*
X86485000Y-115614500D03*
X86985000Y-115614500D03*
D22*
X87722500Y-116352000D03*
X87722500Y-116852000D03*
X87722500Y-117352000D03*
X87722500Y-117852000D03*
X87722500Y-118352000D03*
X87722500Y-118852000D03*
D21*
X86985000Y-119589500D03*
X86485000Y-119589500D03*
X85985000Y-119589500D03*
X85485000Y-119589500D03*
X84985000Y-119589500D03*
X84485000Y-119589500D03*
D22*
X83747500Y-118852000D03*
X83747500Y-118352000D03*
X83747500Y-117852000D03*
X83747500Y-117352000D03*
X83747500Y-116852000D03*
X83747500Y-116352000D03*
D23*
X85735000Y-117602000D03*
D24*
X110754000Y-116332000D03*
X110754000Y-114432000D03*
D14*
X114564000Y-114371000D03*
X114564000Y-113411000D03*
D18*
X82179000Y-113030000D03*
D25*
X116949000Y-122071500D03*
X116449000Y-122071500D03*
X115949000Y-122071500D03*
X115449000Y-122071500D03*
X114949000Y-122071500D03*
X114449000Y-122071500D03*
X113949000Y-122071500D03*
X113449000Y-122071500D03*
D26*
X112761500Y-121384000D03*
X112761500Y-120884000D03*
X112761500Y-120384000D03*
X112761500Y-119884000D03*
X112761500Y-119384000D03*
X112761500Y-118884000D03*
X112761500Y-118384000D03*
X112761500Y-117884000D03*
D25*
X113449000Y-117196500D03*
X113949000Y-117196500D03*
X114449000Y-117196500D03*
X114949000Y-117196500D03*
X115449000Y-117196500D03*
X115949000Y-117196500D03*
X116449000Y-117196500D03*
X116949000Y-117196500D03*
D26*
X117636500Y-117884000D03*
X117636500Y-118384000D03*
X117636500Y-118884000D03*
X117636500Y-119384000D03*
X117636500Y-119884000D03*
X117636500Y-120384000D03*
X117636500Y-120884000D03*
X117636500Y-121384000D03*
D27*
X115199000Y-119634000D03*
D16*
X116088000Y-130048000D03*
X117048000Y-130048000D03*
D18*
X85227000Y-113030000D03*
D28*
X114183000Y-126316000D03*
X116383000Y-128016000D03*
X116383000Y-126316000D03*
X114183000Y-128016000D03*
D29*
X104531000Y-113919000D03*
X103261000Y-113919000D03*
X101991000Y-113919000D03*
D30*
X104141000Y-131619000D03*
D29*
X100721000Y-113919000D03*
D30*
X98541000Y-131619000D03*
D29*
X99451000Y-113919000D03*
X98181000Y-113919000D03*
M02*
