%TF.GenerationSoftware,KiCad,Pcbnew,6.0.5-a6ca702e91~116~ubuntu21.10.1*%
%TF.CreationDate,2022-05-27T18:53:49+10:00*%
%TF.ProjectId,FlarmDisplay,466c6172-6d44-4697-9370-6c61792e6b69,rev?*%
%TF.SameCoordinates,Original*%
%TF.FileFunction,Legend,Top*%
%TF.FilePolarity,Positive*%
%FSLAX46Y46*%
G04 Gerber Fmt 4.6, Leading zero omitted, Abs format (unit mm)*
G04 Created by KiCad (PCBNEW 6.0.5-a6ca702e91~116~ubuntu21.10.1) date 2022-05-27 18:53:49*
%MOMM*%
%LPD*%
G01*
G04 APERTURE LIST*
G04 Aperture macros list*
%AMRoundRect*
0 Rectangle with rounded corners*
0 $1 Rounding radius*
0 $2 $3 $4 $5 $6 $7 $8 $9 X,Y pos of 4 corners*
0 Add a 4 corners polygon primitive as box body*
4,1,4,$2,$3,$4,$5,$6,$7,$8,$9,$2,$3,0*
0 Add four circle primitives for the rounded corners*
1,1,$1+$1,$2,$3*
1,1,$1+$1,$4,$5*
1,1,$1+$1,$6,$7*
1,1,$1+$1,$8,$9*
0 Add four rect primitives between the rounded corners*
20,1,$1+$1,$2,$3,$4,$5,0*
20,1,$1+$1,$4,$5,$6,$7,0*
20,1,$1+$1,$6,$7,$8,$9,0*
20,1,$1+$1,$8,$9,$2,$3,0*%
%AMFreePoly0*
4,1,20,0.000000,0.744959,0.073905,0.744508,0.209726,0.703889,0.328688,0.626782,0.421226,0.519385,0.479903,0.390333,0.500000,0.250000,0.500000,-0.250000,0.499851,-0.262216,0.476331,-0.402017,0.414519,-0.529596,0.319384,-0.634700,0.198574,-0.708877,0.061801,-0.746166,0.000000,-0.745033,0.000000,-0.750000,-0.550000,-0.750000,-0.550000,0.750000,0.000000,0.750000,0.000000,0.744959,
0.000000,0.744959,$1*%
%AMFreePoly1*
4,1,22,0.550000,-0.750000,0.000000,-0.750000,0.000000,-0.745033,-0.079941,-0.743568,-0.215256,-0.701293,-0.333266,-0.622738,-0.424486,-0.514219,-0.481581,-0.384460,-0.499164,-0.250000,-0.500000,-0.250000,-0.500000,0.250000,-0.499164,0.250000,-0.499963,0.256109,-0.478152,0.396186,-0.417904,0.524511,-0.324060,0.630769,-0.204165,0.706417,-0.067858,0.745374,0.000000,0.744959,0.000000,0.750000,
0.550000,0.750000,0.550000,-0.750000,0.550000,-0.750000,$1*%
G04 Aperture macros list end*
%ADD10C,0.150000*%
%ADD11C,0.120000*%
%ADD12C,0.004000*%
%ADD13FreePoly0,270.000000*%
%ADD14R,1.500000X1.000000*%
%ADD15FreePoly1,270.000000*%
%ADD16RoundRect,0.140000X0.140000X0.170000X-0.140000X0.170000X-0.140000X-0.170000X0.140000X-0.170000X0*%
%ADD17R,1.100000X2.000000*%
%ADD18R,0.800000X0.800000*%
%ADD19RoundRect,0.243750X-0.243750X-0.456250X0.243750X-0.456250X0.243750X0.456250X-0.243750X0.456250X0*%
%ADD20RoundRect,0.243750X0.456250X-0.243750X0.456250X0.243750X-0.456250X0.243750X-0.456250X-0.243750X0*%
%ADD21RoundRect,0.243750X-0.516999X-0.017031X-0.273249X-0.439219X0.516999X0.017031X0.273249X0.439219X0*%
%ADD22RoundRect,0.243750X-0.273249X0.439219X-0.516999X0.017031X0.273249X-0.439219X0.516999X-0.017031X0*%
%ADD23RoundRect,0.243750X-0.017031X0.516999X-0.439219X0.273249X0.017031X-0.516999X0.439219X-0.273249X0*%
%ADD24RoundRect,0.243750X0.516999X0.017031X0.273249X0.439219X-0.516999X-0.017031X-0.273249X-0.439219X0*%
%ADD25RoundRect,0.243750X0.273249X-0.439219X0.516999X-0.017031X-0.273249X0.439219X-0.516999X0.017031X0*%
%ADD26R,1.700000X1.700000*%
%ADD27O,1.700000X1.700000*%
%ADD28RoundRect,0.135000X0.185000X-0.135000X0.185000X0.135000X-0.185000X0.135000X-0.185000X-0.135000X0*%
%ADD29RoundRect,0.243750X0.439219X0.273249X0.017031X0.516999X-0.439219X-0.273249X-0.017031X-0.516999X0*%
%ADD30RoundRect,0.243750X-0.439219X-0.273249X-0.017031X-0.516999X0.439219X0.273249X0.017031X0.516999X0*%
%ADD31RoundRect,0.243750X0.017031X-0.516999X0.439219X-0.273249X-0.017031X0.516999X-0.439219X0.273249X0*%
%ADD32RoundRect,0.062500X0.062500X-0.325000X0.062500X0.325000X-0.062500X0.325000X-0.062500X-0.325000X0*%
%ADD33RoundRect,0.062500X0.325000X-0.062500X0.325000X0.062500X-0.325000X0.062500X-0.325000X-0.062500X0*%
%ADD34R,2.450000X2.450000*%
%ADD35R,1.450000X1.000000*%
%ADD36RoundRect,0.140000X-0.170000X0.140000X-0.170000X-0.140000X0.170000X-0.140000X0.170000X0.140000X0*%
%ADD37RoundRect,0.135000X-0.185000X0.135000X-0.185000X-0.135000X0.185000X-0.135000X0.185000X0.135000X0*%
%ADD38R,2.200000X2.000000*%
G04 APERTURE END LIST*
D10*
X118440428Y-110721857D02*
X118840428Y-111921857D01*
X119240428Y-110721857D01*
X119869000Y-110721857D02*
X119983285Y-110721857D01*
X120097571Y-110779000D01*
X120154714Y-110836142D01*
X120211857Y-110950428D01*
X120269000Y-111179000D01*
X120269000Y-111464714D01*
X120211857Y-111693285D01*
X120154714Y-111807571D01*
X120097571Y-111864714D01*
X119983285Y-111921857D01*
X119869000Y-111921857D01*
X119754714Y-111864714D01*
X119697571Y-111807571D01*
X119640428Y-111693285D01*
X119583285Y-111464714D01*
X119583285Y-111179000D01*
X119640428Y-110950428D01*
X119697571Y-110836142D01*
X119754714Y-110779000D01*
X119869000Y-110721857D01*
X120783285Y-111807571D02*
X120840428Y-111864714D01*
X120783285Y-111921857D01*
X120726142Y-111864714D01*
X120783285Y-111807571D01*
X120783285Y-111921857D01*
X121297571Y-110836142D02*
X121354714Y-110779000D01*
X121469000Y-110721857D01*
X121754714Y-110721857D01*
X121869000Y-110779000D01*
X121926142Y-110836142D01*
X121983285Y-110950428D01*
X121983285Y-111064714D01*
X121926142Y-111236142D01*
X121240428Y-111921857D01*
X121983285Y-111921857D01*
D11*
X122047000Y-114681000D02*
X122047000Y-115443000D01*
X89748200Y-120497600D02*
X92542200Y-120777000D01*
D12*
G36*
X99775353Y-118324773D02*
G01*
X99764940Y-118293130D01*
X99764048Y-118292992D01*
X99761825Y-118293003D01*
X99753666Y-118293446D01*
X99741016Y-118294409D01*
X99724430Y-118295842D01*
X99681666Y-118299921D01*
X99629809Y-118305282D01*
X99474629Y-118320637D01*
X99288517Y-118337572D01*
X98928684Y-118369478D01*
X98771808Y-118383402D01*
X98607656Y-118397433D01*
X98478220Y-118408640D01*
X98431183Y-118413016D01*
X98404809Y-118415772D01*
X98371295Y-118420004D01*
X98371295Y-118381291D01*
X98371435Y-118371398D01*
X98371615Y-118367021D01*
X98371873Y-118363007D01*
X98372212Y-118359342D01*
X98372636Y-118356014D01*
X98373147Y-118353009D01*
X98373749Y-118350315D01*
X98374446Y-118347918D01*
X98375240Y-118345805D01*
X98376136Y-118343964D01*
X98377135Y-118342382D01*
X98378243Y-118341045D01*
X98379461Y-118339941D01*
X98380793Y-118339056D01*
X98382244Y-118338377D01*
X98384098Y-118337893D01*
X98387352Y-118337311D01*
X98397740Y-118335887D01*
X98412778Y-118334167D01*
X98431838Y-118332212D01*
X98479504Y-118327848D01*
X98535702Y-118323290D01*
X99057111Y-118280901D01*
X99281097Y-118261062D01*
X99436684Y-118245899D01*
X99608203Y-118227216D01*
X99661964Y-118220969D01*
X99698703Y-118216160D01*
X99721650Y-118212320D01*
X99734040Y-118208982D01*
X99737285Y-118207355D01*
X99739103Y-118205677D01*
X99739898Y-118203891D01*
X99740073Y-118201937D01*
X99739353Y-118196612D01*
X99737313Y-118187250D01*
X99729975Y-118158782D01*
X99719474Y-118121272D01*
X99707226Y-118079459D01*
X99694643Y-118038083D01*
X99683142Y-118001882D01*
X99674136Y-117975596D01*
X99671011Y-117967652D01*
X99669040Y-117963963D01*
X99659552Y-117963711D01*
X99635789Y-117966199D01*
X99553229Y-117978044D01*
X99302532Y-118019693D01*
X99041644Y-118067185D01*
X98946346Y-118086332D01*
X98895261Y-118098792D01*
X98894624Y-118098990D01*
X98894061Y-118099121D01*
X98893571Y-118099185D01*
X98893152Y-118099183D01*
X98892970Y-118099158D01*
X98892806Y-118099117D01*
X98892659Y-118099060D01*
X98892530Y-118098987D01*
X98892419Y-118098899D01*
X98892325Y-118098796D01*
X98892249Y-118098677D01*
X98892190Y-118098542D01*
X98892148Y-118098393D01*
X98892123Y-118098229D01*
X98892125Y-118097856D01*
X98892195Y-118097426D01*
X98892332Y-118096938D01*
X98892536Y-118096395D01*
X98892806Y-118095796D01*
X98893141Y-118095144D01*
X98893540Y-118094439D01*
X98894004Y-118093682D01*
X98894531Y-118092875D01*
X98895121Y-118092018D01*
X98895773Y-118091113D01*
X98896486Y-118090160D01*
X98897260Y-118089161D01*
X98898989Y-118087029D01*
X98900954Y-118084724D01*
X98903149Y-118082255D01*
X98905570Y-118079631D01*
X98908212Y-118076861D01*
X98912654Y-118072338D01*
X98914774Y-118070261D01*
X98916865Y-118068295D01*
X98918959Y-118066427D01*
X98921085Y-118064649D01*
X98923273Y-118062950D01*
X98925554Y-118061320D01*
X98927958Y-118059748D01*
X98930515Y-118058225D01*
X98933255Y-118056739D01*
X98936208Y-118055281D01*
X98939404Y-118053840D01*
X98942873Y-118052406D01*
X98946645Y-118050970D01*
X98950751Y-118049519D01*
X98955220Y-118048045D01*
X98960083Y-118046538D01*
X98965370Y-118044986D01*
X98971111Y-118043379D01*
X98984074Y-118039962D01*
X98999214Y-118036203D01*
X99016771Y-118032022D01*
X99036986Y-118027335D01*
X99086354Y-118016117D01*
X99275237Y-117974931D01*
X99418385Y-117945778D01*
X99788195Y-117945778D01*
X99788297Y-117949218D01*
X99788663Y-117953323D01*
X99789296Y-117958109D01*
X99790200Y-117963594D01*
X99791377Y-117969792D01*
X99792830Y-117976722D01*
X99794562Y-117984398D01*
X99796576Y-117992838D01*
X99798875Y-118002059D01*
X99801462Y-118012075D01*
X99804340Y-118022905D01*
X99807511Y-118034564D01*
X99834997Y-118134180D01*
X99843541Y-118163770D01*
X99849663Y-118182809D01*
X99852062Y-118189058D01*
X99854148Y-118193493D01*
X99856022Y-118196388D01*
X99857780Y-118198018D01*
X99859520Y-118198657D01*
X99861341Y-118198579D01*
X99865616Y-118197374D01*
X99869509Y-118196531D01*
X99875992Y-118195414D01*
X99884718Y-118194069D01*
X99895343Y-118192546D01*
X99920903Y-118189155D01*
X99949907Y-118185627D01*
X99964371Y-118183847D01*
X99977770Y-118182008D01*
X99989817Y-118180163D01*
X100000225Y-118178366D01*
X100008709Y-118176670D01*
X100014981Y-118175127D01*
X100017198Y-118174430D01*
X100018755Y-118173791D01*
X100019617Y-118173217D01*
X100019775Y-118172956D01*
X100019746Y-118172714D01*
X99870218Y-117926203D01*
X99869791Y-117925909D01*
X99868999Y-117925694D01*
X99866410Y-117925486D01*
X99862639Y-117925551D01*
X99857869Y-117925859D01*
X99846079Y-117927096D01*
X99832526Y-117928971D01*
X99818694Y-117931259D01*
X99806067Y-117933733D01*
X99800671Y-117934970D01*
X99796132Y-117936168D01*
X99792638Y-117937301D01*
X99790373Y-117938339D01*
X99789878Y-117938737D01*
X99789446Y-117939283D01*
X99789078Y-117939979D01*
X99788772Y-117940827D01*
X99788531Y-117941829D01*
X99788354Y-117942986D01*
X99788242Y-117944302D01*
X99788195Y-117945778D01*
X99418385Y-117945778D01*
X99469167Y-117935436D01*
X99663666Y-117898396D01*
X99854257Y-117864577D01*
X100036460Y-117834743D01*
X100205797Y-117809659D01*
X100357791Y-117790089D01*
X100487962Y-117776798D01*
X100558272Y-117770717D01*
X100603469Y-117766507D01*
X100610201Y-117765882D01*
X100615653Y-117765570D01*
X100617894Y-117765534D01*
X100619808Y-117765580D01*
X100621394Y-117765709D01*
X100622649Y-117765922D01*
X100623571Y-117766221D01*
X100624159Y-117766607D01*
X100624326Y-117766833D01*
X100624409Y-117767081D01*
X100624407Y-117767352D01*
X100624319Y-117767645D01*
X100623889Y-117768300D01*
X100623114Y-117769047D01*
X100621994Y-117769887D01*
X100620525Y-117770823D01*
X100618706Y-117771854D01*
X100616536Y-117772982D01*
X100611128Y-117775537D01*
X100604285Y-117778496D01*
X100595989Y-117781871D01*
X100586224Y-117785671D01*
X100574971Y-117789907D01*
X100562213Y-117794590D01*
X100547934Y-117799730D01*
X100536908Y-117803544D01*
X100525539Y-117807211D01*
X100513574Y-117810780D01*
X100500761Y-117814303D01*
X100486845Y-117817830D01*
X100471576Y-117821410D01*
X100435962Y-117828934D01*
X100391896Y-117837278D01*
X100337356Y-117846844D01*
X100270318Y-117858036D01*
X100188759Y-117871256D01*
X99984087Y-117904817D01*
X99921176Y-117915675D01*
X99897300Y-117920435D01*
X99897223Y-117920689D01*
X99897281Y-117921158D01*
X99897794Y-117922713D01*
X99898812Y-117925054D01*
X99900311Y-117928139D01*
X99904650Y-117936358D01*
X99910608Y-117947016D01*
X99917984Y-117959757D01*
X99926575Y-117974227D01*
X99936179Y-117990072D01*
X99946593Y-118006936D01*
X99990501Y-118077880D01*
X100022858Y-118130966D01*
X100025645Y-118135535D01*
X100028404Y-118139872D01*
X100031127Y-118143970D01*
X100033807Y-118147820D01*
X100036436Y-118151413D01*
X100039005Y-118154741D01*
X100041508Y-118157795D01*
X100043936Y-118160566D01*
X100046281Y-118163047D01*
X100048536Y-118165227D01*
X100050693Y-118167100D01*
X100052744Y-118168655D01*
X100054681Y-118169885D01*
X100056496Y-118170781D01*
X100058182Y-118171334D01*
X100058974Y-118171479D01*
X100059731Y-118171536D01*
X100135491Y-118163245D01*
X100306831Y-118142485D01*
X100720795Y-118090095D01*
X100840673Y-118073684D01*
X100957313Y-118056521D01*
X101054932Y-118041015D01*
X101117746Y-118029571D01*
X101128990Y-118027243D01*
X101133674Y-118026378D01*
X101137811Y-118025727D01*
X101141460Y-118025302D01*
X101144680Y-118025112D01*
X101147530Y-118025170D01*
X101148835Y-118025295D01*
X101150069Y-118025485D01*
X101151240Y-118025743D01*
X101152356Y-118026070D01*
X101153423Y-118026467D01*
X101154449Y-118026935D01*
X101155442Y-118027476D01*
X101156408Y-118028091D01*
X101158292Y-118029549D01*
X101160159Y-118031320D01*
X101162069Y-118033415D01*
X101164079Y-118035845D01*
X101166250Y-118038621D01*
X101169380Y-118042813D01*
X101172049Y-118046673D01*
X101174251Y-118050225D01*
X101175176Y-118051893D01*
X101175983Y-118053495D01*
X101176671Y-118055032D01*
X101177239Y-118056509D01*
X101177687Y-118057927D01*
X101178014Y-118059291D01*
X101178220Y-118060604D01*
X101178304Y-118061868D01*
X101178265Y-118063088D01*
X101178102Y-118064265D01*
X101177816Y-118065404D01*
X101177406Y-118066508D01*
X101176870Y-118067579D01*
X101176208Y-118068621D01*
X101175421Y-118069637D01*
X101174506Y-118070631D01*
X101173463Y-118071605D01*
X101172293Y-118072562D01*
X101170994Y-118073506D01*
X101169565Y-118074440D01*
X101168006Y-118075368D01*
X101166316Y-118076291D01*
X101162543Y-118078141D01*
X101158239Y-118080013D01*
X101154209Y-118081780D01*
X101152371Y-118082669D01*
X101150650Y-118083571D01*
X101149045Y-118084489D01*
X101147553Y-118085432D01*
X101146174Y-118086403D01*
X101144906Y-118087408D01*
X101143747Y-118088454D01*
X101142697Y-118089546D01*
X101141753Y-118090690D01*
X101140914Y-118091891D01*
X101140180Y-118093154D01*
X101139548Y-118094487D01*
X101139017Y-118095894D01*
X101138586Y-118097381D01*
X101138253Y-118098954D01*
X101138016Y-118100618D01*
X101137876Y-118102379D01*
X101137829Y-118104244D01*
X101137874Y-118106216D01*
X101138011Y-118108303D01*
X101138238Y-118110510D01*
X101138553Y-118112842D01*
X101138954Y-118115305D01*
X101139441Y-118117906D01*
X101140666Y-118123540D01*
X101142216Y-118129790D01*
X101144079Y-118136701D01*
X101146535Y-118144620D01*
X101149516Y-118152646D01*
X101152989Y-118160734D01*
X101156918Y-118168834D01*
X101161269Y-118176900D01*
X101166006Y-118184883D01*
X101171095Y-118192736D01*
X101176500Y-118200412D01*
X101182186Y-118207862D01*
X101188119Y-118215038D01*
X101194264Y-118221894D01*
X101200585Y-118228381D01*
X101207048Y-118234452D01*
X101213617Y-118240059D01*
X101220258Y-118245155D01*
X101226936Y-118249691D01*
X101239003Y-118257437D01*
X101241619Y-118259031D01*
X101244166Y-118260492D01*
X101246691Y-118261819D01*
X101249240Y-118263015D01*
X101251857Y-118264080D01*
X101254591Y-118265016D01*
X101257485Y-118265824D01*
X101260587Y-118266505D01*
X101263942Y-118267061D01*
X101267596Y-118267493D01*
X101271596Y-118267803D01*
X101275986Y-118267990D01*
X101280814Y-118268058D01*
X101286125Y-118268006D01*
X101291965Y-118267837D01*
X101298380Y-118267551D01*
X101313118Y-118266635D01*
X101330708Y-118265269D01*
X101351516Y-118263462D01*
X101375912Y-118261225D01*
X101436934Y-118255501D01*
X101495676Y-118248772D01*
X101555553Y-118239604D01*
X101615158Y-118228340D01*
X101673086Y-118215321D01*
X101727929Y-118200891D01*
X101778280Y-118185392D01*
X101801332Y-118177348D01*
X101822734Y-118169166D01*
X101842310Y-118160887D01*
X101859883Y-118152555D01*
X101882687Y-118140015D01*
X101917616Y-118119557D01*
X102010740Y-118062976D01*
X102113030Y-117998992D01*
X102159417Y-117969281D01*
X102198261Y-117943786D01*
X102261088Y-117901793D01*
X102256737Y-117938531D01*
X102255308Y-117948624D01*
X102253421Y-117958643D01*
X102251076Y-117968587D01*
X102248275Y-117978455D01*
X102245017Y-117988248D01*
X102241304Y-117997963D01*
X102237137Y-118007600D01*
X102232515Y-118017159D01*
X102227440Y-118026639D01*
X102221912Y-118036039D01*
X102215933Y-118045358D01*
X102209502Y-118054596D01*
X102195288Y-118072825D01*
X102179278Y-118090720D01*
X102161476Y-118108276D01*
X102141888Y-118125486D01*
X102120519Y-118142346D01*
X102097375Y-118158848D01*
X102072462Y-118174989D01*
X102045783Y-118190761D01*
X102017346Y-118206159D01*
X101987156Y-118221177D01*
X101963872Y-118231837D01*
X101940200Y-118241721D01*
X101915868Y-118250882D01*
X101890604Y-118259368D01*
X101864136Y-118267230D01*
X101836191Y-118274519D01*
X101806500Y-118281285D01*
X101774788Y-118287578D01*
X101740786Y-118293449D01*
X101704219Y-118298948D01*
X101664818Y-118304125D01*
X101622310Y-118309030D01*
X101576422Y-118313715D01*
X101526884Y-118318228D01*
X101415767Y-118326945D01*
X101278995Y-118337224D01*
X101165511Y-118347018D01*
X101069752Y-118357192D01*
X100986157Y-118368609D01*
X100909164Y-118382133D01*
X100833210Y-118398628D01*
X100752733Y-118418957D01*
X100662170Y-118443986D01*
X100575503Y-118469647D01*
X100497689Y-118495035D01*
X100427571Y-118520666D01*
X100395037Y-118533733D01*
X100363991Y-118547052D01*
X100334291Y-118560689D01*
X100305791Y-118574708D01*
X100278347Y-118589172D01*
X100251813Y-118604147D01*
X100226045Y-118619696D01*
X100200898Y-118635883D01*
X100176228Y-118652774D01*
X100151889Y-118670431D01*
X100132145Y-118684991D01*
X100115586Y-118696894D01*
X100109044Y-118701465D01*
X100103950Y-118704912D01*
X100100520Y-118707081D01*
X100099497Y-118707639D01*
X100098972Y-118707820D01*
X100098802Y-118707781D01*
X100098560Y-118707681D01*
X100097869Y-118707304D01*
X100096915Y-118706698D01*
X100095715Y-118705878D01*
X100092637Y-118703643D01*
X100088763Y-118700695D01*
X100084222Y-118697135D01*
X100079139Y-118693060D01*
X100073643Y-118688569D01*
X100067862Y-118683761D01*
X100063179Y-118679904D01*
X100058747Y-118676439D01*
X100054451Y-118673329D01*
X100050175Y-118670537D01*
X100048009Y-118669248D01*
X100045805Y-118668024D01*
X100043548Y-118666861D01*
X100041225Y-118665753D01*
X100038820Y-118664697D01*
X100036319Y-118663687D01*
X100033708Y-118662719D01*
X100030972Y-118661788D01*
X100025070Y-118660018D01*
X100018497Y-118658339D01*
X100011136Y-118656715D01*
X100002874Y-118655107D01*
X99993595Y-118653478D01*
X99983183Y-118651790D01*
X99958501Y-118648087D01*
X99942103Y-118645557D01*
X99926501Y-118642869D01*
X99912057Y-118640107D01*
X99899135Y-118637352D01*
X99888098Y-118634686D01*
X99879309Y-118632192D01*
X99875872Y-118631035D01*
X99873132Y-118629952D01*
X99871137Y-118628953D01*
X99869930Y-118628048D01*
X99869061Y-118626911D01*
X99868053Y-118625232D01*
X99866921Y-118623043D01*
X99865675Y-118620377D01*
X99864327Y-118617269D01*
X99862890Y-118613750D01*
X99859798Y-118605616D01*
X99856495Y-118596241D01*
X99853077Y-118585889D01*
X99849643Y-118574826D01*
X99846288Y-118563319D01*
X99824092Y-118486659D01*
X99810453Y-118440848D01*
X99851510Y-118440848D01*
X99856128Y-118473861D01*
X99859203Y-118492890D01*
X99863022Y-118511702D01*
X99867447Y-118529848D01*
X99872337Y-118546882D01*
X99877554Y-118562356D01*
X99880242Y-118569368D01*
X99882960Y-118575823D01*
X99885689Y-118581664D01*
X99888414Y-118586836D01*
X99891115Y-118591282D01*
X99893777Y-118594947D01*
X99895379Y-118596776D01*
X99897194Y-118598573D01*
X99899216Y-118600339D01*
X99901439Y-118602069D01*
X99906465Y-118605421D01*
X99912223Y-118608614D01*
X99918666Y-118611638D01*
X99925746Y-118614477D01*
X99933415Y-118617120D01*
X99941625Y-118619552D01*
X99950327Y-118621762D01*
X99959475Y-118623734D01*
X99969020Y-118625458D01*
X99978914Y-118626918D01*
X99989110Y-118628103D01*
X99999558Y-118628999D01*
X100010212Y-118629592D01*
X100021024Y-118629871D01*
X100034272Y-118629849D01*
X100040060Y-118629678D01*
X100045380Y-118629375D01*
X100050299Y-118628922D01*
X100054885Y-118628300D01*
X100059203Y-118627491D01*
X100063321Y-118626475D01*
X100067306Y-118625234D01*
X100071225Y-118623750D01*
X100075144Y-118622004D01*
X100079132Y-118619977D01*
X100083253Y-118617650D01*
X100087577Y-118615005D01*
X100092168Y-118612024D01*
X100097096Y-118608687D01*
X100097095Y-118608687D01*
X100106880Y-118602342D01*
X100119080Y-118595072D01*
X100149647Y-118578271D01*
X100186643Y-118559308D01*
X100227916Y-118539208D01*
X100271312Y-118518997D01*
X100314679Y-118499700D01*
X100355863Y-118482340D01*
X100392712Y-118467944D01*
X100453065Y-118447472D01*
X100530025Y-118424092D01*
X100616882Y-118399540D01*
X100706927Y-118375552D01*
X100793451Y-118353863D01*
X100869744Y-118336208D01*
X100929097Y-118324325D01*
X100950324Y-118321090D01*
X100964800Y-118319948D01*
X100970712Y-118319848D01*
X100975834Y-118319570D01*
X100978098Y-118319360D01*
X100980164Y-118319101D01*
X100982032Y-118318793D01*
X100983702Y-118318433D01*
X100985174Y-118318021D01*
X100986448Y-118317554D01*
X100987525Y-118317033D01*
X100988403Y-118316455D01*
X100989083Y-118315820D01*
X100989565Y-118315125D01*
X100989850Y-118314370D01*
X100989936Y-118313553D01*
X100989824Y-118312674D01*
X100989513Y-118311730D01*
X100989005Y-118310721D01*
X100988299Y-118309645D01*
X100987394Y-118308501D01*
X100986291Y-118307287D01*
X100984990Y-118306003D01*
X100983491Y-118304647D01*
X100981793Y-118303217D01*
X100979897Y-118301713D01*
X100975511Y-118298477D01*
X100970331Y-118294926D01*
X100964357Y-118291052D01*
X100960341Y-118288426D01*
X100956469Y-118285733D01*
X100952741Y-118282972D01*
X100949156Y-118280144D01*
X100945715Y-118277246D01*
X100942416Y-118274278D01*
X100939260Y-118271241D01*
X100936245Y-118268132D01*
X100933373Y-118264951D01*
X100930642Y-118261699D01*
X100928053Y-118258373D01*
X100925604Y-118254973D01*
X100923296Y-118251499D01*
X100921127Y-118247951D01*
X100919099Y-118244326D01*
X100917210Y-118240625D01*
X100915461Y-118236847D01*
X100913850Y-118232991D01*
X100912378Y-118229056D01*
X100911044Y-118225043D01*
X100909848Y-118220950D01*
X100908789Y-118216776D01*
X100907868Y-118212521D01*
X100907084Y-118208185D01*
X100906436Y-118203766D01*
X100905924Y-118199264D01*
X100905549Y-118194677D01*
X100905308Y-118190007D01*
X100905204Y-118185251D01*
X100905234Y-118180410D01*
X100905697Y-118170466D01*
X100906574Y-118157528D01*
X100906855Y-118152247D01*
X100907014Y-118147697D01*
X100907034Y-118143834D01*
X100906903Y-118140613D01*
X100906606Y-118137988D01*
X100906129Y-118135915D01*
X100905818Y-118135070D01*
X100905457Y-118134347D01*
X100905043Y-118133740D01*
X100904576Y-118133242D01*
X100904053Y-118132848D01*
X100903472Y-118132552D01*
X100902832Y-118132349D01*
X100902131Y-118132234D01*
X100900539Y-118132242D01*
X100898681Y-118132530D01*
X100896543Y-118133055D01*
X100894111Y-118133771D01*
X100868521Y-118143578D01*
X100821717Y-118163278D01*
X100685701Y-118222911D01*
X100528540Y-118293763D01*
X100392712Y-118356930D01*
X100357254Y-118373675D01*
X100324430Y-118388794D01*
X100294664Y-118402110D01*
X100268379Y-118413443D01*
X100245997Y-118422615D01*
X100227944Y-118429447D01*
X100214641Y-118433762D01*
X100209903Y-118434920D01*
X100206512Y-118435382D01*
X100202378Y-118435494D01*
X100200463Y-118435483D01*
X100198631Y-118435408D01*
X100196869Y-118435254D01*
X100195164Y-118435006D01*
X100193502Y-118434648D01*
X100191870Y-118434166D01*
X100190254Y-118433545D01*
X100188640Y-118432769D01*
X100187017Y-118431824D01*
X100185369Y-118430695D01*
X100183684Y-118429367D01*
X100181948Y-118427825D01*
X100180147Y-118426053D01*
X100178269Y-118424038D01*
X100176300Y-118421763D01*
X100174226Y-118419214D01*
X100172033Y-118416376D01*
X100169710Y-118413234D01*
X100167241Y-118409773D01*
X100164614Y-118405978D01*
X100158832Y-118397326D01*
X100152255Y-118387158D01*
X100144775Y-118375354D01*
X100126680Y-118346361D01*
X100109019Y-118318100D01*
X100095137Y-118296462D01*
X100089373Y-118287853D01*
X100084267Y-118280571D01*
X100079722Y-118274506D01*
X100075643Y-118269550D01*
X100071934Y-118265591D01*
X100068500Y-118262521D01*
X100065244Y-118260230D01*
X100063333Y-118259253D01*
X100105843Y-118259253D01*
X100106408Y-118261325D01*
X100109235Y-118266239D01*
X100115380Y-118275905D01*
X100124999Y-118291240D01*
X100149391Y-118330486D01*
X100162129Y-118350850D01*
X100172792Y-118367307D01*
X100181681Y-118380223D01*
X100185555Y-118385469D01*
X100189099Y-118389968D01*
X100192349Y-118393765D01*
X100195344Y-118396907D01*
X100198121Y-118399439D01*
X100200719Y-118401409D01*
X100203174Y-118402860D01*
X100205524Y-118403840D01*
X100207807Y-118404394D01*
X100210060Y-118404569D01*
X100211940Y-118404107D01*
X100215620Y-118402753D01*
X100227988Y-118397550D01*
X100246378Y-118389323D01*
X100270007Y-118378437D01*
X100329846Y-118350152D01*
X100401230Y-118315611D01*
X100401231Y-118315611D01*
X100547075Y-118244594D01*
X100642173Y-118198772D01*
X100653966Y-118193127D01*
X100664868Y-118187777D01*
X100674649Y-118182844D01*
X100683076Y-118178451D01*
X100689917Y-118174722D01*
X100694943Y-118171779D01*
X100697920Y-118169746D01*
X100698568Y-118169110D01*
X100698669Y-118168893D01*
X100698618Y-118168747D01*
X100697556Y-118168647D01*
X100694944Y-118168784D01*
X100685392Y-118169722D01*
X100670610Y-118171476D01*
X100651243Y-118173962D01*
X100601347Y-118180785D01*
X100540878Y-118189510D01*
X100389240Y-118211412D01*
X100242636Y-118231900D01*
X100160590Y-118243347D01*
X100135557Y-118247373D01*
X100126370Y-118249133D01*
X100119148Y-118250790D01*
X100113701Y-118252394D01*
X100109838Y-118253993D01*
X100107368Y-118255637D01*
X100106100Y-118257374D01*
X100105843Y-118259253D01*
X100063333Y-118259253D01*
X100062071Y-118258609D01*
X100058886Y-118257547D01*
X100055592Y-118256936D01*
X100052094Y-118256665D01*
X100048295Y-118256626D01*
X100033308Y-118257511D01*
X100010661Y-118259710D01*
X99954062Y-118266516D01*
X99925947Y-118270357D01*
X99901845Y-118273981D01*
X99884676Y-118277004D01*
X99879602Y-118278171D01*
X99877357Y-118279044D01*
X99877242Y-118279265D01*
X99877173Y-118279646D01*
X99877171Y-118280873D01*
X99877344Y-118282692D01*
X99877683Y-118285070D01*
X99878833Y-118291365D01*
X99880560Y-118299489D01*
X99882804Y-118309170D01*
X99885505Y-118320140D01*
X99888602Y-118332129D01*
X99892037Y-118344866D01*
X99898781Y-118369990D01*
X99904304Y-118391730D01*
X99908036Y-118407758D01*
X99909052Y-118412904D01*
X99909406Y-118415750D01*
X99909368Y-118416158D01*
X99909256Y-118416584D01*
X99909071Y-118417027D01*
X99908815Y-118417484D01*
X99908491Y-118417956D01*
X99908099Y-118418440D01*
X99907642Y-118418937D01*
X99907122Y-118419444D01*
X99906540Y-118419962D01*
X99905899Y-118420488D01*
X99905200Y-118421022D01*
X99904445Y-118421563D01*
X99902774Y-118422661D01*
X99900903Y-118423773D01*
X99898844Y-118424891D01*
X99896614Y-118426006D01*
X99894227Y-118427111D01*
X99891698Y-118428196D01*
X99889042Y-118429253D01*
X99886273Y-118430275D01*
X99883407Y-118431251D01*
X99880458Y-118432175D01*
X99851510Y-118440848D01*
X99810453Y-118440848D01*
X99797759Y-118398213D01*
X99775353Y-118324773D01*
G37*
X99775353Y-118324773D02*
X99764940Y-118293130D01*
X99764048Y-118292992D01*
X99761825Y-118293003D01*
X99753666Y-118293446D01*
X99741016Y-118294409D01*
X99724430Y-118295842D01*
X99681666Y-118299921D01*
X99629809Y-118305282D01*
X99474629Y-118320637D01*
X99288517Y-118337572D01*
X98928684Y-118369478D01*
X98771808Y-118383402D01*
X98607656Y-118397433D01*
X98478220Y-118408640D01*
X98431183Y-118413016D01*
X98404809Y-118415772D01*
X98371295Y-118420004D01*
X98371295Y-118381291D01*
X98371435Y-118371398D01*
X98371615Y-118367021D01*
X98371873Y-118363007D01*
X98372212Y-118359342D01*
X98372636Y-118356014D01*
X98373147Y-118353009D01*
X98373749Y-118350315D01*
X98374446Y-118347918D01*
X98375240Y-118345805D01*
X98376136Y-118343964D01*
X98377135Y-118342382D01*
X98378243Y-118341045D01*
X98379461Y-118339941D01*
X98380793Y-118339056D01*
X98382244Y-118338377D01*
X98384098Y-118337893D01*
X98387352Y-118337311D01*
X98397740Y-118335887D01*
X98412778Y-118334167D01*
X98431838Y-118332212D01*
X98479504Y-118327848D01*
X98535702Y-118323290D01*
X99057111Y-118280901D01*
X99281097Y-118261062D01*
X99436684Y-118245899D01*
X99608203Y-118227216D01*
X99661964Y-118220969D01*
X99698703Y-118216160D01*
X99721650Y-118212320D01*
X99734040Y-118208982D01*
X99737285Y-118207355D01*
X99739103Y-118205677D01*
X99739898Y-118203891D01*
X99740073Y-118201937D01*
X99739353Y-118196612D01*
X99737313Y-118187250D01*
X99729975Y-118158782D01*
X99719474Y-118121272D01*
X99707226Y-118079459D01*
X99694643Y-118038083D01*
X99683142Y-118001882D01*
X99674136Y-117975596D01*
X99671011Y-117967652D01*
X99669040Y-117963963D01*
X99659552Y-117963711D01*
X99635789Y-117966199D01*
X99553229Y-117978044D01*
X99302532Y-118019693D01*
X99041644Y-118067185D01*
X98946346Y-118086332D01*
X98895261Y-118098792D01*
X98894624Y-118098990D01*
X98894061Y-118099121D01*
X98893571Y-118099185D01*
X98893152Y-118099183D01*
X98892970Y-118099158D01*
X98892806Y-118099117D01*
X98892659Y-118099060D01*
X98892530Y-118098987D01*
X98892419Y-118098899D01*
X98892325Y-118098796D01*
X98892249Y-118098677D01*
X98892190Y-118098542D01*
X98892148Y-118098393D01*
X98892123Y-118098229D01*
X98892125Y-118097856D01*
X98892195Y-118097426D01*
X98892332Y-118096938D01*
X98892536Y-118096395D01*
X98892806Y-118095796D01*
X98893141Y-118095144D01*
X98893540Y-118094439D01*
X98894004Y-118093682D01*
X98894531Y-118092875D01*
X98895121Y-118092018D01*
X98895773Y-118091113D01*
X98896486Y-118090160D01*
X98897260Y-118089161D01*
X98898989Y-118087029D01*
X98900954Y-118084724D01*
X98903149Y-118082255D01*
X98905570Y-118079631D01*
X98908212Y-118076861D01*
X98912654Y-118072338D01*
X98914774Y-118070261D01*
X98916865Y-118068295D01*
X98918959Y-118066427D01*
X98921085Y-118064649D01*
X98923273Y-118062950D01*
X98925554Y-118061320D01*
X98927958Y-118059748D01*
X98930515Y-118058225D01*
X98933255Y-118056739D01*
X98936208Y-118055281D01*
X98939404Y-118053840D01*
X98942873Y-118052406D01*
X98946645Y-118050970D01*
X98950751Y-118049519D01*
X98955220Y-118048045D01*
X98960083Y-118046538D01*
X98965370Y-118044986D01*
X98971111Y-118043379D01*
X98984074Y-118039962D01*
X98999214Y-118036203D01*
X99016771Y-118032022D01*
X99036986Y-118027335D01*
X99086354Y-118016117D01*
X99275237Y-117974931D01*
X99418385Y-117945778D01*
X99788195Y-117945778D01*
X99788297Y-117949218D01*
X99788663Y-117953323D01*
X99789296Y-117958109D01*
X99790200Y-117963594D01*
X99791377Y-117969792D01*
X99792830Y-117976722D01*
X99794562Y-117984398D01*
X99796576Y-117992838D01*
X99798875Y-118002059D01*
X99801462Y-118012075D01*
X99804340Y-118022905D01*
X99807511Y-118034564D01*
X99834997Y-118134180D01*
X99843541Y-118163770D01*
X99849663Y-118182809D01*
X99852062Y-118189058D01*
X99854148Y-118193493D01*
X99856022Y-118196388D01*
X99857780Y-118198018D01*
X99859520Y-118198657D01*
X99861341Y-118198579D01*
X99865616Y-118197374D01*
X99869509Y-118196531D01*
X99875992Y-118195414D01*
X99884718Y-118194069D01*
X99895343Y-118192546D01*
X99920903Y-118189155D01*
X99949907Y-118185627D01*
X99964371Y-118183847D01*
X99977770Y-118182008D01*
X99989817Y-118180163D01*
X100000225Y-118178366D01*
X100008709Y-118176670D01*
X100014981Y-118175127D01*
X100017198Y-118174430D01*
X100018755Y-118173791D01*
X100019617Y-118173217D01*
X100019775Y-118172956D01*
X100019746Y-118172714D01*
X99870218Y-117926203D01*
X99869791Y-117925909D01*
X99868999Y-117925694D01*
X99866410Y-117925486D01*
X99862639Y-117925551D01*
X99857869Y-117925859D01*
X99846079Y-117927096D01*
X99832526Y-117928971D01*
X99818694Y-117931259D01*
X99806067Y-117933733D01*
X99800671Y-117934970D01*
X99796132Y-117936168D01*
X99792638Y-117937301D01*
X99790373Y-117938339D01*
X99789878Y-117938737D01*
X99789446Y-117939283D01*
X99789078Y-117939979D01*
X99788772Y-117940827D01*
X99788531Y-117941829D01*
X99788354Y-117942986D01*
X99788242Y-117944302D01*
X99788195Y-117945778D01*
X99418385Y-117945778D01*
X99469167Y-117935436D01*
X99663666Y-117898396D01*
X99854257Y-117864577D01*
X100036460Y-117834743D01*
X100205797Y-117809659D01*
X100357791Y-117790089D01*
X100487962Y-117776798D01*
X100558272Y-117770717D01*
X100603469Y-117766507D01*
X100610201Y-117765882D01*
X100615653Y-117765570D01*
X100617894Y-117765534D01*
X100619808Y-117765580D01*
X100621394Y-117765709D01*
X100622649Y-117765922D01*
X100623571Y-117766221D01*
X100624159Y-117766607D01*
X100624326Y-117766833D01*
X100624409Y-117767081D01*
X100624407Y-117767352D01*
X100624319Y-117767645D01*
X100623889Y-117768300D01*
X100623114Y-117769047D01*
X100621994Y-117769887D01*
X100620525Y-117770823D01*
X100618706Y-117771854D01*
X100616536Y-117772982D01*
X100611128Y-117775537D01*
X100604285Y-117778496D01*
X100595989Y-117781871D01*
X100586224Y-117785671D01*
X100574971Y-117789907D01*
X100562213Y-117794590D01*
X100547934Y-117799730D01*
X100536908Y-117803544D01*
X100525539Y-117807211D01*
X100513574Y-117810780D01*
X100500761Y-117814303D01*
X100486845Y-117817830D01*
X100471576Y-117821410D01*
X100435962Y-117828934D01*
X100391896Y-117837278D01*
X100337356Y-117846844D01*
X100270318Y-117858036D01*
X100188759Y-117871256D01*
X99984087Y-117904817D01*
X99921176Y-117915675D01*
X99897300Y-117920435D01*
X99897223Y-117920689D01*
X99897281Y-117921158D01*
X99897794Y-117922713D01*
X99898812Y-117925054D01*
X99900311Y-117928139D01*
X99904650Y-117936358D01*
X99910608Y-117947016D01*
X99917984Y-117959757D01*
X99926575Y-117974227D01*
X99936179Y-117990072D01*
X99946593Y-118006936D01*
X99990501Y-118077880D01*
X100022858Y-118130966D01*
X100025645Y-118135535D01*
X100028404Y-118139872D01*
X100031127Y-118143970D01*
X100033807Y-118147820D01*
X100036436Y-118151413D01*
X100039005Y-118154741D01*
X100041508Y-118157795D01*
X100043936Y-118160566D01*
X100046281Y-118163047D01*
X100048536Y-118165227D01*
X100050693Y-118167100D01*
X100052744Y-118168655D01*
X100054681Y-118169885D01*
X100056496Y-118170781D01*
X100058182Y-118171334D01*
X100058974Y-118171479D01*
X100059731Y-118171536D01*
X100135491Y-118163245D01*
X100306831Y-118142485D01*
X100720795Y-118090095D01*
X100840673Y-118073684D01*
X100957313Y-118056521D01*
X101054932Y-118041015D01*
X101117746Y-118029571D01*
X101128990Y-118027243D01*
X101133674Y-118026378D01*
X101137811Y-118025727D01*
X101141460Y-118025302D01*
X101144680Y-118025112D01*
X101147530Y-118025170D01*
X101148835Y-118025295D01*
X101150069Y-118025485D01*
X101151240Y-118025743D01*
X101152356Y-118026070D01*
X101153423Y-118026467D01*
X101154449Y-118026935D01*
X101155442Y-118027476D01*
X101156408Y-118028091D01*
X101158292Y-118029549D01*
X101160159Y-118031320D01*
X101162069Y-118033415D01*
X101164079Y-118035845D01*
X101166250Y-118038621D01*
X101169380Y-118042813D01*
X101172049Y-118046673D01*
X101174251Y-118050225D01*
X101175176Y-118051893D01*
X101175983Y-118053495D01*
X101176671Y-118055032D01*
X101177239Y-118056509D01*
X101177687Y-118057927D01*
X101178014Y-118059291D01*
X101178220Y-118060604D01*
X101178304Y-118061868D01*
X101178265Y-118063088D01*
X101178102Y-118064265D01*
X101177816Y-118065404D01*
X101177406Y-118066508D01*
X101176870Y-118067579D01*
X101176208Y-118068621D01*
X101175421Y-118069637D01*
X101174506Y-118070631D01*
X101173463Y-118071605D01*
X101172293Y-118072562D01*
X101170994Y-118073506D01*
X101169565Y-118074440D01*
X101168006Y-118075368D01*
X101166316Y-118076291D01*
X101162543Y-118078141D01*
X101158239Y-118080013D01*
X101154209Y-118081780D01*
X101152371Y-118082669D01*
X101150650Y-118083571D01*
X101149045Y-118084489D01*
X101147553Y-118085432D01*
X101146174Y-118086403D01*
X101144906Y-118087408D01*
X101143747Y-118088454D01*
X101142697Y-118089546D01*
X101141753Y-118090690D01*
X101140914Y-118091891D01*
X101140180Y-118093154D01*
X101139548Y-118094487D01*
X101139017Y-118095894D01*
X101138586Y-118097381D01*
X101138253Y-118098954D01*
X101138016Y-118100618D01*
X101137876Y-118102379D01*
X101137829Y-118104244D01*
X101137874Y-118106216D01*
X101138011Y-118108303D01*
X101138238Y-118110510D01*
X101138553Y-118112842D01*
X101138954Y-118115305D01*
X101139441Y-118117906D01*
X101140666Y-118123540D01*
X101142216Y-118129790D01*
X101144079Y-118136701D01*
X101146535Y-118144620D01*
X101149516Y-118152646D01*
X101152989Y-118160734D01*
X101156918Y-118168834D01*
X101161269Y-118176900D01*
X101166006Y-118184883D01*
X101171095Y-118192736D01*
X101176500Y-118200412D01*
X101182186Y-118207862D01*
X101188119Y-118215038D01*
X101194264Y-118221894D01*
X101200585Y-118228381D01*
X101207048Y-118234452D01*
X101213617Y-118240059D01*
X101220258Y-118245155D01*
X101226936Y-118249691D01*
X101239003Y-118257437D01*
X101241619Y-118259031D01*
X101244166Y-118260492D01*
X101246691Y-118261819D01*
X101249240Y-118263015D01*
X101251857Y-118264080D01*
X101254591Y-118265016D01*
X101257485Y-118265824D01*
X101260587Y-118266505D01*
X101263942Y-118267061D01*
X101267596Y-118267493D01*
X101271596Y-118267803D01*
X101275986Y-118267990D01*
X101280814Y-118268058D01*
X101286125Y-118268006D01*
X101291965Y-118267837D01*
X101298380Y-118267551D01*
X101313118Y-118266635D01*
X101330708Y-118265269D01*
X101351516Y-118263462D01*
X101375912Y-118261225D01*
X101436934Y-118255501D01*
X101495676Y-118248772D01*
X101555553Y-118239604D01*
X101615158Y-118228340D01*
X101673086Y-118215321D01*
X101727929Y-118200891D01*
X101778280Y-118185392D01*
X101801332Y-118177348D01*
X101822734Y-118169166D01*
X101842310Y-118160887D01*
X101859883Y-118152555D01*
X101882687Y-118140015D01*
X101917616Y-118119557D01*
X102010740Y-118062976D01*
X102113030Y-117998992D01*
X102159417Y-117969281D01*
X102198261Y-117943786D01*
X102261088Y-117901793D01*
X102256737Y-117938531D01*
X102255308Y-117948624D01*
X102253421Y-117958643D01*
X102251076Y-117968587D01*
X102248275Y-117978455D01*
X102245017Y-117988248D01*
X102241304Y-117997963D01*
X102237137Y-118007600D01*
X102232515Y-118017159D01*
X102227440Y-118026639D01*
X102221912Y-118036039D01*
X102215933Y-118045358D01*
X102209502Y-118054596D01*
X102195288Y-118072825D01*
X102179278Y-118090720D01*
X102161476Y-118108276D01*
X102141888Y-118125486D01*
X102120519Y-118142346D01*
X102097375Y-118158848D01*
X102072462Y-118174989D01*
X102045783Y-118190761D01*
X102017346Y-118206159D01*
X101987156Y-118221177D01*
X101963872Y-118231837D01*
X101940200Y-118241721D01*
X101915868Y-118250882D01*
X101890604Y-118259368D01*
X101864136Y-118267230D01*
X101836191Y-118274519D01*
X101806500Y-118281285D01*
X101774788Y-118287578D01*
X101740786Y-118293449D01*
X101704219Y-118298948D01*
X101664818Y-118304125D01*
X101622310Y-118309030D01*
X101576422Y-118313715D01*
X101526884Y-118318228D01*
X101415767Y-118326945D01*
X101278995Y-118337224D01*
X101165511Y-118347018D01*
X101069752Y-118357192D01*
X100986157Y-118368609D01*
X100909164Y-118382133D01*
X100833210Y-118398628D01*
X100752733Y-118418957D01*
X100662170Y-118443986D01*
X100575503Y-118469647D01*
X100497689Y-118495035D01*
X100427571Y-118520666D01*
X100395037Y-118533733D01*
X100363991Y-118547052D01*
X100334291Y-118560689D01*
X100305791Y-118574708D01*
X100278347Y-118589172D01*
X100251813Y-118604147D01*
X100226045Y-118619696D01*
X100200898Y-118635883D01*
X100176228Y-118652774D01*
X100151889Y-118670431D01*
X100132145Y-118684991D01*
X100115586Y-118696894D01*
X100109044Y-118701465D01*
X100103950Y-118704912D01*
X100100520Y-118707081D01*
X100099497Y-118707639D01*
X100098972Y-118707820D01*
X100098802Y-118707781D01*
X100098560Y-118707681D01*
X100097869Y-118707304D01*
X100096915Y-118706698D01*
X100095715Y-118705878D01*
X100092637Y-118703643D01*
X100088763Y-118700695D01*
X100084222Y-118697135D01*
X100079139Y-118693060D01*
X100073643Y-118688569D01*
X100067862Y-118683761D01*
X100063179Y-118679904D01*
X100058747Y-118676439D01*
X100054451Y-118673329D01*
X100050175Y-118670537D01*
X100048009Y-118669248D01*
X100045805Y-118668024D01*
X100043548Y-118666861D01*
X100041225Y-118665753D01*
X100038820Y-118664697D01*
X100036319Y-118663687D01*
X100033708Y-118662719D01*
X100030972Y-118661788D01*
X100025070Y-118660018D01*
X100018497Y-118658339D01*
X100011136Y-118656715D01*
X100002874Y-118655107D01*
X99993595Y-118653478D01*
X99983183Y-118651790D01*
X99958501Y-118648087D01*
X99942103Y-118645557D01*
X99926501Y-118642869D01*
X99912057Y-118640107D01*
X99899135Y-118637352D01*
X99888098Y-118634686D01*
X99879309Y-118632192D01*
X99875872Y-118631035D01*
X99873132Y-118629952D01*
X99871137Y-118628953D01*
X99869930Y-118628048D01*
X99869061Y-118626911D01*
X99868053Y-118625232D01*
X99866921Y-118623043D01*
X99865675Y-118620377D01*
X99864327Y-118617269D01*
X99862890Y-118613750D01*
X99859798Y-118605616D01*
X99856495Y-118596241D01*
X99853077Y-118585889D01*
X99849643Y-118574826D01*
X99846288Y-118563319D01*
X99824092Y-118486659D01*
X99810453Y-118440848D01*
X99851510Y-118440848D01*
X99856128Y-118473861D01*
X99859203Y-118492890D01*
X99863022Y-118511702D01*
X99867447Y-118529848D01*
X99872337Y-118546882D01*
X99877554Y-118562356D01*
X99880242Y-118569368D01*
X99882960Y-118575823D01*
X99885689Y-118581664D01*
X99888414Y-118586836D01*
X99891115Y-118591282D01*
X99893777Y-118594947D01*
X99895379Y-118596776D01*
X99897194Y-118598573D01*
X99899216Y-118600339D01*
X99901439Y-118602069D01*
X99906465Y-118605421D01*
X99912223Y-118608614D01*
X99918666Y-118611638D01*
X99925746Y-118614477D01*
X99933415Y-118617120D01*
X99941625Y-118619552D01*
X99950327Y-118621762D01*
X99959475Y-118623734D01*
X99969020Y-118625458D01*
X99978914Y-118626918D01*
X99989110Y-118628103D01*
X99999558Y-118628999D01*
X100010212Y-118629592D01*
X100021024Y-118629871D01*
X100034272Y-118629849D01*
X100040060Y-118629678D01*
X100045380Y-118629375D01*
X100050299Y-118628922D01*
X100054885Y-118628300D01*
X100059203Y-118627491D01*
X100063321Y-118626475D01*
X100067306Y-118625234D01*
X100071225Y-118623750D01*
X100075144Y-118622004D01*
X100079132Y-118619977D01*
X100083253Y-118617650D01*
X100087577Y-118615005D01*
X100092168Y-118612024D01*
X100097096Y-118608687D01*
X100097095Y-118608687D01*
X100106880Y-118602342D01*
X100119080Y-118595072D01*
X100149647Y-118578271D01*
X100186643Y-118559308D01*
X100227916Y-118539208D01*
X100271312Y-118518997D01*
X100314679Y-118499700D01*
X100355863Y-118482340D01*
X100392712Y-118467944D01*
X100453065Y-118447472D01*
X100530025Y-118424092D01*
X100616882Y-118399540D01*
X100706927Y-118375552D01*
X100793451Y-118353863D01*
X100869744Y-118336208D01*
X100929097Y-118324325D01*
X100950324Y-118321090D01*
X100964800Y-118319948D01*
X100970712Y-118319848D01*
X100975834Y-118319570D01*
X100978098Y-118319360D01*
X100980164Y-118319101D01*
X100982032Y-118318793D01*
X100983702Y-118318433D01*
X100985174Y-118318021D01*
X100986448Y-118317554D01*
X100987525Y-118317033D01*
X100988403Y-118316455D01*
X100989083Y-118315820D01*
X100989565Y-118315125D01*
X100989850Y-118314370D01*
X100989936Y-118313553D01*
X100989824Y-118312674D01*
X100989513Y-118311730D01*
X100989005Y-118310721D01*
X100988299Y-118309645D01*
X100987394Y-118308501D01*
X100986291Y-118307287D01*
X100984990Y-118306003D01*
X100983491Y-118304647D01*
X100981793Y-118303217D01*
X100979897Y-118301713D01*
X100975511Y-118298477D01*
X100970331Y-118294926D01*
X100964357Y-118291052D01*
X100960341Y-118288426D01*
X100956469Y-118285733D01*
X100952741Y-118282972D01*
X100949156Y-118280144D01*
X100945715Y-118277246D01*
X100942416Y-118274278D01*
X100939260Y-118271241D01*
X100936245Y-118268132D01*
X100933373Y-118264951D01*
X100930642Y-118261699D01*
X100928053Y-118258373D01*
X100925604Y-118254973D01*
X100923296Y-118251499D01*
X100921127Y-118247951D01*
X100919099Y-118244326D01*
X100917210Y-118240625D01*
X100915461Y-118236847D01*
X100913850Y-118232991D01*
X100912378Y-118229056D01*
X100911044Y-118225043D01*
X100909848Y-118220950D01*
X100908789Y-118216776D01*
X100907868Y-118212521D01*
X100907084Y-118208185D01*
X100906436Y-118203766D01*
X100905924Y-118199264D01*
X100905549Y-118194677D01*
X100905308Y-118190007D01*
X100905204Y-118185251D01*
X100905234Y-118180410D01*
X100905697Y-118170466D01*
X100906574Y-118157528D01*
X100906855Y-118152247D01*
X100907014Y-118147697D01*
X100907034Y-118143834D01*
X100906903Y-118140613D01*
X100906606Y-118137988D01*
X100906129Y-118135915D01*
X100905818Y-118135070D01*
X100905457Y-118134347D01*
X100905043Y-118133740D01*
X100904576Y-118133242D01*
X100904053Y-118132848D01*
X100903472Y-118132552D01*
X100902832Y-118132349D01*
X100902131Y-118132234D01*
X100900539Y-118132242D01*
X100898681Y-118132530D01*
X100896543Y-118133055D01*
X100894111Y-118133771D01*
X100868521Y-118143578D01*
X100821717Y-118163278D01*
X100685701Y-118222911D01*
X100528540Y-118293763D01*
X100392712Y-118356930D01*
X100357254Y-118373675D01*
X100324430Y-118388794D01*
X100294664Y-118402110D01*
X100268379Y-118413443D01*
X100245997Y-118422615D01*
X100227944Y-118429447D01*
X100214641Y-118433762D01*
X100209903Y-118434920D01*
X100206512Y-118435382D01*
X100202378Y-118435494D01*
X100200463Y-118435483D01*
X100198631Y-118435408D01*
X100196869Y-118435254D01*
X100195164Y-118435006D01*
X100193502Y-118434648D01*
X100191870Y-118434166D01*
X100190254Y-118433545D01*
X100188640Y-118432769D01*
X100187017Y-118431824D01*
X100185369Y-118430695D01*
X100183684Y-118429367D01*
X100181948Y-118427825D01*
X100180147Y-118426053D01*
X100178269Y-118424038D01*
X100176300Y-118421763D01*
X100174226Y-118419214D01*
X100172033Y-118416376D01*
X100169710Y-118413234D01*
X100167241Y-118409773D01*
X100164614Y-118405978D01*
X100158832Y-118397326D01*
X100152255Y-118387158D01*
X100144775Y-118375354D01*
X100126680Y-118346361D01*
X100109019Y-118318100D01*
X100095137Y-118296462D01*
X100089373Y-118287853D01*
X100084267Y-118280571D01*
X100079722Y-118274506D01*
X100075643Y-118269550D01*
X100071934Y-118265591D01*
X100068500Y-118262521D01*
X100065244Y-118260230D01*
X100063333Y-118259253D01*
X100105843Y-118259253D01*
X100106408Y-118261325D01*
X100109235Y-118266239D01*
X100115380Y-118275905D01*
X100124999Y-118291240D01*
X100149391Y-118330486D01*
X100162129Y-118350850D01*
X100172792Y-118367307D01*
X100181681Y-118380223D01*
X100185555Y-118385469D01*
X100189099Y-118389968D01*
X100192349Y-118393765D01*
X100195344Y-118396907D01*
X100198121Y-118399439D01*
X100200719Y-118401409D01*
X100203174Y-118402860D01*
X100205524Y-118403840D01*
X100207807Y-118404394D01*
X100210060Y-118404569D01*
X100211940Y-118404107D01*
X100215620Y-118402753D01*
X100227988Y-118397550D01*
X100246378Y-118389323D01*
X100270007Y-118378437D01*
X100329846Y-118350152D01*
X100401230Y-118315611D01*
X100401231Y-118315611D01*
X100547075Y-118244594D01*
X100642173Y-118198772D01*
X100653966Y-118193127D01*
X100664868Y-118187777D01*
X100674649Y-118182844D01*
X100683076Y-118178451D01*
X100689917Y-118174722D01*
X100694943Y-118171779D01*
X100697920Y-118169746D01*
X100698568Y-118169110D01*
X100698669Y-118168893D01*
X100698618Y-118168747D01*
X100697556Y-118168647D01*
X100694944Y-118168784D01*
X100685392Y-118169722D01*
X100670610Y-118171476D01*
X100651243Y-118173962D01*
X100601347Y-118180785D01*
X100540878Y-118189510D01*
X100389240Y-118211412D01*
X100242636Y-118231900D01*
X100160590Y-118243347D01*
X100135557Y-118247373D01*
X100126370Y-118249133D01*
X100119148Y-118250790D01*
X100113701Y-118252394D01*
X100109838Y-118253993D01*
X100107368Y-118255637D01*
X100106100Y-118257374D01*
X100105843Y-118259253D01*
X100063333Y-118259253D01*
X100062071Y-118258609D01*
X100058886Y-118257547D01*
X100055592Y-118256936D01*
X100052094Y-118256665D01*
X100048295Y-118256626D01*
X100033308Y-118257511D01*
X100010661Y-118259710D01*
X99954062Y-118266516D01*
X99925947Y-118270357D01*
X99901845Y-118273981D01*
X99884676Y-118277004D01*
X99879602Y-118278171D01*
X99877357Y-118279044D01*
X99877242Y-118279265D01*
X99877173Y-118279646D01*
X99877171Y-118280873D01*
X99877344Y-118282692D01*
X99877683Y-118285070D01*
X99878833Y-118291365D01*
X99880560Y-118299489D01*
X99882804Y-118309170D01*
X99885505Y-118320140D01*
X99888602Y-118332129D01*
X99892037Y-118344866D01*
X99898781Y-118369990D01*
X99904304Y-118391730D01*
X99908036Y-118407758D01*
X99909052Y-118412904D01*
X99909406Y-118415750D01*
X99909368Y-118416158D01*
X99909256Y-118416584D01*
X99909071Y-118417027D01*
X99908815Y-118417484D01*
X99908491Y-118417956D01*
X99908099Y-118418440D01*
X99907642Y-118418937D01*
X99907122Y-118419444D01*
X99906540Y-118419962D01*
X99905899Y-118420488D01*
X99905200Y-118421022D01*
X99904445Y-118421563D01*
X99902774Y-118422661D01*
X99900903Y-118423773D01*
X99898844Y-118424891D01*
X99896614Y-118426006D01*
X99894227Y-118427111D01*
X99891698Y-118428196D01*
X99889042Y-118429253D01*
X99886273Y-118430275D01*
X99883407Y-118431251D01*
X99880458Y-118432175D01*
X99851510Y-118440848D01*
X99810453Y-118440848D01*
X99797759Y-118398213D01*
X99775353Y-118324773D01*
D11*
X117307200Y-117881400D02*
X117751500Y-117547000D01*
X97850800Y-121234200D02*
X97088800Y-122707400D01*
X89164000Y-125857000D02*
X90180000Y-124206000D01*
X97673000Y-134620000D02*
X96657000Y-134366000D01*
X91881800Y-114477800D02*
X92212000Y-116027200D01*
X90967400Y-111836200D02*
X90256200Y-112699800D01*
X110449200Y-119405400D02*
X109827084Y-118775425D01*
D12*
G36*
X101304004Y-117816952D02*
G01*
X101310214Y-117811699D01*
X101316672Y-117806590D01*
X101323376Y-117801626D01*
X101330324Y-117796808D01*
X101337511Y-117792140D01*
X101344935Y-117787622D01*
X101352592Y-117783256D01*
X101360480Y-117779044D01*
X101376935Y-117771090D01*
X101394274Y-117763775D01*
X101412474Y-117757113D01*
X101431509Y-117751119D01*
X101451355Y-117745807D01*
X101471986Y-117741192D01*
X101493378Y-117737289D01*
X101510926Y-117734840D01*
X101530738Y-117732807D01*
X101576133Y-117729968D01*
X101627514Y-117728733D01*
X101682837Y-117729062D01*
X101740053Y-117730915D01*
X101797117Y-117734252D01*
X101851982Y-117739034D01*
X101902600Y-117745221D01*
X101931115Y-117749629D01*
X101955224Y-117753960D01*
X101974437Y-117758058D01*
X101982053Y-117759972D01*
X101988261Y-117761769D01*
X101992999Y-117763431D01*
X101996206Y-117764938D01*
X101997821Y-117766271D01*
X101998012Y-117766865D01*
X101997782Y-117767409D01*
X101997123Y-117767900D01*
X101996027Y-117768335D01*
X101992496Y-117769028D01*
X101987127Y-117769468D01*
X101979859Y-117769638D01*
X101974866Y-117769826D01*
X101969704Y-117770351D01*
X101964386Y-117771205D01*
X101958923Y-117772378D01*
X101947612Y-117775649D01*
X101935873Y-117780092D01*
X101923804Y-117785637D01*
X101911504Y-117792214D01*
X101899073Y-117799752D01*
X101886611Y-117808180D01*
X101874216Y-117817427D01*
X101861988Y-117827423D01*
X101850026Y-117838098D01*
X101838430Y-117849380D01*
X101827299Y-117861199D01*
X101816732Y-117873485D01*
X101806829Y-117886166D01*
X101797689Y-117899172D01*
X101773455Y-117935682D01*
X101538166Y-117962422D01*
X101356000Y-117983000D01*
X101261975Y-117992842D01*
X101238906Y-117994552D01*
X101226939Y-117994558D01*
X101223981Y-117994024D01*
X101222431Y-117993186D01*
X101221739Y-117990761D01*
X101221994Y-117987052D01*
X101222725Y-117982155D01*
X101223886Y-117976226D01*
X101225429Y-117969424D01*
X101229466Y-117953828D01*
X101234457Y-117936626D01*
X101240017Y-117919077D01*
X101245764Y-117902442D01*
X101251317Y-117887980D01*
X101253901Y-117881958D01*
X101256292Y-117876951D01*
X101259840Y-117870367D01*
X101263669Y-117863908D01*
X101267774Y-117857575D01*
X101272153Y-117851371D01*
X101276802Y-117845298D01*
X101281720Y-117839357D01*
X101286902Y-117833550D01*
X101292345Y-117827879D01*
X101293915Y-117826355D01*
X101367079Y-117826355D01*
X101367151Y-117829458D01*
X101367539Y-117832871D01*
X101368187Y-117836642D01*
X101368779Y-117839053D01*
X101369593Y-117841297D01*
X101370625Y-117843374D01*
X101371865Y-117845284D01*
X101373308Y-117847027D01*
X101374947Y-117848604D01*
X101376773Y-117850015D01*
X101378780Y-117851261D01*
X101380961Y-117852342D01*
X101383309Y-117853257D01*
X101385817Y-117854008D01*
X101388477Y-117854595D01*
X101391282Y-117855018D01*
X101394226Y-117855277D01*
X101397301Y-117855373D01*
X101400500Y-117855306D01*
X101403817Y-117855076D01*
X101407243Y-117854684D01*
X101410772Y-117854130D01*
X101414397Y-117853414D01*
X101418110Y-117852537D01*
X101421905Y-117851499D01*
X101425774Y-117850301D01*
X101429711Y-117848941D01*
X101433708Y-117847422D01*
X101437758Y-117845743D01*
X101441854Y-117843905D01*
X101445988Y-117841908D01*
X101450155Y-117839751D01*
X101454346Y-117837437D01*
X101458555Y-117834964D01*
X101462774Y-117832333D01*
X101469626Y-117827841D01*
X101476010Y-117823470D01*
X101481785Y-117819329D01*
X101486815Y-117815527D01*
X101490958Y-117812172D01*
X101492654Y-117810696D01*
X101494077Y-117809372D01*
X101495209Y-117808215D01*
X101496032Y-117807237D01*
X101496530Y-117806453D01*
X101496651Y-117806137D01*
X101496684Y-117805875D01*
X101496651Y-117805626D01*
X101496574Y-117805347D01*
X101496455Y-117805041D01*
X101496294Y-117804709D01*
X101496094Y-117804351D01*
X101495854Y-117803969D01*
X101495263Y-117803136D01*
X101494529Y-117802218D01*
X101493661Y-117801224D01*
X101492668Y-117800164D01*
X101491558Y-117799045D01*
X101490341Y-117797875D01*
X101489025Y-117796665D01*
X101487619Y-117795422D01*
X101486132Y-117794155D01*
X101484572Y-117792873D01*
X101482949Y-117791584D01*
X101481271Y-117790297D01*
X101479546Y-117789020D01*
X101476657Y-117786952D01*
X101474016Y-117785166D01*
X101472766Y-117784381D01*
X101471550Y-117783667D01*
X101470358Y-117783026D01*
X101469182Y-117782459D01*
X101468013Y-117781965D01*
X101466841Y-117781545D01*
X101465657Y-117781199D01*
X101464451Y-117780929D01*
X101463215Y-117780734D01*
X101461938Y-117780615D01*
X101460613Y-117780572D01*
X101459229Y-117780607D01*
X101457777Y-117780719D01*
X101456248Y-117780909D01*
X101454633Y-117781177D01*
X101452922Y-117781524D01*
X101451106Y-117781950D01*
X101449176Y-117782456D01*
X101447123Y-117783043D01*
X101444937Y-117783710D01*
X101440130Y-117785288D01*
X101434681Y-117787196D01*
X101428515Y-117789436D01*
X101421560Y-117792012D01*
X101403916Y-117798715D01*
X101396649Y-117801630D01*
X101390340Y-117804317D01*
X101384932Y-117806827D01*
X101380365Y-117809208D01*
X101376582Y-117811509D01*
X101373525Y-117813778D01*
X101372250Y-117814916D01*
X101371134Y-117816064D01*
X101370171Y-117817229D01*
X101369353Y-117818417D01*
X101368672Y-117819633D01*
X101368122Y-117820883D01*
X101367695Y-117822175D01*
X101367384Y-117823513D01*
X101367079Y-117826355D01*
X101293915Y-117826355D01*
X101298047Y-117822345D01*
X101304004Y-117816952D01*
G37*
X101304004Y-117816952D02*
X101310214Y-117811699D01*
X101316672Y-117806590D01*
X101323376Y-117801626D01*
X101330324Y-117796808D01*
X101337511Y-117792140D01*
X101344935Y-117787622D01*
X101352592Y-117783256D01*
X101360480Y-117779044D01*
X101376935Y-117771090D01*
X101394274Y-117763775D01*
X101412474Y-117757113D01*
X101431509Y-117751119D01*
X101451355Y-117745807D01*
X101471986Y-117741192D01*
X101493378Y-117737289D01*
X101510926Y-117734840D01*
X101530738Y-117732807D01*
X101576133Y-117729968D01*
X101627514Y-117728733D01*
X101682837Y-117729062D01*
X101740053Y-117730915D01*
X101797117Y-117734252D01*
X101851982Y-117739034D01*
X101902600Y-117745221D01*
X101931115Y-117749629D01*
X101955224Y-117753960D01*
X101974437Y-117758058D01*
X101982053Y-117759972D01*
X101988261Y-117761769D01*
X101992999Y-117763431D01*
X101996206Y-117764938D01*
X101997821Y-117766271D01*
X101998012Y-117766865D01*
X101997782Y-117767409D01*
X101997123Y-117767900D01*
X101996027Y-117768335D01*
X101992496Y-117769028D01*
X101987127Y-117769468D01*
X101979859Y-117769638D01*
X101974866Y-117769826D01*
X101969704Y-117770351D01*
X101964386Y-117771205D01*
X101958923Y-117772378D01*
X101947612Y-117775649D01*
X101935873Y-117780092D01*
X101923804Y-117785637D01*
X101911504Y-117792214D01*
X101899073Y-117799752D01*
X101886611Y-117808180D01*
X101874216Y-117817427D01*
X101861988Y-117827423D01*
X101850026Y-117838098D01*
X101838430Y-117849380D01*
X101827299Y-117861199D01*
X101816732Y-117873485D01*
X101806829Y-117886166D01*
X101797689Y-117899172D01*
X101773455Y-117935682D01*
X101538166Y-117962422D01*
X101356000Y-117983000D01*
X101261975Y-117992842D01*
X101238906Y-117994552D01*
X101226939Y-117994558D01*
X101223981Y-117994024D01*
X101222431Y-117993186D01*
X101221739Y-117990761D01*
X101221994Y-117987052D01*
X101222725Y-117982155D01*
X101223886Y-117976226D01*
X101225429Y-117969424D01*
X101229466Y-117953828D01*
X101234457Y-117936626D01*
X101240017Y-117919077D01*
X101245764Y-117902442D01*
X101251317Y-117887980D01*
X101253901Y-117881958D01*
X101256292Y-117876951D01*
X101259840Y-117870367D01*
X101263669Y-117863908D01*
X101267774Y-117857575D01*
X101272153Y-117851371D01*
X101276802Y-117845298D01*
X101281720Y-117839357D01*
X101286902Y-117833550D01*
X101292345Y-117827879D01*
X101293915Y-117826355D01*
X101367079Y-117826355D01*
X101367151Y-117829458D01*
X101367539Y-117832871D01*
X101368187Y-117836642D01*
X101368779Y-117839053D01*
X101369593Y-117841297D01*
X101370625Y-117843374D01*
X101371865Y-117845284D01*
X101373308Y-117847027D01*
X101374947Y-117848604D01*
X101376773Y-117850015D01*
X101378780Y-117851261D01*
X101380961Y-117852342D01*
X101383309Y-117853257D01*
X101385817Y-117854008D01*
X101388477Y-117854595D01*
X101391282Y-117855018D01*
X101394226Y-117855277D01*
X101397301Y-117855373D01*
X101400500Y-117855306D01*
X101403817Y-117855076D01*
X101407243Y-117854684D01*
X101410772Y-117854130D01*
X101414397Y-117853414D01*
X101418110Y-117852537D01*
X101421905Y-117851499D01*
X101425774Y-117850301D01*
X101429711Y-117848941D01*
X101433708Y-117847422D01*
X101437758Y-117845743D01*
X101441854Y-117843905D01*
X101445988Y-117841908D01*
X101450155Y-117839751D01*
X101454346Y-117837437D01*
X101458555Y-117834964D01*
X101462774Y-117832333D01*
X101469626Y-117827841D01*
X101476010Y-117823470D01*
X101481785Y-117819329D01*
X101486815Y-117815527D01*
X101490958Y-117812172D01*
X101492654Y-117810696D01*
X101494077Y-117809372D01*
X101495209Y-117808215D01*
X101496032Y-117807237D01*
X101496530Y-117806453D01*
X101496651Y-117806137D01*
X101496684Y-117805875D01*
X101496651Y-117805626D01*
X101496574Y-117805347D01*
X101496455Y-117805041D01*
X101496294Y-117804709D01*
X101496094Y-117804351D01*
X101495854Y-117803969D01*
X101495263Y-117803136D01*
X101494529Y-117802218D01*
X101493661Y-117801224D01*
X101492668Y-117800164D01*
X101491558Y-117799045D01*
X101490341Y-117797875D01*
X101489025Y-117796665D01*
X101487619Y-117795422D01*
X101486132Y-117794155D01*
X101484572Y-117792873D01*
X101482949Y-117791584D01*
X101481271Y-117790297D01*
X101479546Y-117789020D01*
X101476657Y-117786952D01*
X101474016Y-117785166D01*
X101472766Y-117784381D01*
X101471550Y-117783667D01*
X101470358Y-117783026D01*
X101469182Y-117782459D01*
X101468013Y-117781965D01*
X101466841Y-117781545D01*
X101465657Y-117781199D01*
X101464451Y-117780929D01*
X101463215Y-117780734D01*
X101461938Y-117780615D01*
X101460613Y-117780572D01*
X101459229Y-117780607D01*
X101457777Y-117780719D01*
X101456248Y-117780909D01*
X101454633Y-117781177D01*
X101452922Y-117781524D01*
X101451106Y-117781950D01*
X101449176Y-117782456D01*
X101447123Y-117783043D01*
X101444937Y-117783710D01*
X101440130Y-117785288D01*
X101434681Y-117787196D01*
X101428515Y-117789436D01*
X101421560Y-117792012D01*
X101403916Y-117798715D01*
X101396649Y-117801630D01*
X101390340Y-117804317D01*
X101384932Y-117806827D01*
X101380365Y-117809208D01*
X101376582Y-117811509D01*
X101373525Y-117813778D01*
X101372250Y-117814916D01*
X101371134Y-117816064D01*
X101370171Y-117817229D01*
X101369353Y-117818417D01*
X101368672Y-117819633D01*
X101368122Y-117820883D01*
X101367695Y-117822175D01*
X101367384Y-117823513D01*
X101367079Y-117826355D01*
X101293915Y-117826355D01*
X101298047Y-117822345D01*
X101304004Y-117816952D01*
G36*
X103991802Y-117332146D02*
G01*
X103992441Y-117332212D01*
X103993058Y-117332321D01*
X103993653Y-117332475D01*
X103994225Y-117332672D01*
X103994775Y-117332915D01*
X103995303Y-117333202D01*
X103995809Y-117333535D01*
X103996293Y-117333912D01*
X103996756Y-117334336D01*
X103997196Y-117334805D01*
X103997615Y-117335320D01*
X103998013Y-117335881D01*
X103998389Y-117336489D01*
X103998744Y-117337144D01*
X103999078Y-117337846D01*
X103999391Y-117338595D01*
X103999683Y-117339391D01*
X103999954Y-117340235D01*
X104000204Y-117341127D01*
X104000433Y-117342067D01*
X104000643Y-117343056D01*
X104000831Y-117344093D01*
X104001000Y-117345180D01*
X104001148Y-117346315D01*
X104001276Y-117347499D01*
X104001384Y-117348734D01*
X104001472Y-117350018D01*
X104001541Y-117351352D01*
X104001589Y-117352736D01*
X104001628Y-117355657D01*
X104001628Y-117379189D01*
X103819948Y-117430473D01*
X103543017Y-117508759D01*
X103142140Y-117619034D01*
X102461825Y-117804339D01*
X102312057Y-117844470D01*
X102265271Y-117856606D01*
X102246631Y-117860979D01*
X102245948Y-117860866D01*
X102245015Y-117860598D01*
X102243849Y-117860183D01*
X102242466Y-117859629D01*
X102240882Y-117858945D01*
X102239115Y-117858137D01*
X102235091Y-117856187D01*
X102230525Y-117853843D01*
X102225548Y-117851171D01*
X102220289Y-117848236D01*
X102214878Y-117845104D01*
X102209576Y-117841906D01*
X102204628Y-117838783D01*
X102200143Y-117835814D01*
X102196228Y-117833076D01*
X102192993Y-117830650D01*
X102190545Y-117828611D01*
X102189650Y-117827762D01*
X102188993Y-117827040D01*
X102188587Y-117826454D01*
X102188483Y-117826215D01*
X102188446Y-117826013D01*
X102189824Y-117825292D01*
X102193874Y-117823880D01*
X102209445Y-117819135D01*
X102266649Y-117803013D01*
X102351321Y-117780056D01*
X102454724Y-117752669D01*
X102814046Y-117657447D01*
X103162554Y-117563064D01*
X103493185Y-117471456D01*
X103798876Y-117384557D01*
X103870283Y-117364199D01*
X103930335Y-117347527D01*
X103972724Y-117336262D01*
X103985322Y-117333195D01*
X103991139Y-117332125D01*
X103991802Y-117332146D01*
G37*
X103991802Y-117332146D02*
X103992441Y-117332212D01*
X103993058Y-117332321D01*
X103993653Y-117332475D01*
X103994225Y-117332672D01*
X103994775Y-117332915D01*
X103995303Y-117333202D01*
X103995809Y-117333535D01*
X103996293Y-117333912D01*
X103996756Y-117334336D01*
X103997196Y-117334805D01*
X103997615Y-117335320D01*
X103998013Y-117335881D01*
X103998389Y-117336489D01*
X103998744Y-117337144D01*
X103999078Y-117337846D01*
X103999391Y-117338595D01*
X103999683Y-117339391D01*
X103999954Y-117340235D01*
X104000204Y-117341127D01*
X104000433Y-117342067D01*
X104000643Y-117343056D01*
X104000831Y-117344093D01*
X104001000Y-117345180D01*
X104001148Y-117346315D01*
X104001276Y-117347499D01*
X104001384Y-117348734D01*
X104001472Y-117350018D01*
X104001541Y-117351352D01*
X104001589Y-117352736D01*
X104001628Y-117355657D01*
X104001628Y-117379189D01*
X103819948Y-117430473D01*
X103543017Y-117508759D01*
X103142140Y-117619034D01*
X102461825Y-117804339D01*
X102312057Y-117844470D01*
X102265271Y-117856606D01*
X102246631Y-117860979D01*
X102245948Y-117860866D01*
X102245015Y-117860598D01*
X102243849Y-117860183D01*
X102242466Y-117859629D01*
X102240882Y-117858945D01*
X102239115Y-117858137D01*
X102235091Y-117856187D01*
X102230525Y-117853843D01*
X102225548Y-117851171D01*
X102220289Y-117848236D01*
X102214878Y-117845104D01*
X102209576Y-117841906D01*
X102204628Y-117838783D01*
X102200143Y-117835814D01*
X102196228Y-117833076D01*
X102192993Y-117830650D01*
X102190545Y-117828611D01*
X102189650Y-117827762D01*
X102188993Y-117827040D01*
X102188587Y-117826454D01*
X102188483Y-117826215D01*
X102188446Y-117826013D01*
X102189824Y-117825292D01*
X102193874Y-117823880D01*
X102209445Y-117819135D01*
X102266649Y-117803013D01*
X102351321Y-117780056D01*
X102454724Y-117752669D01*
X102814046Y-117657447D01*
X103162554Y-117563064D01*
X103493185Y-117471456D01*
X103798876Y-117384557D01*
X103870283Y-117364199D01*
X103930335Y-117347527D01*
X103972724Y-117336262D01*
X103985322Y-117333195D01*
X103991139Y-117332125D01*
X103991802Y-117332146D01*
D11*
X103083200Y-133985000D02*
X102321200Y-133675000D01*
D10*
X113069857Y-115879571D02*
X113212714Y-115927190D01*
X113260333Y-115974809D01*
X113307952Y-116070047D01*
X113307952Y-116212904D01*
X113260333Y-116308142D01*
X113212714Y-116355761D01*
X113117476Y-116403380D01*
X112736523Y-116403380D01*
X112736523Y-115403380D01*
X113069857Y-115403380D01*
X113165095Y-115451000D01*
X113212714Y-115498619D01*
X113260333Y-115593857D01*
X113260333Y-115689095D01*
X113212714Y-115784333D01*
X113165095Y-115831952D01*
X113069857Y-115879571D01*
X112736523Y-115879571D01*
X113927000Y-115403380D02*
X114117476Y-115403380D01*
X114212714Y-115451000D01*
X114307952Y-115546238D01*
X114355571Y-115736714D01*
X114355571Y-116070047D01*
X114307952Y-116260523D01*
X114212714Y-116355761D01*
X114117476Y-116403380D01*
X113927000Y-116403380D01*
X113831761Y-116355761D01*
X113736523Y-116260523D01*
X113688904Y-116070047D01*
X113688904Y-115736714D01*
X113736523Y-115546238D01*
X113831761Y-115451000D01*
X113927000Y-115403380D01*
X114974619Y-115403380D02*
X115165095Y-115403380D01*
X115260333Y-115451000D01*
X115355571Y-115546238D01*
X115403190Y-115736714D01*
X115403190Y-116070047D01*
X115355571Y-116260523D01*
X115260333Y-116355761D01*
X115165095Y-116403380D01*
X114974619Y-116403380D01*
X114879380Y-116355761D01*
X114784142Y-116260523D01*
X114736523Y-116070047D01*
X114736523Y-115736714D01*
X114784142Y-115546238D01*
X114879380Y-115451000D01*
X114974619Y-115403380D01*
X115688904Y-115403380D02*
X116260333Y-115403380D01*
X115974619Y-116403380D02*
X115974619Y-115403380D01*
D11*
X120038500Y-131136571D02*
X120000404Y-131212761D01*
X120000404Y-131327047D01*
X120038500Y-131441333D01*
X120114690Y-131517523D01*
X120190880Y-131555619D01*
X120343261Y-131593714D01*
X120457547Y-131593714D01*
X120609928Y-131555619D01*
X120686119Y-131517523D01*
X120762309Y-131441333D01*
X120800404Y-131327047D01*
X120800404Y-131250857D01*
X120762309Y-131136571D01*
X120724214Y-131098476D01*
X120457547Y-131098476D01*
X120457547Y-131250857D01*
X120800404Y-130755619D02*
X120000404Y-130755619D01*
X120800404Y-130298476D01*
X120000404Y-130298476D01*
X120800404Y-129917523D02*
X120000404Y-129917523D01*
X120000404Y-129727047D01*
X120038500Y-129612761D01*
X120114690Y-129536571D01*
X120190880Y-129498476D01*
X120343261Y-129460380D01*
X120457547Y-129460380D01*
X120609928Y-129498476D01*
X120686119Y-129536571D01*
X120762309Y-129612761D01*
X120800404Y-129727047D01*
X120800404Y-129917523D01*
X116246714Y-131091000D02*
X116284809Y-131129095D01*
X116322904Y-131243380D01*
X116322904Y-131319571D01*
X116284809Y-131433857D01*
X116208619Y-131510047D01*
X116132428Y-131548142D01*
X115980047Y-131586238D01*
X115865761Y-131586238D01*
X115713380Y-131548142D01*
X115637190Y-131510047D01*
X115561000Y-131433857D01*
X115522904Y-131319571D01*
X115522904Y-131243380D01*
X115561000Y-131129095D01*
X115599095Y-131091000D01*
X116322904Y-130367190D02*
X116322904Y-130748142D01*
X115522904Y-130748142D01*
X116322904Y-130100523D02*
X115522904Y-130100523D01*
X116322904Y-129643380D02*
X115865761Y-129986238D01*
X115522904Y-129643380D02*
X115980047Y-130100523D01*
D10*
X91029380Y-130754380D02*
X90696047Y-130278190D01*
X90457952Y-130754380D02*
X90457952Y-129754380D01*
X90838904Y-129754380D01*
X90934142Y-129802000D01*
X90981761Y-129849619D01*
X91029380Y-129944857D01*
X91029380Y-130087714D01*
X90981761Y-130182952D01*
X90934142Y-130230571D01*
X90838904Y-130278190D01*
X90457952Y-130278190D01*
X91410333Y-130706761D02*
X91553190Y-130754380D01*
X91791285Y-130754380D01*
X91886523Y-130706761D01*
X91934142Y-130659142D01*
X91981761Y-130563904D01*
X91981761Y-130468666D01*
X91934142Y-130373428D01*
X91886523Y-130325809D01*
X91791285Y-130278190D01*
X91600809Y-130230571D01*
X91505571Y-130182952D01*
X91457952Y-130135333D01*
X91410333Y-130040095D01*
X91410333Y-129944857D01*
X91457952Y-129849619D01*
X91505571Y-129802000D01*
X91600809Y-129754380D01*
X91838904Y-129754380D01*
X91981761Y-129802000D01*
X92267476Y-129754380D02*
X92838904Y-129754380D01*
X92553190Y-130754380D02*
X92553190Y-129754380D01*
D11*
X118062904Y-131586238D02*
X118062904Y-131091000D01*
X118367666Y-131357666D01*
X118367666Y-131243380D01*
X118405761Y-131167190D01*
X118443857Y-131129095D01*
X118520047Y-131091000D01*
X118710523Y-131091000D01*
X118786714Y-131129095D01*
X118824809Y-131167190D01*
X118862904Y-131243380D01*
X118862904Y-131471952D01*
X118824809Y-131548142D01*
X118786714Y-131586238D01*
X118062904Y-130862428D02*
X118862904Y-130595761D01*
X118062904Y-130329095D01*
X118062904Y-130138619D02*
X118062904Y-129643380D01*
X118367666Y-129910047D01*
X118367666Y-129795761D01*
X118405761Y-129719571D01*
X118443857Y-129681476D01*
X118520047Y-129643380D01*
X118710523Y-129643380D01*
X118786714Y-129681476D01*
X118824809Y-129719571D01*
X118862904Y-129795761D01*
X118862904Y-130024333D01*
X118824809Y-130100523D01*
X118786714Y-130138619D01*
X113782904Y-131522761D02*
X112982904Y-131522761D01*
X112982904Y-131332285D01*
X113021000Y-131218000D01*
X113097190Y-131141809D01*
X113173380Y-131103714D01*
X113325761Y-131065619D01*
X113440047Y-131065619D01*
X113592428Y-131103714D01*
X113668619Y-131141809D01*
X113744809Y-131218000D01*
X113782904Y-131332285D01*
X113782904Y-131522761D01*
X113554333Y-130760857D02*
X113554333Y-130379904D01*
X113782904Y-130837047D02*
X112982904Y-130570380D01*
X113782904Y-130303714D01*
X112982904Y-130151333D02*
X112982904Y-129694190D01*
X113782904Y-129922761D02*
X112982904Y-129922761D01*
D10*
X113879380Y-114752333D02*
X114593666Y-114752333D01*
X114736523Y-114799952D01*
X114831761Y-114895190D01*
X114879380Y-115038047D01*
X114879380Y-115133285D01*
X114879380Y-114276142D02*
X113879380Y-114276142D01*
X113879380Y-113895190D01*
X113927000Y-113799952D01*
X113974619Y-113752333D01*
X114069857Y-113704714D01*
X114212714Y-113704714D01*
X114307952Y-113752333D01*
X114355571Y-113799952D01*
X114403190Y-113895190D01*
X114403190Y-114276142D01*
X114879380Y-112752333D02*
X114879380Y-113323761D01*
X114879380Y-113038047D02*
X113879380Y-113038047D01*
X114022238Y-113133285D01*
X114117476Y-113228523D01*
X114165095Y-113323761D01*
X98554142Y-134723142D02*
X98506523Y-134770761D01*
X98363666Y-134818380D01*
X98268428Y-134818380D01*
X98125571Y-134770761D01*
X98030333Y-134675523D01*
X97982714Y-134580285D01*
X97935095Y-134389809D01*
X97935095Y-134246952D01*
X97982714Y-134056476D01*
X98030333Y-133961238D01*
X98125571Y-133866000D01*
X98268428Y-133818380D01*
X98363666Y-133818380D01*
X98506523Y-133866000D01*
X98554142Y-133913619D01*
X99506523Y-134818380D02*
X98935095Y-134818380D01*
X99220809Y-134818380D02*
X99220809Y-133818380D01*
X99125571Y-133961238D01*
X99030333Y-134056476D01*
X98935095Y-134104095D01*
X99887476Y-133913619D02*
X99935095Y-133866000D01*
X100030333Y-133818380D01*
X100268428Y-133818380D01*
X100363666Y-133866000D01*
X100411285Y-133913619D01*
X100458904Y-134008857D01*
X100458904Y-134104095D01*
X100411285Y-134246952D01*
X99839857Y-134818380D01*
X100458904Y-134818380D01*
X86847780Y-125426695D02*
X85847780Y-125426695D01*
X85847780Y-125188600D01*
X85895400Y-125045742D01*
X85990638Y-124950504D01*
X86085876Y-124902885D01*
X86276352Y-124855266D01*
X86419209Y-124855266D01*
X86609685Y-124902885D01*
X86704923Y-124950504D01*
X86800161Y-125045742D01*
X86847780Y-125188600D01*
X86847780Y-125426695D01*
X86847780Y-123902885D02*
X86847780Y-124474314D01*
X86847780Y-124188600D02*
X85847780Y-124188600D01*
X85990638Y-124283838D01*
X86085876Y-124379076D01*
X86133495Y-124474314D01*
X101379904Y-116606580D02*
X101379904Y-115606580D01*
X101618000Y-115606580D01*
X101760857Y-115654200D01*
X101856095Y-115749438D01*
X101903714Y-115844676D01*
X101951333Y-116035152D01*
X101951333Y-116178009D01*
X101903714Y-116368485D01*
X101856095Y-116463723D01*
X101760857Y-116558961D01*
X101618000Y-116606580D01*
X101379904Y-116606580D01*
X102332285Y-115701819D02*
X102379904Y-115654200D01*
X102475142Y-115606580D01*
X102713238Y-115606580D01*
X102808476Y-115654200D01*
X102856095Y-115701819D01*
X102903714Y-115797057D01*
X102903714Y-115892295D01*
X102856095Y-116035152D01*
X102284666Y-116606580D01*
X102903714Y-116606580D01*
X113847980Y-123496295D02*
X112847980Y-123496295D01*
X112847980Y-123258200D01*
X112895600Y-123115342D01*
X112990838Y-123020104D01*
X113086076Y-122972485D01*
X113276552Y-122924866D01*
X113419409Y-122924866D01*
X113609885Y-122972485D01*
X113705123Y-123020104D01*
X113800361Y-123115342D01*
X113847980Y-123258200D01*
X113847980Y-123496295D01*
X112847980Y-122591533D02*
X112847980Y-121972485D01*
X113228933Y-122305819D01*
X113228933Y-122162961D01*
X113276552Y-122067723D01*
X113324171Y-122020104D01*
X113419409Y-121972485D01*
X113657504Y-121972485D01*
X113752742Y-122020104D01*
X113800361Y-122067723D01*
X113847980Y-122162961D01*
X113847980Y-122448676D01*
X113800361Y-122543914D01*
X113752742Y-122591533D01*
X112429220Y-116719618D02*
X111563194Y-117219618D01*
X111444146Y-117013422D01*
X111413957Y-116865894D01*
X111448817Y-116735797D01*
X111507486Y-116646938D01*
X111648634Y-116510461D01*
X111772351Y-116439032D01*
X111961118Y-116385034D01*
X112067406Y-116378654D01*
X112197504Y-116413513D01*
X112310172Y-116513422D01*
X112429220Y-116719618D01*
X110825099Y-115941200D02*
X111063194Y-116353593D01*
X111499397Y-116156737D01*
X111434348Y-116139307D01*
X111345490Y-116080638D01*
X111226442Y-115874442D01*
X111220062Y-115768153D01*
X111237492Y-115703105D01*
X111296161Y-115614246D01*
X111502358Y-115495199D01*
X111608646Y-115488819D01*
X111673694Y-115506249D01*
X111762553Y-115564918D01*
X111881600Y-115771114D01*
X111887980Y-115877402D01*
X111870550Y-115942451D01*
X110340981Y-120674221D02*
X109840981Y-119808195D01*
X110047177Y-119689147D01*
X110194705Y-119658958D01*
X110324802Y-119693818D01*
X110413661Y-119752487D01*
X110550138Y-119893635D01*
X110621567Y-120017352D01*
X110675565Y-120206119D01*
X110681945Y-120312407D01*
X110647086Y-120442505D01*
X110547177Y-120555173D01*
X110340981Y-120674221D01*
X111078160Y-119093909D02*
X110913203Y-119189147D01*
X110854534Y-119278006D01*
X110837104Y-119343055D01*
X110826054Y-119514392D01*
X110880053Y-119703158D01*
X111070529Y-120033073D01*
X111159387Y-120091742D01*
X111224436Y-120109172D01*
X111330724Y-120102792D01*
X111495681Y-120007554D01*
X111554350Y-119918695D01*
X111571780Y-119853647D01*
X111565400Y-119747359D01*
X111446353Y-119541162D01*
X111357494Y-119482493D01*
X111292446Y-119465063D01*
X111186157Y-119471443D01*
X111021200Y-119566681D01*
X110962531Y-119655539D01*
X110945101Y-119720588D01*
X110951481Y-119826876D01*
X108361580Y-122785095D02*
X107361580Y-122785095D01*
X107361580Y-122547000D01*
X107409200Y-122404142D01*
X107504438Y-122308904D01*
X107599676Y-122261285D01*
X107790152Y-122213666D01*
X107933009Y-122213666D01*
X108123485Y-122261285D01*
X108218723Y-122308904D01*
X108313961Y-122404142D01*
X108361580Y-122547000D01*
X108361580Y-122785095D01*
X107790152Y-121642238D02*
X107742533Y-121737476D01*
X107694914Y-121785095D01*
X107599676Y-121832714D01*
X107552057Y-121832714D01*
X107456819Y-121785095D01*
X107409200Y-121737476D01*
X107361580Y-121642238D01*
X107361580Y-121451761D01*
X107409200Y-121356523D01*
X107456819Y-121308904D01*
X107552057Y-121261285D01*
X107599676Y-121261285D01*
X107694914Y-121308904D01*
X107742533Y-121356523D01*
X107790152Y-121451761D01*
X107790152Y-121642238D01*
X107837771Y-121737476D01*
X107885390Y-121785095D01*
X107980628Y-121832714D01*
X108171104Y-121832714D01*
X108266342Y-121785095D01*
X108313961Y-121737476D01*
X108361580Y-121642238D01*
X108361580Y-121451761D01*
X108313961Y-121356523D01*
X108266342Y-121308904D01*
X108171104Y-121261285D01*
X107980628Y-121261285D01*
X107885390Y-121308904D01*
X107837771Y-121356523D01*
X107790152Y-121451761D01*
X104297580Y-113082295D02*
X103297580Y-113082295D01*
X103297580Y-112844200D01*
X103345200Y-112701342D01*
X103440438Y-112606104D01*
X103535676Y-112558485D01*
X103726152Y-112510866D01*
X103869009Y-112510866D01*
X104059485Y-112558485D01*
X104154723Y-112606104D01*
X104249961Y-112701342D01*
X104297580Y-112844200D01*
X104297580Y-113082295D01*
X104297580Y-112034676D02*
X104297580Y-111844200D01*
X104249961Y-111748961D01*
X104202342Y-111701342D01*
X104059485Y-111606104D01*
X103869009Y-111558485D01*
X103488057Y-111558485D01*
X103392819Y-111606104D01*
X103345200Y-111653723D01*
X103297580Y-111748961D01*
X103297580Y-111939438D01*
X103345200Y-112034676D01*
X103392819Y-112082295D01*
X103488057Y-112129914D01*
X103726152Y-112129914D01*
X103821390Y-112082295D01*
X103869009Y-112034676D01*
X103916628Y-111939438D01*
X103916628Y-111748961D01*
X103869009Y-111653723D01*
X103821390Y-111606104D01*
X103726152Y-111558485D01*
X107236630Y-126017192D02*
X106370605Y-125517192D01*
X106489652Y-125310996D01*
X106602320Y-125211087D01*
X106732418Y-125176228D01*
X106838706Y-125182608D01*
X107027473Y-125236606D01*
X107151191Y-125308035D01*
X107292338Y-125444512D01*
X107351007Y-125533371D01*
X107385867Y-125663468D01*
X107355678Y-125810996D01*
X107236630Y-126017192D01*
X107998535Y-124697534D02*
X107712821Y-125192406D01*
X107855678Y-124944970D02*
X106989652Y-124444970D01*
X107065751Y-124598878D01*
X107100611Y-124728975D01*
X107094231Y-124835263D01*
X107442033Y-123661424D02*
X107489652Y-123578945D01*
X107578511Y-123520276D01*
X107643559Y-123502846D01*
X107749848Y-123509226D01*
X107938614Y-123563225D01*
X108144811Y-123682272D01*
X108285959Y-123818750D01*
X108344628Y-123907608D01*
X108362057Y-123972657D01*
X108355678Y-124078945D01*
X108308059Y-124161424D01*
X108219200Y-124220093D01*
X108154151Y-124237522D01*
X108047863Y-124231143D01*
X107859097Y-124177144D01*
X107652900Y-124058096D01*
X107511752Y-123921619D01*
X107453083Y-123832760D01*
X107435653Y-123767712D01*
X107442033Y-123661424D01*
X105148916Y-132778411D02*
X104282890Y-133278411D01*
X104163843Y-133072215D01*
X104133653Y-132924687D01*
X104168513Y-132794590D01*
X104227182Y-132705731D01*
X104368330Y-132569254D01*
X104492048Y-132497825D01*
X104680814Y-132443827D01*
X104787103Y-132437447D01*
X104917200Y-132472306D01*
X105029868Y-132572215D01*
X105148916Y-132778411D01*
X104387011Y-131458754D02*
X104672725Y-131953625D01*
X104529868Y-131706189D02*
X103663843Y-132206189D01*
X103835180Y-132217239D01*
X103965277Y-132252099D01*
X104054136Y-132310768D01*
X103412988Y-131581220D02*
X103347939Y-131563790D01*
X103259081Y-131505121D01*
X103140033Y-131298925D01*
X103133653Y-131192637D01*
X103151083Y-131127588D01*
X103209752Y-131038729D01*
X103292231Y-130991110D01*
X103439758Y-130960921D01*
X104220344Y-131170078D01*
X103910821Y-130633967D01*
X90954788Y-126449516D02*
X90454788Y-125583490D01*
X90660984Y-125464443D01*
X90808512Y-125434253D01*
X90938609Y-125469113D01*
X91027468Y-125527782D01*
X91163945Y-125668930D01*
X91235374Y-125792648D01*
X91289372Y-125981414D01*
X91295752Y-126087703D01*
X91260893Y-126217800D01*
X91160984Y-126330468D01*
X90954788Y-126449516D01*
X92274445Y-125687611D02*
X91779574Y-125973325D01*
X92027010Y-125830468D02*
X91527010Y-124964443D01*
X91515960Y-125135780D01*
X91481100Y-125265877D01*
X91422431Y-125354736D01*
X92063121Y-124654919D02*
X92640471Y-124321586D01*
X92769317Y-125401897D01*
X111656230Y-129711491D02*
X110790205Y-129211491D01*
X110909252Y-129005295D01*
X111021920Y-128905386D01*
X111152018Y-128870527D01*
X111258306Y-128876907D01*
X111447073Y-128930905D01*
X111570791Y-129002334D01*
X111711938Y-129138811D01*
X111770607Y-129227670D01*
X111805467Y-129357767D01*
X111775278Y-129505295D01*
X111656230Y-129711491D01*
X112418135Y-128391833D02*
X112132421Y-128886705D01*
X112275278Y-128639269D02*
X111409252Y-128139269D01*
X111485351Y-128293177D01*
X111520211Y-128423274D01*
X111513831Y-128529562D01*
X112208977Y-127611248D02*
X112120119Y-127669917D01*
X112055070Y-127687346D01*
X111948782Y-127680967D01*
X111907543Y-127657157D01*
X111848874Y-127568299D01*
X111831444Y-127503250D01*
X111837824Y-127396962D01*
X111933062Y-127232005D01*
X112021920Y-127173336D01*
X112086969Y-127155906D01*
X112193257Y-127162285D01*
X112234496Y-127186095D01*
X112293165Y-127274953D01*
X112310595Y-127340002D01*
X112304216Y-127446290D01*
X112208977Y-127611248D01*
X112202598Y-127717536D01*
X112220027Y-127782585D01*
X112278697Y-127871443D01*
X112443654Y-127966681D01*
X112549942Y-127973061D01*
X112614991Y-127955631D01*
X112703849Y-127896962D01*
X112799087Y-127732005D01*
X112805467Y-127625716D01*
X112788037Y-127560668D01*
X112729368Y-127471809D01*
X112564411Y-127376571D01*
X112458123Y-127370191D01*
X112393074Y-127387621D01*
X112304216Y-127446290D01*
X82869714Y-134437380D02*
X82869714Y-133437380D01*
X83107809Y-133437380D01*
X83250666Y-133485000D01*
X83345904Y-133580238D01*
X83393523Y-133675476D01*
X83441142Y-133865952D01*
X83441142Y-134008809D01*
X83393523Y-134199285D01*
X83345904Y-134294523D01*
X83250666Y-134389761D01*
X83107809Y-134437380D01*
X82869714Y-134437380D01*
X84393523Y-134437380D02*
X83822095Y-134437380D01*
X84107809Y-134437380D02*
X84107809Y-133437380D01*
X84012571Y-133580238D01*
X83917333Y-133675476D01*
X83822095Y-133723095D01*
X84869714Y-134437380D02*
X85060190Y-134437380D01*
X85155428Y-134389761D01*
X85203047Y-134342142D01*
X85298285Y-134199285D01*
X85345904Y-134008809D01*
X85345904Y-133627857D01*
X85298285Y-133532619D01*
X85250666Y-133485000D01*
X85155428Y-133437380D01*
X84964952Y-133437380D01*
X84869714Y-133485000D01*
X84822095Y-133532619D01*
X84774476Y-133627857D01*
X84774476Y-133865952D01*
X84822095Y-133961190D01*
X84869714Y-134008809D01*
X84964952Y-134056428D01*
X85155428Y-134056428D01*
X85250666Y-134008809D01*
X85298285Y-133961190D01*
X85345904Y-133865952D01*
X81742380Y-128341285D02*
X80742380Y-128341285D01*
X80742380Y-128103190D01*
X80790000Y-127960333D01*
X80885238Y-127865095D01*
X80980476Y-127817476D01*
X81170952Y-127769857D01*
X81313809Y-127769857D01*
X81504285Y-127817476D01*
X81599523Y-127865095D01*
X81694761Y-127960333D01*
X81742380Y-128103190D01*
X81742380Y-128341285D01*
X80837619Y-127388904D02*
X80790000Y-127341285D01*
X80742380Y-127246047D01*
X80742380Y-127007952D01*
X80790000Y-126912714D01*
X80837619Y-126865095D01*
X80932857Y-126817476D01*
X81028095Y-126817476D01*
X81170952Y-126865095D01*
X81742380Y-127436523D01*
X81742380Y-126817476D01*
X81742380Y-125865095D02*
X81742380Y-126436523D01*
X81742380Y-126150809D02*
X80742380Y-126150809D01*
X80885238Y-126246047D01*
X80980476Y-126341285D01*
X81028095Y-126436523D01*
X91686916Y-128714411D02*
X90820890Y-129214411D01*
X90701843Y-129008215D01*
X90671653Y-128860687D01*
X90706513Y-128730590D01*
X90765182Y-128641731D01*
X90906330Y-128505254D01*
X91030048Y-128433825D01*
X91218814Y-128379827D01*
X91325103Y-128373447D01*
X91455200Y-128408306D01*
X91567868Y-128508215D01*
X91686916Y-128714411D01*
X90427178Y-128342006D02*
X90362130Y-128324576D01*
X90273271Y-128265907D01*
X90154224Y-128059711D01*
X90147844Y-127953423D01*
X90165274Y-127888374D01*
X90223943Y-127799515D01*
X90306421Y-127751896D01*
X90453949Y-127721707D01*
X91234535Y-127930865D01*
X90925011Y-127394754D01*
X89630414Y-127152446D02*
X89725652Y-127317403D01*
X89814511Y-127376072D01*
X89879559Y-127393502D01*
X90050896Y-127404552D01*
X90239663Y-127350553D01*
X90569578Y-127160077D01*
X90628247Y-127071219D01*
X90645676Y-127006170D01*
X90639297Y-126899882D01*
X90544059Y-126734925D01*
X90455200Y-126676256D01*
X90390151Y-126658826D01*
X90283863Y-126665206D01*
X90077667Y-126784253D01*
X90018998Y-126873112D01*
X90001568Y-126938160D01*
X90007948Y-127044448D01*
X90103186Y-127209406D01*
X90192044Y-127268075D01*
X90257093Y-127285505D01*
X90363381Y-127279125D01*
X114721314Y-120467380D02*
X114721314Y-119467380D01*
X114959409Y-119467380D01*
X115102266Y-119515000D01*
X115197504Y-119610238D01*
X115245123Y-119705476D01*
X115292742Y-119895952D01*
X115292742Y-120038809D01*
X115245123Y-120229285D01*
X115197504Y-120324523D01*
X115102266Y-120419761D01*
X114959409Y-120467380D01*
X114721314Y-120467380D01*
X115673695Y-119562619D02*
X115721314Y-119515000D01*
X115816552Y-119467380D01*
X116054647Y-119467380D01*
X116149885Y-119515000D01*
X116197504Y-119562619D01*
X116245123Y-119657857D01*
X116245123Y-119753095D01*
X116197504Y-119895952D01*
X115626076Y-120467380D01*
X116245123Y-120467380D01*
X116578457Y-119467380D02*
X117245123Y-119467380D01*
X116816552Y-120467380D01*
X114873714Y-122854980D02*
X114873714Y-121854980D01*
X115111809Y-121854980D01*
X115254666Y-121902600D01*
X115349904Y-121997838D01*
X115397523Y-122093076D01*
X115445142Y-122283552D01*
X115445142Y-122426409D01*
X115397523Y-122616885D01*
X115349904Y-122712123D01*
X115254666Y-122807361D01*
X115111809Y-122854980D01*
X114873714Y-122854980D01*
X115826095Y-121950219D02*
X115873714Y-121902600D01*
X115968952Y-121854980D01*
X116207047Y-121854980D01*
X116302285Y-121902600D01*
X116349904Y-121950219D01*
X116397523Y-122045457D01*
X116397523Y-122140695D01*
X116349904Y-122283552D01*
X115778476Y-122854980D01*
X116397523Y-122854980D01*
X116873714Y-122854980D02*
X117064190Y-122854980D01*
X117159428Y-122807361D01*
X117207047Y-122759742D01*
X117302285Y-122616885D01*
X117349904Y-122426409D01*
X117349904Y-122045457D01*
X117302285Y-121950219D01*
X117254666Y-121902600D01*
X117159428Y-121854980D01*
X116968952Y-121854980D01*
X116873714Y-121902600D01*
X116826095Y-121950219D01*
X116778476Y-122045457D01*
X116778476Y-122283552D01*
X116826095Y-122378790D01*
X116873714Y-122426409D01*
X116968952Y-122474028D01*
X117159428Y-122474028D01*
X117254666Y-122426409D01*
X117302285Y-122378790D01*
X117349904Y-122283552D01*
X91200914Y-114269780D02*
X91200914Y-113269780D01*
X91439009Y-113269780D01*
X91581866Y-113317400D01*
X91677104Y-113412638D01*
X91724723Y-113507876D01*
X91772342Y-113698352D01*
X91772342Y-113841209D01*
X91724723Y-114031685D01*
X91677104Y-114126923D01*
X91581866Y-114222161D01*
X91439009Y-114269780D01*
X91200914Y-114269780D01*
X92105676Y-113269780D02*
X92724723Y-113269780D01*
X92391390Y-113650733D01*
X92534247Y-113650733D01*
X92629485Y-113698352D01*
X92677104Y-113745971D01*
X92724723Y-113841209D01*
X92724723Y-114079304D01*
X92677104Y-114174542D01*
X92629485Y-114222161D01*
X92534247Y-114269780D01*
X92248533Y-114269780D01*
X92153295Y-114222161D01*
X92105676Y-114174542D01*
X93343771Y-113269780D02*
X93439009Y-113269780D01*
X93534247Y-113317400D01*
X93581866Y-113365019D01*
X93629485Y-113460257D01*
X93677104Y-113650733D01*
X93677104Y-113888828D01*
X93629485Y-114079304D01*
X93581866Y-114174542D01*
X93534247Y-114222161D01*
X93439009Y-114269780D01*
X93343771Y-114269780D01*
X93248533Y-114222161D01*
X93200914Y-114174542D01*
X93153295Y-114079304D01*
X93105676Y-113888828D01*
X93105676Y-113650733D01*
X93153295Y-113460257D01*
X93200914Y-113365019D01*
X93248533Y-113317400D01*
X93343771Y-113269780D01*
X114873714Y-125801380D02*
X114873714Y-124801380D01*
X115111809Y-124801380D01*
X115254666Y-124849000D01*
X115349904Y-124944238D01*
X115397523Y-125039476D01*
X115445142Y-125229952D01*
X115445142Y-125372809D01*
X115397523Y-125563285D01*
X115349904Y-125658523D01*
X115254666Y-125753761D01*
X115111809Y-125801380D01*
X114873714Y-125801380D01*
X115778476Y-124801380D02*
X116397523Y-124801380D01*
X116064190Y-125182333D01*
X116207047Y-125182333D01*
X116302285Y-125229952D01*
X116349904Y-125277571D01*
X116397523Y-125372809D01*
X116397523Y-125610904D01*
X116349904Y-125706142D01*
X116302285Y-125753761D01*
X116207047Y-125801380D01*
X115921333Y-125801380D01*
X115826095Y-125753761D01*
X115778476Y-125706142D01*
X117349904Y-125801380D02*
X116778476Y-125801380D01*
X117064190Y-125801380D02*
X117064190Y-124801380D01*
X116968952Y-124944238D01*
X116873714Y-125039476D01*
X116778476Y-125087095D01*
X114721314Y-128798580D02*
X114721314Y-127798580D01*
X114959409Y-127798580D01*
X115102266Y-127846200D01*
X115197504Y-127941438D01*
X115245123Y-128036676D01*
X115292742Y-128227152D01*
X115292742Y-128370009D01*
X115245123Y-128560485D01*
X115197504Y-128655723D01*
X115102266Y-128750961D01*
X114959409Y-128798580D01*
X114721314Y-128798580D01*
X115626076Y-127798580D02*
X116245123Y-127798580D01*
X115911790Y-128179533D01*
X116054647Y-128179533D01*
X116149885Y-128227152D01*
X116197504Y-128274771D01*
X116245123Y-128370009D01*
X116245123Y-128608104D01*
X116197504Y-128703342D01*
X116149885Y-128750961D01*
X116054647Y-128798580D01*
X115768933Y-128798580D01*
X115673695Y-128750961D01*
X115626076Y-128703342D01*
X116578457Y-127798580D02*
X117197504Y-127798580D01*
X116864171Y-128179533D01*
X117007028Y-128179533D01*
X117102266Y-128227152D01*
X117149885Y-128274771D01*
X117197504Y-128370009D01*
X117197504Y-128608104D01*
X117149885Y-128703342D01*
X117102266Y-128750961D01*
X117007028Y-128798580D01*
X116721314Y-128798580D01*
X116626076Y-128750961D01*
X116578457Y-128703342D01*
X96828380Y-118401666D02*
X96352190Y-118735000D01*
X96828380Y-118973095D02*
X95828380Y-118973095D01*
X95828380Y-118592142D01*
X95876000Y-118496904D01*
X95923619Y-118449285D01*
X96018857Y-118401666D01*
X96161714Y-118401666D01*
X96256952Y-118449285D01*
X96304571Y-118496904D01*
X96352190Y-118592142D01*
X96352190Y-118973095D01*
X96828380Y-117449285D02*
X96828380Y-118020714D01*
X96828380Y-117735000D02*
X95828380Y-117735000D01*
X95971238Y-117830238D01*
X96066476Y-117925476D01*
X96114095Y-118020714D01*
X121246333Y-114371380D02*
X120913000Y-113895190D01*
X120674904Y-114371380D02*
X120674904Y-113371380D01*
X121055857Y-113371380D01*
X121151095Y-113419000D01*
X121198714Y-113466619D01*
X121246333Y-113561857D01*
X121246333Y-113704714D01*
X121198714Y-113799952D01*
X121151095Y-113847571D01*
X121055857Y-113895190D01*
X120674904Y-113895190D01*
X121627285Y-113466619D02*
X121674904Y-113419000D01*
X121770142Y-113371380D01*
X122008238Y-113371380D01*
X122103476Y-113419000D01*
X122151095Y-113466619D01*
X122198714Y-113561857D01*
X122198714Y-113657095D01*
X122151095Y-113799952D01*
X121579666Y-114371380D01*
X122198714Y-114371380D01*
X97030207Y-128080030D02*
X97530207Y-127214005D01*
X97736403Y-127333052D01*
X97836312Y-127445720D01*
X97871171Y-127575818D01*
X97864791Y-127682106D01*
X97810793Y-127870873D01*
X97739364Y-127994591D01*
X97602887Y-128135738D01*
X97514028Y-128194407D01*
X97383931Y-128229267D01*
X97236403Y-128199078D01*
X97030207Y-128080030D01*
X98349865Y-128841935D02*
X97854993Y-128556221D01*
X98102429Y-128699078D02*
X98602429Y-127833052D01*
X98448521Y-127909151D01*
X98318424Y-127944011D01*
X98212136Y-127937631D01*
X99592172Y-128404481D02*
X99427215Y-128309243D01*
X99320927Y-128302863D01*
X99255878Y-128320293D01*
X99101971Y-128396392D01*
X98965493Y-128537539D01*
X98775017Y-128867454D01*
X98768637Y-128973742D01*
X98786067Y-129038791D01*
X98844736Y-129127649D01*
X99009693Y-129222887D01*
X99115982Y-129229267D01*
X99181030Y-129211837D01*
X99269889Y-129153168D01*
X99388936Y-128946972D01*
X99395316Y-128840683D01*
X99377886Y-128775635D01*
X99319217Y-128686776D01*
X99154260Y-128591538D01*
X99047972Y-128585158D01*
X98982923Y-128602588D01*
X98894065Y-128661257D01*
X106728188Y-133917116D02*
X106228188Y-133051090D01*
X106434384Y-132932043D01*
X106581912Y-132901853D01*
X106712009Y-132936713D01*
X106800868Y-132995382D01*
X106937345Y-133136530D01*
X107008774Y-133260248D01*
X107062772Y-133449014D01*
X107069152Y-133555303D01*
X107034293Y-133685400D01*
X106934384Y-133798068D01*
X106728188Y-133917116D01*
X107100593Y-132657378D02*
X107118023Y-132592330D01*
X107176692Y-132503471D01*
X107382888Y-132384424D01*
X107489176Y-132378044D01*
X107554225Y-132395474D01*
X107643084Y-132454143D01*
X107690703Y-132536621D01*
X107720892Y-132684149D01*
X107511734Y-133464735D01*
X108047845Y-133155211D01*
X108083956Y-131979662D02*
X108166435Y-131932043D01*
X108272723Y-131925663D01*
X108337772Y-131943093D01*
X108426630Y-132001762D01*
X108563108Y-132142910D01*
X108682155Y-132349106D01*
X108736154Y-132537873D01*
X108742534Y-132644161D01*
X108725104Y-132709210D01*
X108666435Y-132798068D01*
X108583956Y-132845687D01*
X108477668Y-132852067D01*
X108412619Y-132834637D01*
X108323761Y-132775968D01*
X108187284Y-132634820D01*
X108068236Y-132428624D01*
X108014237Y-132239857D01*
X108007858Y-132133569D01*
X108025287Y-132068520D01*
X108083956Y-131979662D01*
X98219630Y-133738792D02*
X97353605Y-133238792D01*
X97472652Y-133032596D01*
X97585320Y-132932687D01*
X97715418Y-132897828D01*
X97821706Y-132904208D01*
X98010473Y-132958206D01*
X98134191Y-133029635D01*
X98275338Y-133166112D01*
X98334007Y-133254971D01*
X98368867Y-133385068D01*
X98338678Y-133532596D01*
X98219630Y-133738792D01*
X97912274Y-132461625D02*
X97894844Y-132396576D01*
X97901224Y-132290288D01*
X98020271Y-132084092D01*
X98109130Y-132025423D01*
X98174178Y-132007993D01*
X98280467Y-132014373D01*
X98362945Y-132061992D01*
X98462854Y-132174660D01*
X98672011Y-132955245D01*
X98981535Y-132419134D01*
X98832756Y-131343494D02*
X99410106Y-131676827D01*
X98383794Y-131359214D02*
X98883336Y-131922553D01*
X99192860Y-131386442D01*
X89108380Y-128595285D02*
X88108380Y-128595285D01*
X88108380Y-128357190D01*
X88156000Y-128214333D01*
X88251238Y-128119095D01*
X88346476Y-128071476D01*
X88536952Y-128023857D01*
X88679809Y-128023857D01*
X88870285Y-128071476D01*
X88965523Y-128119095D01*
X89060761Y-128214333D01*
X89108380Y-128357190D01*
X89108380Y-128595285D01*
X88203619Y-127642904D02*
X88156000Y-127595285D01*
X88108380Y-127500047D01*
X88108380Y-127261952D01*
X88156000Y-127166714D01*
X88203619Y-127119095D01*
X88298857Y-127071476D01*
X88394095Y-127071476D01*
X88536952Y-127119095D01*
X89108380Y-127690523D01*
X89108380Y-127071476D01*
X88536952Y-126500047D02*
X88489333Y-126595285D01*
X88441714Y-126642904D01*
X88346476Y-126690523D01*
X88298857Y-126690523D01*
X88203619Y-126642904D01*
X88156000Y-126595285D01*
X88108380Y-126500047D01*
X88108380Y-126309571D01*
X88156000Y-126214333D01*
X88203619Y-126166714D01*
X88298857Y-126119095D01*
X88346476Y-126119095D01*
X88441714Y-126166714D01*
X88489333Y-126214333D01*
X88536952Y-126309571D01*
X88536952Y-126500047D01*
X88584571Y-126595285D01*
X88632190Y-126642904D01*
X88727428Y-126690523D01*
X88917904Y-126690523D01*
X89013142Y-126642904D01*
X89060761Y-126595285D01*
X89108380Y-126500047D01*
X89108380Y-126309571D01*
X89060761Y-126214333D01*
X89013142Y-126166714D01*
X88917904Y-126119095D01*
X88727428Y-126119095D01*
X88632190Y-126166714D01*
X88584571Y-126214333D01*
X88536952Y-126309571D01*
X87263914Y-120365780D02*
X87263914Y-119365780D01*
X87502009Y-119365780D01*
X87644866Y-119413400D01*
X87740104Y-119508638D01*
X87787723Y-119603876D01*
X87835342Y-119794352D01*
X87835342Y-119937209D01*
X87787723Y-120127685D01*
X87740104Y-120222923D01*
X87644866Y-120318161D01*
X87502009Y-120365780D01*
X87263914Y-120365780D01*
X88787723Y-120365780D02*
X88216295Y-120365780D01*
X88502009Y-120365780D02*
X88502009Y-119365780D01*
X88406771Y-119508638D01*
X88311533Y-119603876D01*
X88216295Y-119651495D01*
X89692485Y-119365780D02*
X89216295Y-119365780D01*
X89168676Y-119841971D01*
X89216295Y-119794352D01*
X89311533Y-119746733D01*
X89549628Y-119746733D01*
X89644866Y-119794352D01*
X89692485Y-119841971D01*
X89740104Y-119937209D01*
X89740104Y-120175304D01*
X89692485Y-120270542D01*
X89644866Y-120318161D01*
X89549628Y-120365780D01*
X89311533Y-120365780D01*
X89216295Y-120318161D01*
X89168676Y-120270542D01*
X105320199Y-116791874D02*
X104820199Y-117657899D01*
X104614003Y-117538852D01*
X104514094Y-117426184D01*
X104479235Y-117296086D01*
X104485614Y-117189798D01*
X104539613Y-117001031D01*
X104611042Y-116877313D01*
X104747519Y-116736165D01*
X104836378Y-116677496D01*
X104966475Y-116642637D01*
X105114003Y-116672826D01*
X105320199Y-116791874D01*
X103749687Y-116654938D02*
X104083020Y-116077588D01*
X103765407Y-117103900D02*
X104328746Y-116604358D01*
X103792635Y-116294835D01*
X108846325Y-115241599D02*
X107980300Y-114741599D01*
X108099347Y-114535403D01*
X108212015Y-114435494D01*
X108342113Y-114400635D01*
X108448401Y-114407014D01*
X108637168Y-114461013D01*
X108760886Y-114532442D01*
X108902034Y-114668919D01*
X108960703Y-114757778D01*
X108995562Y-114887875D01*
X108965373Y-115035403D01*
X108846325Y-115241599D01*
X108432681Y-113958052D02*
X108766014Y-113380702D01*
X109417754Y-114251856D01*
X99989314Y-129560580D02*
X99989314Y-128560580D01*
X100227409Y-128560580D01*
X100370266Y-128608200D01*
X100465504Y-128703438D01*
X100513123Y-128798676D01*
X100560742Y-128989152D01*
X100560742Y-129132009D01*
X100513123Y-129322485D01*
X100465504Y-129417723D01*
X100370266Y-129512961D01*
X100227409Y-129560580D01*
X99989314Y-129560580D01*
X101513123Y-129560580D02*
X100941695Y-129560580D01*
X101227409Y-129560580D02*
X101227409Y-128560580D01*
X101132171Y-128703438D01*
X101036933Y-128798676D01*
X100941695Y-128846295D01*
X102370266Y-128893914D02*
X102370266Y-129560580D01*
X102132171Y-128512961D02*
X101894076Y-129227247D01*
X102513123Y-129227247D01*
X103291314Y-134589780D02*
X103291314Y-133589780D01*
X103529409Y-133589780D01*
X103672266Y-133637400D01*
X103767504Y-133732638D01*
X103815123Y-133827876D01*
X103862742Y-134018352D01*
X103862742Y-134161209D01*
X103815123Y-134351685D01*
X103767504Y-134446923D01*
X103672266Y-134542161D01*
X103529409Y-134589780D01*
X103291314Y-134589780D01*
X104243695Y-133685019D02*
X104291314Y-133637400D01*
X104386552Y-133589780D01*
X104624647Y-133589780D01*
X104719885Y-133637400D01*
X104767504Y-133685019D01*
X104815123Y-133780257D01*
X104815123Y-133875495D01*
X104767504Y-134018352D01*
X104196076Y-134589780D01*
X104815123Y-134589780D01*
X105196076Y-133685019D02*
X105243695Y-133637400D01*
X105338933Y-133589780D01*
X105577028Y-133589780D01*
X105672266Y-133637400D01*
X105719885Y-133685019D01*
X105767504Y-133780257D01*
X105767504Y-133875495D01*
X105719885Y-134018352D01*
X105148457Y-134589780D01*
X105767504Y-134589780D01*
X97309083Y-111620388D02*
X98175109Y-111120388D01*
X98294156Y-111326584D01*
X98324346Y-111474112D01*
X98289486Y-111604209D01*
X98230817Y-111693068D01*
X98089669Y-111829545D01*
X97965951Y-111900974D01*
X97777185Y-111954972D01*
X97670896Y-111961352D01*
X97540799Y-111926493D01*
X97428131Y-111826584D01*
X97309083Y-111620388D01*
X98627490Y-111903934D02*
X98937013Y-112440045D01*
X98440432Y-112341847D01*
X98511861Y-112465564D01*
X98518241Y-112571853D01*
X98500811Y-112636901D01*
X98442142Y-112725760D01*
X98235945Y-112844807D01*
X98129657Y-112851187D01*
X98064608Y-112833757D01*
X97975750Y-112775088D01*
X97832893Y-112527652D01*
X97826513Y-112421364D01*
X97843943Y-112356315D01*
X99045011Y-112817579D02*
X99110060Y-112835009D01*
X99198918Y-112893678D01*
X99317966Y-113099874D01*
X99324346Y-113206162D01*
X99306916Y-113271211D01*
X99248247Y-113360070D01*
X99165768Y-113407689D01*
X99018241Y-113437878D01*
X98237655Y-113228721D01*
X98547178Y-113764832D01*
X98396988Y-117508716D02*
X97896988Y-116642690D01*
X98103184Y-116523643D01*
X98250712Y-116493453D01*
X98380809Y-116528313D01*
X98469668Y-116586982D01*
X98606145Y-116728130D01*
X98677574Y-116851848D01*
X98731572Y-117040614D01*
X98737952Y-117146903D01*
X98703093Y-117277000D01*
X98603184Y-117389668D01*
X98396988Y-117508716D01*
X99716645Y-116746811D02*
X99221774Y-117032525D01*
X99469210Y-116889668D02*
X98969210Y-116023643D01*
X98958160Y-116194980D01*
X98923300Y-116325077D01*
X98864631Y-116413936D01*
X100541432Y-116270621D02*
X100046560Y-116556335D01*
X100293996Y-116413478D02*
X99793996Y-115547452D01*
X99782946Y-115718789D01*
X99748086Y-115848887D01*
X99689417Y-115937745D01*
X101559295Y-120330980D02*
X101559295Y-121140504D01*
X101606914Y-121235742D01*
X101654533Y-121283361D01*
X101749771Y-121330980D01*
X101940247Y-121330980D01*
X102035485Y-121283361D01*
X102083104Y-121235742D01*
X102130723Y-121140504D01*
X102130723Y-120330980D01*
X102511676Y-120330980D02*
X103130723Y-120330980D01*
X102797390Y-120711933D01*
X102940247Y-120711933D01*
X103035485Y-120759552D01*
X103083104Y-120807171D01*
X103130723Y-120902409D01*
X103130723Y-121140504D01*
X103083104Y-121235742D01*
X103035485Y-121283361D01*
X102940247Y-121330980D01*
X102654533Y-121330980D01*
X102559295Y-121283361D01*
X102511676Y-121235742D01*
X86568380Y-130627285D02*
X85568380Y-130627285D01*
X85568380Y-130389190D01*
X85616000Y-130246333D01*
X85711238Y-130151095D01*
X85806476Y-130103476D01*
X85996952Y-130055857D01*
X86139809Y-130055857D01*
X86330285Y-130103476D01*
X86425523Y-130151095D01*
X86520761Y-130246333D01*
X86568380Y-130389190D01*
X86568380Y-130627285D01*
X85663619Y-129674904D02*
X85616000Y-129627285D01*
X85568380Y-129532047D01*
X85568380Y-129293952D01*
X85616000Y-129198714D01*
X85663619Y-129151095D01*
X85758857Y-129103476D01*
X85854095Y-129103476D01*
X85996952Y-129151095D01*
X86568380Y-129722523D01*
X86568380Y-129103476D01*
X85568380Y-128770142D02*
X85568380Y-128151095D01*
X85949333Y-128484428D01*
X85949333Y-128341571D01*
X85996952Y-128246333D01*
X86044571Y-128198714D01*
X86139809Y-128151095D01*
X86377904Y-128151095D01*
X86473142Y-128198714D01*
X86520761Y-128246333D01*
X86568380Y-128341571D01*
X86568380Y-128627285D01*
X86520761Y-128722523D01*
X86473142Y-128770142D01*
X94629915Y-121381780D02*
X94629915Y-120381780D01*
X94868010Y-120381780D01*
X95010867Y-120429400D01*
X95106105Y-120524638D01*
X95153724Y-120619876D01*
X95201343Y-120810352D01*
X95201343Y-120953209D01*
X95153724Y-121143685D01*
X95106105Y-121238923D01*
X95010867Y-121334161D01*
X94868010Y-121381780D01*
X94629915Y-121381780D01*
X96153724Y-121381780D02*
X95582296Y-121381780D01*
X95868010Y-121381780D02*
X95868010Y-120381780D01*
X95772772Y-120524638D01*
X95677534Y-120619876D01*
X95582296Y-120667495D01*
X96487058Y-120381780D02*
X97106105Y-120381780D01*
X96772772Y-120762733D01*
X96915629Y-120762733D01*
X97010867Y-120810352D01*
X97058486Y-120857971D01*
X97106105Y-120953209D01*
X97106105Y-121191304D01*
X97058486Y-121286542D01*
X97010867Y-121334161D01*
X96915629Y-121381780D01*
X96629915Y-121381780D01*
X96534677Y-121334161D01*
X96487058Y-121286542D01*
X114721314Y-118689380D02*
X114721314Y-117689380D01*
X114959409Y-117689380D01*
X115102266Y-117737000D01*
X115197504Y-117832238D01*
X115245123Y-117927476D01*
X115292742Y-118117952D01*
X115292742Y-118260809D01*
X115245123Y-118451285D01*
X115197504Y-118546523D01*
X115102266Y-118641761D01*
X114959409Y-118689380D01*
X114721314Y-118689380D01*
X115673695Y-117784619D02*
X115721314Y-117737000D01*
X115816552Y-117689380D01*
X116054647Y-117689380D01*
X116149885Y-117737000D01*
X116197504Y-117784619D01*
X116245123Y-117879857D01*
X116245123Y-117975095D01*
X116197504Y-118117952D01*
X115626076Y-118689380D01*
X116245123Y-118689380D01*
X117149885Y-117689380D02*
X116673695Y-117689380D01*
X116626076Y-118165571D01*
X116673695Y-118117952D01*
X116768933Y-118070333D01*
X117007028Y-118070333D01*
X117102266Y-118117952D01*
X117149885Y-118165571D01*
X117197504Y-118260809D01*
X117197504Y-118498904D01*
X117149885Y-118594142D01*
X117102266Y-118641761D01*
X117007028Y-118689380D01*
X116768933Y-118689380D01*
X116673695Y-118641761D01*
X116626076Y-118594142D01*
X98554142Y-121159542D02*
X98506523Y-121207161D01*
X98363666Y-121254780D01*
X98268428Y-121254780D01*
X98125571Y-121207161D01*
X98030333Y-121111923D01*
X97982714Y-121016685D01*
X97935095Y-120826209D01*
X97935095Y-120683352D01*
X97982714Y-120492876D01*
X98030333Y-120397638D01*
X98125571Y-120302400D01*
X98268428Y-120254780D01*
X98363666Y-120254780D01*
X98506523Y-120302400D01*
X98554142Y-120350019D01*
X99506523Y-121254780D02*
X98935095Y-121254780D01*
X99220809Y-121254780D02*
X99220809Y-120254780D01*
X99125571Y-120397638D01*
X99030333Y-120492876D01*
X98935095Y-120540495D01*
X99839857Y-120254780D02*
X100458904Y-120254780D01*
X100125571Y-120635733D01*
X100268428Y-120635733D01*
X100363666Y-120683352D01*
X100411285Y-120730971D01*
X100458904Y-120826209D01*
X100458904Y-121064304D01*
X100411285Y-121159542D01*
X100363666Y-121207161D01*
X100268428Y-121254780D01*
X99982714Y-121254780D01*
X99887476Y-121207161D01*
X99839857Y-121159542D01*
X89616380Y-130087666D02*
X89140190Y-130421000D01*
X89616380Y-130659095D02*
X88616380Y-130659095D01*
X88616380Y-130278142D01*
X88664000Y-130182904D01*
X88711619Y-130135285D01*
X88806857Y-130087666D01*
X88949714Y-130087666D01*
X89044952Y-130135285D01*
X89092571Y-130182904D01*
X89140190Y-130278142D01*
X89140190Y-130659095D01*
X88616380Y-129754333D02*
X88616380Y-129135285D01*
X88997333Y-129468619D01*
X88997333Y-129325761D01*
X89044952Y-129230523D01*
X89092571Y-129182904D01*
X89187809Y-129135285D01*
X89425904Y-129135285D01*
X89521142Y-129182904D01*
X89568761Y-129230523D01*
X89616380Y-129325761D01*
X89616380Y-129611476D01*
X89568761Y-129706714D01*
X89521142Y-129754333D01*
X90721447Y-111053571D02*
X90864304Y-111101190D01*
X90911923Y-111148809D01*
X90959542Y-111244047D01*
X90959542Y-111386904D01*
X90911923Y-111482142D01*
X90864304Y-111529761D01*
X90769066Y-111577380D01*
X90388114Y-111577380D01*
X90388114Y-110577380D01*
X90721447Y-110577380D01*
X90816685Y-110625000D01*
X90864304Y-110672619D01*
X90911923Y-110767857D01*
X90911923Y-110863095D01*
X90864304Y-110958333D01*
X90816685Y-111005952D01*
X90721447Y-111053571D01*
X90388114Y-111053571D01*
X91292876Y-110577380D02*
X91959542Y-110577380D01*
X91292876Y-111577380D01*
X91959542Y-111577380D01*
X92864304Y-111577380D02*
X92292876Y-111577380D01*
X92578590Y-111577380D02*
X92578590Y-110577380D01*
X92483352Y-110720238D01*
X92388114Y-110815476D01*
X92292876Y-110863095D01*
D11*
X111395000Y-114477000D02*
G75*
G03*
X112095000Y-115177000I700000J0D01*
G01*
X112095000Y-111077000D02*
G75*
G03*
X111395000Y-111777000I-1J-699999D01*
G01*
X113395000Y-111777000D02*
G75*
G03*
X112695000Y-111077000I-699999J1D01*
G01*
X112695000Y-115177000D02*
G75*
G03*
X113395000Y-114477000I0J700000D01*
G01*
X110895000Y-111627000D02*
X110895000Y-112227000D01*
X111195000Y-111927000D02*
X110895000Y-111627000D01*
X112095000Y-111077000D02*
X112695000Y-111077000D01*
X111195000Y-111927000D02*
X110895000Y-112227000D01*
X113395000Y-111727000D02*
X113395000Y-114527000D01*
X112695000Y-115177000D02*
X112095000Y-115177000D01*
X111395000Y-114527000D02*
X111395000Y-111727000D01*
X95776836Y-134472000D02*
X95561164Y-134472000D01*
X95776836Y-133752000D02*
X95561164Y-133752000D01*
X88671000Y-122887000D02*
X88671000Y-124787000D01*
X87371000Y-124787000D02*
X87371000Y-122887000D01*
X88671000Y-124787000D02*
X87371000Y-124787000D01*
X87371000Y-122887000D02*
X88671000Y-122887000D01*
X102379100Y-113314600D02*
X99694100Y-113314600D01*
X99694100Y-115234600D02*
X102379100Y-115234600D01*
X99694100Y-113314600D02*
X99694100Y-115234600D01*
X110632200Y-124191500D02*
X112552200Y-124191500D01*
X110632200Y-121506500D02*
X110632200Y-124191500D01*
X112552200Y-124191500D02*
X112552200Y-121506500D01*
X108558266Y-116418646D02*
X109900766Y-118743924D01*
X111563534Y-117783924D02*
X110221034Y-115458646D01*
X110221034Y-115458646D02*
X108558266Y-116418646D01*
X106821816Y-117410147D02*
X108164316Y-119735425D01*
X108484584Y-116450147D02*
X106821816Y-117410147D01*
X109827084Y-118775425D02*
X108484584Y-116450147D01*
X108651000Y-121506500D02*
X108651000Y-124191500D01*
X108651000Y-124191500D02*
X110571000Y-124191500D01*
X110571000Y-124191500D02*
X110571000Y-121506500D01*
X99694100Y-111333400D02*
X99694100Y-113253400D01*
X99694100Y-113253400D02*
X102379100Y-113253400D01*
X102379100Y-111333400D02*
X99694100Y-111333400D01*
X108837534Y-127968830D02*
X110180034Y-125643552D01*
X110180034Y-125643552D02*
X108517266Y-124683552D01*
X108517266Y-124683552D02*
X107174766Y-127008830D01*
X106479258Y-127955066D02*
X104153980Y-129297566D01*
X107439258Y-129617834D02*
X106479258Y-127955066D01*
X105113980Y-130960334D02*
X107439258Y-129617834D01*
X92912666Y-126241870D02*
X94255166Y-128567148D01*
X94255166Y-128567148D02*
X95917934Y-127607148D01*
X95917934Y-127607148D02*
X94575434Y-125281870D01*
X110245566Y-125669446D02*
X108903066Y-127994724D01*
X110565834Y-128954724D02*
X111908334Y-126629446D01*
X111908334Y-126629446D02*
X110245566Y-125669446D01*
X82066500Y-133040000D02*
X84751500Y-133040000D01*
X82066500Y-131120000D02*
X82066500Y-133040000D01*
X84751500Y-131120000D02*
X82066500Y-131120000D01*
X84728500Y-126294000D02*
X82043500Y-126294000D01*
X82043500Y-126294000D02*
X82043500Y-128214000D01*
X82043500Y-128214000D02*
X84728500Y-128214000D01*
X92541766Y-129575154D02*
X94204534Y-128615154D01*
X94204534Y-128615154D02*
X92862034Y-126289876D01*
X91199266Y-127249876D02*
X92541766Y-129575154D01*
X117753500Y-120467000D02*
X120438500Y-120467000D01*
X117753500Y-118547000D02*
X117753500Y-120467000D01*
X120438500Y-118547000D02*
X117753500Y-118547000D01*
X117753500Y-123388000D02*
X120438500Y-123388000D01*
X120438500Y-121468000D02*
X117753500Y-121468000D01*
X117753500Y-121468000D02*
X117753500Y-123388000D01*
X92220366Y-116042076D02*
X90877866Y-118367354D01*
X92540634Y-119327354D02*
X93883134Y-117002076D01*
X90877866Y-118367354D02*
X92540634Y-119327354D01*
X117753500Y-124389000D02*
X117753500Y-126309000D01*
X117753500Y-126309000D02*
X120438500Y-126309000D01*
X120438500Y-124389000D02*
X117753500Y-124389000D01*
X120438500Y-127310000D02*
X117753500Y-127310000D01*
X117753500Y-129230000D02*
X120438500Y-129230000D01*
X117753500Y-127310000D02*
X117753500Y-129230000D01*
X114691000Y-131766000D02*
X122371000Y-131766000D01*
X122371000Y-134426000D02*
X122371000Y-131766000D01*
X113421000Y-134426000D02*
X112091000Y-134426000D01*
X114691000Y-134426000D02*
X122371000Y-134426000D01*
X114691000Y-134426000D02*
X114691000Y-131766000D01*
X112091000Y-134426000D02*
X112091000Y-133096000D01*
X97166000Y-118388641D02*
X97166000Y-118081359D01*
X97926000Y-118388641D02*
X97926000Y-118081359D01*
X121413000Y-116864641D02*
X121413000Y-116557359D01*
X122173000Y-116864641D02*
X122173000Y-116557359D01*
X95896076Y-129986834D02*
X98221354Y-131329334D01*
X98221354Y-131329334D02*
X99181354Y-129666566D01*
X99181354Y-129666566D02*
X96856076Y-128324066D01*
X107465152Y-129683366D02*
X105139874Y-131025866D01*
X106099874Y-132688634D02*
X108425152Y-131346134D01*
X108425152Y-131346134D02*
X107465152Y-129683366D01*
X98165354Y-131393766D02*
X95840076Y-130051266D01*
X94880076Y-131714034D02*
X97205354Y-133056534D01*
X97205354Y-133056534D02*
X98165354Y-131393766D01*
X90210600Y-121504100D02*
X90210600Y-124189100D01*
X92130600Y-124189100D02*
X92130600Y-121504100D01*
X90210600Y-124189100D02*
X92130600Y-124189100D01*
X94111800Y-124191500D02*
X94111800Y-121506500D01*
X92191800Y-124191500D02*
X94111800Y-124191500D01*
X92191800Y-121506500D02*
X92191800Y-124191500D01*
X106839925Y-115060816D02*
X104514647Y-113718316D01*
X103554647Y-115381084D02*
X105879925Y-116723584D01*
X104514647Y-113718316D02*
X103554647Y-115381084D01*
X107831924Y-113345166D02*
X105506646Y-112002666D01*
X105506646Y-112002666D02*
X104546646Y-113665434D01*
X104546646Y-113665434D02*
X106871924Y-115007934D01*
X99696500Y-131693800D02*
X102381500Y-131693800D01*
X102381500Y-129773800D02*
X99696500Y-129773800D01*
X99696500Y-129773800D02*
X99696500Y-131693800D01*
X99698700Y-133675000D02*
X102383700Y-133675000D01*
X102383700Y-131755000D02*
X99698700Y-131755000D01*
X99698700Y-131755000D02*
X99698700Y-133675000D01*
X96637526Y-112294366D02*
X94312248Y-113636866D01*
X95272248Y-115299634D02*
X97597526Y-113957134D01*
X94312248Y-113636866D02*
X95272248Y-115299634D01*
X95305752Y-115365266D02*
X96265752Y-117028034D01*
X97631030Y-114022766D02*
X95305752Y-115365266D01*
X96265752Y-117028034D02*
X98591030Y-115685534D01*
X98992000Y-122571000D02*
X98992000Y-122096000D01*
X98992000Y-125841000D02*
X98992000Y-126316000D01*
X103212000Y-125841000D02*
X103212000Y-126316000D01*
X103212000Y-122096000D02*
X102737000Y-122096000D01*
X98992000Y-122096000D02*
X99467000Y-122096000D01*
X103212000Y-126316000D02*
X102737000Y-126316000D01*
X103212000Y-122571000D02*
X103212000Y-122096000D01*
X93823000Y-134642000D02*
X87723000Y-134642000D01*
X87723000Y-134642000D02*
X87723000Y-130942000D01*
X93823000Y-130942000D02*
X93823000Y-134642000D01*
X87723000Y-130942000D02*
X93823000Y-130942000D01*
X84751500Y-128707000D02*
X82066500Y-128707000D01*
X82066500Y-128707000D02*
X82066500Y-130627000D01*
X82066500Y-130627000D02*
X84751500Y-130627000D01*
X92577866Y-119367354D02*
X94240634Y-120327354D01*
X93920366Y-117042076D02*
X92577866Y-119367354D01*
X94240634Y-120327354D02*
X95583134Y-118002076D01*
X117751500Y-117547000D02*
X120436500Y-117547000D01*
X117751500Y-115627000D02*
X117751500Y-117547000D01*
X120436500Y-115627000D02*
X117751500Y-115627000D01*
X97398000Y-123689164D02*
X97398000Y-123904836D01*
X96678000Y-123689164D02*
X96678000Y-123904836D01*
X88274000Y-129769359D02*
X88274000Y-130076641D01*
X87514000Y-129769359D02*
X87514000Y-130076641D01*
X90054000Y-121692400D02*
X86854000Y-121692400D01*
X90054000Y-111992400D02*
X90054000Y-121692400D01*
X82554000Y-121692400D02*
X80354000Y-119492400D01*
X80404000Y-111142400D02*
X81404000Y-111142400D01*
X80354000Y-111992400D02*
X83654000Y-111992400D01*
X90054000Y-111992400D02*
X86754000Y-111992400D01*
X82554000Y-121692400D02*
X83554000Y-121692400D01*
X80354000Y-111992400D02*
X80354000Y-119492400D01*
X80904000Y-110642400D02*
X80904000Y-111642400D01*
%LPC*%
D13*
X112395000Y-114427000D03*
D14*
X112395000Y-113127000D03*
D15*
X112395000Y-111827000D03*
D16*
X96149000Y-134112000D03*
X95189000Y-134112000D03*
D17*
X88021000Y-124587000D03*
D18*
X88021000Y-122687000D03*
D19*
X100441600Y-114274600D03*
X102316600Y-114274600D03*
D20*
X111592200Y-123444000D03*
X111592200Y-121569000D03*
D21*
X109763400Y-116586000D03*
X110700900Y-118209798D03*
X108026950Y-117577501D03*
X108964450Y-119201299D03*
D20*
X109611000Y-123444000D03*
X109611000Y-121569000D03*
D19*
X100441600Y-112293400D03*
X102316600Y-112293400D03*
D22*
X108974900Y-125810906D03*
X108037400Y-127434704D03*
D23*
X106311904Y-129160200D03*
X104688106Y-130097700D03*
D24*
X94712800Y-127439794D03*
X93775300Y-125815996D03*
D22*
X110703200Y-126796800D03*
X109765700Y-128420598D03*
D19*
X82814000Y-132080000D03*
X84689000Y-132080000D03*
X82791000Y-127254000D03*
X84666000Y-127254000D03*
D24*
X92999400Y-128447800D03*
X92061900Y-126824002D03*
D19*
X118501000Y-119507000D03*
X120376000Y-119507000D03*
X118501000Y-122428000D03*
X120376000Y-122428000D03*
D25*
X92083000Y-118200000D03*
X93020500Y-116576202D03*
D19*
X118501000Y-125349000D03*
X120376000Y-125349000D03*
X118501000Y-128270000D03*
X120376000Y-128270000D03*
D26*
X113421000Y-133096000D03*
D27*
X115961000Y-133096000D03*
X118501000Y-133096000D03*
X121041000Y-133096000D03*
D28*
X97546000Y-118745000D03*
X97546000Y-117725000D03*
X121793000Y-116201000D03*
X121793000Y-117221000D03*
D29*
X98054000Y-130124200D03*
X96430202Y-129186700D03*
D23*
X107297798Y-130888500D03*
X105674000Y-131826000D03*
D29*
X97038000Y-131851400D03*
X95414202Y-130913900D03*
D20*
X91170600Y-123441600D03*
X91170600Y-121566600D03*
X93151800Y-123444000D03*
X93151800Y-121569000D03*
D30*
X104682001Y-114923450D03*
X106305799Y-115860950D03*
X105674000Y-113207800D03*
X107297798Y-114145300D03*
D19*
X100444000Y-130733800D03*
X102319000Y-130733800D03*
X100446200Y-132715000D03*
X102321200Y-132715000D03*
D31*
X95439602Y-114094500D03*
X97063400Y-113157000D03*
X96433106Y-115822900D03*
X98056904Y-114885400D03*
D32*
X99852000Y-126193500D03*
X100352000Y-126193500D03*
X100852000Y-126193500D03*
X101352000Y-126193500D03*
X101852000Y-126193500D03*
X102352000Y-126193500D03*
D33*
X103089500Y-125456000D03*
X103089500Y-124956000D03*
X103089500Y-124456000D03*
X103089500Y-123956000D03*
X103089500Y-123456000D03*
X103089500Y-122956000D03*
D32*
X102352000Y-122218500D03*
X101852000Y-122218500D03*
X101352000Y-122218500D03*
X100852000Y-122218500D03*
X100352000Y-122218500D03*
X99852000Y-122218500D03*
D33*
X99114500Y-122956000D03*
X99114500Y-123456000D03*
X99114500Y-123956000D03*
X99114500Y-124456000D03*
X99114500Y-124956000D03*
X99114500Y-125456000D03*
D34*
X101102000Y-124206000D03*
D35*
X94498000Y-132842000D03*
X86923000Y-132842000D03*
D19*
X82814000Y-129667000D03*
X84689000Y-129667000D03*
D25*
X93783000Y-119200000D03*
X94720500Y-117576202D03*
D19*
X118499000Y-116587000D03*
X120374000Y-116587000D03*
D36*
X97038000Y-123317000D03*
X97038000Y-124277000D03*
D37*
X87894000Y-129413000D03*
X87894000Y-130433000D03*
D38*
X85204000Y-111642400D03*
X85204000Y-122042400D03*
M02*
