%TF.GenerationSoftware,KiCad,Pcbnew,6.0.5-a6ca702e91~116~ubuntu21.10.1*%
%TF.CreationDate,2022-05-21T13:53:59+10:00*%
%TF.ProjectId,FlarmDisplay,466c6172-6d44-4697-9370-6c61792e6b69,rev?*%
%TF.SameCoordinates,Original*%
%TF.FileFunction,Soldermask,Top*%
%TF.FilePolarity,Negative*%
%FSLAX46Y46*%
G04 Gerber Fmt 4.6, Leading zero omitted, Abs format (unit mm)*
G04 Created by KiCad (PCBNEW 6.0.5-a6ca702e91~116~ubuntu21.10.1) date 2022-05-21 13:53:59*
%MOMM*%
%LPD*%
G01*
G04 APERTURE LIST*
G04 Aperture macros list*
%AMRoundRect*
0 Rectangle with rounded corners*
0 $1 Rounding radius*
0 $2 $3 $4 $5 $6 $7 $8 $9 X,Y pos of 4 corners*
0 Add a 4 corners polygon primitive as box body*
4,1,4,$2,$3,$4,$5,$6,$7,$8,$9,$2,$3,0*
0 Add four circle primitives for the rounded corners*
1,1,$1+$1,$2,$3*
1,1,$1+$1,$4,$5*
1,1,$1+$1,$6,$7*
1,1,$1+$1,$8,$9*
0 Add four rect primitives between the rounded corners*
20,1,$1+$1,$2,$3,$4,$5,0*
20,1,$1+$1,$4,$5,$6,$7,0*
20,1,$1+$1,$6,$7,$8,$9,0*
20,1,$1+$1,$8,$9,$2,$3,0*%
G04 Aperture macros list end*
%ADD10RoundRect,0.140000X0.140000X0.170000X-0.140000X0.170000X-0.140000X-0.170000X0.140000X-0.170000X0*%
%ADD11R,1.100000X2.000000*%
%ADD12R,0.800000X0.800000*%
%ADD13RoundRect,0.243750X-0.243750X-0.456250X0.243750X-0.456250X0.243750X0.456250X-0.243750X0.456250X0*%
%ADD14RoundRect,0.243750X0.456250X-0.243750X0.456250X0.243750X-0.456250X0.243750X-0.456250X-0.243750X0*%
%ADD15RoundRect,0.243750X-0.516999X-0.017031X-0.273249X-0.439219X0.516999X0.017031X0.273249X0.439219X0*%
%ADD16RoundRect,0.243750X-0.273249X0.439219X-0.516999X0.017031X0.273249X-0.439219X0.516999X-0.017031X0*%
%ADD17RoundRect,0.243750X-0.017031X0.516999X-0.439219X0.273249X0.017031X-0.516999X0.439219X-0.273249X0*%
%ADD18RoundRect,0.243750X0.516999X0.017031X0.273249X0.439219X-0.516999X-0.017031X-0.273249X-0.439219X0*%
%ADD19RoundRect,0.243750X0.273249X-0.439219X0.516999X-0.017031X-0.273249X0.439219X-0.516999X0.017031X0*%
%ADD20R,1.700000X1.700000*%
%ADD21O,1.700000X1.700000*%
%ADD22RoundRect,0.135000X0.185000X-0.135000X0.185000X0.135000X-0.185000X0.135000X-0.185000X-0.135000X0*%
%ADD23RoundRect,0.243750X0.439219X0.273249X0.017031X0.516999X-0.439219X-0.273249X-0.017031X-0.516999X0*%
%ADD24RoundRect,0.243750X-0.439219X-0.273249X-0.017031X-0.516999X0.439219X0.273249X0.017031X0.516999X0*%
%ADD25RoundRect,0.243750X0.017031X-0.516999X0.439219X-0.273249X-0.017031X0.516999X-0.439219X0.273249X0*%
%ADD26RoundRect,0.062500X0.062500X-0.325000X0.062500X0.325000X-0.062500X0.325000X-0.062500X-0.325000X0*%
%ADD27RoundRect,0.062500X0.325000X-0.062500X0.325000X0.062500X-0.325000X0.062500X-0.325000X-0.062500X0*%
%ADD28R,2.450000X2.450000*%
%ADD29R,1.450000X1.000000*%
%ADD30R,1.300000X1.300000*%
%ADD31R,1.300000X2.000000*%
%ADD32RoundRect,0.140000X-0.170000X0.140000X-0.170000X-0.140000X0.170000X-0.140000X0.170000X0.140000X0*%
%ADD33RoundRect,0.135000X-0.185000X0.135000X-0.185000X-0.135000X0.185000X-0.135000X0.185000X0.135000X0*%
%ADD34R,2.200000X2.000000*%
G04 APERTURE END LIST*
D10*
X96149000Y-134112000D03*
X95189000Y-134112000D03*
D11*
X88021000Y-124587000D03*
D12*
X88021000Y-122687000D03*
D13*
X100441600Y-114274600D03*
X102316600Y-114274600D03*
D14*
X111592200Y-123444000D03*
X111592200Y-121569000D03*
D15*
X109763400Y-116586000D03*
X110700900Y-118209798D03*
X108026950Y-117577501D03*
X108964450Y-119201299D03*
D14*
X109611000Y-123444000D03*
X109611000Y-121569000D03*
D13*
X100441600Y-112293400D03*
X102316600Y-112293400D03*
D16*
X108974900Y-125810906D03*
X108037400Y-127434704D03*
D17*
X106311904Y-129160200D03*
X104688106Y-130097700D03*
D18*
X94712800Y-127439794D03*
X93775300Y-125815996D03*
D16*
X110703200Y-126796800D03*
X109765700Y-128420598D03*
D13*
X82814000Y-132080000D03*
X84689000Y-132080000D03*
X82791000Y-127254000D03*
X84666000Y-127254000D03*
D18*
X92999400Y-128447800D03*
X92061900Y-126824002D03*
D13*
X118501000Y-119507000D03*
X120376000Y-119507000D03*
X118501000Y-122428000D03*
X120376000Y-122428000D03*
D19*
X92083000Y-118200000D03*
X93020500Y-116576202D03*
D13*
X118501000Y-125349000D03*
X120376000Y-125349000D03*
X118501000Y-128270000D03*
X120376000Y-128270000D03*
D20*
X113421000Y-133096000D03*
D21*
X115961000Y-133096000D03*
X118501000Y-133096000D03*
X121041000Y-133096000D03*
D22*
X97546000Y-118745000D03*
X97546000Y-117725000D03*
X120533000Y-113796000D03*
X120533000Y-112776000D03*
D23*
X98054000Y-130124200D03*
X96430202Y-129186700D03*
D17*
X107297798Y-130888500D03*
X105674000Y-131826000D03*
D23*
X97038000Y-131851400D03*
X95414202Y-130913900D03*
D14*
X91170600Y-123441600D03*
X91170600Y-121566600D03*
X93151800Y-123444000D03*
X93151800Y-121569000D03*
D24*
X104682001Y-114923450D03*
X106305799Y-115860950D03*
X105674000Y-113207800D03*
X107297798Y-114145300D03*
D13*
X100444000Y-130733800D03*
X102319000Y-130733800D03*
X100446200Y-132715000D03*
X102321200Y-132715000D03*
D25*
X95439602Y-114094500D03*
X97063400Y-113157000D03*
X96433106Y-115822900D03*
X98056904Y-114885400D03*
D26*
X99852000Y-126193500D03*
X100352000Y-126193500D03*
X100852000Y-126193500D03*
X101352000Y-126193500D03*
X101852000Y-126193500D03*
X102352000Y-126193500D03*
D27*
X103089500Y-125456000D03*
X103089500Y-124956000D03*
X103089500Y-124456000D03*
X103089500Y-123956000D03*
X103089500Y-123456000D03*
X103089500Y-122956000D03*
D26*
X102352000Y-122218500D03*
X101852000Y-122218500D03*
X101352000Y-122218500D03*
X100852000Y-122218500D03*
X100352000Y-122218500D03*
X99852000Y-122218500D03*
D27*
X99114500Y-122956000D03*
X99114500Y-123456000D03*
X99114500Y-123956000D03*
X99114500Y-124456000D03*
X99114500Y-124956000D03*
X99114500Y-125456000D03*
D28*
X101102000Y-124206000D03*
D29*
X94498000Y-132842000D03*
X86923000Y-132842000D03*
D13*
X82814000Y-129667000D03*
X84689000Y-129667000D03*
D19*
X93783000Y-119200000D03*
X94720500Y-117576202D03*
D13*
X118499000Y-116587000D03*
X120374000Y-116587000D03*
D30*
X112295000Y-112211000D03*
D31*
X117745000Y-113311000D03*
D30*
X112295000Y-114461000D03*
D32*
X97038000Y-123317000D03*
X97038000Y-124277000D03*
D33*
X87894000Y-129413000D03*
X87894000Y-130433000D03*
D34*
X85204000Y-111642400D03*
X85204000Y-122042400D03*
M02*
